<?xml version="1.0" encoding="UTF-8" standalone="no"?>
<!DOCTYPE svg PUBLIC "-//W3C//DTD SVG 1.1//EN"
"http://www.w3.org/Graphics/SVG/1.1/DTD/svg11.dtd">
<svg viewBox="0 0 935 1210" version="1.1" xmlns="http://www.w3.org/2000/svg" xmlns:xlink="http://www.w3.org/1999/xlink">
<defs>
<clipPath id="c0_2"><path d="M27.5,1191.7L27.5,18.3l880,0l0,1173.4Z" /></clipPath>
<clipPath id="c1_2"><path d="M591.6,1061.9l0,-20.2l275.4,0l0,20.2Z" /></clipPath>
<clipPath id="c2_2"><path d="M217.1,203.1l0,-28.6l651.6,0l0,28.6Z" /></clipPath>
<clipPath id="c3_2"><path d="M591.3,541l0,-269.9l241.2,0l0,269.9Z" /></clipPath>
<style type="text/css"><![CDATA[
.g1_2{
fill: #FFFFFF;
}
.g2_2{
fill: none;
stroke: #4F81BD;
stroke-width: 3.8194444;
stroke-linecap: butt;
stroke-linejoin: round;
}
.g3_2{
fill: #FFFFCC;
}
]]></style>
</defs>
<g clip-path="url(#c0_2)">
<g fill="#000000" >
<use xlink:href="#f0_7" transform="matrix(10.8,0,0,10.8,899,70.8)" />
<use xlink:href="#f0_6" transform="matrix(10.8,0,0,10.8,110,1129.7)" />
<use xlink:href="#f0_7" transform="matrix(10.8,0,0,10.8,463.2,1129.7)" />
<use xlink:href="#f0_7" transform="matrix(10.8,0,0,10.8,905.9,1129.7)" />
</g>
</g>
<image preserveAspectRatio="none" x="0" y="4" width="946" height="228" xlink:href="img/1.png" />
<image preserveAspectRatio="none" x="74" y="245" width="774" height="779" xlink:href="img/2.png" />
<path fill-rule="evenodd" d="M591.3,1035.8l276.6,0l0,32.2l-276.6,0Z" class="g1_2" />
<image preserveAspectRatio="none" x="592" y="1042" width="275" height="20" xlink:href="img/3.png" />
<g clip-path="url(#c1_2)">
<g fill="#595959" >
<use xlink:href="#f1_a" transform="matrix(9.8,0,0,9.8,602.6,1056)" />
<use xlink:href="#f1_w" transform="matrix(9.8,0,0,9.8,611.8,1056)" />
<use xlink:href="#f1_1n" transform="matrix(9.8,0,0,9.8,616.2,1056)" />
<use xlink:href="#f1_1t" transform="matrix(9.8,0,0,9.8,624.6,1056)" />
<use xlink:href="#f1_1e" transform="matrix(9.8,0,0,9.8,628.7,1056)" />
<use xlink:href="#f1_1r" transform="matrix(9.8,0,0,9.8,637.1,1056)" />
<use xlink:href="#f1_1n" transform="matrix(9.8,0,0,9.8,642.2,1056)" />
<use xlink:href="#f1_1e" transform="matrix(9.8,0,0,9.8,650.6,1056)" />
<use xlink:href="#f1_1t" transform="matrix(9.8,0,0,9.8,659.1,1056)" />
<use xlink:href="#f1_17" transform="matrix(9.8,0,0,9.8,667.9,1056)" />
<use xlink:href="#f1_1o" transform="matrix(9.8,0,0,9.8,682.2,1056)" />
<use xlink:href="#f1_1r" transform="matrix(9.8,0,0,9.8,690.6,1056)" />
<use xlink:href="#f1_1l" transform="matrix(9.8,0,0,9.8,695.7,1056)" />
<use xlink:href="#f1_1d" transform="matrix(9.8,0,0,9.8,699,1056)" />
<use xlink:href="#f1_13" transform="matrix(9.8,0,0,9.8,711.9,1056)" />
<use xlink:href="#f1_1t" transform="matrix(9.8,0,0,9.8,721.8,1056)" />
<use xlink:href="#f1_1a" transform="matrix(9.8,0,0,9.8,726.2,1056)" />
<use xlink:href="#f1_1t" transform="matrix(9.8,0,0,9.8,734.6,1056)" />
<use xlink:href="#f1_1s" transform="matrix(9.8,0,0,9.8,738.6,1056)" />
<use xlink:href="#f1_9" transform="matrix(9.8,0,0,9.8,746.3,1056)" />
<use xlink:href="#f1_11" transform="matrix(9.8,0,0,9.8,754.8,1056)" />
<use xlink:href="#f1_s" transform="matrix(9.8,0,0,9.8,765,1056)" />
<use xlink:href="#f1_17" transform="matrix(9.8,0,0,9.8,775.3,1056)" />
<use xlink:href="#f1_w" transform="matrix(9.8,0,0,9.8,794,1056)" />
<use xlink:href="#f1_1n" transform="matrix(9.8,0,0,9.8,798,1056)" />
<use xlink:href="#f1_1t" transform="matrix(9.8,0,0,9.8,806.5,1056)" />
<use xlink:href="#f1_1e" transform="matrix(9.8,0,0,9.8,810.9,1056)" />
<use xlink:href="#f1_1r" transform="matrix(9.8,0,0,9.8,819.3,1056)" />
<use xlink:href="#f1_1n" transform="matrix(9.8,0,0,9.8,824.4,1056)" />
<use xlink:href="#f1_1e" transform="matrix(9.8,0,0,9.8,832.9,1056)" />
<use xlink:href="#f1_1t" transform="matrix(9.8,0,0,9.8,841.3,1056)" />
</g>
</g>
<path fill-rule="evenodd" d="M55.6,1100.9c0,-8.1,6.6,-14.7,14.7,-14.7l808,0c8.1,0,14.7,6.6,14.7,14.7l0,58.8c0,8.1,-6.6,14.7,-14.7,14.7l-808,0c-8.1,0,-14.7,-6.6,-14.7,-14.7Z" class="g1_2" />
<path d="M55.6,1100.9c0,-8.1,6.6,-14.7,14.7,-14.7l808,0c8.1,0,14.7,6.6,14.7,14.7l0,58.8c0,8.1,-6.6,14.7,-14.7,14.7l-808,0c-8.1,0,-14.7,-6.6,-14.7,-14.7Z" class="g2_2" />
<image preserveAspectRatio="none" x="62" y="1098" width="825" height="65" xlink:href="img/4.png" />
<path fill-rule="evenodd" d="M216.4,168.6l652.9,0l0,40.8l-652.9,0Z" class="g1_2" />
<image preserveAspectRatio="none" x="217" y="174" width="652" height="29" xlink:href="img/5.png" />
<g clip-path="url(#c2_2)">
<g fill="#E36C0A" >
<use xlink:href="#f2_b" transform="matrix(13.9,0,0,13.9,228.1,195)" />
<use xlink:href="#f2_w" transform="matrix(13.9,0,0,13.9,234,195)" />
<use xlink:href="#f2_z" transform="matrix(13.9,0,0,13.9,253.1,195)" />
<use xlink:href="#f2_10" transform="matrix(13.9,0,0,13.9,266.3,195)" />
<use xlink:href="#f2_y" transform="matrix(13.9,0,0,13.9,274.3,195)" />
<use xlink:href="#f2_14" transform="matrix(13.9,0,0,13.9,287.6,195)" />
<use xlink:href="#f2_p" transform="matrix(13.9,0,0,13.9,299.3,195)" />
<use xlink:href="#f2_14" transform="matrix(13.9,0,0,13.9,317.3,195)" />
<use xlink:href="#f2_t" transform="matrix(13.9,0,0,13.9,329.4,195)" />
<use xlink:href="#f2_11" transform="matrix(13.9,0,0,13.9,335.2,195)" />
<use xlink:href="#f2_t" transform="matrix(13.9,0,0,13.9,347,195)" />
<use xlink:href="#f2_m" transform="matrix(13.9,0,0,13.9,352.8,195)" />
<use xlink:href="#f2_t" transform="matrix(13.9,0,0,13.9,366,195)" />
<use xlink:href="#f2_v" transform="matrix(13.9,0,0,13.9,371.9,195)" />
<use xlink:href="#f2_t" transform="matrix(13.9,0,0,13.9,377.8,195)" />
<use xlink:href="#f2_12" transform="matrix(13.9,0,0,13.9,384,195)" />
<use xlink:href="#f2_17" transform="matrix(13.9,0,0,13.9,391,195)" />
<use xlink:href="#f2_3" transform="matrix(13.9,0,0,13.9,408.9,195)" />
<use xlink:href="#f2_10" transform="matrix(13.9,0,0,13.9,430.2,195)" />
<use xlink:href="#f2_l" transform="matrix(13.9,0,0,13.9,438.6,195)" />
<use xlink:href="#f2_x" transform="matrix(13.9,0,0,13.9,450.4,195)" />
<use xlink:href="#f2_u" transform="matrix(13.9,0,0,13.9,463.6,195)" />
<use xlink:href="#f2_t" transform="matrix(13.9,0,0,13.9,475.3,195)" />
<use xlink:href="#f2_x" transform="matrix(13.9,0,0,13.9,481.5,195)" />
<use xlink:href="#f2_r" transform="matrix(13.9,0,0,13.9,494.4,195)" />
<use xlink:href="#f2_11" transform="matrix(13.9,0,0,13.9,507.6,195)" />
<use xlink:href="#f2_4" transform="matrix(13.9,0,0,13.9,519.3,195)" />
<use xlink:href="#f2_t" transform="matrix(13.9,0,0,13.9,531.4,195)" />
<use xlink:href="#f2_x" transform="matrix(13.9,0,0,13.9,537.3,195)" />
<use xlink:href="#f2_n" transform="matrix(13.9,0,0,13.9,550.1,195)" />
<use xlink:href="#f2_10" transform="matrix(13.9,0,0,13.9,562.2,195)" />
<use xlink:href="#f2_p" transform="matrix(13.9,0,0,13.9,570.6,195)" />
<use xlink:href="#f2_l" transform="matrix(13.9,0,0,13.9,582.4,195)" />
<use xlink:href="#f2_11" transform="matrix(13.9,0,0,13.9,594.5,195)" />
<use xlink:href="#f2_p" transform="matrix(13.9,0,0,13.9,606.2,195)" />
<use xlink:href="#f2_12" transform="matrix(13.9,0,0,13.9,624.2,195)" />
<use xlink:href="#f2_10" transform="matrix(13.9,0,0,13.9,631.1,195)" />
<use xlink:href="#f2_l" transform="matrix(13.9,0,0,13.9,639.6,195)" />
<use xlink:href="#f2_q" transform="matrix(13.9,0,0,13.9,651.3,195)" />
<use xlink:href="#f2_q" transform="matrix(13.9,0,0,13.9,658.7,195)" />
<use xlink:href="#f2_t" transform="matrix(13.9,0,0,13.9,665.6,195)" />
<use xlink:href="#f2_n" transform="matrix(13.9,0,0,13.9,671.5,195)" />
<use xlink:href="#f2_4" transform="matrix(13.9,0,0,13.9,683.6,195)" />
<use xlink:href="#f2_v" transform="matrix(13.9,0,0,13.9,695.3,195)" />
<use xlink:href="#f2_p" transform="matrix(13.9,0,0,13.9,701.2,195)" />
<use xlink:href="#f2_l" transform="matrix(13.9,0,0,13.9,713.3,195)" />
<use xlink:href="#f2_o" transform="matrix(13.9,0,0,13.9,725,195)" />
<use xlink:href="#f2_11" transform="matrix(13.9,0,0,13.9,738.2,195)" />
<use xlink:href="#f2_3" transform="matrix(13.9,0,0,13.9,755.8,195)" />
<use xlink:href="#f2_11" transform="matrix(13.9,0,0,13.9,777.5,195)" />
<use xlink:href="#f2_l" transform="matrix(13.9,0,0,13.9,789.2,195)" />
<use xlink:href="#f2_v" transform="matrix(13.9,0,0,13.9,801.3,195)" />
<use xlink:href="#f2_p" transform="matrix(13.9,0,0,13.9,807.2,195)" />
<use xlink:href="#f2_11" transform="matrix(13.9,0,0,13.9,818.9,195)" />
</g>
</g>
<path fill-rule="evenodd" d="M589.8,264.2l244.5,0l0,284l-244.5,0Z" class="g3_2" />
<image preserveAspectRatio="none" x="591" y="271" width="242" height="270" xlink:href="img/6.png" />
<g clip-path="url(#c3_2)">
<g fill="#4B65E7" >
<use xlink:href="#f1_14" transform="matrix(12,0,0,12,602.3,289.1)" />
<use xlink:href="#f1_1h" transform="matrix(12,0,0,12,613.6,289.1)" />
<use xlink:href="#f1_1e" transform="matrix(12,0,0,12,623.5,289.1)" />
<use xlink:href="#f1_w" transform="matrix(12,0,0,12,638.9,289.1)" />
<use xlink:href="#f1_1n" transform="matrix(12,0,0,12,644.1,289.1)" />
<use xlink:href="#f1_1t" transform="matrix(12,0,0,12,654.3,289.1)" />
<use xlink:href="#f1_1e" transform="matrix(12,0,0,12,659.1,289.1)" />
<use xlink:href="#f1_1r" transform="matrix(12,0,0,12,669.4,289.1)" />
<use xlink:href="#f1_1n" transform="matrix(12,0,0,12,675.6,289.1)" />
<use xlink:href="#f1_1e" transform="matrix(12,0,0,12,685.9,289.1)" />
<use xlink:href="#f1_1t" transform="matrix(12,0,0,12,695.8,289.1)" />
<use xlink:href="#f1_1h" transform="matrix(12,0,0,12,706,289.1)" />
<use xlink:href="#f1_1a" transform="matrix(12,0,0,12,716.3,289.1)" />
<use xlink:href="#f1_1s" transform="matrix(12,0,0,12,726.6,289.1)" />
<use xlink:href="#f1_1g" transform="matrix(12,0,0,12,740.9,289.1)" />
<use xlink:href="#f1_1r" transform="matrix(12,0,0,12,750.8,289.1)" />
<use xlink:href="#f1_1o" transform="matrix(12,0,0,12,757,289.1)" />
<use xlink:href="#f1_1w" transform="matrix(12,0,0,12,767.3,289.1)" />
<use xlink:href="#f1_1n" transform="matrix(12,0,0,12,780.5,289.1)" />
</g>
</g>
<g clip-path="url(#c0_2)">
<g fill="#4B65E7" >
<use xlink:href="#f1_1s" transform="matrix(12,0,0,12,602.3,311.1)" />
<use xlink:href="#f1_1i" transform="matrix(12,0,0,12,611.4,311.1)" />
<use xlink:href="#f1_1g" transform="matrix(12,0,0,12,615.5,311.1)" />
<use xlink:href="#f1_1n" transform="matrix(12,0,0,12,625.7,311.1)" />
<use xlink:href="#f1_1i" transform="matrix(12,0,0,12,636,311.1)" />
<use xlink:href="#f1_1f" transform="matrix(12,0,0,12,640,311.1)" />
<use xlink:href="#f1_1i" transform="matrix(12,0,0,12,645.2,311.1)" />
<use xlink:href="#f1_1c" transform="matrix(12,0,0,12,649.2,311.1)" />
<use xlink:href="#f1_1a" transform="matrix(12,0,0,12,658.4,311.1)" />
<use xlink:href="#f1_1n" transform="matrix(12,0,0,12,668.6,311.1)" />
<use xlink:href="#f1_1t" transform="matrix(12,0,0,12,678.9,311.1)" />
<use xlink:href="#f1_1l" transform="matrix(12,0,0,12,684,311.1)" />
<use xlink:href="#f1_1y" transform="matrix(12,0,0,12,688.1,311.1)" />
<use xlink:href="#f1_1o" transform="matrix(12,0,0,12,702.4,311.1)" />
<use xlink:href="#f1_1v" transform="matrix(12,0,0,12,712.3,311.1)" />
<use xlink:href="#f1_1e" transform="matrix(12,0,0,12,721.4,311.1)" />
<use xlink:href="#f1_1r" transform="matrix(12,0,0,12,731.7,311.1)" />
<use xlink:href="#f1_1t" transform="matrix(12,0,0,12,742.7,311.1)" />
<use xlink:href="#f1_1h" transform="matrix(12,0,0,12,747.8,311.1)" />
<use xlink:href="#f1_1e" transform="matrix(12,0,0,12,758.1,311.1)" />
<use xlink:href="#f1_1l" transform="matrix(12,0,0,12,773.5,311.1)" />
<use xlink:href="#f1_1a" transform="matrix(12,0,0,12,777.5,311.1)" />
<use xlink:href="#f1_1s" transform="matrix(12,0,0,12,787.4,311.1)" />
<use xlink:href="#f1_1t" transform="matrix(12,0,0,12,797,311.1)" />
<use xlink:href="#f1_e" transform="matrix(12,0,0,12,602.3,333.1)" />
<use xlink:href="#f1_f" transform="matrix(12,0,0,12,612.5,333.1)" />
<use xlink:href="#f1_1y" transform="matrix(12,0,0,12,627.9,333.1)" />
<use xlink:href="#f1_1e" transform="matrix(12,0,0,12,637.1,333.1)" />
<use xlink:href="#f1_1a" transform="matrix(12,0,0,12,647,333.1)" />
<use xlink:href="#f1_1r" transform="matrix(12,0,0,12,657.3,333.1)" />
<use xlink:href="#f1_1s" transform="matrix(12,0,0,12,663.5,333.1)" />
<use xlink:href="#f1_b" transform="matrix(12,0,0,12,672.7,333.1)" />
<use xlink:href="#f1_j" transform="matrix(12,0,0,12,682.9,333.1)" />
<use xlink:href="#f1_e" transform="matrix(12,0,0,12,692.8,333.1)" />
<use xlink:href="#f1_4" transform="matrix(12,0,0,12,703.1,333.1)" />
<use xlink:href="#f1_1u" transform="matrix(12,0,0,12,724.7,333.1)" />
<use xlink:href="#f1_1s" transform="matrix(12,0,0,12,734.6,333.1)" />
<use xlink:href="#f1_1e" transform="matrix(12,0,0,12,743.8,333.1)" />
<use xlink:href="#f1_1s" transform="matrix(12,0,0,12,759.2,333.1)" />
<use xlink:href="#f1_1e" transform="matrix(12,0,0,12,768.4,333.1)" />
<use xlink:href="#f1_1a" transform="matrix(12,0,0,12,778.6,333.1)" />
<use xlink:href="#f1_1r" transform="matrix(12,0,0,12,788.9,333.1)" />
<use xlink:href="#f1_1c" transform="matrix(12,0,0,12,794.8,333.1)" />
<use xlink:href="#f1_1h" transform="matrix(12,0,0,12,803.9,333.1)" />
<use xlink:href="#f1_1e" transform="matrix(12,0,0,12,602.3,355.1)" />
<use xlink:href="#f1_1n" transform="matrix(12,0,0,12,612.5,355.1)" />
<use xlink:href="#f1_1g" transform="matrix(12,0,0,12,622.4,355.1)" />
<use xlink:href="#f1_1i" transform="matrix(12,0,0,12,632.7,355.1)" />
<use xlink:href="#f1_1n" transform="matrix(12,0,0,12,636.7,355.1)" />
<use xlink:href="#f1_1e" transform="matrix(12,0,0,12,647,355.1)" />
<use xlink:href="#f1_1s" transform="matrix(12,0,0,12,657.3,355.1)" />
<use xlink:href="#f1_1f" transform="matrix(12,0,0,12,671.6,355.1)" />
<use xlink:href="#f1_1r" transform="matrix(12,0,0,12,676.7,355.1)" />
<use xlink:href="#f1_1e" transform="matrix(12,0,0,12,682.6,355.1)" />
<use xlink:href="#f1_1q" transform="matrix(12,0,0,12,692.8,355.1)" />
<use xlink:href="#f1_1u" transform="matrix(12,0,0,12,703.1,355.1)" />
<use xlink:href="#f1_1e" transform="matrix(12,0,0,12,713,355.1)" />
<use xlink:href="#f1_1n" transform="matrix(12,0,0,12,723.3,355.1)" />
<use xlink:href="#f1_1t" transform="matrix(12,0,0,12,733.5,355.1)" />
<use xlink:href="#f1_1l" transform="matrix(12,0,0,12,738.7,355.1)" />
<use xlink:href="#f1_1y" transform="matrix(12,0,0,12,742.7,355.1)" />
<use xlink:href="#f1_9" transform="matrix(12,0,0,12,751.9,355.1)" />
<use xlink:href="#f1_1w" transform="matrix(12,0,0,12,762.1,355.1)" />
<use xlink:href="#f1_1i" transform="matrix(12,0,0,12,775.3,355.1)" />
<use xlink:href="#f1_1t" transform="matrix(12,0,0,12,779.4,355.1)" />
<use xlink:href="#f1_1h" transform="matrix(12,0,0,12,784.5,355.1)" />
<use xlink:href="#f1_u" transform="matrix(12,0,0,12,602.3,377.1)" />
<use xlink:href="#f1_1o" transform="matrix(12,0,0,12,616.2,377.1)" />
<use xlink:href="#f1_1o" transform="matrix(12,0,0,12,626.5,377.1)" />
<use xlink:href="#f1_1g" transform="matrix(12,0,0,12,636.7,377.1)" />
<use xlink:href="#f1_1l" transform="matrix(12,0,0,12,646.6,377.1)" />
<use xlink:href="#f1_1e" transform="matrix(12,0,0,12,651,377.1)" />
<use xlink:href="#f1_1h" transform="matrix(12,0,0,12,666.1,377.1)" />
<use xlink:href="#f1_1a" transform="matrix(12,0,0,12,676.3,377.1)" />
<use xlink:href="#f1_1v" transform="matrix(12,0,0,12,686.6,377.1)" />
<use xlink:href="#f1_1i" transform="matrix(12,0,0,12,695.8,377.1)" />
<use xlink:href="#f1_1n" transform="matrix(12,0,0,12,699.8,377.1)" />
<use xlink:href="#f1_1g" transform="matrix(12,0,0,12,710.1,377.1)" />
<use xlink:href="#f1_1t" transform="matrix(12,0,0,12,725.1,377.1)" />
<use xlink:href="#f1_1h" transform="matrix(12,0,0,12,730.2,377.1)" />
<use xlink:href="#f1_1e" transform="matrix(12,0,0,12,740.5,377.1)" />
<use xlink:href="#f1_1l" transform="matrix(12,0,0,12,755.5,377.1)" />
<use xlink:href="#f1_1a" transform="matrix(12,0,0,12,759.6,377.1)" />
<use xlink:href="#f1_1r" transform="matrix(12,0,0,12,769.8,377.1)" />
<use xlink:href="#f1_1g" transform="matrix(12,0,0,12,776.1,377.1)" />
<use xlink:href="#f1_1e" transform="matrix(12,0,0,12,786.3,377.1)" />
<use xlink:href="#f1_1s" transform="matrix(12,0,0,12,796.2,377.1)" />
<use xlink:href="#f1_1t" transform="matrix(12,0,0,12,805.4,377.1)" />
<use xlink:href="#f1_1m" transform="matrix(12,0,0,12,602.3,399.1)" />
<use xlink:href="#f1_1a" transform="matrix(12,0,0,12,617.7,399.1)" />
<use xlink:href="#f1_1r" transform="matrix(12,0,0,12,627.6,399.1)" />
<use xlink:href="#f1_1k" transform="matrix(12,0,0,12,633.8,399.1)" />
<use xlink:href="#f1_1e" transform="matrix(12,0,0,12,643,399.1)" />
<use xlink:href="#f1_1t" transform="matrix(12,0,0,12,653.2,399.1)" />
<use xlink:href="#f1_1s" transform="matrix(12,0,0,12,663.5,399.1)" />
<use xlink:href="#f1_1h" transform="matrix(12,0,0,12,672.7,399.1)" />
<use xlink:href="#f1_1a" transform="matrix(12,0,0,12,682.9,399.1)" />
<use xlink:href="#f1_1r" transform="matrix(12,0,0,12,692.8,399.1)" />
<use xlink:href="#f1_1e" transform="matrix(12,0,0,12,699.1,399.1)" />
<use xlink:href="#f1_1a" transform="matrix(12,0,0,12,714.5,399.1)" />
<use xlink:href="#f1_1t" transform="matrix(12,0,0,12,724.4,399.1)" />
<use xlink:href="#f1_g" transform="matrix(12,0,0,12,734.6,399.1)" />
<use xlink:href="#f1_g" transform="matrix(12,0,0,12,744.9,399.1)" />
<use xlink:href="#f1_b" transform="matrix(12,0,0,12,755.2,399.1)" />
<use xlink:href="#f1_i" transform="matrix(12,0,0,12,760.3,399.1)" />
<use xlink:href="#f1_d" transform="matrix(12,0,0,12,770.2,399.1)" />
<use xlink:href="#f1_4" transform="matrix(12,0,0,12,780.5,399.1)" />
<use xlink:href="#f1_b" transform="matrix(12,0,0,12,797,399.1)" />
<use xlink:href="#f1_13" transform="matrix(12,0,0,12,602.3,443.1)" />
<use xlink:href="#f1_1i" transform="matrix(12,0,0,12,614.4,443.1)" />
<use xlink:href="#f1_1n" transform="matrix(12,0,0,12,618.4,443.1)" />
<use xlink:href="#f1_1c" transform="matrix(12,0,0,12,628.7,443.1)" />
<use xlink:href="#f1_1e" transform="matrix(12,0,0,12,637.8,443.1)" />
<use xlink:href="#f1_1p" transform="matrix(12,0,0,12,652.9,443.1)" />
<use xlink:href="#f1_1e" transform="matrix(12,0,0,12,663.1,443.1)" />
<use xlink:href="#f1_1o" transform="matrix(12,0,0,12,673.4,443.1)" />
<use xlink:href="#f1_1p" transform="matrix(12,0,0,12,683.3,443.1)" />
<use xlink:href="#f1_1l" transform="matrix(12,0,0,12,693.6,443.1)" />
<use xlink:href="#f1_1e" transform="matrix(12,0,0,12,697.6,443.1)" />
<use xlink:href="#f1_1a" transform="matrix(12,0,0,12,713,443.1)" />
<use xlink:href="#f1_1r" transform="matrix(12,0,0,12,723.3,443.1)" />
<use xlink:href="#f1_1e" transform="matrix(12,0,0,12,729.1,443.1)" />
<use xlink:href="#f1_1u" transform="matrix(12,0,0,12,744.5,443.1)" />
<use xlink:href="#f1_1s" transform="matrix(12,0,0,12,754.4,443.1)" />
<use xlink:href="#f1_1i" transform="matrix(12,0,0,12,763.6,443.1)" />
<use xlink:href="#f1_1n" transform="matrix(12,0,0,12,768,443.1)" />
<use xlink:href="#f1_1g" transform="matrix(12,0,0,12,777.9,443.1)" />
<use xlink:href="#f1_1s" transform="matrix(12,0,0,12,602.3,465.1)" />
<use xlink:href="#f1_1e" transform="matrix(12,0,0,12,611.4,465.1)" />
<use xlink:href="#f1_1a" transform="matrix(12,0,0,12,621.7,465.1)" />
<use xlink:href="#f1_1r" transform="matrix(12,0,0,12,632,465.1)" />
<use xlink:href="#f1_1c" transform="matrix(12,0,0,12,637.8,465.1)" />
<use xlink:href="#f1_1h" transform="matrix(12,0,0,12,647,465.1)" />
<use xlink:href="#f1_1e" transform="matrix(12,0,0,12,662.4,465.1)" />
<use xlink:href="#f1_1n" transform="matrix(12,0,0,12,672.7,465.1)" />
<use xlink:href="#f1_1g" transform="matrix(12,0,0,12,682.9,465.1)" />
<use xlink:href="#f1_1i" transform="matrix(12,0,0,12,692.8,465.1)" />
<use xlink:href="#f1_1n" transform="matrix(12,0,0,12,696.9,465.1)" />
<use xlink:href="#f1_1e" transform="matrix(12,0,0,12,707.1,465.1)" />
<use xlink:href="#f1_1s" transform="matrix(12,0,0,12,717.4,465.1)" />
<use xlink:href="#f1_1t" transform="matrix(12,0,0,12,731.7,465.1)" />
<use xlink:href="#f1_1o" transform="matrix(12,0,0,12,736.8,465.1)" />
<use xlink:href="#f1_1f" transform="matrix(12,0,0,12,751.9,465.1)" />
<use xlink:href="#f1_1i" transform="matrix(12,0,0,12,757,465.1)" />
<use xlink:href="#f1_1n" transform="matrix(12,0,0,12,761,465.1)" />
<use xlink:href="#f1_1d" transform="matrix(12,0,0,12,771.3,465.1)" />
<use xlink:href="#f1_1p" transform="matrix(12,0,0,12,602.3,487.1)" />
<use xlink:href="#f1_1r" transform="matrix(12,0,0,12,612.5,487.1)" />
<use xlink:href="#f1_1o" transform="matrix(12,0,0,12,618.8,487.1)" />
<use xlink:href="#f1_1d" transform="matrix(12,0,0,12,628.7,487.1)" />
<use xlink:href="#f1_1u" transform="matrix(12,0,0,12,638.9,487.1)" />
<use xlink:href="#f1_1c" transform="matrix(12,0,0,12,648.8,487.1)" />
<use xlink:href="#f1_1t" transform="matrix(12,0,0,12,658,487.1)" />
<use xlink:href="#f1_1s" transform="matrix(12,0,0,12,663.1,487.1)" />
<use xlink:href="#f1_1a" transform="matrix(12,0,0,12,677.4,487.1)" />
<use xlink:href="#f1_1n" transform="matrix(12,0,0,12,687.7,487.1)" />
<use xlink:href="#f1_1d" transform="matrix(12,0,0,12,698,487.1)" />
<use xlink:href="#f1_1s" transform="matrix(12,0,0,12,713.4,487.1)" />
<use xlink:href="#f1_1e" transform="matrix(12,0,0,12,722.5,487.1)" />
<use xlink:href="#f1_1r" transform="matrix(12,0,0,12,732.8,487.1)" />
<use xlink:href="#f1_1v" transform="matrix(12,0,0,12,738.7,487.1)" />
<use xlink:href="#f1_1i" transform="matrix(12,0,0,12,747.8,487.1)" />
<use xlink:href="#f1_1c" transform="matrix(12,0,0,12,751.9,487.1)" />
<use xlink:href="#f1_1e" transform="matrix(12,0,0,12,761,487.1)" />
<use xlink:href="#f1_1s" transform="matrix(12,0,0,12,771.3,487.1)" />
<use xlink:href="#f1_9" transform="matrix(12,0,0,12,780.5,487.1)" />
<use xlink:href="#f1_13" transform="matrix(12,0,0,12,602.3,509.1)" />
<use xlink:href="#f1_s" transform="matrix(12,0,0,12,614.4,509.1)" />
<use xlink:href="#f1_10" transform="matrix(12,0,0,12,626.5,509.1)" />
<use xlink:href="#f1_1i" transform="matrix(12,0,0,12,645.9,509.1)" />
<use xlink:href="#f1_1s" transform="matrix(12,0,0,12,649.9,509.1)" />
<use xlink:href="#f1_1i" transform="matrix(12,0,0,12,664.2,509.1)" />
<use xlink:href="#f1_1m" transform="matrix(12,0,0,12,668.3,509.1)" />
<use xlink:href="#f1_1p" transform="matrix(12,0,0,12,683.7,509.1)" />
<use xlink:href="#f1_1o" transform="matrix(12,0,0,12,693.9,509.1)" />
<use xlink:href="#f1_1r" transform="matrix(12,0,0,12,703.8,509.1)" />
<use xlink:href="#f1_1t" transform="matrix(12,0,0,12,710.1,509.1)" />
<use xlink:href="#f1_1a" transform="matrix(12,0,0,12,715.2,509.1)" />
<use xlink:href="#f1_1n" transform="matrix(12,0,0,12,725.5,509.1)" />
<use xlink:href="#f1_1t" transform="matrix(12,0,0,12,735.4,509.1)" />
<use xlink:href="#f1_1f" transform="matrix(12,0,0,12,745.6,509.1)" />
<use xlink:href="#f1_1o" transform="matrix(12,0,0,12,750.8,509.1)" />
<use xlink:href="#f1_1r" transform="matrix(12,0,0,12,761,509.1)" />
<use xlink:href="#f1_1y" transform="matrix(12,0,0,12,772,509.1)" />
<use xlink:href="#f1_1o" transform="matrix(12,0,0,12,781.2,509.1)" />
<use xlink:href="#f1_1u" transform="matrix(12,0,0,12,791.5,509.1)" />
<use xlink:href="#f1_1r" transform="matrix(12,0,0,12,801.4,509.1)" />
</g>
</g>
<g clip-path="url(#c3_2)">
<g fill="#4B65E7" >
<use xlink:href="#f1_1b" transform="matrix(12,0,0,12,602.3,531.1)" />
<use xlink:href="#f1_1u" transform="matrix(12,0,0,12,612.5,531.1)" />
<use xlink:href="#f1_1s" transform="matrix(12,0,0,12,622.4,531.1)" />
<use xlink:href="#f1_1i" transform="matrix(12,0,0,12,632,531.1)" />
<use xlink:href="#f1_1n" transform="matrix(12,0,0,12,636,531.1)" />
<use xlink:href="#f1_1e" transform="matrix(12,0,0,12,646.3,531.1)" />
<use xlink:href="#f1_1s" transform="matrix(12,0,0,12,656.2,531.1)" />
<use xlink:href="#f1_1s" transform="matrix(12,0,0,12,665.3,531.1)" />
<use xlink:href="#f1_1t" transform="matrix(12,0,0,12,680,531.1)" />
<use xlink:href="#f1_1o" transform="matrix(12,0,0,12,684.8,531.1)" />
<use xlink:href="#f1_1b" transform="matrix(12,0,0,12,700.2,531.1)" />
<use xlink:href="#f1_1e" transform="matrix(12,0,0,12,710.4,531.1)" />
<use xlink:href="#f1_1f" transform="matrix(12,0,0,12,725.5,531.1)" />
<use xlink:href="#f1_1o" transform="matrix(12,0,0,12,730.6,531.1)" />
<use xlink:href="#f1_1u" transform="matrix(12,0,0,12,740.9,531.1)" />
<use xlink:href="#f1_1n" transform="matrix(12,0,0,12,750.8,531.1)" />
<use xlink:href="#f1_1d" transform="matrix(12,0,0,12,761,531.1)" />
<use xlink:href="#f1_1b" transform="matrix(12,0,0,12,776.4,531.1)" />
<use xlink:href="#f1_1y" transform="matrix(12,0,0,12,786.7,531.1)" />
<use xlink:href="#f1_1c" transform="matrix(12,0,0,12,602.3,553.1)" />
<use xlink:href="#f1_1u" transform="matrix(12,0,0,12,611.4,553.1)" />
<use xlink:href="#f1_1s" transform="matrix(12,0,0,12,621.3,553.1)" />
<use xlink:href="#f1_1t" transform="matrix(12,0,0,12,630.9,553.1)" />
<use xlink:href="#f1_1o" transform="matrix(12,0,0,12,636,553.1)" />
<use xlink:href="#f1_1m" transform="matrix(12,0,0,12,645.9,553.1)" />
<use xlink:href="#f1_1e" transform="matrix(12,0,0,12,661.3,553.1)" />
<use xlink:href="#f1_1r" transform="matrix(12,0,0,12,671.6,553.1)" />
<use xlink:href="#f1_1s" transform="matrix(12,0,0,12,677.4,553.1)" />
<use xlink:href="#f1_1o" transform="matrix(12,0,0,12,691.7,553.1)" />
<use xlink:href="#f1_1n" transform="matrix(12,0,0,12,702,553.1)" />
<use xlink:href="#f1_1l" transform="matrix(12,0,0,12,712.3,553.1)" />
<use xlink:href="#f1_1i" transform="matrix(12,0,0,12,716.3,553.1)" />
<use xlink:href="#f1_1n" transform="matrix(12,0,0,12,720.3,553.1)" />
<use xlink:href="#f1_1e" transform="matrix(12,0,0,12,730.6,553.1)" />
<use xlink:href="#f1_b" transform="matrix(12,0,0,12,740.5,553.1)" />
</g>
</g>
<image preserveAspectRatio="none" x="69" y="1086" width="796" height="84" xlink:href="img/7.png" />
<defs>
	<path d="M127.6,0c0,0,-10.4,0,-18.3,2.6c0,0,-7.8,2.6,-13.4,8.6c0,0,-5.6,5.9,-8.2,17c0,0,-2.6,11.2,-2.6,27.6c0,0,0,14.9,1.1,26c0,0,1.1,11.2,4.8,19.7c0,0,3.8,8.6,9.4,17.1c0,0,5.6,8.6,14.5,18.3L302.2,335.7c0,0,64.9,68.6,104,123.1c0,0,39.2,54.5,60.5,99.3c0,0,21.2,44.8,27.9,81.3c0,0,6.8,36.6,6.8,68.7c0,0,0,32.1,-10.5,60.8c0,0,-10.5,28.8,-30.2,50.4c0,0,-19.8,21.7,-49.7,34.3c0,0,-29.8,12.7,-68.7,12.7c0,0,-45.5,0,-81.7,-12.6c0,0,-36.2,-12.6,-63.5,-27.5c0,0,-27.2,-14.8,-45.5,-27.4c0,0,-18.3,-12.7,-27.3,-12.7c0,0,-5.2,0,-9.3,3c0,0,-4.1,3,-6.7,9.7c0,0,-2.6,6.7,-4.1,17.9c0,0,-1.5,11.1,-1.5,26.8c0,0,0,11.1,0.7,19.3c0,0,0.8,8.2,2.6,14.2c0,0,1.9,5.9,4.9,11.1c0,0,3,5.3,11.9,13.1c0,0,9,7.8,31,21.2c0,0,22,13.4,55.2,26.4c0,0,33.2,13.1,73.2,22c0,0,39.9,8.9,84,8.9c0,0,70.1,0,122.7,-19.7c0,0,52.7,-19.8,87.4,-54.1c0,0,34.7,-34.4,51.9,-79.9c0,0,17.1,-45.5,17.1,-97c0,0,0,-46.3,-8.2,-92.2c0,0,-8.2,-45.9,-34.7,-99.3c0,0,-26.5,-53.4,-76.4,-118.7c0,0,-50,-65.3,-132.8,-150.4L240.2,108.5l420,0c0,0,6,0,11.6,-3.3c0,0,5.6,-3.4,9.7,-10c0,0,4.1,-6.7,6,-16.8c0,0,1.8,-10,1.8,-23.4c0,0,0,-13.4,-1.8,-23.8c0,0,-1.9,-10.4,-5.3,-17.4c0,0,-3.3,-7.1,-8.9,-10.5C673.3,3.3,667.7,0,661,0Z" 
	id="f0_7"
	transform="scale(0.001,-0.001)" />

	<path d="M160.8,0c0,0,-5.2,0,-9.7,2.6c0,0,-4.5,2.6,-8.6,8.6c0,0,-4.1,5.9,-6.3,15.6c0,0,-2.2,9.7,-2.2,23.8c0,0,0,13.4,2.2,23c0,0,2.2,9.7,5.6,16.1c0,0,3.3,6.3,8.2,9.6c0,0,4.8,3.4,10.8,3.4l201,0l0,734.3L175.5,725.5c0,0,-14.2,-7.4,-22.7,-8.9c0,0,-1.3,-0.2,-3.1,-0.2c-3,0,-7.5,0.5,-10.7,3.5c0,0,-5.2,4.9,-7.1,16.1c0,0,-1.8,11.2,-1.8,28.4c0,0,0,12.6,1.1,21.6c0,0,1.1,9,3.3,14.9c0,0,2.3,6,6.4,10.5c0,0,4.1,4.5,10.8,9l222,142.5c0,0,3,2.3,7.5,3.8c0,0,4.4,1.5,11.1,3c0,0,6.8,1.4,15.7,1.8c0,0,9,0.4,22.4,0.4c0,0,17.9,0,29.8,-1.5c0,0,12,-1.5,18.7,-4.1c0,0,6.7,-2.6,8.9,-6.7c0,0,2.3,-4.1,2.3,-8.6l0,-848.3l174.5,0c0,0,6,0,11.2,-3.4c0,0,5.3,-3.3,8.6,-9.6c0,0,3.4,-6.4,5.2,-16c0,0,1.9,-9.7,1.9,-23.1c0,0,0,-14.1,-2.2,-23.8c0,0,-2.3,-9.7,-6,-15.6c0,0,-3.7,-6,-8.6,-8.6c0,0,-4.8,-2.6,-10,-2.6Z" 
	id="f0_6"
	transform="scale(0.001,-0.001)" />

	<path d="M63.6,356.9l0,137.9l374.5,0l0,-137.9Z" 
	id="f1_a"
	transform="scale(0.001,-0.001)" />

	<path d="M150.6,0l0,1096.1l149.6,0L300.2,0Z" 
	id="f1_w"
	transform="scale(0.001,-0.001)" />

	<path d="M98.8,0l0,798.8l127.1,0l0,-114c0,0,56.7,70.3,120.2,101c0,0,63.4,30.6,141.1,30.6c0,0,170.2,0,229.9,-118.5c0,0,32.9,-64.9,32.9,-185.7L750,0L613.1,0l0,503c0,0,0,73,-21.6,117.7c0,0,-35.8,74.5,-129.8,74.5c0,0,-47.7,0,-78.3,-9.7c0,0,-55.2,-16.4,-97,-65.5c0,0,-33.6,-39.6,-43.6,-81.6c0,0,-10.1,-42.1,-10.1,-120.4l0,-418Z" 
	id="f1_1n"
	transform="scale(0.001,-0.001)" />

	<path d="M287.1,-12.6c0,0,-93.9,0,-127.4,48c0,0,-33.6,48.1,-33.6,125l0,528.9l-108.5,0l0,109.5l108.5,0l0,223l135.9,0l0,-223l127.2,0l0,-109.5l-127.2,0l0,-521.5c0,0,0,-41.8,28.3,-56c0,0,15.6,-8.2,52,-8.2c0,0,9.7,0,20.8,0.5c0,0,11.2,0.5,26.1,2.5L389.2,0c0,0,-23.1,-6.6,-48.1,-9.6c0,0,-25,-3,-54,-3Z" 
	id="f1_1t"
	transform="scale(0.001,-0.001)" />

	<path d="M640.5,462.5c0,0,-8.2,87.3,-37.8,139.6c0,0,-54.9,97,-183.1,97c0,0,-91.9,0,-154.2,-66.8c0,0,-62.2,-66.8,-65.9,-169.8ZM407.6,-28.2c0,0,-148.5,0,-251.6,108.3C156,80.1,52.8,188.6,52.8,384c0,0,0,192.3,103.9,312.4c0,0,103.8,120,271.5,120c0,0,84.5,0,163.9,-39.9c0,0,79.4,-40,120.9,-103.4c0,0,40.1,-60.5,53.4,-141.2c0,0,11.9,-55.2,11.9,-176l-581.8,0c0,0,3.7,-121.7,57.1,-195.3C253.6,160.6,307,87,419,87c0,0,104.6,0,166.9,69.7c0,0,35.1,40.4,49.7,93.6l132,0c0,0,-5.2,-43.9,-34.7,-98c0,0,-29.4,-54,-65.8,-88.3c0,0,-60.8,-59.6,-150.5,-80.3c0,0,-48.2,-11.9,-109,-11.9Z" 
	id="f1_1e"
	transform="scale(0.001,-0.001)" />

	<path d="M102.7,0l0,798.8l127.1,0l0,-138.4c0,0,15.7,40.3,77.1,98.2c0,0,61.4,57.8,141.5,57.8c0,0,3.7,0,12.7,-0.7c0,0,9,-0.8,30.7,-3.2l0,-141.7c0,0,-11.9,2.3,-22,3.1c0,0,-10.2,0.8,-22.1,0.8c0,0,-101.8,0,-156.4,-65.3c0,0,-54.7,-65.3,-54.7,-150.3L236.6,0Z" 
	id="f1_1r"
	transform="scale(0.001,-0.001)" />

	<path d="M314.2,0L27.9,1096.1l160.6,0L394.9,205.6l247.8,890.5l160.7,0L1051.5,204.3l206.9,891.8l162.8,0L1133,0L977,0L724,908.8L470,0Z" 
	id="f1_17"
	transform="scale(0.001,-0.001)" />

	<path d="M413,87c0,0,132.2,0,181.3,100.9c0,0,49.1,100.8,49.1,224.4c0,0,0,111.6,-35.5,181.5c0,0,-56.1,110.2,-193.4,110.2c0,0,-121.9,0,-177.3,-93.8c0,0,-55.3,-93.7,-55.3,-226.2c0,0,0,-127.3,55.3,-212.1c0,0,55.4,-84.9,175.8,-84.9ZM400.3,-28.2c0,0,-163.7,0,-260,111.2C140.3,83,44,194.3,44,382c0,0,0,201,101.5,320.2c0,0,101.5,119.1,272.5,119.1c0,0,153.4,0,259.3,-102.7c0,0,105.9,-102.8,105.9,-302.4c0,0,0,-192.9,-93.3,-318.7c0,0,-93.3,-125.7,-289.6,-125.7Z" 
	id="f1_1o"
	transform="scale(0.001,-0.001)" />

	<path d="M102.7,0l0,1096.1l133.9,0L236.6,0Z" 
	id="f1_1l"
	transform="scale(0.001,-0.001)" />

	<path d="M411.1,89c0,0,92.5,0,152.2,80.2c0,0,59.6,80.2,59.6,230.1c0,0,0,151.4,-61.5,224.2c0,0,-61.4,72.7,-151.8,72.7c0,0,-100.7,0,-163.2,-77.6c0,0,-62.6,-77.6,-62.6,-228.3c0,0,0,-128.3,54.1,-214.8c0,0,54,-86.5,173.2,-86.5ZM369.2,-28.2c0,0,-132.8,0,-230,112.2C139.2,84,42,196.3,42,382.9c0,0,0,174.6,88.7,302.6c0,0,88.7,128,253.5,128c0,0,91.3,0,152.9,-38.9c0,0,35.6,-22.4,80.9,-78.4l0,403.8l129,0L747,0L625.8,0l0,111.4c0,0,-46.7,-74,-110.5,-106.9c0,0,-63.8,-32.7,-146.1,-32.7Z" 
	id="f1_1d"
	transform="scale(0.001,-0.001)" />

	<path d="M496.9,-32.2c0,0,-199.3,0,-312.1,104.5c0,0,-112.7,103.8,-110.5,281.7l139.8,0c0,0,5.1,-93.6,42.4,-151.9c0,0,71.1,-109.2,250.5,-109.2c0,0,80.4,0,146.5,23.9c0,0,127.8,46.3,127.8,165.7c0,0,0,89.6,-54.2,127.7c0,0,-55,37.4,-172.1,65.1L411.2,508.9c0,0,-141,33,-199.5,72.5c0,0,-101.2,68.6,-101.2,205c0,0,0,147.7,99.4,242.4c0,0,99.5,94.7,281.7,94.7c0,0,167.7,0,284.9,-83.2c0,0,117.2,-83.2,117.2,-265.9l-139.8,0c0,0,-10.7,88.1,-45.8,135.1c0,0,-65,85.9,-220.9,85.9c0,0,-125.8,0,-180.8,-55.3c0,0,-55.1,-55.2,-55.1,-128.3c0,0,0,-80.7,65.1,-118c0,0,42.6,-23.9,193,-59.7L658.4,599c0,0,107.8,-25.4,166.3,-69.4c0,0,101.3,-76.8,101.3,-223.1c0,0,0,-182.1,-129.1,-260.4c0,0,-129.1,-78.3,-300,-78.3Z" 
	id="f1_13"
	transform="scale(0.001,-0.001)" />

	<path d="M344.9,88c0,0,71,0,137.5,32.5c0,0,112.1,53.9,112.1,177.6l0,108c0,0,-24.6,-15.8,-63.3,-26.3c0,0,-38.7,-10.6,-76,-14.9L374,354.8c0,0,-73,-9.4,-110,-30.3c0,0,-62.6,-34.9,-62.6,-111.5c0,0,0,-58.1,42.6,-91.5c0,0,42.6,-33.5,100.9,-33.5Zm-31,-114.3c0,0,-111.3,0,-181.8,67.3c0,0,-70.5,67.4,-70.5,168.6c0,0,0,110.9,69.4,172c0,0,69.4,61,182.1,75.2l214.3,26.8c0,0,46.2,6,61.9,38.8c0,0,9.1,17.9,9.1,51.6c0,0,0,68.9,-48.8,99.9c0,0,-48.8,31.1,-139.7,31.1c0,0,-105.1,0,-149.1,-56.9c0,0,-24.6,-31.5,-32,-93.7l-125.2,0c0,0,3.8,148.1,95.7,206c0,0,92,58,213.4,58c0,0,140.8,0,228.6,-53.7c0,0,87.2,-53.7,87.2,-167.2l0,-460.3c0,0,0,-20.9,8.5,-33.6c0,0,8.6,-12.7,36.3,-12.7c0,0,9,0,20.2,1.2c0,0,11.2,1.1,23.9,3.3l0,-99.3c0,0,-31.3,-9.1,-47.7,-11.3c0,0,-16.4,-2.3,-44.7,-2.3c0,0,-69.4,0,-100.7,49.3c0,0,-16.4,26.2,-23.1,74.1c0,0,-41,-53.5,-117.9,-92.9c0,0,-76.9,-39.3,-169.4,-39.3Z" 
	id="f1_1a"
	transform="scale(0.001,-0.001)" />

	<path d="M385,-30.2c0,0,-180.5,0,-255.7,80.9c0,0,-75.1,81.1,-80.4,200.6l129.1,0c0,0,6.1,-67.3,34.2,-103.2c0,0,51.8,-65,179.7,-65c0,0,76.1,0,134,32.4c0,0,57.8,32.4,57.8,100.2c0,0,0,51.4,-46.2,78.2c0,0,-29.5,16.4,-116.7,38L312.4,358.8c0,0,-103.9,25.3,-153.1,56.6c0,0,-87.9,54.4,-87.9,150.6c0,0,0,113.3,82.8,183.3c0,0,82.9,70.1,222.8,70.1c0,0,183.1,0,264.1,-105.8c0,0,50.7,-67.1,49.2,-144.5l-127.1,0c0,0,-3.8,45.2,-32.8,82.3c0,0,-47.3,52.6,-164.1,52.6c0,0,-77.9,0,-118,-29c0,0,-40,-29,-40,-76.5c0,0,0,-52.1,52.6,-83.3c0,0,30.4,-18.5,89.6,-32.7l90.4,-21.6c0,0,147.3,-35.1,197.4,-67.9c0,0,78.4,-51.4,78.4,-161.7c0,0,0,-106.6,-82,-184.1c0,0,-81.9,-77.4,-249.7,-77.4Z" 
	id="f1_1s"
	transform="scale(0.001,-0.001)" />

	<path d="M127.1,-226.7l0,70.4c0,0,51.4,9,72.2,72.6c0,0,11.2,33.7,11.2,65.1c0,0,0,5.2,-0.3,9.3c0,0,-0.4,4.2,-1.9,9.3L127.1,0l0,162.3l159.4,0l0,-150.6c0,0,0,-88.6,-35.8,-155.7c0,0,-35.7,-67.1,-123.6,-82.7Z" 
	id="f1_9"
	transform="scale(0.001,-0.001)" />

	<path d="M573,588.6c0,0,99.2,0,161.1,42.6c0,0,61.8,42.6,61.8,150.2c0,0,0,121.1,-88.8,164.4c0,0,-48.9,23.2,-134.1,23.2l-293.4,0l0,-380.4ZM131,0l0,1096.1l490.6,0c0,0,145.5,0,234.7,-82.4c0,0,89.2,-82.5,89.2,-231.7c0,0,0,-128.3,-79.6,-223.4c0,0,-79.6,-95.1,-244,-95.1l-342.3,0L279.6,0Z" 
	id="f1_11"
	transform="scale(0.001,-0.001)" />

	<path d="M131,0l0,1096.1l796,0l0,-134l-651.3,0l0,-333.4l602.4,0l0,-127.1l-602.4,0l0,-371.6l662,0l0,-130Z" 
	id="f1_s"
	transform="scale(0.001,-0.001)" />

	<path d="M98.5,0L332,1100l228.2,0L326.7,0Z" 
	id="f2_b"
	transform="scale(0.001,-0.001)" />

	<path d="M95.5,0L267.8,811.6l206.7,0L449.1,693c0,0,52.9,63.5,94,90.3c0,0,71.6,47.8,170.1,47.8c0,0,93.2,0,142.4,-41.1c0,0,38.1,-38,49.3,-97.7c0,0,56.7,71.6,126,105.2c0,0,72.4,33.6,153,33.6c0,0,53.7,0,101.4,-20.9c0,0,47.8,-20.9,79.8,-73.1c0,0,24.7,-42.5,23.9,-104.5c0,0,-1.5,-41,-17.9,-120.1L1260.7,0L1042.9,0l109.6,517.5c0,0,9.7,46.2,1.5,76c0,0,-16.4,56.7,-92.5,56.7c0,0,-88,0,-137.2,-73.1c0,0,-25.4,-38.7,-37.3,-93.2L784.8,0L570.7,0L672.9,484.1c0,0,15.6,72.4,7.4,105.2c0,0,-14.1,59,-92.5,59c0,0,-91,0,-135,-59c0,0,-23.9,-33.5,-38,-99.9L311.1,0Z" 
	id="f2_w"
	transform="scale(0.001,-0.001)" />

	<path d="M510.2,155.5c0,0,88.8,0,150,68.6c0,0,61.2,68.6,85,182.6c0,0,20.2,94,-7.4,166.3c0,0,-27.6,72.3,-123.8,72.3c0,0,-115.7,0,-182.1,-109.6c0,0,-34.3,-58.1,-53.7,-147.6c0,0,-29.8,-141.7,32.8,-199.1c0,0,38.1,-33.5,99.2,-33.5ZM24.6,-319.6l241,1133.1l203.6,0L443.9,693.1c0,0,45.5,52.9,91,83.5c0,0,82,54.5,179.7,54.5c0,0,142.5,0,219,-105.1c0,0,76.5,-105.1,33.2,-308.7c0,0,-45.5,-214.7,-166,-327.2c0,0,-120.5,-112.5,-272.6,-112.5c0,0,-97,0,-150.7,48.3c0,0,-29.9,26.8,-52.3,78.2L235,-319.6Z" 
	id="f2_z"
	transform="scale(0.001,-0.001)" />

	<path d="M97,0L269.3,813.5l202.9,0L442.4,671.3c0,0,66.4,81.1,108.9,110.9c0,0,70.9,49.9,166.3,49.9c0,0,6,0,10.1,-0.5c0,0,4.1,-0.5,17.5,-1.5L699,613.1c0,0,-19.4,2.3,-35.1,3.1c0,0,-15.6,0.8,-25.3,0.8c0,0,-128.4,0,-190.3,-83.6c0,0,-34.3,-47,-55.2,-144.7L311.1,0Z" 
	id="f2_10"
	transform="scale(0.001,-0.001)" />

	<path d="M495.3,149.6c0,0,93.3,0,157.4,66.4c0,0,64.2,66.4,90.3,188.7c0,0,26.1,122.3,-10.1,188.3c0,0,-36.2,66,-129.4,66c0,0,-93.3,0,-157.4,-66c0,0,-64.2,-66,-90.3,-188.3c0,0,-26.1,-122.3,10.1,-188.7c0,0,36.2,-66.4,129.4,-66.4ZM458,-28.2c0,0,-209.6,0,-285.3,127c0,0,-75.7,127.1,-37.7,306.1c0,0,37.3,176,167.9,305c0,0,130.5,129,340.1,129c0,0,209.7,0,285,-129c0,0,75.4,-129,38,-305c0,0,-38,-179,-168.2,-306.1c0,0,-130.1,-127,-339.8,-127Z" 
	id="f2_y"
	transform="scale(0.001,-0.001)" />

	<path d="M311.1,0L191.7,813.5l238.7,0l41.8,-600l300.6,600l228.3,0L535.6,0Z" 
	id="f2_14"
	transform="scale(0.001,-0.001)" />

	<path d="M688.5,487.9c0,0,12.7,84.6,-24.2,128.3c0,0,-36.9,43.8,-104.8,43.8c0,0,-73.9,0,-124.2,-46.4c0,0,-50.4,-46.4,-77.2,-125.7ZM421.5,-26.3c0,0,-155.2,0,-252.5,99.8c0,0,-97.4,100,-49.6,325.2c0,0,44.7,211.1,175.6,323.7c0,0,131,112.6,301.8,112.6c0,0,101.4,0,174.9,-38c0,0,73.5,-38,108.6,-120.1c0,0,32.8,-72.3,26.1,-167.7c0,0,-3,-56,-26.9,-161.1l-556.5,0c0,0,-21.6,-122.5,40.3,-171.8c0,0,37.3,-30.6,99.2,-30.6c0,0,65.7,0,114.9,37.5c0,0,26.1,20.3,51.5,56.4l217,0c0,0,-23.8,-72.5,-106.6,-147.2c0,0,-129.8,-118.7,-317.8,-118.7Z" 
	id="f2_p"
	transform="scale(0.001,-0.001)" />

	<path d="M102.2,0L274.5,813.1l215.6,0L317.8,0ZM295.4,910.3l41.8,196.5l215.6,0L511,910.3Z" 
	id="f2_t"
	transform="scale(0.001,-0.001)" />

	<path d="M417.8,-27.3c0,0,-191.8,0,-266,80.9c0,0,-74.2,81.1,-48.1,206.5l215.6,0c0,0,-5.2,-56.8,12.7,-80.6c0,0,29.8,-42.6,136.5,-42.6c0,0,62.6,0,103.7,18.6c0,0,41,18.7,49.2,55.9c0,0,7.5,35.8,-18.6,54.4c0,0,-26.2,18.7,-208.2,64.1c0,0,-130.5,34.3,-176,85.7c0,0,-46.3,50.7,-25.4,146.1c0,0,23.9,112.6,129.4,193.4c0,0,105.6,80.9,266,80.9c0,0,152.2,0,235,-60.8c0,0,82.8,-60.8,65.6,-210l-212.6,0c0,0,3.7,41.1,-9.7,65.1c0,0,-26.1,43.4,-110.4,43.4c0,0,-69.4,0,-103.3,-21.6c0,0,-34,-21.7,-39.9,-50.8c0,0,-8.2,-36.5,20.1,-52.9c0,0,27.6,-17.2,208.9,-58.9c0,0,120.1,-29.9,170.8,-90.3c0,0,50,-61.1,30.6,-152.9c0,0,-26.1,-120.8,-132,-197.2c0,0,-106,-76.4,-293.9,-76.4Z" 
	id="f2_11"
	transform="scale(0.001,-0.001)" />

	<path d="M516.2,153.5c0,0,82.1,0,141.8,66.4c0,0,59.6,66.5,82.8,174.7c0,0,18.6,86.5,8.2,143.3c0,0,-20.2,107.4,-134.3,107.4c0,0,-115.6,0,-181.3,-105.2c0,0,-34.3,-56,-53,-144.8c0,0,-22.3,-104.5,9.4,-173.1c0,0,31.7,-68.7,126.4,-68.7ZM535.6,-21.4c0,0,-100.7,0,-152.9,40.1c0,0,-31.3,23.8,-61.2,83.4L299.9,0L91.8,0L324.5,1098l211.9,0L453.6,707.3c0,0,52.2,56.7,107.4,86.5c0,0,64.9,37.3,153.6,37.3c0,0,160.4,0,226.5,-115.6c0,0,66,-115.6,27.2,-298.4c0,0,-40.3,-189.5,-156.3,-314c0,0,-116,-124.5,-276.4,-124.5Z" 
	id="f2_m"
	transform="scale(0.001,-0.001)" />

	<path d="M103.7,0L337.2,1100l212.6,0L316.3,0Z" 
	id="f2_v"
	transform="scale(0.001,-0.001)" />

	<path d="M358,-11.7c-34.3,0,-148.3,3.7,-184.9,52.2c0,0,-27.6,36.6,-12,112.7L267.8,654.1l-113.4,0l32.1,151.6l113.4,0l48.5,226.8l210.3,0L510.2,805.7l132.1,0L610.2,654.1l-132,0.1l-91.8,-430c0,0,-10.4,-50,-0.4,-62.3c0,0,10.1,-12.3,75,-12.3c0,0,9.7,0,20.5,0.5c0,0,10.9,0.5,22,1.5L469.2,-7.9L367.8,-11.6c0,0,-3.6,-0.1,-9.8,-0.1Z" 
	id="f2_12"
	transform="scale(0.001,-0.001)" />

	<path d="M158.9,-328.4c0,0,-28.4,0,-45.5,0.3c0,0,-17.2,0.4,-50.7,2.6l35.8,170.1l26.8,-1.5c0,0,6,-0.3,15.2,-0.3c11.6,0,28.3,0.5,44.5,2.5c0,0,29.1,3.8,51.5,17.2c0,0,21.6,12.7,46.2,52.9c0,0,24.6,40.3,23.2,49.3L188,813.5l236.5,0l50,-599.7L769.9,813.5l226,0L546.8,13.8c0,0,-129.8,-231.1,-188.4,-286.7c0,0,-58.5,-55.5,-199.5,-55.5Z" 
	id="f2_17"
	transform="scale(0.001,-0.001)" />

	<path d="M484.9,151.6c0,0,52.2,0,103.7,24.2c0,0,51.5,24.2,87.3,54.1L527.4,479.1c0,0,-91,-53,-125.3,-93.3c0,0,-34.3,-40.3,-44.8,-88.8c0,0,-11.2,-54.4,23.5,-99.9c0,0,34.7,-45.5,104.1,-45.5ZM640.8,708.5c0,0,51.5,31.3,76.1,52.9c0,0,45.5,40.3,55.2,87.3c0,0,7.4,34.3,-9.3,61.2c0,0,-16.8,26.8,-62.3,26.8c0,0,-28.4,0,-56,-15.6c0,0,-42.5,-23.2,-52.9,-73.1c0,0,-6,-29.9,7.4,-62.7c0,0,9,-21.6,41.8,-76.8ZM431.9,-26.3c0,0,-167.1,0,-240.2,98.4c0,0,-73.1,98.4,-47.7,218.5c0,0,20.9,99.2,85.4,170c0,0,64.5,70.9,191.3,140.2L446.8,615c0,0,-36.5,53.7,-50.7,109.6c0,0,-14.2,56,-1.5,116.4c0,0,25.4,120.1,120.5,187.6c0,0,95.1,67.5,223.4,67.5c0,0,117.1,0,178.7,-69c0,0,61.5,-69,39.2,-176.4c0,0,-20.9,-97,-79.5,-157.4c0,0,-58.6,-60.4,-158.5,-111.9L833.3,389c0,0,35,38.8,59.3,84.3c0,0,24.2,45.5,36.2,96.2l188.7,0c0,0,-26.1,-100,-91,-202.1c0,0,-35.8,-57.5,-104.5,-126.8L1071.2,0.4l-258.1,0L756.4,93.7c0,0,-66.4,-51.5,-119.3,-76.1c0,0,-94,-43.9,-205.2,-43.9Z" 
	id="f2_3"
	transform="scale(0.001,-0.001)" />

	<path d="M387.9,129.1c0,0,68.6,0,135,40.3c0,0,66.4,40.2,91.8,146.9l16.4,79.1c0,0,-22.4,-12.7,-44.8,-20.5c0,0,-22.3,-7.9,-59.6,-14.6l-49.3,-8.9c0,0,-70.1,-12,-102.9,-29.1c0,0,-55.2,-29.1,-67.9,-90.3c0,0,-11.9,-54.4,13.1,-78.7c0,0,25,-24.2,68.2,-24.2ZM292.4,-25.3c0,0,-110.4,0,-168.9,62.9c0,0,-58.6,63.1,-34,178.8c0,0,32.1,150,161.9,217.2c0,0,70.9,36.5,197.7,52.2l73.8,9c0,0,61.2,7.4,88.8,18.6c0,0,49.2,19.4,58.2,60.5c0,0,10.4,50,-20.2,69c0,0,-30.5,19.1,-97.7,19.1c0,0,-75.3,0,-114.9,-37.2c0,0,-27.5,-27.5,-45.5,-74.3l-205.1,0c0,0,29.8,106.6,97,175.2c0,0,107.4,107.4,312.5,107.4c0,0,133.6,0,226.1,-53c0,0,92.5,-53,61.2,-200.1L803.4,206.7c0,0,-8.2,-38.8,-17.9,-94.1c0,0,-6.7,-41.7,0.4,-56.6c0,0,7.1,-15,25.7,-24.7L805.7,0L574.4,0c0,0,-4.5,24.6,-3.7,46.2c0,0,0.7,21.7,4.4,49.3c0,0,-54.4,-47.8,-118.6,-81.4c0,0,-77.5,-39.4,-164.1,-39.4Z" 
	id="f2_l"
	transform="scale(0.001,-0.001)" />

	<path d="M100.7,0L273,811.6l205.2,0L452.8,693.4c0,0,54.5,62.8,97,90.4c0,0,76.1,49.3,176.8,49.3c0,0,126.1,0,192.1,-66.1c0,0,66,-66.1,33.9,-219.1L836.2,0L618.4,0L722.9,494.9c0,0,14.1,64.1,3.7,98.5c0,0,-17.9,62.7,-105.9,62.7c0,0,-108.2,0,-167.9,-91.8c0,0,-31.3,-48.6,-47,-123.9L312.6,0Z" 
	id="f2_x"
	transform="scale(0.001,-0.001)" />

	<path d="M97,0L329.7,1096.1l208.9,0L412.5,503.6l329.8,306l263.3,0L655,498.4L845.2,0L588.6,0L467.7,347.7L359.6,255.9L305.9,0Z" 
	id="f2_u"
	transform="scale(0.001,-0.001)" />

	<path d="M484.9,174.1c0,0,74.6,0,138,56.4c0,0,63.4,56.4,89.5,179.8c0,0,24.6,115.9,-11.2,176.4c0,0,-35.8,60.6,-117.8,60.6c0,0,-111.9,0,-176.8,-105.4c0,0,-34.4,-56.1,-52.3,-138.3c0,0,-14.9,-71.1,-2.2,-126.4c0,0,20.9,-103.1,132.8,-103.1ZM361.1,-332.3c0,0,-155.9,0,-241.4,61c0,0,-85.4,61.1,-70.5,182.4l231.3,0c0,0,1.5,-37,17.9,-53.2c0,0,28.3,-28.9,109.7,-28.9c0,0,114.8,0,170,76.6c0,0,35.9,49.1,60.5,165l11.1,52.1c0,0,-41.7,-52.1,-82.8,-78.2c0,0,-73.8,-48.3,-175.3,-48.3c0,0,-156.6,0,-226.7,110c0,0,-70.2,110.1,-29.9,298.3c0,0,38.1,181.4,154.8,305c0,0,116.8,123.6,282.4,123.6c0,0,61.1,0,102.2,-18.9c0,0,70.8,-32,100.7,-117.8l24.6,117.1l206.6,0L842.2,42.1c0,0,-32.8,-157.3,-102.9,-237.2c0,0,-120.1,-137.2,-378.2,-137.2Z" 
	id="f2_r"
	transform="scale(0.001,-0.001)" />

	<path d="M32.8,-259L50,-176.9c0,0,67.9,18,107,59.8c0,0,39.2,41.8,60.1,117.1L88,0l47,222l229.8,0L323.8,29.5c0,0,-10.5,-50.6,-35.8,-105.8c0,0,-25.4,-55.2,-70.2,-95.4c0,0,-49.2,-43.3,-107,-65.3c0,0,-57.8,-22,-78,-22Z" 
	id="f2_4"
	transform="scale(0.001,-0.001)" />

	<path d="M427.5,-28.2c0,0,-196.2,0,-263.8,116.3c0,0,-67.5,116.4,-27.9,302.3c0,0,44,209.8,171.2,326.2c0,0,127.2,116.5,307,116.5c0,0,152.9,0,235.7,-68.6c0,0,82.8,-68.6,63.4,-242.4l-217.8,0c0,0,3.7,45.4,-13.5,81.9c0,0,-25.3,49.2,-100.7,49.2c0,0,-107.4,0,-169.3,-106.9c0,0,-32.8,-56.8,-53,-150.9c0,0,-18.6,-89.6,-9.7,-144.2c0,0,16.4,-101.6,121.6,-101.6c0,0,74.6,0,114.5,40.3c0,0,39.9,40.3,60.1,104.4l217.1,0c0,0,-27.6,-96.9,-109,-183.3c0,0,-129.8,-139.2,-325.9,-139.2Z" 
	id="f2_n"
	transform="scale(0.001,-0.001)" />

	<path d="M134.3,0L273,656.1l-118.6,0l32.1,149.6l116.4,0l11.2,52.2c0,0,27.6,130.5,82,179.8c0,0,61.9,73.1,238.7,73.1c0,0,20.2,0,36.2,-1.3c0,0,16.1,-1.2,44.4,-3.6L678.1,933.1c0,0,-17.2,2.2,-58.9,3.3c0,0,-0.5,0,-1.2,0c-7.1,0,-42.7,-0.9,-61.1,-18.6c0,0,-20.5,-19.8,-25,-43.6c0,0,-5.2,-23.8,-14.9,-68.5l139.5,0L624.4,656.1l-139.5,0L346.1,0Z" 
	id="f2_q"
	transform="scale(0.001,-0.001)" />

	<path d="M477.4,153.5c0,0,90.3,0,151.8,67.1c0,0,61.6,67.1,84,173.7c0,0,31.3,149.1,-29.9,213.3c0,0,-38,38.7,-99.2,38.7c0,0,-93.2,0,-151.8,-70.4c0,0,-58.6,-70.5,-80.9,-174.9c0,0,-23.9,-112.6,5.9,-180c0,0,29.9,-67.5,120.1,-67.5ZM378.2,-25.3c0,0,-142.5,0,-215.2,115.1c0,0,-72.7,115.2,-34.7,295.6c0,0,44.8,208.1,166,327.4c0,0,121.2,119.3,281.6,119.3c0,0,73.8,0,124.2,-32.5c0,0,50.4,-32.4,74.2,-89.9L856.4,1098l215.6,0L839.2,0L632.6,0l23.9,112.5c0,0,-61.2,-72.3,-126.5,-105.1c0,0,-65.2,-32.7,-151.8,-32.7Z" 
	id="f2_o"
	transform="scale(0.001,-0.001)" />

	<path d="M394,0l0,966.1l-369.6,0l0,130l889.8,0l0,-130l-369.6,0L544.6,0Z" 
	id="f1_14"
	transform="scale(0.001,-0.001)" />

	<path d="M98.8,0l0,1100l133.9,0l0,-409.3c0,0,47.8,60.5,85.9,85.1c0,0,64.9,42.6,161.9,42.6c0,0,173.9,0,235.9,-121.6c0,0,33.6,-66.4,33.6,-184.3L750,0L612.1,0l0,503.5c0,0,0,88,-22.4,129c0,0,-36.6,65.6,-137.4,65.6c0,0,-83.7,0,-151.6,-57.4c0,0,-68,-57.4,-68,-217L232.7,0Z" 
	id="f1_1h"
	transform="scale(0.001,-0.001)" />

	<path d="M384.4,99.7c0,0,143.5,0,202,130.8c0,0,32.6,74,32.6,172.6c0,0,0,148.7,-60.7,220.4c0,0,-60.7,71.7,-154.7,71.7c0,0,-140.6,0,-192.4,-133c0,0,-27.4,-71,-27.4,-186c0,0,0,-135.3,54.4,-205.9c0,0,54.4,-70.6,146.2,-70.6Zm0.1,-437.9c0,0,-128.4,0,-216,57.8c0,0,-87.6,57.7,-98.1,180.8l136.9,0c0,0,9.6,-53.6,38.4,-82.5c0,0,45.2,-44.6,142.1,-44.6c0,0,153.1,0,200.4,108.8c0,0,28.1,64.2,25.9,228.8c0,0,-40.1,-61.1,-96.4,-90.9c0,0,-56.4,-29.7,-149.1,-29.7c0,0,-129.1,0,-225.9,92.1c0,0,-96.7,92.2,-96.7,304.9c0,0,0,200.8,97.4,313.5c0,0,97.5,112.7,235.4,112.7c0,0,93.4,0,163.1,-46.1c0,0,37.8,-26.1,77.1,-75.9l0,99.5l124.1,0l0,-726.5c0,0,0,-152.1,-44.5,-240.1c0,0,-83.2,-162.6,-314.1,-162.6Z" 
	id="f1_1g"
	transform="scale(0.001,-0.001)" />

	<path d="M243.4,0L13.2,798.8l146.9,0L313.4,169.3L469.3,798.8l150.8,0L776.8,173l163,625.8l134.3,0L842.4,0L702.9,0L540.2,618.4L382.8,0Z" 
	id="f1_1w"
	transform="scale(0.001,-0.001)" />

	<path d="M98.8,0l0,794.9l136.8,0L235.6,0Zm0,943.6l0,152.5l136.8,0l0,-152.5Z" 
	id="f1_1i"
	transform="scale(0.001,-0.001)" />

	<path d="M132,0l0,689.3l-111.5,0l0,105.6l111.5,0l0,125.6c0,0,3,83.6,29.1,122.5c0,0,46.9,68.7,181.2,68.7c0,0,12.6,0,26,-0.7c0,0,13.5,-0.7,30.6,-2.2l0,-122.2c0,0,-21,1.3,-30.4,1.6c0,0,-9.5,0.3,-17.7,0.3c0,0,-61.8,0,-73.8,-31.7c0,0,-12,-31.8,-12,-161.9l133.9,0l0,-105.6l-133.9,0L265,0Z" 
	id="f1_1f"
	transform="scale(0.001,-0.001)" />

	<path d="M387.3,-23.4c0,0,-156.7,0,-250,114.4C137.3,91,44,205.4,44,376.9c0,0,0,210.3,102.2,327.4c0,0,102.3,117,260.5,117c0,0,135.1,0,219.8,-65.5c0,0,84.7,-65.6,102,-225.8l-131,0c0,0,-12,73.6,-54.6,122.3c0,0,-42.5,48.8,-136.6,48.8c0,0,-128.5,0,-183.7,-125.1c0,0,-35.8,-81.2,-35.8,-200.4c0,0,0,-119.8,50.7,-201.8c0,0,50.8,-81.9,159.8,-81.9c0,0,83.7,0,132.6,51c0,0,48.9,51.1,67.6,139.7l131,0c0,0,-22.5,-159,-112.1,-232.5c0,0,-89.5,-73.5,-229.1,-73.5Z" 
	id="f1_1c"
	transform="scale(0.001,-0.001)" />

	<path d="M170.2,-327.4c0,0,-28.3,0,-43.6,2.2c0,0,-15.3,2.2,-37.6,8.2l0,122c0,0,35,-9.7,50.7,-11.9c0,0,15.6,-2.2,27.5,-2.2c0,0,37.3,0,54.8,12.3c0,0,17.5,12.3,29.5,30.3c0,0,3.7,6,26.8,61.4c0,0,23.1,55.3,33.6,82.2L16.1,798.8l152.4,0L382.8,148.5L598.2,798.8l148.3,0c0,0,-28.3,-76.8,-125.9,-350.5c0,0,-73.1,-205.8,-122.3,-335.5c0,0,-116.3,-305.9,-164,-373.1c0,0,-47.7,-67.1,-164.1,-67.1Z" 
	id="f1_1y"
	transform="scale(0.001,-0.001)" />

	<path d="M303.2,0L8.3,798.8l155.9,0L377.9,148.4L600.6,798.8l146.9,0L446.5,0Z" 
	id="f1_1v"
	transform="scale(0.001,-0.001)" />

	<path d="M398,0l0,756.8l-251.3,0l0,102.7c0,0,145.3,14.1,202.7,47.3c0,0,57.4,33.2,85.8,157l105.5,0L540.7,0Z" 
	id="f1_e"
	transform="scale(0.001,-0.001)" />

	<path d="M47.9,0c0,0,7.5,138.3,57.4,240.4c0,0,49.8,102.2,193.5,185.7l143,82.8c0,0,96,55.9,134.7,95.5c0,0,61,62,61,141.9c0,0,0,93.4,-55.8,148.2c0,0,-55.8,54.9,-148.8,54.9c0,0,-137.6,0,-190.5,-104.6c0,0,-28.2,-56.1,-31.2,-155.5l-136.9,0c0,0,2.2,139.4,51.4,227.3c0,0,87.2,155,307.9,155c0,0,183.3,0,267.9,-99.1c0,0,84.6,-99.1,84.6,-220.6c0,0,0,-128.2,-90.3,-219.2c0,0,-52.3,-52.9,-187,-128.2L406.9,347.8c0,0,-72.9,-40.2,-114.9,-76.8c0,0,-75,-64.9,-94.5,-143.9l583.8,0L781.3,0Z" 
	id="f1_f"
	transform="scale(0.001,-0.001)" />

	<path d="M131,0l0,162.3l155.5,0L286.5,0Z" 
	id="f1_b"
	transform="scale(0.001,-0.001)" />

	<path d="M407.1,477.2c0,0,79.8,0,145.8,52.6c0,0,66,52.6,66,184c0,0,0,118,-59.2,175.8c0,0,-59.4,57.9,-151.1,57.9c0,0,-98.4,0,-156.2,-66.1c0,0,-57.8,-66.1,-57.8,-176.5c0,0,0,-104.6,50.7,-166.1c0,0,50.7,-61.6,161.8,-61.6ZM386.9,-30.2c0,0,-156.7,0,-238.1,81.8c0,0,-81.3,81.9,-81.3,205.6l135.9,0c0,0,6,-111.2,85.8,-153.7c0,0,41,-22.3,92.5,-22.3c0,0,96.3,0,164.1,80.3c0,0,67.9,80.3,96.3,326.1c0,0,-44.8,-71.1,-110.8,-99.9c0,0,-66.1,-28.9,-142.2,-28.9c0,0,-154.5,0,-244.4,96.4c0,0,-89.9,96.3,-89.9,247.9c0,0,0,145.6,88.8,256.1c0,0,88.8,110.5,262,110.5c0,0,233.6,0,322.4,-210.5c0,0,49.3,-115.6,49.3,-289.5c0,0,0,-196.3,-58.9,-347.8c0,0,-97.8,-252.1,-331.5,-252.1Z" 
	id="f1_j"
	transform="scale(0.001,-0.001)" />

	<path d="M1041.7,105.6c0,0,63.6,0,108.9,45.4c0,0,45.2,45.3,45.2,109.1c0,0,0,63.7,-45.2,109.1c0,0,-45.3,45.4,-108.9,45.4c0,0,-64.3,0,-109.6,-45.4c0,0,-45.3,-45.4,-45.3,-109.1c0,0,0,-63.8,45.3,-109.1c0,0,45.3,-45.4,109.6,-45.4ZM1041.7,0c0,0,-108.2,0,-184.3,76.2c0,0,-76.2,76.3,-76.2,183.9c0,0,0,107.6,76.2,183.8c0,0,76.1,76.3,184.3,76.3c0,0,107.5,0,183.6,-76.3c0,0,76.1,-76.2,76.1,-183.8c0,0,0,-107.6,-76.1,-183.9c0,0,-76.1,-76.2,-183.6,-76.2ZM308.6,621.9c0,0,64.3,0,109.6,45.2c0,0,45.3,45.2,45.3,108.8c0,0,0,63.5,-45.3,108.7c0,0,-45.3,45.3,-109.6,45.3c0,0,-63.6,0,-108.8,-44.9c0,0,-45.3,-44.8,-45.3,-109.1c0,0,0,-63.6,45.2,-108.8c0,0,45.3,-45.2,108.9,-45.2Zm0,-105.6c0,0,-107.5,0,-183.6,76.1c0,0,-76.1,76.1,-76.1,183.6c0,0,0,107.5,76.1,183.9c0,0,76.1,76.5,183.6,76.5c0,0,108.2,0,184.3,-76.5c0,0,76.2,-76.4,76.2,-183.9c0,0,0,-107.5,-76.2,-183.6c0,0,-76.1,-76.1,-184.3,-76.1Zm27,-544.5l597.6,1092l83.4,0L419,-28.2Z" 
	id="f1_4"
	transform="scale(0.001,-0.001)" />

	<path d="M357.1,-21.4c0,0,-167.6,0,-228.4,114c0,0,-32.9,61.1,-32.9,163.3l0,542.9l136.9,0l0,-530.4c0,0,0,-61.2,18.9,-100c0,0,34.9,-71.6,130,-71.6c0,0,136.6,0,186,125.3c0,0,26.9,67.2,26.9,184.3l0,392.4l134,0L728.5,0L602.3,0l1.5,117.7c0,0,-25.6,-45.4,-63.7,-76.7c0,0,-75.4,-62.4,-183,-62.4Z" 
	id="f1_1u"
	transform="scale(0.001,-0.001)" />

	<path d="M396.9,90c0,0,140.1,0,193,131.3c0,0,29.1,72.4,29.1,185.1c0,0,0,103.7,-32.1,173.1c0,0,-54.4,118.6,-191.5,118.6c0,0,-87.1,0,-149.4,-75.7c0,0,-62.2,-75.7,-62.2,-233.9c0,0,0,-103.8,29.1,-173.9c0,0,51.4,-124.6,184,-124.6ZM613.1,-318.6l0,410.1c0,0,-33.5,-53.7,-92.7,-85.3c0,0,-59.3,-31.5,-147.9,-31.5c0,0,-127.4,0,-227.9,99.8C144.6,74.5,44,174.4,44,378.7c0,0,0,191.7,94.3,314.7c0,0,94.3,123,244.1,123c0,0,99.1,0,166.9,-49.8c0,0,37.3,-26.8,71.6,-78.9l0,111.1l126.1,0l0,-1117.4Z" 
	id="f1_1q"
	transform="scale(0.001,-0.001)" />

	<path d="M554.1,-28.2c0,0,-191.5,0,-329.4,125.9c0,0,-150.4,158,-150.4,433.9c0,0,0,275.2,147.1,437.7c0,0,139.6,155.1,361.7,155.1c0,0,152.2,0,263.2,-59.7c0,0,161,-85.9,197,-301l-146.6,0c0,0,-26.4,120.1,-109,174.9c0,0,-82.7,54.8,-208.5,54.8c0,0,-149.3,0,-251.3,-114c0,0,-102,-114.1,-102,-340c0,0,0,-195.3,84.1,-318c0,0,84.1,-122.6,274.3,-122.6c0,0,145.6,0,241.1,86.1c0,0,95.5,86.2,97.7,278.6l-343.2,0l0,123.2l481,0L1060.9,0L965.6,0L929.8,141.3c0,0,-74.1,-82.6,-131.4,-114.6c0,0,-96.1,-54.9,-244.3,-54.9Z" 
	id="f1_u"
	transform="scale(0.001,-0.001)" />

	<path d="M98.8,0l0,798.8l132,0l0,-113.5c0,0,47.8,58.8,86.7,85.7c0,0,66.5,45.4,151,45.4c0,0,95.7,0,154,-46.9c0,0,32.9,-26.8,59.8,-79c0,0,44.8,64.1,105.3,95c0,0,60.4,30.9,135.8,30.9c0,0,161.3,0,219.5,-116.3c0,0,31.4,-62.6,31.4,-168.5L1174.3,0L1034.5,0l0,554.8c0,0,0,79.8,-39.9,109.6c0,0,-40,29.8,-97.4,29.8c0,0,-79.1,0,-136.1,-52.9c0,0,-57.1,-53,-57.1,-176.7L704,0L567.1,0l0,520.9c0,0,0,81.2,-19.4,118.4c0,0,-30.6,55.9,-114.2,55.9c0,0,-76.1,0,-138.5,-58.6c0,0,-62.3,-58.7,-62.3,-213.1L232.7,0Z" 
	id="f1_1m"
	transform="scale(0.001,-0.001)" />

	<path d="M95.8,0l0,1096.1l129.1,0l0,-636.5L568.8,798.8l171.4,0L433.7,502L757.5,0L586,0L335,406.6L224.9,299.8L224.9,0Z" 
	id="f1_1k"
	transform="scale(0.001,-0.001)" />

	<path d="M437.1,90.9c0,0,105.9,0,158.6,71.3c0,0,52.6,71.3,52.6,168.4c0,0,0,82.1,-47,156.4c0,0,-47.1,74.3,-171,74.3c0,0,-86.5,0,-151.8,-57.5c0,0,-65.3,-57.5,-65.3,-173.2c0,0,0,-101.6,59.3,-170.6c0,0,59.3,-69.1,164.6,-69.1ZM425.3,-28.2c0,0,-149.8,0,-258.7,113.7c0,0,-108.9,113.8,-108.9,383.3c0,0,0,199.3,48.4,338.1c0,0,93.2,265.7,340.7,265.7c0,0,178.9,0,249.3,-92.9c0,0,70.5,-93,70.5,-191.6l-133,0c0,0,-11.9,63.4,-38,99.1c0,0,-48.5,67.1,-146.8,67.1c0,0,-112.6,0,-179,-104c0,0,-66.3,-104.1,-73.8,-298c0,0,46.3,67.8,116.4,101.3c0,0,64.2,29.9,143.3,29.9c0,0,134.3,0,234.3,-85.8c0,0,100,-85.8,100,-256c0,0,0,-145.5,-94.7,-257.7c0,0,-94.7,-112.2,-270,-112.2Z" 
	id="f1_g"
	transform="scale(0.001,-0.001)" />

	<path d="M423.6,91.9c0,0,93.5,0,155.2,50.4c0,0,61.7,50.3,61.7,150.2c0,0,0,103.7,-63.6,157.4c0,0,-63.6,53.7,-163,53.7c0,0,-96.5,0,-157.4,-54.9c0,0,-60.9,-54.8,-60.9,-151.7c0,0,0,-83.5,55.7,-144.3c0,0,55.7,-60.8,172.3,-60.8Zm-8.9,529c0,0,88.7,0,138.7,49.7c0,0,49.9,49.8,49.9,118.7c0,0,0,59.8,-47.7,110c0,0,-47.7,50.1,-145.4,50.1c0,0,-96.9,0,-140.1,-50.1c0,0,-43.3,-50.2,-43.3,-117.5c0,0,0,-75.6,55.9,-118.3c0,0,56,-42.6,132,-42.6Zm5.8,-651.1c0,0,-156,0,-263.8,84.5c0,0,-107.8,84.7,-107.8,245.8c0,0,0,94.7,46.1,163.7c0,0,46.2,69,137.1,105.5c0,0,-55.9,23.9,-87.2,56c0,0,-58.9,59.7,-58.9,155.2c0,0,0,119.5,86.5,205.3c0,0,86.6,85.8,245.4,85.8c0,0,153.6,0,240.9,-80.9c0,0,87.3,-81,87.3,-189.3c0,0,0,-100,-50.8,-161.9c0,0,-28.4,-35.1,-88.1,-68.7c0,0,66.6,-30.6,104.8,-70.1c0,0,71.2,-74.6,71.2,-193.9c0,0,0,-141,-94.8,-239c0,0,-94.8,-98,-267.9,-98Z" 
	id="f1_i"
	transform="scale(0.001,-0.001)" />

	<path d="M411.7,93.9c0,0,104.6,0,166.7,92.4c0,0,62.1,92.5,62.1,344.4c0,0,0,181.9,-44.9,299.4c0,0,-44.9,117.4,-174.2,117.4c0,0,-118.9,0,-173.8,-111.5c0,0,-55,-111.4,-55,-328.4c0,0,0,-163.2,35.2,-262.4c0,0,53.8,-151.3,183.9,-151.3Zm1.1,-122.1c0,0,-192.5,0,-286.5,166.9c0,0,-78.4,139.4,-78.4,374.4c0,0,0,182,47,312.5c0,0,88.1,243.1,318.6,243.1c0,0,207.5,0,300,-170.8c0,0,71.7,-132,71.7,-361.7c0,0,0,-217.8,-65,-360.2c0,0,-94,-204.2,-307.4,-204.2Z" 
	id="f1_d"
	transform="scale(0.001,-0.001)" />

	<path d="M435.1,90.9c0,0,94.2,0,156.6,78.6c0,0,62.4,78.6,62.4,234.9c0,0,0,95.4,-27.6,163.9c0,0,-52.3,131.8,-191.4,131.8c0,0,-139.8,0,-191.3,-139.3c0,0,-27.7,-74.4,-27.7,-189.1c0,0,0,-92.3,27.7,-157.1c0,0,52.3,-123.7,191.3,-123.7ZM87,-318.6L87,794.9l131.1,0l0,-106c0,0,40.3,54.7,88.1,84.6c0,0,68,44.9,160,44.9c0,0,136,0,230.9,-104c0,0,94.9,-104,94.9,-297.1c0,0,0,-261,-137,-372.9c0,0,-86.8,-70.7,-202,-70.7c0,0,-90.6,0,-152,39.5c0,0,-35.9,22.4,-80,77l0,-408.8Z" 
	id="f1_1p"
	transform="scale(0.001,-0.001)" />

	<path d="M604.7,100.7c0,0,196.5,0,284.3,140.8c0,0,87.8,140.7,87.8,323.6c0,0,0,193.4,-101.2,311.3c0,0,-101.3,118,-276.9,118c0,0,-170.4,0,-277.9,-116.8c0,0,-107.6,-116.9,-107.6,-344.6c0,0,0,-182.2,92.2,-307.2c0,0,92.3,-125.1,299.3,-125.1ZM586.5,-32.2c0,0,-253,0,-397.7,167c0,0,-129.2,161.1,-129.2,407.3c0,0,0,222.3,110.5,380.4c0,0,141.8,202.9,419.4,202.9c0,0,290.3,0,429.9,-186.5c0,0,109,-145.4,109,-372.2c0,0,0,-245.4,-124.7,-408c0,0,-146.2,-190.9,-417.2,-190.9Z" 
	id="f1_10"
	transform="scale(0.001,-0.001)" />

	<path d="M436.7,92.9c0,0,109.1,0,163.3,86.5c0,0,54.1,86.5,54.1,228.2c0,0,0,126,-54.1,208.8c0,0,-54.2,82.7,-159.6,82.7c0,0,-91.9,0,-161,-67.8c0,0,-69.2,-67.9,-69.2,-223.7c0,0,0,-112.6,28.4,-182.7c0,0,53.1,-132,198.1,-132Zm8.5,-118.2c0,0,-91.2,0,-154,43.8c0,0,-37.4,26,-80,83.3L211.2,0L87,0l0,1100l131,0l0,-398.6c0,0,44.1,57.5,105.4,87.7c0,0,61.3,30.3,133,30.3c0,0,149.5,0,242.5,-102.6c0,0,93.1,-102.5,93.1,-302.3c0,0,0,-189.4,-91.9,-314.6c0,0,-92,-125.2,-254.9,-125.2Z" 
	id="f1_1b"
	transform="scale(0.001,-0.001)" />


</defs>
</svg>