<?xml version="1.0" encoding="UTF-8" standalone="no"?>
<!DOCTYPE svg PUBLIC "-//W3C//DTD SVG 1.1//EN"
"http://www.w3.org/Graphics/SVG/1.1/DTD/svg11.dtd">
<svg viewBox="0 0 935 1210" version="1.1" xmlns="http://www.w3.org/2000/svg" xmlns:xlink="http://www.w3.org/1999/xlink">
<defs>
<clipPath id="c0_8"><path d="M27.5,1191.7L27.5,18.3l880,0l0,1173.4Z" /></clipPath>
<clipPath id="c1_8"><path d="M30.6,469.8l0,-195.1l532.4,0l0,195.1Z" /></clipPath>
<clipPath id="c2_8"><path d="M28.6,635.8l0,-148.9l547.4,0l0,148.9Z" /></clipPath>
<clipPath id="c3_8"><path d="M236.9,200.8l0,-28.6l651.9,0l0,28.6Z" /></clipPath>
<clipPath id="c4_8"><path d="M35.6,266l0,-31.9l282.7,0l0,31.9Z" /></clipPath>
<style type="text/css"><![CDATA[
.g1_8{
fill: #FFFFFF;
}
.g2_8{
fill: none;
stroke: #4F81BD;
stroke-width: 3.8194444;
stroke-linecap: butt;
stroke-linejoin: round;
}
]]></style>
</defs>
<g clip-path="url(#c0_8)">
<g fill="#000000" >
<use xlink:href="#f0_d" transform="matrix(10.8,0,0,10.8,899,70.8)" />
<use xlink:href="#f0_6" transform="matrix(10.8,0,0,10.8,110,1129.7)" />
<use xlink:href="#f0_d" transform="matrix(10.8,0,0,10.8,463.2,1129.7)" />
<use xlink:href="#f0_d" transform="matrix(10.8,0,0,10.8,905.9,1129.7)" />
</g>
</g>
<image preserveAspectRatio="none" x="0" y="0" width="946" height="229" xlink:href="img/1.png" />
<path fill-rule="evenodd" d="M29.9,269.2l533.5,0l0,206.9l-533.5,0Z" class="g1_8" />
<image preserveAspectRatio="none" x="31" y="275" width="532" height="195" xlink:href="img/2.png" />
<g clip-path="url(#c1_8)">
<g fill="#595959" >
<use xlink:href="#f1_t" transform="matrix(12,0,0,12,41.6,292.7)" />
<use xlink:href="#f1_1o" transform="matrix(12,0,0,12,53,292.7)" />
<use xlink:href="#f1_1r" transform="matrix(12,0,0,12,62.9,292.7)" />
<use xlink:href="#f1_1u" transform="matrix(12,0,0,12,74.2,292.7)" />
<use xlink:href="#f1_1s" transform="matrix(12,0,0,12,84.1,292.7)" />
<use xlink:href="#f1_1t" transform="matrix(12,0,0,12,98.4,292.7)" />
<use xlink:href="#f1_1o" transform="matrix(12,0,0,12,103.6,292.7)" />
<use xlink:href="#f1_1d" transform="matrix(12,0,0,12,119,292.7)" />
<use xlink:href="#f1_1e" transform="matrix(12,0,0,12,129.2,292.7)" />
<use xlink:href="#f1_1l" transform="matrix(12,0,0,12,139.1,292.7)" />
<use xlink:href="#f1_1i" transform="matrix(12,0,0,12,143.2,292.7)" />
<use xlink:href="#f1_1v" transform="matrix(12,0,0,12,147.2,292.7)" />
<use xlink:href="#f1_1e" transform="matrix(12,0,0,12,156.4,292.7)" />
<use xlink:href="#f1_1r" transform="matrix(12,0,0,12,166.6,292.7)" />
<use xlink:href="#f1_1e" transform="matrix(12,0,0,12,178,292.7)" />
<use xlink:href="#f1_1x" transform="matrix(12,0,0,12,187.9,292.7)" />
<use xlink:href="#f1_1c" transform="matrix(12,0,0,12,197.1,292.7)" />
<use xlink:href="#f1_1e" transform="matrix(12,0,0,12,206.2,292.7)" />
<use xlink:href="#f1_1p" transform="matrix(12,0,0,12,216.5,292.7)" />
<use xlink:href="#f1_1t" transform="matrix(12,0,0,12,226.8,292.7)" />
<use xlink:href="#f1_1i" transform="matrix(12,0,0,12,231.9,292.7)" />
<use xlink:href="#f1_1o" transform="matrix(12,0,0,12,235.9,292.7)" />
<use xlink:href="#f1_1n" transform="matrix(12,0,0,12,245.8,292.7)" />
<use xlink:href="#f1_1a" transform="matrix(12,0,0,12,256.1,292.7)" />
<use xlink:href="#f1_1l" transform="matrix(12,0,0,12,266.4,292.7)" />
<use xlink:href="#f1_13" transform="matrix(12,0,0,12,275.5,292.7)" />
<use xlink:href="#f1_s" transform="matrix(12,0,0,12,287.6,292.7)" />
<use xlink:href="#f1_10" transform="matrix(12,0,0,12,299.7,292.7)" />
<use xlink:href="#f1_1s" transform="matrix(12,0,0,12,319.2,292.7)" />
<use xlink:href="#f1_1e" transform="matrix(12,0,0,12,328.3,292.7)" />
<use xlink:href="#f1_1r" transform="matrix(12,0,0,12,338.6,292.7)" />
<use xlink:href="#f1_1v" transform="matrix(12,0,0,12,344.5,292.7)" />
<use xlink:href="#f1_1i" transform="matrix(12,0,0,12,353.6,292.7)" />
<use xlink:href="#f1_1c" transform="matrix(12,0,0,12,357.7,292.7)" />
<use xlink:href="#f1_1e" transform="matrix(12,0,0,12,366.8,292.7)" />
<use xlink:href="#f1_1s" transform="matrix(12,0,0,12,377.1,292.7)" />
<use xlink:href="#f1_1t" transform="matrix(12,0,0,12,391.4,292.7)" />
<use xlink:href="#f1_1o" transform="matrix(12,0,0,12,396.5,292.7)" />
<use xlink:href="#f1_1g" transform="matrix(12,0,0,12,411.9,292.7)" />
<use xlink:href="#f1_1e" transform="matrix(12,0,0,12,421.8,292.7)" />
<use xlink:href="#f1_1n" transform="matrix(12,0,0,12,432.1,292.7)" />
<use xlink:href="#f1_1e" transform="matrix(12,0,0,12,442.4,292.7)" />
<use xlink:href="#f1_1r" transform="matrix(12,0,0,12,452.3,292.7)" />
<use xlink:href="#f1_1a" transform="matrix(12,0,0,12,458.5,292.7)" />
<use xlink:href="#f1_1t" transform="matrix(12,0,0,12,468.8,292.7)" />
<use xlink:href="#f1_1e" transform="matrix(12,0,0,12,473.9,292.7)" />
<use xlink:href="#f1_1i" transform="matrix(12,0,0,12,488.9,292.7)" />
<use xlink:href="#f1_1m" transform="matrix(12,0,0,12,493,292.7)" />
<use xlink:href="#f1_1p" transform="matrix(12,0,0,12,508.4,292.7)" />
<use xlink:href="#f1_1a" transform="matrix(12,0,0,12,518.6,292.7)" />
<use xlink:href="#f1_1c" transform="matrix(12,0,0,12,528.9,292.7)" />
<use xlink:href="#f1_1t" transform="matrix(12,0,0,12,538.1,292.7)" />
</g>
</g>
<g clip-path="url(#c0_8)">
<g fill="#595959" >
<use xlink:href="#f1_1o" transform="matrix(12,0,0,12,41.6,318)" />
<use xlink:href="#f1_1n" transform="matrix(12,0,0,12,51.9,318)" />
<use xlink:href="#f1_1y" transform="matrix(12,0,0,12,66.9,318)" />
<use xlink:href="#f1_1o" transform="matrix(12,0,0,12,76.1,318)" />
<use xlink:href="#f1_1u" transform="matrix(12,0,0,12,86.3,318)" />
<use xlink:href="#f1_1r" transform="matrix(12,0,0,12,96.2,318)" />
<use xlink:href="#f1_1m" transform="matrix(12,0,0,12,107.6,318)" />
<use xlink:href="#f1_1a" transform="matrix(12,0,0,12,123,318)" />
<use xlink:href="#f1_1r" transform="matrix(12,0,0,12,133.3,318)" />
<use xlink:href="#f1_1k" transform="matrix(12,0,0,12,139.1,318)" />
<use xlink:href="#f1_1e" transform="matrix(12,0,0,12,148.3,318)" />
<use xlink:href="#f1_1t" transform="matrix(12,0,0,12,158.6,318)" />
<use xlink:href="#f1_1i" transform="matrix(12,0,0,12,163.7,318)" />
<use xlink:href="#f1_1n" transform="matrix(12,0,0,12,167.7,318)" />
<use xlink:href="#f1_1g" transform="matrix(12,0,0,12,178,318)" />
<use xlink:href="#f1_9" transform="matrix(12,0,0,12,187.9,318)" />
<use xlink:href="#f1_1w" transform="matrix(12,0,0,12,198.2,318)" />
<use xlink:href="#f1_1e" transform="matrix(12,0,0,12,211.4,318)" />
<use xlink:href="#f1_1t" transform="matrix(12,0,0,12,226.8,318)" />
<use xlink:href="#f1_1a" transform="matrix(12,0,0,12,231.9,318)" />
<use xlink:href="#f1_1k" transform="matrix(12,0,0,12,242.2,318)" />
<use xlink:href="#f1_1e" transform="matrix(12,0,0,12,251.3,318)" />
<use xlink:href="#f1_1t" transform="matrix(12,0,0,12,266.4,318)" />
<use xlink:href="#f1_1h" transform="matrix(12,0,0,12,271.5,318)" />
<use xlink:href="#f1_1e" transform="matrix(12,0,0,12,281.8,318)" />
<use xlink:href="#f1_1t" transform="matrix(12,0,0,12,297.2,318)" />
<use xlink:href="#f1_1i" transform="matrix(12,0,0,12,301.9,318)" />
<use xlink:href="#f1_1m" transform="matrix(12,0,0,12,306.3,318)" />
<use xlink:href="#f1_1e" transform="matrix(12,0,0,12,321.4,318)" />
<use xlink:href="#f1_1t" transform="matrix(12,0,0,12,336.8,318)" />
<use xlink:href="#f1_1o" transform="matrix(12,0,0,12,341.9,318)" />
<use xlink:href="#f1_1u" transform="matrix(12,0,0,12,356.9,318)" />
<use xlink:href="#f1_1n" transform="matrix(12,0,0,12,367.2,318)" />
<use xlink:href="#f1_1d" transform="matrix(12,0,0,12,377.1,318)" />
<use xlink:href="#f1_1e" transform="matrix(12,0,0,12,387.4,318)" />
<use xlink:href="#f1_1r" transform="matrix(12,0,0,12,397.6,318)" />
<use xlink:href="#f1_1s" transform="matrix(12,0,0,12,403.5,318)" />
<use xlink:href="#f1_1t" transform="matrix(12,0,0,12,413,318)" />
<use xlink:href="#f1_1a" transform="matrix(12,0,0,12,418.2,318)" />
<use xlink:href="#f1_1n" transform="matrix(12,0,0,12,428.1,318)" />
<use xlink:href="#f1_1d" transform="matrix(12,0,0,12,438.3,318)" />
<use xlink:href="#f1_1y" transform="matrix(12,0,0,12,453.7,318)" />
<use xlink:href="#f1_1o" transform="matrix(12,0,0,12,462.9,318)" />
<use xlink:href="#f1_1u" transform="matrix(12,0,0,12,472.8,318)" />
<use xlink:href="#f1_1r" transform="matrix(12,0,0,12,483.1,318)" />
<use xlink:href="#f1_1o" transform="matrix(12,0,0,12,41.6,343.3)" />
<use xlink:href="#f1_1b" transform="matrix(12,0,0,12,51.9,343.3)" />
<use xlink:href="#f1_1j" transform="matrix(12,0,0,12,61.8,343.3)" />
<use xlink:href="#f1_1e" transform="matrix(12,0,0,12,66.2,343.3)" />
<use xlink:href="#f1_1c" transform="matrix(12,0,0,12,76.1,343.3)" />
<use xlink:href="#f1_1t" transform="matrix(12,0,0,12,85.2,343.3)" />
<use xlink:href="#f1_1i" transform="matrix(12,0,0,12,90.4,343.3)" />
<use xlink:href="#f1_1v" transform="matrix(12,0,0,12,94.4,343.3)" />
<use xlink:href="#f1_1e" transform="matrix(12,0,0,12,103.6,343.3)" />
<use xlink:href="#f1_1s" transform="matrix(12,0,0,12,113.8,343.3)" />
<use xlink:href="#f1_1a" transform="matrix(12,0,0,12,128.1,343.3)" />
<use xlink:href="#f1_1n" transform="matrix(12,0,0,12,138.4,343.3)" />
<use xlink:href="#f1_1d" transform="matrix(12,0,0,12,148.7,343.3)" />
<use xlink:href="#f1_1f" transform="matrix(12,0,0,12,163.7,343.3)" />
<use xlink:href="#f1_1a" transform="matrix(12,0,0,12,168.8,343.3)" />
<use xlink:href="#f1_1c" transform="matrix(12,0,0,12,179.1,343.3)" />
<use xlink:href="#f1_1t" transform="matrix(12,0,0,12,188.3,343.3)" />
<use xlink:href="#f1_1o" transform="matrix(12,0,0,12,193.4,343.3)" />
<use xlink:href="#f1_1r" transform="matrix(12,0,0,12,203.3,343.3)" />
<use xlink:href="#f1_1t" transform="matrix(12,0,0,12,214.7,343.3)" />
<use xlink:href="#f1_1h" transform="matrix(12,0,0,12,219.8,343.3)" />
<use xlink:href="#f1_1e" transform="matrix(12,0,0,12,230.1,343.3)" />
<use xlink:href="#f1_1s" transform="matrix(12,0,0,12,240,343.3)" />
<use xlink:href="#f1_1e" transform="matrix(12,0,0,12,249.5,343.3)" />
<use xlink:href="#f1_1i" transform="matrix(12,0,0,12,264.5,343.3)" />
<use xlink:href="#f1_1n" transform="matrix(12,0,0,12,268.6,343.3)" />
<use xlink:href="#f1_1t" transform="matrix(12,0,0,12,278.8,343.3)" />
<use xlink:href="#f1_1o" transform="matrix(12,0,0,12,284,343.3)" />
<use xlink:href="#f1_1o" transform="matrix(12,0,0,12,299,343.3)" />
<use xlink:href="#f1_1u" transform="matrix(12,0,0,12,309.3,343.3)" />
<use xlink:href="#f1_1r" transform="matrix(12,0,0,12,319.2,343.3)" />
<use xlink:href="#f1_13" transform="matrix(12,0,0,12,330.5,343.3)" />
<use xlink:href="#f1_s" transform="matrix(12,0,0,12,342.6,343.3)" />
<use xlink:href="#f1_10" transform="matrix(12,0,0,12,354.7,343.3)" />
<use xlink:href="#f1_1s" transform="matrix(12,0,0,12,374.2,343.3)" />
<use xlink:href="#f1_1t" transform="matrix(12,0,0,12,383.3,343.3)" />
<use xlink:href="#f1_1r" transform="matrix(12,0,0,12,388.5,343.3)" />
<use xlink:href="#f1_1a" transform="matrix(12,0,0,12,394.3,343.3)" />
<use xlink:href="#f1_1t" transform="matrix(12,0,0,12,404.6,343.3)" />
<use xlink:href="#f1_1e" transform="matrix(12,0,0,12,409.7,343.3)" />
<use xlink:href="#f1_1g" transform="matrix(12,0,0,12,420,343.3)" />
<use xlink:href="#f1_1y" transform="matrix(12,0,0,12,429.9,343.3)" />
<use xlink:href="#f1_b" transform="matrix(12,0,0,12,439.1,343.3)" />
<use xlink:href="#f1_17" transform="matrix(12,0,0,12,449.3,343.3)" />
<use xlink:href="#f1_1e" transform="matrix(12,0,0,12,466.6,343.3)" />
<use xlink:href="#f1_1t" transform="matrix(12,0,0,12,482,343.3)" />
<use xlink:href="#f1_1h" transform="matrix(12,0,0,12,487.1,343.3)" />
<use xlink:href="#f1_1e" transform="matrix(12,0,0,12,497.4,343.3)" />
<use xlink:href="#f1_1n" transform="matrix(12,0,0,12,507.3,343.3)" />
<use xlink:href="#f1_1r" transform="matrix(12,0,0,12,41.6,368.6)" />
<use xlink:href="#f1_1e" transform="matrix(12,0,0,12,47.8,368.6)" />
<use xlink:href="#f1_1c" transform="matrix(12,0,0,12,57.7,368.6)" />
<use xlink:href="#f1_1o" transform="matrix(12,0,0,12,66.9,368.6)" />
<use xlink:href="#f1_1m" transform="matrix(12,0,0,12,77.2,368.6)" />
<use xlink:href="#f1_1m" transform="matrix(12,0,0,12,92.6,368.6)" />
<use xlink:href="#f1_1e" transform="matrix(12,0,0,12,107.6,368.6)" />
<use xlink:href="#f1_1n" transform="matrix(12,0,0,12,117.9,368.6)" />
<use xlink:href="#f1_1d" transform="matrix(12,0,0,12,128.1,368.6)" />
<use xlink:href="#f1_1a" transform="matrix(12,0,0,12,143.2,368.6)" />
<use xlink:href="#f1_1p" transform="matrix(12,0,0,12,158.6,368.6)" />
<use xlink:href="#f1_1l" transform="matrix(12,0,0,12,168.8,368.6)" />
<use xlink:href="#f1_1a" transform="matrix(12,0,0,12,172.9,368.6)" />
<use xlink:href="#f1_1n" transform="matrix(12,0,0,12,183.1,368.6)" />
<use xlink:href="#f1_1f" transform="matrix(12,0,0,12,198.5,368.6)" />
<use xlink:href="#f1_1o" transform="matrix(12,0,0,12,203.3,368.6)" />
<use xlink:href="#f1_1r" transform="matrix(12,0,0,12,213.6,368.6)" />
<use xlink:href="#f1_1y" transform="matrix(12,0,0,12,224.9,368.6)" />
<use xlink:href="#f1_1o" transform="matrix(12,0,0,12,234.1,368.6)" />
<use xlink:href="#f1_1u" transform="matrix(12,0,0,12,244,368.6)" />
<use xlink:href="#f1_b" transform="matrix(12,0,0,12,253.9,368.6)" />
<use xlink:href="#f1_17" transform="matrix(12,0,0,12,264.2,368.6)" />
<use xlink:href="#f1_1e" transform="matrix(12,0,0,12,281.4,368.6)" />
<use xlink:href="#f1_1n" transform="matrix(12,0,0,12,296.8,368.6)" />
<use xlink:href="#f1_1e" transform="matrix(12,0,0,12,307.1,368.6)" />
<use xlink:href="#f1_1e" transform="matrix(12,0,0,12,317,368.6)" />
<use xlink:href="#f1_1d" transform="matrix(12,0,0,12,327.2,368.6)" />
<use xlink:href="#f1_1i" transform="matrix(12,0,0,12,342.6,368.6)" />
<use xlink:href="#f1_1n" transform="matrix(12,0,0,12,346.7,368.6)" />
<use xlink:href="#f1_1f" transform="matrix(12,0,0,12,356.9,368.6)" />
<use xlink:href="#f1_1o" transform="matrix(12,0,0,12,362.1,368.6)" />
<use xlink:href="#f1_1r" transform="matrix(12,0,0,12,372,368.6)" />
<use xlink:href="#f1_1m" transform="matrix(12,0,0,12,378.2,368.6)" />
<use xlink:href="#f1_1a" transform="matrix(12,0,0,12,393.2,368.6)" />
<use xlink:href="#f1_1t" transform="matrix(12,0,0,12,403.5,368.6)" />
<use xlink:href="#f1_1i" transform="matrix(12,0,0,12,408.6,368.6)" />
<use xlink:href="#f1_1o" transform="matrix(12,0,0,12,412.7,368.6)" />
<use xlink:href="#f1_1n" transform="matrix(12,0,0,12,422.9,368.6)" />
<use xlink:href="#f1_1f" transform="matrix(12,0,0,12,438.3,368.6)" />
<use xlink:href="#f1_1r" transform="matrix(12,0,0,12,443.5,368.6)" />
<use xlink:href="#f1_1o" transform="matrix(12,0,0,12,449.3,368.6)" />
<use xlink:href="#f1_1m" transform="matrix(12,0,0,12,459.6,368.6)" />
<use xlink:href="#f1_1y" transform="matrix(12,0,0,12,479.8,368.6)" />
<use xlink:href="#f1_1o" transform="matrix(12,0,0,12,488.9,368.6)" />
<use xlink:href="#f1_1u" transform="matrix(12,0,0,12,499.2,368.6)" />
<use xlink:href="#f1_1a" transform="matrix(12,0,0,12,41.6,393.9)" />
<use xlink:href="#f1_1b" transform="matrix(12,0,0,12,51.9,393.9)" />
<use xlink:href="#f1_1o" transform="matrix(12,0,0,12,62.1,393.9)" />
<use xlink:href="#f1_1u" transform="matrix(12,0,0,12,72,393.9)" />
<use xlink:href="#f1_1t" transform="matrix(12,0,0,12,82.3,393.9)" />
<use xlink:href="#f1_1y" transform="matrix(12,0,0,12,92.6,393.9)" />
<use xlink:href="#f1_1o" transform="matrix(12,0,0,12,101.7,393.9)" />
<use xlink:href="#f1_1u" transform="matrix(12,0,0,12,111.6,393.9)" />
<use xlink:href="#f1_1r" transform="matrix(12,0,0,12,121.9,393.9)" />
<use xlink:href="#f1_1b" transform="matrix(12,0,0,12,132.9,393.9)" />
<use xlink:href="#f1_1u" transform="matrix(12,0,0,12,143.2,393.9)" />
<use xlink:href="#f1_1s" transform="matrix(12,0,0,12,153.4,393.9)" />
<use xlink:href="#f1_1i" transform="matrix(12,0,0,12,162.6,393.9)" />
<use xlink:href="#f1_1n" transform="matrix(12,0,0,12,166.6,393.9)" />
<use xlink:href="#f1_1e" transform="matrix(12,0,0,12,176.9,393.9)" />
<use xlink:href="#f1_1s" transform="matrix(12,0,0,12,186.8,393.9)" />
<use xlink:href="#f1_1s" transform="matrix(12,0,0,12,196.3,393.9)" />
<use xlink:href="#f1_9" transform="matrix(12,0,0,12,205.5,393.9)" />
<use xlink:href="#f1_1p" transform="matrix(12,0,0,12,215.8,393.9)" />
<use xlink:href="#f1_1r" transform="matrix(12,0,0,12,226,393.9)" />
<use xlink:href="#f1_1o" transform="matrix(12,0,0,12,231.9,393.9)" />
<use xlink:href="#f1_1d" transform="matrix(12,0,0,12,242.2,393.9)" />
<use xlink:href="#f1_1u" transform="matrix(12,0,0,12,252.4,393.9)" />
<use xlink:href="#f1_1c" transform="matrix(12,0,0,12,262.3,393.9)" />
<use xlink:href="#f1_1t" transform="matrix(12,0,0,12,271.5,393.9)" />
<use xlink:href="#f1_1o" transform="matrix(12,0,0,12,281.8,393.9)" />
<use xlink:href="#f1_1r" transform="matrix(12,0,0,12,292,393.9)" />
<use xlink:href="#f1_1s" transform="matrix(12,0,0,12,303,393.9)" />
<use xlink:href="#f1_1e" transform="matrix(12,0,0,12,312.2,393.9)" />
<use xlink:href="#f1_1r" transform="matrix(12,0,0,12,322.5,393.9)" />
<use xlink:href="#f1_1v" transform="matrix(12,0,0,12,328.7,393.9)" />
<use xlink:href="#f1_1i" transform="matrix(12,0,0,12,337.9,393.9)" />
<use xlink:href="#f1_1c" transform="matrix(12,0,0,12,341.9,393.9)" />
<use xlink:href="#f1_1e" transform="matrix(12,0,0,12,351.1,393.9)" />
<use xlink:href="#f1_9" transform="matrix(12,0,0,12,361,393.9)" />
<use xlink:href="#f1_1y" transform="matrix(12,0,0,12,371.2,393.9)" />
<use xlink:href="#f1_1o" transform="matrix(12,0,0,12,380.4,393.9)" />
<use xlink:href="#f1_1u" transform="matrix(12,0,0,12,390.7,393.9)" />
<use xlink:href="#f1_1r" transform="matrix(12,0,0,12,400.6,393.9)" />
<use xlink:href="#f1_1t" transform="matrix(12,0,0,12,411.9,393.9)" />
<use xlink:href="#f1_1a" transform="matrix(12,0,0,12,417.1,393.9)" />
<use xlink:href="#f1_1r" transform="matrix(12,0,0,12,427.3,393.9)" />
<use xlink:href="#f1_1g" transform="matrix(12,0,0,12,433.2,393.9)" />
<use xlink:href="#f1_1e" transform="matrix(12,0,0,12,443.5,393.9)" />
<use xlink:href="#f1_1t" transform="matrix(12,0,0,12,453.7,393.9)" />
<use xlink:href="#f1_1m" transform="matrix(12,0,0,12,463.6,393.9)" />
<use xlink:href="#f1_1a" transform="matrix(12,0,0,12,479,393.9)" />
<use xlink:href="#f1_1r" transform="matrix(12,0,0,12,489.3,393.9)" />
<use xlink:href="#f1_1k" transform="matrix(12,0,0,12,495.5,393.9)" />
<use xlink:href="#f1_1e" transform="matrix(12,0,0,12,504.7,393.9)" />
<use xlink:href="#f1_1t" transform="matrix(12,0,0,12,514.6,393.9)" />
<use xlink:href="#f1_9" transform="matrix(12,0,0,12,519.7,393.9)" />
<use xlink:href="#f1_1y" transform="matrix(12,0,0,12,41.6,419.2)" />
<use xlink:href="#f1_1o" transform="matrix(12,0,0,12,50.8,419.2)" />
<use xlink:href="#f1_1u" transform="matrix(12,0,0,12,61,419.2)" />
<use xlink:href="#f1_1r" transform="matrix(12,0,0,12,70.9,419.2)" />
<use xlink:href="#f1_1p" transform="matrix(12,0,0,12,82.3,419.2)" />
<use xlink:href="#f1_1a" transform="matrix(12,0,0,12,92.6,419.2)" />
<use xlink:href="#f1_1s" transform="matrix(12,0,0,12,102.5,419.2)" />
<use xlink:href="#f1_1t" transform="matrix(12,0,0,12,112,419.2)" />
<use xlink:href="#f1_1a" transform="matrix(12,0,0,12,121.9,419.2)" />
<use xlink:href="#f1_1n" transform="matrix(12,0,0,12,132.2,419.2)" />
<use xlink:href="#f1_1d" transform="matrix(12,0,0,12,142.4,419.2)" />
<use xlink:href="#f1_1c" transform="matrix(12,0,0,12,157.8,419.2)" />
<use xlink:href="#f1_1u" transform="matrix(12,0,0,12,167,419.2)" />
<use xlink:href="#f1_1r" transform="matrix(12,0,0,12,176.9,419.2)" />
<use xlink:href="#f1_1r" transform="matrix(12,0,0,12,183.1,419.2)" />
<use xlink:href="#f1_1e" transform="matrix(12,0,0,12,189,419.2)" />
<use xlink:href="#f1_1n" transform="matrix(12,0,0,12,199.3,419.2)" />
<use xlink:href="#f1_1t" transform="matrix(12,0,0,12,209.5,419.2)" />
<use xlink:href="#f1_1m" transform="matrix(12,0,0,12,219.8,419.2)" />
<use xlink:href="#f1_1a" transform="matrix(12,0,0,12,234.8,419.2)" />
<use xlink:href="#f1_1r" transform="matrix(12,0,0,12,245.1,419.2)" />
<use xlink:href="#f1_1k" transform="matrix(12,0,0,12,251.3,419.2)" />
<use xlink:href="#f1_1e" transform="matrix(12,0,0,12,260.5,419.2)" />
<use xlink:href="#f1_1t" transform="matrix(12,0,0,12,270.4,419.2)" />
<use xlink:href="#f1_1i" transform="matrix(12,0,0,12,275.5,419.2)" />
<use xlink:href="#f1_1n" transform="matrix(12,0,0,12,279.6,419.2)" />
<use xlink:href="#f1_1g" transform="matrix(12,0,0,12,289.8,419.2)" />
<use xlink:href="#f1_1a" transform="matrix(12,0,0,12,305.2,419.2)" />
<use xlink:href="#f1_1c" transform="matrix(12,0,0,12,315.5,419.2)" />
<use xlink:href="#f1_1t" transform="matrix(12,0,0,12,324.7,419.2)" />
<use xlink:href="#f1_1i" transform="matrix(12,0,0,12,329.8,419.2)" />
<use xlink:href="#f1_1v" transform="matrix(12,0,0,12,333.8,419.2)" />
<use xlink:href="#f1_1i" transform="matrix(12,0,0,12,343,419.2)" />
<use xlink:href="#f1_1t" transform="matrix(12,0,0,12,347,419.2)" />
<use xlink:href="#f1_1i" transform="matrix(12,0,0,12,352.2,419.2)" />
<use xlink:href="#f1_1e" transform="matrix(12,0,0,12,356.2,419.2)" />
<use xlink:href="#f1_1s" transform="matrix(12,0,0,12,366.5,419.2)" />
<use xlink:href="#f1_1t" transform="matrix(12,0,0,12,380.8,419.2)" />
<use xlink:href="#f1_1o" transform="matrix(12,0,0,12,385.5,419.2)" />
<use xlink:href="#f1_1g" transform="matrix(12,0,0,12,400.9,419.2)" />
<use xlink:href="#f1_1i" transform="matrix(12,0,0,12,410.8,419.2)" />
<use xlink:href="#f1_1v" transform="matrix(12,0,0,12,414.9,419.2)" />
<use xlink:href="#f1_1e" transform="matrix(12,0,0,12,424,419.2)" />
<use xlink:href="#f1_1u" transform="matrix(12,0,0,12,439.4,419.2)" />
<use xlink:href="#f1_1s" transform="matrix(12,0,0,12,449.3,419.2)" />
<use xlink:href="#f1_1a" transform="matrix(12,0,0,12,464,419.2)" />
<use xlink:href="#f1_1c" transform="matrix(12,0,0,12,479,419.2)" />
<use xlink:href="#f1_1l" transform="matrix(12,0,0,12,488.2,419.2)" />
<use xlink:href="#f1_1e" transform="matrix(12,0,0,12,492.2,419.2)" />
<use xlink:href="#f1_1a" transform="matrix(12,0,0,12,502.5,419.2)" />
<use xlink:href="#f1_1r" transform="matrix(12,0,0,12,512.8,419.2)" />
<use xlink:href="#f1_1e" transform="matrix(12,0,0,12,518.6,419.2)" />
<use xlink:href="#f1_1r" transform="matrix(12,0,0,12,528.9,419.2)" />
<use xlink:href="#f1_1a" transform="matrix(12,0,0,12,41.6,444.5)" />
<use xlink:href="#f1_1n" transform="matrix(12,0,0,12,51.9,444.5)" />
<use xlink:href="#f1_1d" transform="matrix(12,0,0,12,62.1,444.5)" />
<use xlink:href="#f1_1b" transform="matrix(12,0,0,12,77.2,444.5)" />
<use xlink:href="#f1_1i" transform="matrix(12,0,0,12,87.4,444.5)" />
<use xlink:href="#f1_1g" transform="matrix(12,0,0,12,91.5,444.5)" />
<use xlink:href="#f1_1g" transform="matrix(12,0,0,12,101.7,444.5)" />
<use xlink:href="#f1_1e" transform="matrix(12,0,0,12,112,444.5)" />
<use xlink:href="#f1_1r" transform="matrix(12,0,0,12,121.9,444.5)" />
<use xlink:href="#f1_1p" transform="matrix(12,0,0,12,133.3,444.5)" />
<use xlink:href="#f1_1i" transform="matrix(12,0,0,12,143.5,444.5)" />
<use xlink:href="#f1_1c" transform="matrix(12,0,0,12,147.6,444.5)" />
<use xlink:href="#f1_1t" transform="matrix(12,0,0,12,156.7,444.5)" />
<use xlink:href="#f1_1u" transform="matrix(12,0,0,12,161.9,444.5)" />
<use xlink:href="#f1_1r" transform="matrix(12,0,0,12,171.8,444.5)" />
<use xlink:href="#f1_1e" transform="matrix(12,0,0,12,178,444.5)" />
<use xlink:href="#f1_1o" transform="matrix(12,0,0,12,193,444.5)" />
<use xlink:href="#f1_1f" transform="matrix(12,0,0,12,203.3,444.5)" />
<use xlink:href="#f1_1h" transform="matrix(12,0,0,12,213.6,444.5)" />
<use xlink:href="#f1_1o" transform="matrix(12,0,0,12,223.8,444.5)" />
<use xlink:href="#f1_1w" transform="matrix(12,0,0,12,233.7,444.5)" />
<use xlink:href="#f1_1t" transform="matrix(12,0,0,12,252.1,444.5)" />
<use xlink:href="#f1_1o" transform="matrix(12,0,0,12,257.2,444.5)" />
<use xlink:href="#f1_1h" transform="matrix(12,0,0,12,272.6,444.5)" />
<use xlink:href="#f1_1e" transform="matrix(12,0,0,12,282.9,444.5)" />
<use xlink:href="#f1_1l" transform="matrix(12,0,0,12,292.8,444.5)" />
<use xlink:href="#f1_1p" transform="matrix(12,0,0,12,297.2,444.5)" />
<use xlink:href="#f1_1y" transform="matrix(12,0,0,12,312.2,444.5)" />
<use xlink:href="#f1_1o" transform="matrix(12,0,0,12,321.4,444.5)" />
<use xlink:href="#f1_1u" transform="matrix(12,0,0,12,331.6,444.5)" />
<use xlink:href="#f1_1a" transform="matrix(12,0,0,12,346.7,444.5)" />
<use xlink:href="#f1_1n" transform="matrix(12,0,0,12,356.9,444.5)" />
<use xlink:href="#f1_1d" transform="matrix(12,0,0,12,367.2,444.5)" />
<use xlink:href="#f1_1s" transform="matrix(12,0,0,12,382.6,444.5)" />
<use xlink:href="#f1_1o" transform="matrix(12,0,0,12,391.8,444.5)" />
<use xlink:href="#f1_1e" transform="matrix(12,0,0,12,406.8,444.5)" />
<use xlink:href="#f1_1n" transform="matrix(12,0,0,12,417.1,444.5)" />
<use xlink:href="#f1_1s" transform="matrix(12,0,0,12,427.3,444.5)" />
<use xlink:href="#f1_1u" transform="matrix(12,0,0,12,436.5,444.5)" />
<use xlink:href="#f1_1r" transform="matrix(12,0,0,12,446.8,444.5)" />
<use xlink:href="#f1_1e" transform="matrix(12,0,0,12,452.6,444.5)" />
<use xlink:href="#f1_1t" transform="matrix(12,0,0,12,468,444.5)" />
<use xlink:href="#f1_1h" transform="matrix(12,0,0,12,473.2,444.5)" />
<use xlink:href="#f1_1a" transform="matrix(12,0,0,12,483.1,444.5)" />
<use xlink:href="#f1_1t" transform="matrix(12,0,0,12,493.3,444.5)" />
<use xlink:href="#f1_1w" transform="matrix(12,0,0,12,503.6,444.5)" />
<use xlink:href="#f1_1e" transform="matrix(12,0,0,12,516.8,444.5)" />
</g>
</g>
<g clip-path="url(#c1_8)">
<g fill="#595959" >
<use xlink:href="#f1_1p" transform="matrix(12,0,0,12,41.6,469.4)" />
<use xlink:href="#f1_1r" transform="matrix(12,0,0,12,51.9,469.4)" />
<use xlink:href="#f1_1o" transform="matrix(12,0,0,12,58.1,469.4)" />
<use xlink:href="#f1_1v" transform="matrix(12,0,0,12,68,469.4)" />
<use xlink:href="#f1_1i" transform="matrix(12,0,0,12,77.2,469.4)" />
<use xlink:href="#f1_1d" transform="matrix(12,0,0,12,81.2,469.4)" />
<use xlink:href="#f1_1e" transform="matrix(12,0,0,12,91.5,469.4)" />
<use xlink:href="#f1_1v" transform="matrix(12,0,0,12,106.9,469.4)" />
<use xlink:href="#f1_1a" transform="matrix(12,0,0,12,116,469.4)" />
<use xlink:href="#f1_1l" transform="matrix(12,0,0,12,125.9,469.4)" />
<use xlink:href="#f1_1u" transform="matrix(12,0,0,12,130,469.4)" />
<use xlink:href="#f1_1e" transform="matrix(12,0,0,12,140.2,469.4)" />
<use xlink:href="#f1_1w" transform="matrix(12,0,0,12,155.3,469.4)" />
<use xlink:href="#f1_1i" transform="matrix(12,0,0,12,168.8,469.4)" />
<use xlink:href="#f1_1t" transform="matrix(12,0,0,12,172.9,469.4)" />
<use xlink:href="#f1_1h" transform="matrix(12,0,0,12,178,469.4)" />
<use xlink:href="#f1_1o" transform="matrix(12,0,0,12,193,469.4)" />
<use xlink:href="#f1_1u" transform="matrix(12,0,0,12,203.3,469.4)" />
<use xlink:href="#f1_1r" transform="matrix(12,0,0,12,213.2,469.4)" />
<use xlink:href="#f1_13" transform="matrix(12,0,0,12,224.6,469.4)" />
<use xlink:href="#f1_s" transform="matrix(12,0,0,12,236.7,469.4)" />
<use xlink:href="#f1_10" transform="matrix(12,0,0,12,248.8,469.4)" />
<use xlink:href="#f1_1s" transform="matrix(12,0,0,12,268.2,469.4)" />
<use xlink:href="#f1_1e" transform="matrix(12,0,0,12,277.4,469.4)" />
<use xlink:href="#f1_1r" transform="matrix(12,0,0,12,287.6,469.4)" />
<use xlink:href="#f1_1v" transform="matrix(12,0,0,12,293.9,469.4)" />
<use xlink:href="#f1_1i" transform="matrix(12,0,0,12,303,469.4)" />
<use xlink:href="#f1_1c" transform="matrix(12,0,0,12,307.1,469.4)" />
<use xlink:href="#f1_1e" transform="matrix(12,0,0,12,316.2,469.4)" />
<use xlink:href="#f1_1s" transform="matrix(12,0,0,12,326.1,469.4)" />
<use xlink:href="#f1_b" transform="matrix(12,0,0,12,335.7,469.4)" />
</g>
</g>
<path fill-rule="evenodd" d="M28.2,481l548.3,0l0,160.9l-548.3,0Z" class="g1_8" />
<image preserveAspectRatio="none" x="29" y="487" width="547" height="149" xlink:href="img/3.png" />
<g clip-path="url(#c2_8)">
<g fill="#595959" >
<use xlink:href="#f1_17" transform="matrix(12,0,0,12,39.6,504.9)" />
<use xlink:href="#f1_1e" transform="matrix(12,0,0,12,56.8,504.9)" />
<use xlink:href="#f1_1f" transform="matrix(12,0,0,12,72.2,504.9)" />
<use xlink:href="#f1_1o" transform="matrix(12,0,0,12,77.3,504.9)" />
<use xlink:href="#f1_1l" transform="matrix(12,0,0,12,87.2,504.9)" />
<use xlink:href="#f1_1l" transform="matrix(12,0,0,12,91.3,504.9)" />
<use xlink:href="#f1_1o" transform="matrix(12,0,0,12,95.3,504.9)" />
<use xlink:href="#f1_1w" transform="matrix(12,0,0,12,105.6,504.9)" />
<use xlink:href="#f1_1a" transform="matrix(12,0,0,12,123.9,504.9)" />
<use xlink:href="#f1_1c" transform="matrix(12,0,0,12,139.3,504.9)" />
<use xlink:href="#f1_1y" transform="matrix(12,0,0,12,148.5,504.9)" />
<use xlink:href="#f1_1c" transform="matrix(12,0,0,12,157.6,504.9)" />
<use xlink:href="#f1_1l" transform="matrix(12,0,0,12,166.8,504.9)" />
<use xlink:href="#f1_1e" transform="matrix(12,0,0,12,170.8,504.9)" />
<use xlink:href="#f1_1b" transform="matrix(12,0,0,12,186.2,504.9)" />
<use xlink:href="#f1_1e" transform="matrix(12,0,0,12,196.1,504.9)" />
<use xlink:href="#f1_1g" transform="matrix(12,0,0,12,206.4,504.9)" />
<use xlink:href="#f1_1i" transform="matrix(12,0,0,12,216.7,504.9)" />
<use xlink:href="#f1_1n" transform="matrix(12,0,0,12,220.7,504.9)" />
<use xlink:href="#f1_1n" transform="matrix(12,0,0,12,231,504.9)" />
<use xlink:href="#f1_1i" transform="matrix(12,0,0,12,240.9,504.9)" />
<use xlink:href="#f1_1n" transform="matrix(12,0,0,12,245.3,504.9)" />
<use xlink:href="#f1_1g" transform="matrix(12,0,0,12,255.2,504.9)" />
<use xlink:href="#f1_1w" transform="matrix(12,0,0,12,270.6,504.9)" />
<use xlink:href="#f1_1i" transform="matrix(12,0,0,12,283.8,504.9)" />
<use xlink:href="#f1_1t" transform="matrix(12,0,0,12,287.8,504.9)" />
<use xlink:href="#f1_1h" transform="matrix(12,0,0,12,292.9,504.9)" />
<use xlink:href="#f1_1i" transform="matrix(12,0,0,12,308.3,504.9)" />
<use xlink:href="#f1_1n" transform="matrix(12,0,0,12,312.4,504.9)" />
<use xlink:href="#f1_a" transform="matrix(12,0,0,12,322.6,504.9)" />
<use xlink:href="#f1_1d" transform="matrix(12,0,0,12,328.5,504.9)" />
<use xlink:href="#f1_1e" transform="matrix(12,0,0,12,338.8,504.9)" />
<use xlink:href="#f1_1p" transform="matrix(12,0,0,12,348.7,504.9)" />
<use xlink:href="#f1_1t" transform="matrix(12,0,0,12,358.9,504.9)" />
<use xlink:href="#f1_1h" transform="matrix(12,0,0,12,364.1,504.9)" />
<use xlink:href="#f1_1c" transform="matrix(12,0,0,12,379.5,504.9)" />
<use xlink:href="#f1_1o" transform="matrix(12,0,0,12,388.6,504.9)" />
<use xlink:href="#f1_1n" transform="matrix(12,0,0,12,398.5,504.9)" />
<use xlink:href="#f1_1s" transform="matrix(12,0,0,12,408.8,504.9)" />
<use xlink:href="#f1_1u" transform="matrix(12,0,0,12,418.3,504.9)" />
<use xlink:href="#f1_1l" transform="matrix(12,0,0,12,428.2,504.9)" />
<use xlink:href="#f1_1t" transform="matrix(12,0,0,12,432.3,504.9)" />
<use xlink:href="#f1_1a" transform="matrix(12,0,0,12,437.4,504.9)" />
<use xlink:href="#f1_1t" transform="matrix(12,0,0,12,447.7,504.9)" />
<use xlink:href="#f1_1i" transform="matrix(12,0,0,12,452.8,504.9)" />
<use xlink:href="#f1_1o" transform="matrix(12,0,0,12,456.8,504.9)" />
<use xlink:href="#f1_1n" transform="matrix(12,0,0,12,466.7,504.9)" />
<use xlink:href="#f1_1t" transform="matrix(12,0,0,12,482.1,504.9)" />
<use xlink:href="#f1_1o" transform="matrix(12,0,0,12,487.3,504.9)" />
<use xlink:href="#f1_1i" transform="matrix(12,0,0,12,502.3,504.9)" />
<use xlink:href="#f1_1d" transform="matrix(12,0,0,12,506.7,504.9)" />
<use xlink:href="#f1_1e" transform="matrix(12,0,0,12,517,504.9)" />
<use xlink:href="#f1_1n" transform="matrix(12,0,0,12,526.9,504.9)" />
<use xlink:href="#f1_1t" transform="matrix(12,0,0,12,537.1,504.9)" />
<use xlink:href="#f1_1i" transform="matrix(12,0,0,12,542.3,504.9)" />
<use xlink:href="#f1_1f" transform="matrix(12,0,0,12,546.3,504.9)" />
<use xlink:href="#f1_1y" transform="matrix(12,0,0,12,551.4,504.9)" />
</g>
</g>
<g clip-path="url(#c0_8)">
<g fill="#595959" >
<use xlink:href="#f1_1y" transform="matrix(12,0,0,12,39.6,530.2)" />
<use xlink:href="#f1_1o" transform="matrix(12,0,0,12,48.7,530.2)" />
<use xlink:href="#f1_1u" transform="matrix(12,0,0,12,59,530.2)" />
<use xlink:href="#f1_1r" transform="matrix(12,0,0,12,68.9,530.2)" />
<use xlink:href="#f1_1n" transform="matrix(12,0,0,12,80.3,530.2)" />
<use xlink:href="#f1_1e" transform="matrix(12,0,0,12,90.5,530.2)" />
<use xlink:href="#f1_1e" transform="matrix(12,0,0,12,100.4,530.2)" />
<use xlink:href="#f1_1d" transform="matrix(12,0,0,12,110.7,530.2)" />
<use xlink:href="#f1_1s" transform="matrix(12,0,0,12,121,530.2)" />
<use xlink:href="#f1_1a" transform="matrix(12,0,0,12,135.3,530.2)" />
<use xlink:href="#f1_1n" transform="matrix(12,0,0,12,145.2,530.2)" />
<use xlink:href="#f1_1d" transform="matrix(12,0,0,12,155.4,530.2)" />
<use xlink:href="#f1_1s" transform="matrix(12,0,0,12,170.8,530.2)" />
<use xlink:href="#f1_1o" transform="matrix(12,0,0,12,180,530.2)" />
<use xlink:href="#f1_1d" transform="matrix(12,0,0,12,195.4,530.2)" />
<use xlink:href="#f1_1e" transform="matrix(12,0,0,12,205.3,530.2)" />
<use xlink:href="#f1_1t" transform="matrix(12,0,0,12,215.6,530.2)" />
<use xlink:href="#f1_1e" transform="matrix(12,0,0,12,220.7,530.2)" />
<use xlink:href="#f1_1r" transform="matrix(12,0,0,12,231,530.2)" />
<use xlink:href="#f1_1m" transform="matrix(12,0,0,12,236.8,530.2)" />
<use xlink:href="#f1_1i" transform="matrix(12,0,0,12,252.2,530.2)" />
<use xlink:href="#f1_1n" transform="matrix(12,0,0,12,256.3,530.2)" />
<use xlink:href="#f1_1e" transform="matrix(12,0,0,12,266.5,530.2)" />
<use xlink:href="#f1_1t" transform="matrix(12,0,0,12,281.6,530.2)" />
<use xlink:href="#f1_1h" transform="matrix(12,0,0,12,286.7,530.2)" />
<use xlink:href="#f1_1e" transform="matrix(12,0,0,12,297,530.2)" />
<use xlink:href="#f1_1b" transform="matrix(12,0,0,12,312,530.2)" />
<use xlink:href="#f1_1e" transform="matrix(12,0,0,12,322.3,530.2)" />
<use xlink:href="#f1_1s" transform="matrix(12,0,0,12,332.5,530.2)" />
<use xlink:href="#f1_1t" transform="matrix(12,0,0,12,341.7,530.2)" />
<use xlink:href="#f1_1s" transform="matrix(12,0,0,12,352,530.2)" />
<use xlink:href="#f1_1t" transform="matrix(12,0,0,12,361.1,530.2)" />
<use xlink:href="#f1_1r" transform="matrix(12,0,0,12,366.3,530.2)" />
<use xlink:href="#f1_1a" transform="matrix(12,0,0,12,372.5,530.2)" />
<use xlink:href="#f1_1t" transform="matrix(12,0,0,12,382.4,530.2)" />
<use xlink:href="#f1_1e" transform="matrix(12,0,0,12,387.5,530.2)" />
<use xlink:href="#f1_1g" transform="matrix(12,0,0,12,397.8,530.2)" />
<use xlink:href="#f1_1y" transform="matrix(12,0,0,12,408.1,530.2)" />
<use xlink:href="#f1_1a" transform="matrix(12,0,0,12,422,530.2)" />
<use xlink:href="#f1_1n" transform="matrix(12,0,0,12,432.3,530.2)" />
<use xlink:href="#f1_1d" transform="matrix(12,0,0,12,442.5,530.2)" />
<use xlink:href="#f1_1i" transform="matrix(12,0,0,12,457.9,530.2)" />
<use xlink:href="#f1_1m" transform="matrix(12,0,0,12,462,530.2)" />
<use xlink:href="#f1_1p" transform="matrix(12,0,0,12,477,530.2)" />
<use xlink:href="#f1_1l" transform="matrix(12,0,0,12,487.3,530.2)" />
<use xlink:href="#f1_1e" transform="matrix(12,0,0,12,491.3,530.2)" />
<use xlink:href="#f1_1m" transform="matrix(12,0,0,12,501.6,530.2)" />
<use xlink:href="#f1_1e" transform="matrix(12,0,0,12,517,530.2)" />
<use xlink:href="#f1_1n" transform="matrix(12,0,0,12,526.9,530.2)" />
<use xlink:href="#f1_1t" transform="matrix(12,0,0,12,537.1,530.2)" />
<use xlink:href="#f1_1t" transform="matrix(12,0,0,12,39.6,555.5)" />
<use xlink:href="#f1_1h" transform="matrix(12,0,0,12,44.7,555.5)" />
<use xlink:href="#f1_1e" transform="matrix(12,0,0,12,55,555.5)" />
<use xlink:href="#f1_1m" transform="matrix(12,0,0,12,70,555.5)" />
<use xlink:href="#f1_1o" transform="matrix(12,0,0,12,85.4,555.5)" />
<use xlink:href="#f1_1s" transform="matrix(12,0,0,12,95.7,555.5)" />
<use xlink:href="#f1_1t" transform="matrix(12,0,0,12,104.8,555.5)" />
<use xlink:href="#f1_1s" transform="matrix(12,0,0,12,115.1,555.5)" />
<use xlink:href="#f1_1u" transform="matrix(12,0,0,12,124.3,555.5)" />
<use xlink:href="#f1_1i" transform="matrix(12,0,0,12,134.5,555.5)" />
<use xlink:href="#f1_1t" transform="matrix(12,0,0,12,138.6,555.5)" />
<use xlink:href="#f1_1a" transform="matrix(12,0,0,12,143.7,555.5)" />
<use xlink:href="#f1_1b" transform="matrix(12,0,0,12,154,555.5)" />
<use xlink:href="#f1_1l" transform="matrix(12,0,0,12,163.9,555.5)" />
<use xlink:href="#f1_1e" transform="matrix(12,0,0,12,168.3,555.5)" />
<use xlink:href="#f1_1s" transform="matrix(12,0,0,12,183.3,555.5)" />
<use xlink:href="#f1_1o" transform="matrix(12,0,0,12,192.5,555.5)" />
<use xlink:href="#f1_1l" transform="matrix(12,0,0,12,202.7,555.5)" />
<use xlink:href="#f1_1u" transform="matrix(12,0,0,12,206.8,555.5)" />
<use xlink:href="#f1_1t" transform="matrix(12,0,0,12,217,555.5)" />
<use xlink:href="#f1_1i" transform="matrix(12,0,0,12,221.8,555.5)" />
<use xlink:href="#f1_1o" transform="matrix(12,0,0,12,226.2,555.5)" />
<use xlink:href="#f1_1n" transform="matrix(12,0,0,12,236.1,555.5)" />
<use xlink:href="#f1_1s" transform="matrix(12,0,0,12,246.4,555.5)" />
<use xlink:href="#f1_b" transform="matrix(12,0,0,12,255.5,555.5)" />
<use xlink:href="#f1_17" transform="matrix(12,0,0,12,265.8,555.5)" />
<use xlink:href="#f1_1e" transform="matrix(12,0,0,12,283,555.5)" />
<use xlink:href="#f1_1t" transform="matrix(12,0,0,12,298.4,555.5)" />
<use xlink:href="#f1_1h" transform="matrix(12,0,0,12,303.6,555.5)" />
<use xlink:href="#f1_1e" transform="matrix(12,0,0,12,313.5,555.5)" />
<use xlink:href="#f1_1n" transform="matrix(12,0,0,12,323.7,555.5)" />
<use xlink:href="#f1_1m" transform="matrix(12,0,0,12,339.1,555.5)" />
<use xlink:href="#f1_1e" transform="matrix(12,0,0,12,354.2,555.5)" />
<use xlink:href="#f1_1a" transform="matrix(12,0,0,12,364.4,555.5)" />
<use xlink:href="#f1_1s" transform="matrix(12,0,0,12,374.7,555.5)" />
<use xlink:href="#f1_1u" transform="matrix(12,0,0,12,383.9,555.5)" />
<use xlink:href="#f1_1r" transform="matrix(12,0,0,12,394.1,555.5)" />
<use xlink:href="#f1_1e" transform="matrix(12,0,0,12,400,555.5)" />
<use xlink:href="#f1_1a" transform="matrix(12,0,0,12,415.4,555.5)" />
<use xlink:href="#f1_1n" transform="matrix(12,0,0,12,425.7,555.5)" />
<use xlink:href="#f1_1d" transform="matrix(12,0,0,12,435.6,555.5)" />
<use xlink:href="#f1_1a" transform="matrix(12,0,0,12,451,555.5)" />
<use xlink:href="#f1_1n" transform="matrix(12,0,0,12,461.2,555.5)" />
<use xlink:href="#f1_1a" transform="matrix(12,0,0,12,471.5,555.5)" />
<use xlink:href="#f1_1l" transform="matrix(12,0,0,12,481.4,555.5)" />
<use xlink:href="#f1_1y" transform="matrix(12,0,0,12,485.8,555.5)" />
<use xlink:href="#f1_1z" transform="matrix(12,0,0,12,495,555.5)" />
<use xlink:href="#f1_1e" transform="matrix(12,0,0,12,504.1,555.5)" />
<use xlink:href="#f1_1t" transform="matrix(12,0,0,12,519.2,555.5)" />
<use xlink:href="#f1_1h" transform="matrix(12,0,0,12,524.3,555.5)" />
<use xlink:href="#f1_1e" transform="matrix(12,0,0,12,534.6,555.5)" />
<use xlink:href="#f1_1r" transform="matrix(12,0,0,12,39.6,580.8)" />
<use xlink:href="#f1_1e" transform="matrix(12,0,0,12,45.8,580.8)" />
<use xlink:href="#f1_1s" transform="matrix(12,0,0,12,55.7,580.8)" />
<use xlink:href="#f1_1u" transform="matrix(12,0,0,12,65.2,580.8)" />
<use xlink:href="#f1_1l" transform="matrix(12,0,0,12,75.1,580.8)" />
<use xlink:href="#f1_1t" transform="matrix(12,0,0,12,79.2,580.8)" />
<use xlink:href="#f1_1s" transform="matrix(12,0,0,12,84.3,580.8)" />
<use xlink:href="#f1_1a" transform="matrix(12,0,0,12,98.6,580.8)" />
<use xlink:href="#f1_1n" transform="matrix(12,0,0,12,108.9,580.8)" />
<use xlink:href="#f1_1d" transform="matrix(12,0,0,12,119.1,580.8)" />
<use xlink:href="#f1_1l" transform="matrix(12,0,0,12,134.2,580.8)" />
<use xlink:href="#f1_1i" transform="matrix(12,0,0,12,138.6,580.8)" />
<use xlink:href="#f1_1s" transform="matrix(12,0,0,12,142.6,580.8)" />
<use xlink:href="#f1_1t" transform="matrix(12,0,0,12,151.8,580.8)" />
<use xlink:href="#f1_1e" transform="matrix(12,0,0,12,156.9,580.8)" />
<use xlink:href="#f1_1n" transform="matrix(12,0,0,12,166.8,580.8)" />
<use xlink:href="#f1_1t" transform="matrix(12,0,0,12,182.2,580.8)" />
<use xlink:href="#f1_1o" transform="matrix(12,0,0,12,187.3,580.8)" />
<use xlink:href="#f1_1y" transform="matrix(12,0,0,12,202.7,580.8)" />
<use xlink:href="#f1_1o" transform="matrix(12,0,0,12,211.9,580.8)" />
<use xlink:href="#f1_1u" transform="matrix(12,0,0,12,221.8,580.8)" />
<use xlink:href="#f1_1r" transform="matrix(12,0,0,12,232.1,580.8)" />
<use xlink:href="#f1_1f" transform="matrix(12,0,0,12,243.1,580.8)" />
<use xlink:href="#f1_1e" transform="matrix(12,0,0,12,248.2,580.8)" />
<use xlink:href="#f1_1e" transform="matrix(12,0,0,12,258.5,580.8)" />
<use xlink:href="#f1_1d" transform="matrix(12,0,0,12,268.4,580.8)" />
<use xlink:href="#f1_1b" transform="matrix(12,0,0,12,278.6,580.8)" />
<use xlink:href="#f1_1a" transform="matrix(12,0,0,12,288.9,580.8)" />
<use xlink:href="#f1_1c" transform="matrix(12,0,0,12,299.2,580.8)" />
<use xlink:href="#f1_1k" transform="matrix(12,0,0,12,308.3,580.8)" />
<use xlink:href="#f1_1s" transform="matrix(12,0,0,12,322.6,580.8)" />
<use xlink:href="#f1_1o" transform="matrix(12,0,0,12,331.8,580.8)" />
<use xlink:href="#f1_1w" transform="matrix(12,0,0,12,346.8,580.8)" />
<use xlink:href="#f1_1e" transform="matrix(12,0,0,12,360,580.8)" />
<use xlink:href="#f1_1c" transform="matrix(12,0,0,12,375.4,580.8)" />
<use xlink:href="#f1_1a" transform="matrix(12,0,0,12,384.6,580.8)" />
<use xlink:href="#f1_1n" transform="matrix(12,0,0,12,394.9,580.8)" />
<use xlink:href="#f1_1a" transform="matrix(12,0,0,12,410.3,580.8)" />
<use xlink:href="#f1_1p" transform="matrix(12,0,0,12,420.2,580.8)" />
<use xlink:href="#f1_1p" transform="matrix(12,0,0,12,430.4,580.8)" />
<use xlink:href="#f1_1l" transform="matrix(12,0,0,12,440.7,580.8)" />
<use xlink:href="#f1_1y" transform="matrix(12,0,0,12,444.7,580.8)" />
<use xlink:href="#f1_1c" transform="matrix(12,0,0,12,459,580.8)" />
<use xlink:href="#f1_1o" transform="matrix(12,0,0,12,468.2,580.8)" />
<use xlink:href="#f1_1n" transform="matrix(12,0,0,12,478.5,580.8)" />
<use xlink:href="#f1_1t" transform="matrix(12,0,0,12,488.7,580.8)" />
<use xlink:href="#f1_1i" transform="matrix(12,0,0,12,493.5,580.8)" />
<use xlink:href="#f1_1n" transform="matrix(12,0,0,12,497.5,580.8)" />
<use xlink:href="#f1_1u" transform="matrix(12,0,0,12,507.8,580.8)" />
<use xlink:href="#f1_1o" transform="matrix(12,0,0,12,518.1,580.8)" />
<use xlink:href="#f1_1u" transform="matrix(12,0,0,12,528,580.8)" />
<use xlink:href="#f1_1s" transform="matrix(12,0,0,12,538.2,580.8)" />
<use xlink:href="#f1_1i" transform="matrix(12,0,0,12,39.6,606.1)" />
<use xlink:href="#f1_1m" transform="matrix(12,0,0,12,43.6,606.1)" />
<use xlink:href="#f1_1p" transform="matrix(12,0,0,12,59,606.1)" />
<use xlink:href="#f1_1r" transform="matrix(12,0,0,12,69.3,606.1)" />
<use xlink:href="#f1_1o" transform="matrix(12,0,0,12,75.1,606.1)" />
<use xlink:href="#f1_1v" transform="matrix(12,0,0,12,85.4,606.1)" />
<use xlink:href="#f1_1e" transform="matrix(12,0,0,12,94.6,606.1)" />
<use xlink:href="#f1_1m" transform="matrix(12,0,0,12,104.8,606.1)" />
<use xlink:href="#f1_1e" transform="matrix(12,0,0,12,119.9,606.1)" />
<use xlink:href="#f1_1n" transform="matrix(12,0,0,12,130.1,606.1)" />
<use xlink:href="#f1_1t" transform="matrix(12,0,0,12,140.4,606.1)" />
<use xlink:href="#f1_1s" transform="matrix(12,0,0,12,145.5,606.1)" />
<use xlink:href="#f1_1t" transform="matrix(12,0,0,12,159.8,606.1)" />
<use xlink:href="#f1_1o" transform="matrix(12,0,0,12,165,606.1)" />
<use xlink:href="#f1_1y" transform="matrix(12,0,0,12,180,606.1)" />
<use xlink:href="#f1_1o" transform="matrix(12,0,0,12,189.2,606.1)" />
<use xlink:href="#f1_1u" transform="matrix(12,0,0,12,199.4,606.1)" />
<use xlink:href="#f1_1r" transform="matrix(12,0,0,12,209.3,606.1)" />
<use xlink:href="#f1_1c" transform="matrix(12,0,0,12,220.7,606.1)" />
<use xlink:href="#f1_1a" transform="matrix(12,0,0,12,229.9,606.1)" />
<use xlink:href="#f1_1m" transform="matrix(12,0,0,12,240.1,606.1)" />
<use xlink:href="#f1_1p" transform="matrix(12,0,0,12,255.2,606.1)" />
<use xlink:href="#f1_1a" transform="matrix(12,0,0,12,265.4,606.1)" />
<use xlink:href="#f1_1i" transform="matrix(12,0,0,12,275.7,606.1)" />
<use xlink:href="#f1_1g" transform="matrix(12,0,0,12,279.7,606.1)" />
<use xlink:href="#f1_1n" transform="matrix(12,0,0,12,290,606.1)" />
<use xlink:href="#f1_1i" transform="matrix(12,0,0,12,305,606.1)" />
<use xlink:href="#f1_1n" transform="matrix(12,0,0,12,309.1,606.1)" />
<use xlink:href="#f1_1o" transform="matrix(12,0,0,12,324.5,606.1)" />
<use xlink:href="#f1_1r" transform="matrix(12,0,0,12,334.7,606.1)" />
<use xlink:href="#f1_1d" transform="matrix(12,0,0,12,340.6,606.1)" />
<use xlink:href="#f1_1e" transform="matrix(12,0,0,12,350.9,606.1)" />
<use xlink:href="#f1_1r" transform="matrix(12,0,0,12,361.1,606.1)" />
<use xlink:href="#f1_1t" transform="matrix(12,0,0,12,372.1,606.1)" />
<use xlink:href="#f1_1o" transform="matrix(12,0,0,12,377.3,606.1)" />
<use xlink:href="#f1_1m" transform="matrix(12,0,0,12,392.7,606.1)" />
<use xlink:href="#f1_1a" transform="matrix(12,0,0,12,407.7,606.1)" />
<use xlink:href="#f1_1k" transform="matrix(12,0,0,12,418,606.1)" />
<use xlink:href="#f1_1e" transform="matrix(12,0,0,12,427.1,606.1)" />
<use xlink:href="#f1_1y" transform="matrix(12,0,0,12,442.5,606.1)" />
<use xlink:href="#f1_1o" transform="matrix(12,0,0,12,451.7,606.1)" />
<use xlink:href="#f1_1u" transform="matrix(12,0,0,12,461.6,606.1)" />
<use xlink:href="#f1_1r" transform="matrix(12,0,0,12,471.9,606.1)" />
<use xlink:href="#f1_13" transform="matrix(12,0,0,12,482.9,606.1)" />
<use xlink:href="#f1_s" transform="matrix(12,0,0,12,495,606.1)" />
<use xlink:href="#f1_10" transform="matrix(12,0,0,12,507.1,606.1)" />
</g>
</g>
<g clip-path="url(#c2_8)">
<g fill="#595959" >
<use xlink:href="#f1_1m" transform="matrix(12,0,0,12,39.6,631)" />
<use xlink:href="#f1_1a" transform="matrix(12,0,0,12,55,631)" />
<use xlink:href="#f1_1r" transform="matrix(12,0,0,12,64.9,631)" />
<use xlink:href="#f1_1k" transform="matrix(12,0,0,12,71.1,631)" />
<use xlink:href="#f1_1e" transform="matrix(12,0,0,12,80.3,631)" />
<use xlink:href="#f1_1t" transform="matrix(12,0,0,12,90.5,631)" />
<use xlink:href="#f1_1i" transform="matrix(12,0,0,12,95.7,631)" />
<use xlink:href="#f1_1n" transform="matrix(12,0,0,12,99.7,631)" />
<use xlink:href="#f1_1g" transform="matrix(12,0,0,12,110,631)" />
<use xlink:href="#f1_1s" transform="matrix(12,0,0,12,125,631)" />
<use xlink:href="#f1_1u" transform="matrix(12,0,0,12,134.2,631)" />
<use xlink:href="#f1_1c" transform="matrix(12,0,0,12,144.4,631)" />
<use xlink:href="#f1_1c" transform="matrix(12,0,0,12,153.6,631)" />
<use xlink:href="#f1_1e" transform="matrix(12,0,0,12,162.8,631)" />
<use xlink:href="#f1_1s" transform="matrix(12,0,0,12,173,631)" />
<use xlink:href="#f1_1s" transform="matrix(12,0,0,12,182.2,631)" />
<use xlink:href="#f1_1f" transform="matrix(12,0,0,12,191.4,631)" />
<use xlink:href="#f1_1u" transform="matrix(12,0,0,12,196.5,631)" />
<use xlink:href="#f1_1l" transform="matrix(12,0,0,12,206.4,631)" />
<use xlink:href="#f1_b" transform="matrix(12,0,0,12,210.8,631)" />
</g>
</g>
<image preserveAspectRatio="none" x="572" y="269" width="317" height="359" xlink:href="img/4.png" />
<image preserveAspectRatio="none" x="62" y="633" width="798" height="126" xlink:href="img/5.png" />
<image preserveAspectRatio="none" x="79" y="759" width="741" height="320" xlink:href="img/6.png" />
<path fill-rule="evenodd" d="M36.9,1107.4c0,-8.1,6.6,-14.7,14.7,-14.7l808,0c8.1,0,14.7,6.6,14.7,14.7l0,58.8c0,8.1,-6.6,14.7,-14.7,14.7l-808,0c-8.1,0,-14.7,-6.6,-14.7,-14.7Z" class="g1_8" />
<path d="M36.9,1107.4c0,-8.1,6.6,-14.7,14.7,-14.7l808,0c8.1,0,14.7,6.6,14.7,14.7l0,58.8c0,8.1,-6.6,14.7,-14.7,14.7l-808,0c-8.1,0,-14.7,-6.6,-14.7,-14.7Z" class="g2_8" />
<image preserveAspectRatio="none" x="43" y="1104" width="825" height="65" xlink:href="img/7.png" />
<path fill-rule="evenodd" d="M236.5,166.4l652.9,0l0,40.8l-652.9,0Z" class="g1_8" />
<image preserveAspectRatio="none" x="237" y="172" width="652" height="29" xlink:href="img/8.png" />
<g clip-path="url(#c3_8)">
<g fill="#E36C0A" >
<use xlink:href="#f2_b" transform="matrix(13.9,0,0,13.9,247.9,192.8)" />
<use xlink:href="#f2_w" transform="matrix(13.9,0,0,13.9,253.7,192.8)" />
<use xlink:href="#f2_z" transform="matrix(13.9,0,0,13.9,272.8,192.8)" />
<use xlink:href="#f2_10" transform="matrix(13.9,0,0,13.9,286,192.8)" />
<use xlink:href="#f2_y" transform="matrix(13.9,0,0,13.9,294.1,192.8)" />
<use xlink:href="#f2_14" transform="matrix(13.9,0,0,13.9,307.3,192.8)" />
<use xlink:href="#f2_p" transform="matrix(13.9,0,0,13.9,319,192.8)" />
<use xlink:href="#f2_14" transform="matrix(13.9,0,0,13.9,337,192.8)" />
<use xlink:href="#f2_t" transform="matrix(13.9,0,0,13.9,349.1,192.8)" />
<use xlink:href="#f2_11" transform="matrix(13.9,0,0,13.9,354.9,192.8)" />
<use xlink:href="#f2_t" transform="matrix(13.9,0,0,13.9,366.7,192.8)" />
<use xlink:href="#f2_m" transform="matrix(13.9,0,0,13.9,372.5,192.8)" />
<use xlink:href="#f2_t" transform="matrix(13.9,0,0,13.9,385.8,192.8)" />
<use xlink:href="#f2_v" transform="matrix(13.9,0,0,13.9,391.6,192.8)" />
<use xlink:href="#f2_t" transform="matrix(13.9,0,0,13.9,397.5,192.8)" />
<use xlink:href="#f2_12" transform="matrix(13.9,0,0,13.9,403.7,192.8)" />
<use xlink:href="#f2_17" transform="matrix(13.9,0,0,13.9,410.7,192.8)" />
<use xlink:href="#f2_3" transform="matrix(13.9,0,0,13.9,428.7,192.8)" />
<use xlink:href="#f2_10" transform="matrix(13.9,0,0,13.9,449.9,192.8)" />
<use xlink:href="#f2_l" transform="matrix(13.9,0,0,13.9,458.4,192.8)" />
<use xlink:href="#f2_x" transform="matrix(13.9,0,0,13.9,470.1,192.8)" />
<use xlink:href="#f2_u" transform="matrix(13.9,0,0,13.9,483.3,192.8)" />
<use xlink:href="#f2_t" transform="matrix(13.9,0,0,13.9,495,192.8)" />
<use xlink:href="#f2_x" transform="matrix(13.9,0,0,13.9,501.3,192.8)" />
<use xlink:href="#f2_r" transform="matrix(13.9,0,0,13.9,514.1,192.8)" />
<use xlink:href="#f2_11" transform="matrix(13.9,0,0,13.9,527.3,192.8)" />
<use xlink:href="#f2_4" transform="matrix(13.9,0,0,13.9,539,192.8)" />
<use xlink:href="#f2_t" transform="matrix(13.9,0,0,13.9,551.1,192.8)" />
<use xlink:href="#f2_x" transform="matrix(13.9,0,0,13.9,557,192.8)" />
<use xlink:href="#f2_n" transform="matrix(13.9,0,0,13.9,569.8,192.8)" />
<use xlink:href="#f2_10" transform="matrix(13.9,0,0,13.9,581.9,192.8)" />
<use xlink:href="#f2_p" transform="matrix(13.9,0,0,13.9,590.4,192.8)" />
<use xlink:href="#f2_l" transform="matrix(13.9,0,0,13.9,602.1,192.8)" />
<use xlink:href="#f2_11" transform="matrix(13.9,0,0,13.9,614.2,192.8)" />
<use xlink:href="#f2_p" transform="matrix(13.9,0,0,13.9,625.9,192.8)" />
<use xlink:href="#f2_12" transform="matrix(13.9,0,0,13.9,643.9,192.8)" />
<use xlink:href="#f2_10" transform="matrix(13.9,0,0,13.9,650.9,192.8)" />
<use xlink:href="#f2_l" transform="matrix(13.9,0,0,13.9,659.3,192.8)" />
<use xlink:href="#f2_q" transform="matrix(13.9,0,0,13.9,671,192.8)" />
<use xlink:href="#f2_q" transform="matrix(13.9,0,0,13.9,678.4,192.8)" />
<use xlink:href="#f2_t" transform="matrix(13.9,0,0,13.9,685.4,192.8)" />
<use xlink:href="#f2_n" transform="matrix(13.9,0,0,13.9,691.2,192.8)" />
<use xlink:href="#f2_4" transform="matrix(13.9,0,0,13.9,703.3,192.8)" />
<use xlink:href="#f2_v" transform="matrix(13.9,0,0,13.9,715.1,192.8)" />
<use xlink:href="#f2_p" transform="matrix(13.9,0,0,13.9,720.9,192.8)" />
<use xlink:href="#f2_l" transform="matrix(13.9,0,0,13.9,733,192.8)" />
<use xlink:href="#f2_o" transform="matrix(13.9,0,0,13.9,744.8,192.8)" />
<use xlink:href="#f2_11" transform="matrix(13.9,0,0,13.9,758,192.8)" />
<use xlink:href="#f2_3" transform="matrix(13.9,0,0,13.9,775.6,192.8)" />
<use xlink:href="#f2_11" transform="matrix(13.9,0,0,13.9,797.2,192.8)" />
<use xlink:href="#f2_l" transform="matrix(13.9,0,0,13.9,808.9,192.8)" />
<use xlink:href="#f2_v" transform="matrix(13.9,0,0,13.9,821,192.8)" />
<use xlink:href="#f2_p" transform="matrix(13.9,0,0,13.9,826.9,192.8)" />
<use xlink:href="#f2_11" transform="matrix(13.9,0,0,13.9,838.7,192.8)" />
</g>
</g>
<path fill-rule="evenodd" d="M34.9,228.3l284,0l0,44.2l-284,0Z" class="g1_8" />
<image preserveAspectRatio="none" x="36" y="234" width="282" height="32" xlink:href="img/9.png" />
<g clip-path="url(#c4_8)">
<g fill="#000000" >
<use xlink:href="#f2_b" transform="matrix(15.8,0,0,15.8,46.6,257.6)" />
<use xlink:href="#f2_x" transform="matrix(15.8,0,0,15.8,53.6,257.6)" />
<use xlink:href="#f2_5" transform="matrix(15.8,0,0,15.8,68.3,257.6)" />
<use xlink:href="#f2_o" transform="matrix(15.8,0,0,15.8,76.3,257.6)" />
<use xlink:href="#f2_p" transform="matrix(15.8,0,0,15.8,91.4,257.6)" />
<use xlink:href="#f2_z" transform="matrix(15.8,0,0,15.8,104.9,257.6)" />
<use xlink:href="#f2_12" transform="matrix(15.8,0,0,15.8,120,257.6)" />
<use xlink:href="#f2_s" transform="matrix(15.8,0,0,15.8,128,257.6)" />
<use xlink:href="#f2_7" transform="matrix(15.8,0,0,15.8,149.7,257.6)" />
<use xlink:href="#f2_y" transform="matrix(15.8,0,0,15.8,167.3,257.6)" />
<use xlink:href="#f2_x" transform="matrix(15.8,0,0,15.8,182.3,257.6)" />
<use xlink:href="#f2_11" transform="matrix(15.8,0,0,15.8,197.3,257.6)" />
<use xlink:href="#f2_13" transform="matrix(15.8,0,0,15.8,210.9,257.6)" />
<use xlink:href="#f2_v" transform="matrix(15.8,0,0,15.8,225.6,257.6)" />
<use xlink:href="#f2_12" transform="matrix(15.8,0,0,15.8,232.5,257.6)" />
<use xlink:href="#f2_l" transform="matrix(15.8,0,0,15.8,240.6,257.6)" />
<use xlink:href="#f2_12" transform="matrix(15.8,0,0,15.8,254.2,257.6)" />
<use xlink:href="#f2_t" transform="matrix(15.8,0,0,15.8,262.2,257.6)" />
<use xlink:href="#f2_y" transform="matrix(15.8,0,0,15.8,269.2,257.6)" />
<use xlink:href="#f2_x" transform="matrix(15.8,0,0,15.8,284.2,257.6)" />
</g>
</g>
<image preserveAspectRatio="none" x="55" y="1086" width="797" height="84" xlink:href="img/10.png" />
<defs>
	<path d="M388.7,85.8c0,0,95.4,0,144.3,39.9c0,0,48.9,39.9,48.9,108.5c0,0,0,34.4,-12.7,62.3c0,0,-12.7,28,-38.4,52.2c0,0,-25.8,24.3,-64.2,47c0,0,-38.4,22.8,-89.1,47.4c0,0,-47,-23.1,-82.5,-46.2c0,0,-35.4,-23.2,-58.1,-47.8c0,0,-22.8,-24.6,-34.4,-51.8c0,0,-11.5,-27.2,-11.5,-60.1c0,0,0,-72.3,49.6,-111.9c0,0,49.6,-39.5,148.1,-39.5Zm5.9,467.7c0,0,75.4,38.8,115.6,85.8c0,0,40.3,47,40.3,103.7c0,0,0,31.3,-10.8,56.7c0,0,-10.8,25.4,-31.7,43.3c0,0,-20.9,17.9,-51.8,27.2c0,0,-31,9.3,-70.5,9.3c0,0,-80.6,0,-122,-36.5c0,0,-41.4,-36.6,-41.4,-100c0,0,0,-29.1,10.1,-54.1c0,0,10,-25,31.3,-47.4c0,0,21.3,-22.3,53.7,-43.6c0,0,32.5,-21.3,77.2,-44.4ZM379,-14.1c0,0,-74.6,0,-133.6,15.6c0,0,-58.9,15.7,-99.9,46.2c0,0,-41.1,30.6,-62.7,75.4c0,0,-21.6,44.7,-21.6,102.2c0,0,0,45.5,14.9,83.5c0,0,14.9,38.1,42.9,70.2c0,0,28,32,69,60c0,0,41,28,92.5,53.4c0,0,-44.8,23.1,-79.1,48.8c0,0,-34.3,25.7,-58.2,55.9c0,0,-23.8,30.3,-36.1,64.6c0,0,-12.4,34.3,-12.4,74.6c0,0,0,50.7,18.3,95.1c0,0,18.3,44.4,55.2,77.2c0,0,37,32.8,94,51.9c0,0,57.1,19,133.2,19c0,0,73.1,0,126.4,-17.5c0,0,53.3,-17.6,88,-47.8c0,0,34.7,-30.2,51.1,-71.2c0,0,16.5,-41.1,16.5,-88.1c0,0,0,-38,-12.3,-73.1c0,0,-12.4,-35,-36.2,-66.4c0,0,-23.9,-31.3,-58.6,-58.5c0,0,-34.7,-27.2,-79.4,-51.1c0,0,52.9,-26.1,94.3,-53.7c0,0,41.4,-27.6,69.4,-59.3c0,0,28,-31.7,42.5,-67.2c0,0,14.6,-35.4,14.6,-77.9c0,0,0,-62.7,-22.4,-111.6c0,0,-22.4,-48.8,-64.5,-82.4c0,0,-42.2,-33.6,-104.1,-50.7c0,0,-61.9,-17.1,-141.7,-17.1Z" 
	id="f0_d"
	transform="scale(0.001,-0.001)" />

	<path d="M160.8,0c0,0,-5.2,0,-9.7,2.6c0,0,-4.5,2.6,-8.6,8.6c0,0,-4.1,5.9,-6.3,15.6c0,0,-2.2,9.7,-2.2,23.8c0,0,0,13.4,2.2,23c0,0,2.2,9.7,5.6,16.1c0,0,3.3,6.3,8.2,9.6c0,0,4.8,3.4,10.8,3.4l201,0l0,734.3L175.5,725.5c0,0,-14.2,-7.4,-22.7,-8.9c0,0,-1.3,-0.2,-3.1,-0.2c-3,0,-7.5,0.5,-10.7,3.5c0,0,-5.2,4.9,-7.1,16.1c0,0,-1.8,11.2,-1.8,28.4c0,0,0,12.6,1.1,21.6c0,0,1.1,9,3.3,14.9c0,0,2.3,6,6.4,10.5c0,0,4.1,4.5,10.8,9l222,142.5c0,0,3,2.3,7.5,3.8c0,0,4.4,1.5,11.1,3c0,0,6.8,1.4,15.7,1.8c0,0,9,0.4,22.4,0.4c0,0,17.9,0,29.8,-1.5c0,0,12,-1.5,18.7,-4.1c0,0,6.7,-2.6,8.9,-6.7c0,0,2.3,-4.1,2.3,-8.6l0,-848.3l174.5,0c0,0,6,0,11.2,-3.4c0,0,5.3,-3.3,8.6,-9.6c0,0,3.4,-6.4,5.2,-16c0,0,1.9,-9.7,1.9,-23.1c0,0,0,-14.1,-2.2,-23.8c0,0,-2.3,-9.7,-6,-15.6c0,0,-3.7,-6,-8.6,-8.6c0,0,-4.8,-2.6,-10,-2.6Z" 
	id="f0_6"
	transform="scale(0.001,-0.001)" />

	<path d="M131,0l0,1096.1l759.8,0l0,-134l-611.2,0l0,-333.4l536.9,0l0,-130l-536.9,0L279.6,0Z" 
	id="f1_t"
	transform="scale(0.001,-0.001)" />

	<path d="M413,87c0,0,132.2,0,181.3,100.9c0,0,49.1,100.8,49.1,224.4c0,0,0,111.6,-35.5,181.5c0,0,-56.1,110.2,-193.4,110.2c0,0,-121.9,0,-177.3,-93.8c0,0,-55.3,-93.7,-55.3,-226.2c0,0,0,-127.3,55.3,-212.1c0,0,55.4,-84.9,175.8,-84.9ZM400.3,-28.2c0,0,-163.7,0,-260,111.2C140.3,83,44,194.3,44,382c0,0,0,201,101.5,320.2c0,0,101.5,119.1,272.5,119.1c0,0,153.4,0,259.3,-102.7c0,0,105.9,-102.8,105.9,-302.4c0,0,0,-192.9,-93.3,-318.7c0,0,-93.3,-125.7,-289.6,-125.7Z" 
	id="f1_1o"
	transform="scale(0.001,-0.001)" />

	<path d="M102.7,0l0,798.8l127.1,0l0,-138.4c0,0,15.7,40.3,77.1,98.2c0,0,61.4,57.8,141.5,57.8c0,0,3.7,0,12.7,-0.7c0,0,9,-0.8,30.7,-3.2l0,-141.7c0,0,-11.9,2.3,-22,3.1c0,0,-10.2,0.8,-22.1,0.8c0,0,-101.8,0,-156.4,-65.3c0,0,-54.7,-65.3,-54.7,-150.3L236.6,0Z" 
	id="f1_1r"
	transform="scale(0.001,-0.001)" />

	<path d="M357.1,-21.4c0,0,-167.6,0,-228.4,114c0,0,-32.9,61.1,-32.9,163.3l0,542.9l136.9,0l0,-530.4c0,0,0,-61.2,18.9,-100c0,0,34.9,-71.6,130,-71.6c0,0,136.6,0,186,125.3c0,0,26.9,67.2,26.9,184.3l0,392.4l134,0L728.5,0L602.3,0l1.5,117.7c0,0,-25.6,-45.4,-63.7,-76.7c0,0,-75.4,-62.4,-183,-62.4Z" 
	id="f1_1u"
	transform="scale(0.001,-0.001)" />

	<path d="M385,-30.2c0,0,-180.5,0,-255.7,80.9c0,0,-75.1,81.1,-80.4,200.6l129.1,0c0,0,6.1,-67.3,34.2,-103.2c0,0,51.8,-65,179.7,-65c0,0,76.1,0,134,32.4c0,0,57.8,32.4,57.8,100.2c0,0,0,51.4,-46.2,78.2c0,0,-29.5,16.4,-116.7,38L312.4,358.8c0,0,-103.9,25.3,-153.1,56.6c0,0,-87.9,54.4,-87.9,150.6c0,0,0,113.3,82.8,183.3c0,0,82.9,70.1,222.8,70.1c0,0,183.1,0,264.1,-105.8c0,0,50.7,-67.1,49.2,-144.5l-127.1,0c0,0,-3.8,45.2,-32.8,82.3c0,0,-47.3,52.6,-164.1,52.6c0,0,-77.9,0,-118,-29c0,0,-40,-29,-40,-76.5c0,0,0,-52.1,52.6,-83.3c0,0,30.4,-18.5,89.6,-32.7l90.4,-21.6c0,0,147.3,-35.1,197.4,-67.9c0,0,78.4,-51.4,78.4,-161.7c0,0,0,-106.6,-82,-184.1c0,0,-81.9,-77.4,-249.7,-77.4Z" 
	id="f1_1s"
	transform="scale(0.001,-0.001)" />

	<path d="M287.1,-12.6c0,0,-93.9,0,-127.4,48c0,0,-33.6,48.1,-33.6,125l0,528.9l-108.5,0l0,109.5l108.5,0l0,223l135.9,0l0,-223l127.2,0l0,-109.5l-127.2,0l0,-521.5c0,0,0,-41.8,28.3,-56c0,0,15.6,-8.2,52,-8.2c0,0,9.7,0,20.8,0.5c0,0,11.2,0.5,26.1,2.5L389.2,0c0,0,-23.1,-6.6,-48.1,-9.6c0,0,-25,-3,-54,-3Z" 
	id="f1_1t"
	transform="scale(0.001,-0.001)" />

	<path d="M411.1,89c0,0,92.5,0,152.2,80.2c0,0,59.6,80.2,59.6,230.1c0,0,0,151.4,-61.5,224.2c0,0,-61.4,72.7,-151.8,72.7c0,0,-100.7,0,-163.2,-77.6c0,0,-62.6,-77.6,-62.6,-228.3c0,0,0,-128.3,54.1,-214.8c0,0,54,-86.5,173.2,-86.5ZM369.2,-28.2c0,0,-132.8,0,-230,112.2C139.2,84,42,196.3,42,382.9c0,0,0,174.6,88.7,302.6c0,0,88.7,128,253.5,128c0,0,91.3,0,152.9,-38.9c0,0,35.6,-22.4,80.9,-78.4l0,403.8l129,0L747,0L625.8,0l0,111.4c0,0,-46.7,-74,-110.5,-106.9c0,0,-63.8,-32.7,-146.1,-32.7Z" 
	id="f1_1d"
	transform="scale(0.001,-0.001)" />

	<path d="M640.5,462.5c0,0,-8.2,87.3,-37.8,139.6c0,0,-54.9,97,-183.1,97c0,0,-91.9,0,-154.2,-66.8c0,0,-62.2,-66.8,-65.9,-169.8ZM407.6,-28.2c0,0,-148.5,0,-251.6,108.3C156,80.1,52.8,188.6,52.8,384c0,0,0,192.3,103.9,312.4c0,0,103.8,120,271.5,120c0,0,84.5,0,163.9,-39.9c0,0,79.4,-40,120.9,-103.4c0,0,40.1,-60.5,53.4,-141.2c0,0,11.9,-55.2,11.9,-176l-581.8,0c0,0,3.7,-121.7,57.1,-195.3C253.6,160.6,307,87,419,87c0,0,104.6,0,166.9,69.7c0,0,35.1,40.4,49.7,93.6l132,0c0,0,-5.2,-43.9,-34.7,-98c0,0,-29.4,-54,-65.8,-88.3c0,0,-60.8,-59.6,-150.5,-80.3c0,0,-48.2,-11.9,-109,-11.9Z" 
	id="f1_1e"
	transform="scale(0.001,-0.001)" />

	<path d="M102.7,0l0,1096.1l133.9,0L236.6,0Z" 
	id="f1_1l"
	transform="scale(0.001,-0.001)" />

	<path d="M98.8,0l0,794.9l136.8,0L235.6,0Zm0,943.6l0,152.5l136.8,0l0,-152.5Z" 
	id="f1_1i"
	transform="scale(0.001,-0.001)" />

	<path d="M303.2,0L8.3,798.8l155.9,0L377.9,148.4L600.6,798.8l146.9,0L446.5,0Z" 
	id="f1_1v"
	transform="scale(0.001,-0.001)" />

	<path d="M8.2,0L289.4,409.5L22.4,798.8l173.8,0L379.7,517.6L565.5,798.8l163.3,-3.7L459.5,409.5L740.8,0L569.2,0L370.8,299.8L178.3,0Z" 
	id="f1_1x"
	transform="scale(0.001,-0.001)" />

	<path d="M387.3,-23.4c0,0,-156.7,0,-250,114.4C137.3,91,44,205.4,44,376.9c0,0,0,210.3,102.2,327.4c0,0,102.3,117,260.5,117c0,0,135.1,0,219.8,-65.5c0,0,84.7,-65.6,102,-225.8l-131,0c0,0,-12,73.6,-54.6,122.3c0,0,-42.5,48.8,-136.6,48.8c0,0,-128.5,0,-183.7,-125.1c0,0,-35.8,-81.2,-35.8,-200.4c0,0,0,-119.8,50.7,-201.8c0,0,50.8,-81.9,159.8,-81.9c0,0,83.7,0,132.6,51c0,0,48.9,51.1,67.6,139.7l131,0c0,0,-22.5,-159,-112.1,-232.5c0,0,-89.5,-73.5,-229.1,-73.5Z" 
	id="f1_1c"
	transform="scale(0.001,-0.001)" />

	<path d="M435.1,90.9c0,0,94.2,0,156.6,78.6c0,0,62.4,78.6,62.4,234.9c0,0,0,95.4,-27.6,163.9c0,0,-52.3,131.8,-191.4,131.8c0,0,-139.8,0,-191.3,-139.3c0,0,-27.7,-74.4,-27.7,-189.1c0,0,0,-92.3,27.7,-157.1c0,0,52.3,-123.7,191.3,-123.7ZM87,-318.6L87,794.9l131.1,0l0,-106c0,0,40.3,54.7,88.1,84.6c0,0,68,44.9,160,44.9c0,0,136,0,230.9,-104c0,0,94.9,-104,94.9,-297.1c0,0,0,-261,-137,-372.9c0,0,-86.8,-70.7,-202,-70.7c0,0,-90.6,0,-152,39.5c0,0,-35.9,22.4,-80,77l0,-408.8Z" 
	id="f1_1p"
	transform="scale(0.001,-0.001)" />

	<path d="M98.8,0l0,798.8l127.1,0l0,-114c0,0,56.7,70.3,120.2,101c0,0,63.4,30.6,141.1,30.6c0,0,170.2,0,229.9,-118.5c0,0,32.9,-64.9,32.9,-185.7L750,0L613.1,0l0,503c0,0,0,73,-21.6,117.7c0,0,-35.8,74.5,-129.8,74.5c0,0,-47.7,0,-78.3,-9.7c0,0,-55.2,-16.4,-97,-65.5c0,0,-33.6,-39.6,-43.6,-81.6c0,0,-10.1,-42.1,-10.1,-120.4l0,-418Z" 
	id="f1_1n"
	transform="scale(0.001,-0.001)" />

	<path d="M344.9,88c0,0,71,0,137.5,32.5c0,0,112.1,53.9,112.1,177.6l0,108c0,0,-24.6,-15.8,-63.3,-26.3c0,0,-38.7,-10.6,-76,-14.9L374,354.8c0,0,-73,-9.4,-110,-30.3c0,0,-62.6,-34.9,-62.6,-111.5c0,0,0,-58.1,42.6,-91.5c0,0,42.6,-33.5,100.9,-33.5Zm-31,-114.3c0,0,-111.3,0,-181.8,67.3c0,0,-70.5,67.4,-70.5,168.6c0,0,0,110.9,69.4,172c0,0,69.4,61,182.1,75.2l214.3,26.8c0,0,46.2,6,61.9,38.8c0,0,9.1,17.9,9.1,51.6c0,0,0,68.9,-48.8,99.9c0,0,-48.8,31.1,-139.7,31.1c0,0,-105.1,0,-149.1,-56.9c0,0,-24.6,-31.5,-32,-93.7l-125.2,0c0,0,3.8,148.1,95.7,206c0,0,92,58,213.4,58c0,0,140.8,0,228.6,-53.7c0,0,87.2,-53.7,87.2,-167.2l0,-460.3c0,0,0,-20.9,8.5,-33.6c0,0,8.6,-12.7,36.3,-12.7c0,0,9,0,20.2,1.2c0,0,11.2,1.1,23.9,3.3l0,-99.3c0,0,-31.3,-9.1,-47.7,-11.3c0,0,-16.4,-2.3,-44.7,-2.3c0,0,-69.4,0,-100.7,49.3c0,0,-16.4,26.2,-23.1,74.1c0,0,-41,-53.5,-117.9,-92.9c0,0,-76.9,-39.3,-169.4,-39.3Z" 
	id="f1_1a"
	transform="scale(0.001,-0.001)" />

	<path d="M496.9,-32.2c0,0,-199.3,0,-312.1,104.5c0,0,-112.7,103.8,-110.5,281.7l139.8,0c0,0,5.1,-93.6,42.4,-151.9c0,0,71.1,-109.2,250.5,-109.2c0,0,80.4,0,146.5,23.9c0,0,127.8,46.3,127.8,165.7c0,0,0,89.6,-54.2,127.7c0,0,-55,37.4,-172.1,65.1L411.2,508.9c0,0,-141,33,-199.5,72.5c0,0,-101.2,68.6,-101.2,205c0,0,0,147.7,99.4,242.4c0,0,99.5,94.7,281.7,94.7c0,0,167.7,0,284.9,-83.2c0,0,117.2,-83.2,117.2,-265.9l-139.8,0c0,0,-10.7,88.1,-45.8,135.1c0,0,-65,85.9,-220.9,85.9c0,0,-125.8,0,-180.8,-55.3c0,0,-55.1,-55.2,-55.1,-128.3c0,0,0,-80.7,65.1,-118c0,0,42.6,-23.9,193,-59.7L658.4,599c0,0,107.8,-25.4,166.3,-69.4c0,0,101.3,-76.8,101.3,-223.1c0,0,0,-182.1,-129.1,-260.4c0,0,-129.1,-78.3,-300,-78.3Z" 
	id="f1_13"
	transform="scale(0.001,-0.001)" />

	<path d="M131,0l0,1096.1l796,0l0,-134l-651.3,0l0,-333.4l602.4,0l0,-127.1l-602.4,0l0,-371.6l662,0l0,-130Z" 
	id="f1_s"
	transform="scale(0.001,-0.001)" />

	<path d="M604.7,100.7c0,0,196.5,0,284.3,140.8c0,0,87.8,140.7,87.8,323.6c0,0,0,193.4,-101.2,311.3c0,0,-101.3,118,-276.9,118c0,0,-170.4,0,-277.9,-116.8c0,0,-107.6,-116.9,-107.6,-344.6c0,0,0,-182.2,92.2,-307.2c0,0,92.3,-125.1,299.3,-125.1ZM586.5,-32.2c0,0,-253,0,-397.7,167c0,0,-129.2,161.1,-129.2,407.3c0,0,0,222.3,110.5,380.4c0,0,141.8,202.9,419.4,202.9c0,0,290.3,0,429.9,-186.5c0,0,109,-145.4,109,-372.2c0,0,0,-245.4,-124.7,-408c0,0,-146.2,-190.9,-417.2,-190.9Z" 
	id="f1_10"
	transform="scale(0.001,-0.001)" />

	<path d="M384.4,99.7c0,0,143.5,0,202,130.8c0,0,32.6,74,32.6,172.6c0,0,0,148.7,-60.7,220.4c0,0,-60.7,71.7,-154.7,71.7c0,0,-140.6,0,-192.4,-133c0,0,-27.4,-71,-27.4,-186c0,0,0,-135.3,54.4,-205.9c0,0,54.4,-70.6,146.2,-70.6Zm0.1,-437.9c0,0,-128.4,0,-216,57.8c0,0,-87.6,57.7,-98.1,180.8l136.9,0c0,0,9.6,-53.6,38.4,-82.5c0,0,45.2,-44.6,142.1,-44.6c0,0,153.1,0,200.4,108.8c0,0,28.1,64.2,25.9,228.8c0,0,-40.1,-61.1,-96.4,-90.9c0,0,-56.4,-29.7,-149.1,-29.7c0,0,-129.1,0,-225.9,92.1c0,0,-96.7,92.2,-96.7,304.9c0,0,0,200.8,97.4,313.5c0,0,97.5,112.7,235.4,112.7c0,0,93.4,0,163.1,-46.1c0,0,37.8,-26.1,77.1,-75.9l0,99.5l124.1,0l0,-726.5c0,0,0,-152.1,-44.5,-240.1c0,0,-83.2,-162.6,-314.1,-162.6Z" 
	id="f1_1g"
	transform="scale(0.001,-0.001)" />

	<path d="M98.8,0l0,798.8l132,0l0,-113.5c0,0,47.8,58.8,86.7,85.7c0,0,66.5,45.4,151,45.4c0,0,95.7,0,154,-46.9c0,0,32.9,-26.8,59.8,-79c0,0,44.8,64.1,105.3,95c0,0,60.4,30.9,135.8,30.9c0,0,161.3,0,219.5,-116.3c0,0,31.4,-62.6,31.4,-168.5L1174.3,0L1034.5,0l0,554.8c0,0,0,79.8,-39.9,109.6c0,0,-40,29.8,-97.4,29.8c0,0,-79.1,0,-136.1,-52.9c0,0,-57.1,-53,-57.1,-176.7L704,0L567.1,0l0,520.9c0,0,0,81.2,-19.4,118.4c0,0,-30.6,55.9,-114.2,55.9c0,0,-76.1,0,-138.5,-58.6c0,0,-62.3,-58.7,-62.3,-213.1L232.7,0Z" 
	id="f1_1m"
	transform="scale(0.001,-0.001)" />

	<path d="M170.2,-327.4c0,0,-28.3,0,-43.6,2.2c0,0,-15.3,2.2,-37.6,8.2l0,122c0,0,35,-9.7,50.7,-11.9c0,0,15.6,-2.2,27.5,-2.2c0,0,37.3,0,54.8,12.3c0,0,17.5,12.3,29.5,30.3c0,0,3.7,6,26.8,61.4c0,0,23.1,55.3,33.6,82.2L16.1,798.8l152.4,0L382.8,148.5L598.2,798.8l148.3,0c0,0,-28.3,-76.8,-125.9,-350.5c0,0,-73.1,-205.8,-122.3,-335.5c0,0,-116.3,-305.9,-164,-373.1c0,0,-47.7,-67.1,-164.1,-67.1Z" 
	id="f1_1y"
	transform="scale(0.001,-0.001)" />

	<path d="M95.8,0l0,1096.1l129.1,0l0,-636.5L568.8,798.8l171.4,0L433.7,502L757.5,0L586,0L335,406.6L224.9,299.8L224.9,0Z" 
	id="f1_1k"
	transform="scale(0.001,-0.001)" />

	<path d="M127.1,-226.7l0,70.4c0,0,51.4,9,72.2,72.6c0,0,11.2,33.7,11.2,65.1c0,0,0,5.2,-0.3,9.3c0,0,-0.4,4.2,-1.9,9.3L127.1,0l0,162.3l159.4,0l0,-150.6c0,0,0,-88.6,-35.8,-155.7c0,0,-35.7,-67.1,-123.6,-82.7Z" 
	id="f1_9"
	transform="scale(0.001,-0.001)" />

	<path d="M243.4,0L13.2,798.8l146.9,0L313.4,169.3L469.3,798.8l150.8,0L776.8,173l163,625.8l134.3,0L842.4,0L702.9,0L540.2,618.4L382.8,0Z" 
	id="f1_1w"
	transform="scale(0.001,-0.001)" />

	<path d="M98.8,0l0,1100l133.9,0l0,-409.3c0,0,47.8,60.5,85.9,85.1c0,0,64.9,42.6,161.9,42.6c0,0,173.9,0,235.9,-121.6c0,0,33.6,-66.4,33.6,-184.3L750,0L612.1,0l0,503.5c0,0,0,88,-22.4,129c0,0,-36.6,65.6,-137.4,65.6c0,0,-83.7,0,-151.6,-57.4c0,0,-68,-57.4,-68,-217L232.7,0Z" 
	id="f1_1h"
	transform="scale(0.001,-0.001)" />

	<path d="M436.7,92.9c0,0,109.1,0,163.3,86.5c0,0,54.1,86.5,54.1,228.2c0,0,0,126,-54.1,208.8c0,0,-54.2,82.7,-159.6,82.7c0,0,-91.9,0,-161,-67.8c0,0,-69.2,-67.9,-69.2,-223.7c0,0,0,-112.6,28.4,-182.7c0,0,53.1,-132,198.1,-132Zm8.5,-118.2c0,0,-91.2,0,-154,43.8c0,0,-37.4,26,-80,83.3L211.2,0L87,0l0,1100l131,0l0,-398.6c0,0,44.1,57.5,105.4,87.7c0,0,61.3,30.3,133,30.3c0,0,149.5,0,242.5,-102.6c0,0,93.1,-102.5,93.1,-302.3c0,0,0,-189.4,-91.9,-314.6c0,0,-92,-125.2,-254.9,-125.2Z" 
	id="f1_1b"
	transform="scale(0.001,-0.001)" />

	<path d="M26.4,-322.6c0,0,-9.7,0,-20.5,0.8c0,0,-10.7,0.8,-33.8,3.2l0,116.3c0,0,90.1,3,108.4,16.1c0,0,18.3,13,18.3,81.7l0,899.5l133.9,0l0,-913.7c0,0,0,-87.3,-28.3,-130.6c0,0,-46.8,-73.3,-178,-73.3ZM98.8,940.6l0,155.5l133.9,0l0,-155.5Z" 
	id="f1_1j"
	transform="scale(0.001,-0.001)" />

	<path d="M132,0l0,689.3l-111.5,0l0,105.6l111.5,0l0,125.6c0,0,3,83.6,29.1,122.5c0,0,46.9,68.7,181.2,68.7c0,0,12.6,0,26,-0.7c0,0,13.5,-0.7,30.6,-2.2l0,-122.2c0,0,-21,1.3,-30.4,1.6c0,0,-9.5,0.3,-17.7,0.3c0,0,-61.8,0,-73.8,-31.7c0,0,-12,-31.8,-12,-161.9l133.9,0l0,-105.6l-133.9,0L265,0Z" 
	id="f1_1f"
	transform="scale(0.001,-0.001)" />

	<path d="M131,0l0,162.3l155.5,0L286.5,0Z" 
	id="f1_b"
	transform="scale(0.001,-0.001)" />

	<path d="M314.2,0L27.9,1096.1l160.6,0L394.9,205.6l247.8,890.5l160.7,0L1051.5,204.3l206.9,891.8l162.8,0L1133,0L977,0L724,908.8L470,0Z" 
	id="f1_17"
	transform="scale(0.001,-0.001)" />

	<path d="M63.6,356.9l0,137.9l374.5,0l0,-137.9Z" 
	id="f1_a"
	transform="scale(0.001,-0.001)" />

	<path d="M39.1,0l0,106.1L512.8,678.6l-438.5,0l0,120.2l619,0l0,-109.8L222.7,120.3l485.2,0L707.9,0Z" 
	id="f1_1z"
	transform="scale(0.001,-0.001)" />

	<path d="M98.5,0L332,1100l228.2,0L326.7,0Z" 
	id="f2_b"
	transform="scale(0.001,-0.001)" />

	<path d="M95.5,0L267.8,811.6l206.7,0L449.1,693c0,0,52.9,63.5,94,90.3c0,0,71.6,47.8,170.1,47.8c0,0,93.2,0,142.4,-41.1c0,0,38.1,-38,49.3,-97.7c0,0,56.7,71.6,126,105.2c0,0,72.4,33.6,153,33.6c0,0,53.7,0,101.4,-20.9c0,0,47.8,-20.9,79.8,-73.1c0,0,24.7,-42.5,23.9,-104.5c0,0,-1.5,-41,-17.9,-120.1L1260.7,0L1042.9,0l109.6,517.5c0,0,9.7,46.2,1.5,76c0,0,-16.4,56.7,-92.5,56.7c0,0,-88,0,-137.2,-73.1c0,0,-25.4,-38.7,-37.3,-93.2L784.8,0L570.7,0L672.9,484.1c0,0,15.6,72.4,7.4,105.2c0,0,-14.1,59,-92.5,59c0,0,-91,0,-135,-59c0,0,-23.9,-33.5,-38,-99.9L311.1,0Z" 
	id="f2_w"
	transform="scale(0.001,-0.001)" />

	<path d="M510.2,155.5c0,0,88.8,0,150,68.6c0,0,61.2,68.6,85,182.6c0,0,20.2,94,-7.4,166.3c0,0,-27.6,72.3,-123.8,72.3c0,0,-115.7,0,-182.1,-109.6c0,0,-34.3,-58.1,-53.7,-147.6c0,0,-29.8,-141.7,32.8,-199.1c0,0,38.1,-33.5,99.2,-33.5ZM24.6,-319.6l241,1133.1l203.6,0L443.9,693.1c0,0,45.5,52.9,91,83.5c0,0,82,54.5,179.7,54.5c0,0,142.5,0,219,-105.1c0,0,76.5,-105.1,33.2,-308.7c0,0,-45.5,-214.7,-166,-327.2c0,0,-120.5,-112.5,-272.6,-112.5c0,0,-97,0,-150.7,48.3c0,0,-29.9,26.8,-52.3,78.2L235,-319.6Z" 
	id="f2_z"
	transform="scale(0.001,-0.001)" />

	<path d="M97,0L269.3,813.5l202.9,0L442.4,671.3c0,0,66.4,81.1,108.9,110.9c0,0,70.9,49.9,166.3,49.9c0,0,6,0,10.1,-0.5c0,0,4.1,-0.5,17.5,-1.5L699,613.1c0,0,-19.4,2.3,-35.1,3.1c0,0,-15.6,0.8,-25.3,0.8c0,0,-128.4,0,-190.3,-83.6c0,0,-34.3,-47,-55.2,-144.7L311.1,0Z" 
	id="f2_10"
	transform="scale(0.001,-0.001)" />

	<path d="M495.3,149.6c0,0,93.3,0,157.4,66.4c0,0,64.2,66.4,90.3,188.7c0,0,26.1,122.3,-10.1,188.3c0,0,-36.2,66,-129.4,66c0,0,-93.3,0,-157.4,-66c0,0,-64.2,-66,-90.3,-188.3c0,0,-26.1,-122.3,10.1,-188.7c0,0,36.2,-66.4,129.4,-66.4ZM458,-28.2c0,0,-209.6,0,-285.3,127c0,0,-75.7,127.1,-37.7,306.1c0,0,37.3,176,167.9,305c0,0,130.5,129,340.1,129c0,0,209.7,0,285,-129c0,0,75.4,-129,38,-305c0,0,-38,-179,-168.2,-306.1c0,0,-130.1,-127,-339.8,-127Z" 
	id="f2_y"
	transform="scale(0.001,-0.001)" />

	<path d="M311.1,0L191.7,813.5l238.7,0l41.8,-600l300.6,600l228.3,0L535.6,0Z" 
	id="f2_14"
	transform="scale(0.001,-0.001)" />

	<path d="M688.5,487.9c0,0,12.7,84.6,-24.2,128.3c0,0,-36.9,43.8,-104.8,43.8c0,0,-73.9,0,-124.2,-46.4c0,0,-50.4,-46.4,-77.2,-125.7ZM421.5,-26.3c0,0,-155.2,0,-252.5,99.8c0,0,-97.4,100,-49.6,325.2c0,0,44.7,211.1,175.6,323.7c0,0,131,112.6,301.8,112.6c0,0,101.4,0,174.9,-38c0,0,73.5,-38,108.6,-120.1c0,0,32.8,-72.3,26.1,-167.7c0,0,-3,-56,-26.9,-161.1l-556.5,0c0,0,-21.6,-122.5,40.3,-171.8c0,0,37.3,-30.6,99.2,-30.6c0,0,65.7,0,114.9,37.5c0,0,26.1,20.3,51.5,56.4l217,0c0,0,-23.8,-72.5,-106.6,-147.2c0,0,-129.8,-118.7,-317.8,-118.7Z" 
	id="f2_p"
	transform="scale(0.001,-0.001)" />

	<path d="M102.2,0L274.5,813.1l215.6,0L317.8,0ZM295.4,910.3l41.8,196.5l215.6,0L511,910.3Z" 
	id="f2_t"
	transform="scale(0.001,-0.001)" />

	<path d="M417.8,-27.3c0,0,-191.8,0,-266,80.9c0,0,-74.2,81.1,-48.1,206.5l215.6,0c0,0,-5.2,-56.8,12.7,-80.6c0,0,29.8,-42.6,136.5,-42.6c0,0,62.6,0,103.7,18.6c0,0,41,18.7,49.2,55.9c0,0,7.5,35.8,-18.6,54.4c0,0,-26.2,18.7,-208.2,64.1c0,0,-130.5,34.3,-176,85.7c0,0,-46.3,50.7,-25.4,146.1c0,0,23.9,112.6,129.4,193.4c0,0,105.6,80.9,266,80.9c0,0,152.2,0,235,-60.8c0,0,82.8,-60.8,65.6,-210l-212.6,0c0,0,3.7,41.1,-9.7,65.1c0,0,-26.1,43.4,-110.4,43.4c0,0,-69.4,0,-103.3,-21.6c0,0,-34,-21.7,-39.9,-50.8c0,0,-8.2,-36.5,20.1,-52.9c0,0,27.6,-17.2,208.9,-58.9c0,0,120.1,-29.9,170.8,-90.3c0,0,50,-61.1,30.6,-152.9c0,0,-26.1,-120.8,-132,-197.2c0,0,-106,-76.4,-293.9,-76.4Z" 
	id="f2_11"
	transform="scale(0.001,-0.001)" />

	<path d="M516.2,153.5c0,0,82.1,0,141.8,66.4c0,0,59.6,66.5,82.8,174.7c0,0,18.6,86.5,8.2,143.3c0,0,-20.2,107.4,-134.3,107.4c0,0,-115.6,0,-181.3,-105.2c0,0,-34.3,-56,-53,-144.8c0,0,-22.3,-104.5,9.4,-173.1c0,0,31.7,-68.7,126.4,-68.7ZM535.6,-21.4c0,0,-100.7,0,-152.9,40.1c0,0,-31.3,23.8,-61.2,83.4L299.9,0L91.8,0L324.5,1098l211.9,0L453.6,707.3c0,0,52.2,56.7,107.4,86.5c0,0,64.9,37.3,153.6,37.3c0,0,160.4,0,226.5,-115.6c0,0,66,-115.6,27.2,-298.4c0,0,-40.3,-189.5,-156.3,-314c0,0,-116,-124.5,-276.4,-124.5Z" 
	id="f2_m"
	transform="scale(0.001,-0.001)" />

	<path d="M103.7,0L337.2,1100l212.6,0L316.3,0Z" 
	id="f2_v"
	transform="scale(0.001,-0.001)" />

	<path d="M358,-11.7c-34.3,0,-148.3,3.7,-184.9,52.2c0,0,-27.6,36.6,-12,112.7L267.8,654.1l-113.4,0l32.1,151.6l113.4,0l48.5,226.8l210.3,0L510.2,805.7l132.1,0L610.2,654.1l-132,0.1l-91.8,-430c0,0,-10.4,-50,-0.4,-62.3c0,0,10.1,-12.3,75,-12.3c0,0,9.7,0,20.5,0.5c0,0,10.9,0.5,22,1.5L469.2,-7.9L367.8,-11.6c0,0,-3.6,-0.1,-9.8,-0.1Z" 
	id="f2_12"
	transform="scale(0.001,-0.001)" />

	<path d="M158.9,-328.4c0,0,-28.4,0,-45.5,0.3c0,0,-17.2,0.4,-50.7,2.6l35.8,170.1l26.8,-1.5c0,0,6,-0.3,15.2,-0.3c11.6,0,28.3,0.5,44.5,2.5c0,0,29.1,3.8,51.5,17.2c0,0,21.6,12.7,46.2,52.9c0,0,24.6,40.3,23.2,49.3L188,813.5l236.5,0l50,-599.7L769.9,813.5l226,0L546.8,13.8c0,0,-129.8,-231.1,-188.4,-286.7c0,0,-58.5,-55.5,-199.5,-55.5Z" 
	id="f2_17"
	transform="scale(0.001,-0.001)" />

	<path d="M484.9,151.6c0,0,52.2,0,103.7,24.2c0,0,51.5,24.2,87.3,54.1L527.4,479.1c0,0,-91,-53,-125.3,-93.3c0,0,-34.3,-40.3,-44.8,-88.8c0,0,-11.2,-54.4,23.5,-99.9c0,0,34.7,-45.5,104.1,-45.5ZM640.8,708.5c0,0,51.5,31.3,76.1,52.9c0,0,45.5,40.3,55.2,87.3c0,0,7.4,34.3,-9.3,61.2c0,0,-16.8,26.8,-62.3,26.8c0,0,-28.4,0,-56,-15.6c0,0,-42.5,-23.2,-52.9,-73.1c0,0,-6,-29.9,7.4,-62.7c0,0,9,-21.6,41.8,-76.8ZM431.9,-26.3c0,0,-167.1,0,-240.2,98.4c0,0,-73.1,98.4,-47.7,218.5c0,0,20.9,99.2,85.4,170c0,0,64.5,70.9,191.3,140.2L446.8,615c0,0,-36.5,53.7,-50.7,109.6c0,0,-14.2,56,-1.5,116.4c0,0,25.4,120.1,120.5,187.6c0,0,95.1,67.5,223.4,67.5c0,0,117.1,0,178.7,-69c0,0,61.5,-69,39.2,-176.4c0,0,-20.9,-97,-79.5,-157.4c0,0,-58.6,-60.4,-158.5,-111.9L833.3,389c0,0,35,38.8,59.3,84.3c0,0,24.2,45.5,36.2,96.2l188.7,0c0,0,-26.1,-100,-91,-202.1c0,0,-35.8,-57.5,-104.5,-126.8L1071.2,0.4l-258.1,0L756.4,93.7c0,0,-66.4,-51.5,-119.3,-76.1c0,0,-94,-43.9,-205.2,-43.9Z" 
	id="f2_3"
	transform="scale(0.001,-0.001)" />

	<path d="M387.9,129.1c0,0,68.6,0,135,40.3c0,0,66.4,40.2,91.8,146.9l16.4,79.1c0,0,-22.4,-12.7,-44.8,-20.5c0,0,-22.3,-7.9,-59.6,-14.6l-49.3,-8.9c0,0,-70.1,-12,-102.9,-29.1c0,0,-55.2,-29.1,-67.9,-90.3c0,0,-11.9,-54.4,13.1,-78.7c0,0,25,-24.2,68.2,-24.2ZM292.4,-25.3c0,0,-110.4,0,-168.9,62.9c0,0,-58.6,63.1,-34,178.8c0,0,32.1,150,161.9,217.2c0,0,70.9,36.5,197.7,52.2l73.8,9c0,0,61.2,7.4,88.8,18.6c0,0,49.2,19.4,58.2,60.5c0,0,10.4,50,-20.2,69c0,0,-30.5,19.1,-97.7,19.1c0,0,-75.3,0,-114.9,-37.2c0,0,-27.5,-27.5,-45.5,-74.3l-205.1,0c0,0,29.8,106.6,97,175.2c0,0,107.4,107.4,312.5,107.4c0,0,133.6,0,226.1,-53c0,0,92.5,-53,61.2,-200.1L803.4,206.7c0,0,-8.2,-38.8,-17.9,-94.1c0,0,-6.7,-41.7,0.4,-56.6c0,0,7.1,-15,25.7,-24.7L805.7,0L574.4,0c0,0,-4.5,24.6,-3.7,46.2c0,0,0.7,21.7,4.4,49.3c0,0,-54.4,-47.8,-118.6,-81.4c0,0,-77.5,-39.4,-164.1,-39.4Z" 
	id="f2_l"
	transform="scale(0.001,-0.001)" />

	<path d="M100.7,0L273,811.6l205.2,0L452.8,693.4c0,0,54.5,62.8,97,90.4c0,0,76.1,49.3,176.8,49.3c0,0,126.1,0,192.1,-66.1c0,0,66,-66.1,33.9,-219.1L836.2,0L618.4,0L722.9,494.9c0,0,14.1,64.1,3.7,98.5c0,0,-17.9,62.7,-105.9,62.7c0,0,-108.2,0,-167.9,-91.8c0,0,-31.3,-48.6,-47,-123.9L312.6,0Z" 
	id="f2_x"
	transform="scale(0.001,-0.001)" />

	<path d="M97,0L329.7,1096.1l208.9,0L412.5,503.6l329.8,306l263.3,0L655,498.4L845.2,0L588.6,0L467.7,347.7L359.6,255.9L305.9,0Z" 
	id="f2_u"
	transform="scale(0.001,-0.001)" />

	<path d="M484.9,174.1c0,0,74.6,0,138,56.4c0,0,63.4,56.4,89.5,179.8c0,0,24.6,115.9,-11.2,176.4c0,0,-35.8,60.6,-117.8,60.6c0,0,-111.9,0,-176.8,-105.4c0,0,-34.4,-56.1,-52.3,-138.3c0,0,-14.9,-71.1,-2.2,-126.4c0,0,20.9,-103.1,132.8,-103.1ZM361.1,-332.3c0,0,-155.9,0,-241.4,61c0,0,-85.4,61.1,-70.5,182.4l231.3,0c0,0,1.5,-37,17.9,-53.2c0,0,28.3,-28.9,109.7,-28.9c0,0,114.8,0,170,76.6c0,0,35.9,49.1,60.5,165l11.1,52.1c0,0,-41.7,-52.1,-82.8,-78.2c0,0,-73.8,-48.3,-175.3,-48.3c0,0,-156.6,0,-226.7,110c0,0,-70.2,110.1,-29.9,298.3c0,0,38.1,181.4,154.8,305c0,0,116.8,123.6,282.4,123.6c0,0,61.1,0,102.2,-18.9c0,0,70.8,-32,100.7,-117.8l24.6,117.1l206.6,0L842.2,42.1c0,0,-32.8,-157.3,-102.9,-237.2c0,0,-120.1,-137.2,-378.2,-137.2Z" 
	id="f2_r"
	transform="scale(0.001,-0.001)" />

	<path d="M32.8,-259L50,-176.9c0,0,67.9,18,107,59.8c0,0,39.2,41.8,60.1,117.1L88,0l47,222l229.8,0L323.8,29.5c0,0,-10.5,-50.6,-35.8,-105.8c0,0,-25.4,-55.2,-70.2,-95.4c0,0,-49.2,-43.3,-107,-65.3c0,0,-57.8,-22,-78,-22Z" 
	id="f2_4"
	transform="scale(0.001,-0.001)" />

	<path d="M427.5,-28.2c0,0,-196.2,0,-263.8,116.3c0,0,-67.5,116.4,-27.9,302.3c0,0,44,209.8,171.2,326.2c0,0,127.2,116.5,307,116.5c0,0,152.9,0,235.7,-68.6c0,0,82.8,-68.6,63.4,-242.4l-217.8,0c0,0,3.7,45.4,-13.5,81.9c0,0,-25.3,49.2,-100.7,49.2c0,0,-107.4,0,-169.3,-106.9c0,0,-32.8,-56.8,-53,-150.9c0,0,-18.6,-89.6,-9.7,-144.2c0,0,16.4,-101.6,121.6,-101.6c0,0,74.6,0,114.5,40.3c0,0,39.9,40.3,60.1,104.4l217.1,0c0,0,-27.6,-96.9,-109,-183.3c0,0,-129.8,-139.2,-325.9,-139.2Z" 
	id="f2_n"
	transform="scale(0.001,-0.001)" />

	<path d="M134.3,0L273,656.1l-118.6,0l32.1,149.6l116.4,0l11.2,52.2c0,0,27.6,130.5,82,179.8c0,0,61.9,73.1,238.7,73.1c0,0,20.2,0,36.2,-1.3c0,0,16.1,-1.2,44.4,-3.6L678.1,933.1c0,0,-17.2,2.2,-58.9,3.3c0,0,-0.5,0,-1.2,0c-7.1,0,-42.7,-0.9,-61.1,-18.6c0,0,-20.5,-19.8,-25,-43.6c0,0,-5.2,-23.8,-14.9,-68.5l139.5,0L624.4,656.1l-139.5,0L346.1,0Z" 
	id="f2_q"
	transform="scale(0.001,-0.001)" />

	<path d="M477.4,153.5c0,0,90.3,0,151.8,67.1c0,0,61.6,67.1,84,173.7c0,0,31.3,149.1,-29.9,213.3c0,0,-38,38.7,-99.2,38.7c0,0,-93.2,0,-151.8,-70.4c0,0,-58.6,-70.5,-80.9,-174.9c0,0,-23.9,-112.6,5.9,-180c0,0,29.9,-67.5,120.1,-67.5ZM378.2,-25.3c0,0,-142.5,0,-215.2,115.1c0,0,-72.7,115.2,-34.7,295.6c0,0,44.8,208.1,166,327.4c0,0,121.2,119.3,281.6,119.3c0,0,73.8,0,124.2,-32.5c0,0,50.4,-32.4,74.2,-89.9L856.4,1098l215.6,0L839.2,0L632.6,0l23.9,112.5c0,0,-61.2,-72.3,-126.5,-105.1c0,0,-65.2,-32.7,-151.8,-32.7Z" 
	id="f2_o"
	transform="scale(0.001,-0.001)" />

	<path d="M103.7,325.6L147,527l428.1,0L531.9,325.6Z" 
	id="f2_5"
	transform="scale(0.001,-0.001)" />

	<path d="M100.7,0L333.5,1096.1l211.8,0l-82.8,-389c0,0,61.2,70.9,127.9,98.9c0,0,66.8,28,134,28c0,0,75.3,0,131.2,-26.1c0,0,56,-26.1,84.3,-79.8c0,0,23.9,-45.5,21.3,-93.6c0,0,-2.6,-48.1,-25.7,-157.1L834,0L616.9,0L721.4,494.5c0,0,14.1,65.6,0.7,105.9c0,0,-17.1,56.7,-98.5,56.7c0,0,-84.2,0,-139.8,-56.3c0,0,-55.6,-56.3,-78,-160.8L312.6,0Z" 
	id="f2_s"
	transform="scale(0.001,-0.001)" />

	<path d="M570.7,-30.2c0,0,-237.2,0,-340.9,152c0,0,-103,152.9,-46.3,419.2c0,0,61.2,287.9,248.4,443.8c0,0,163.4,135.7,370.8,135.7c0,0,277.5,0,367,-182.3c0,0,49.2,-102.2,32.1,-205.2L972,733c0,0,-5.2,79.1,-32.1,119.4c0,0,-47,71.6,-170,71.6c0,0,-125.4,0,-219.3,-101c0,0,-94.1,-101,-132.8,-285.8c0,0,-39.6,-184.9,17.1,-276.9c0,0,56.7,-92.1,174.6,-92.1c0,0,120.8,0,201.4,79.1c0,0,44,42.5,85,127.5l227.6,0c0,0,-67.9,-179.7,-214.5,-292.4c0,0,-146.6,-112.6,-338.3,-112.6Z" 
	id="f2_7"
	transform="scale(0.001,-0.001)" />

	<path d="M367,-18.5c0,0,-180.5,0,-215.6,129.9c0,0,-19.4,71.7,10.5,211.4L265.6,813.5l217.8,0L379.7,322.9c0,0,-14.9,-69.4,-6,-104.5c0,0,15.7,-62,100.8,-62c0,0,108.9,0,167.8,88.2c0,0,31.3,47.7,47.7,126.1l94,442.8l215.6,0L827.3,0L620.7,0l23.8,114.6c0,0,-3.7,-3.8,-19.4,-22.5c0,0,-15.6,-18.7,-35,-32.9C590.1,59.2,530.4,14.3,480,-2c0,0,-50.3,-16.5,-113,-16.5Z" 
	id="f2_13"
	transform="scale(0.001,-0.001)" />


</defs>
</svg>