<?xml version="1.0" encoding="UTF-8" standalone="no"?>
<!DOCTYPE svg PUBLIC "-//W3C//DTD SVG 1.1//EN"
"http://www.w3.org/Graphics/SVG/1.1/DTD/svg11.dtd">
<svg viewBox="0 0 935 1210" version="1.1" xmlns="http://www.w3.org/2000/svg" xmlns:xlink="http://www.w3.org/1999/xlink">
<defs>
<clipPath id="c0_6"><path d="M27.5,1191.7L27.5,18.3l880,0l0,1173.4Z" /></clipPath>
<clipPath id="c1_6"><path d="M59,271.9l0,-33.4l435.9,0l0,33.4Z" /></clipPath>
<clipPath id="c2_6"><path d="M57.2,587.8l0,-73.7l359.3,0l0,73.7Z" /></clipPath>
<clipPath id="c3_6"><path d="M57,500.1l0,-33.4l150.4,0l0,33.4Z" /></clipPath>
<clipPath id="c4_6"><path d="M57.3,680.8l0,-73.3l359.7,0l0,73.3Z" /></clipPath>
<clipPath id="c5_6"><path d="M58.7,904.4l0,-206.1l390.5,0l0,206.1Z" /></clipPath>
<clipPath id="c6_6"><path d="M462.7,1064.1l0,-178.2l425.7,0l0,178.2Z" /></clipPath>
<clipPath id="c7_6"><path d="M236.9,199.6l0,-28.6l651.9,0l0,28.6Z" /></clipPath>
<style type="text/css"><![CDATA[
.g1_6{
fill: #FFFFFF;
}
.g2_6{
fill: none;
stroke: #4F81BD;
stroke-width: 3.8194444;
stroke-linecap: butt;
stroke-linejoin: round;
}
]]></style>
</defs>
<g clip-path="url(#c0_6)">
<g fill="#000000" >
<use xlink:href="#f0_b" transform="matrix(10.8,0,0,10.8,899,70.8)" />
<use xlink:href="#f0_6" transform="matrix(10.8,0,0,10.8,110,1129.7)" />
<use xlink:href="#f0_b" transform="matrix(10.8,0,0,10.8,463.2,1129.7)" />
<use xlink:href="#f0_b" transform="matrix(10.8,0,0,10.8,905.9,1129.7)" />
</g>
</g>
<image preserveAspectRatio="none" x="0" y="4" width="946" height="229" xlink:href="img/1.png" />
<path fill-rule="evenodd" d="M58.6,232.7l437.1,0l0,45.4l-437.1,0Z" class="g1_6" />
<image preserveAspectRatio="none" x="59" y="239" width="436" height="33" xlink:href="img/2.png" />
<g clip-path="url(#c1_6)">
<g fill="#000000" >
<use xlink:href="#f1_j" transform="matrix(15.8,0,0,15.8,70,262)" />
<use xlink:href="#f1_s" transform="matrix(15.8,0,0,15.8,93.1,262)" />
<use xlink:href="#f1_l" transform="matrix(15.8,0,0,15.8,108.1,262)" />
<use xlink:href="#f1_12" transform="matrix(15.8,0,0,15.8,121.7,262)" />
<use xlink:href="#f1_l" transform="matrix(15.8,0,0,15.8,136.3,262)" />
<use xlink:href="#f1_10" transform="matrix(15.8,0,0,15.8,150.3,262)" />
<use xlink:href="#f1_p" transform="matrix(15.8,0,0,15.8,159.4,262)" />
<use xlink:href="#f1_k" transform="matrix(15.8,0,0,15.8,179.9,262)" />
<use xlink:href="#f1_y" transform="matrix(15.8,0,0,15.8,196.4,262)" />
<use xlink:href="#f1_13" transform="matrix(15.8,0,0,15.8,211.1,262)" />
<use xlink:href="#f1_10" transform="matrix(15.8,0,0,15.8,226.1,262)" />
<use xlink:href="#f1_7" transform="matrix(15.8,0,0,15.8,242.3,262)" />
<use xlink:href="#f1_y" transform="matrix(15.8,0,0,15.8,260.2,262)" />
<use xlink:href="#f1_w" transform="matrix(15.8,0,0,15.8,274.9,262)" />
<use xlink:href="#f1_z" transform="matrix(15.8,0,0,15.8,296.9,262)" />
<use xlink:href="#f1_p" transform="matrix(15.8,0,0,15.8,311.6,262)" />
<use xlink:href="#f1_12" transform="matrix(15.8,0,0,15.8,325.2,262)" />
<use xlink:href="#f1_t" transform="matrix(15.8,0,0,15.8,333.6,262)" />
<use xlink:href="#f1_12" transform="matrix(15.8,0,0,15.8,340.2,262)" />
<use xlink:href="#f1_y" transform="matrix(15.8,0,0,15.8,348.3,262)" />
<use xlink:href="#f1_10" transform="matrix(15.8,0,0,15.8,363.3,262)" />
<use xlink:href="#f1_11" transform="matrix(15.8,0,0,15.8,372.8,262)" />
<use xlink:href="#f1_8" transform="matrix(15.8,0,0,15.8,393.3,262)" />
<use xlink:href="#f1_y" transform="matrix(15.8,0,0,15.8,410.9,262)" />
<use xlink:href="#f1_t" transform="matrix(15.8,0,0,15.8,425.6,262)" />
<use xlink:href="#f1_x" transform="matrix(15.8,0,0,15.8,432.6,262)" />
<use xlink:href="#f1_r" transform="matrix(15.8,0,0,15.8,447.6,262)" />
<use xlink:href="#f1_6" transform="matrix(15.8,0,0,15.8,462.3,262)" />
</g>
</g>
<image preserveAspectRatio="none" x="57" y="275" width="808" height="67" xlink:href="img/3.png" />
<image preserveAspectRatio="none" x="64" y="350" width="507" height="99" xlink:href="img/4.png" />
<image preserveAspectRatio="none" x="66" y="921" width="370" height="131" xlink:href="img/5.png" />
<image preserveAspectRatio="none" x="436" y="396" width="432" height="433" xlink:href="img/6.png" />
<path fill-rule="evenodd" d="M56.8,508.2l360.4,0l0,85.3l-360.4,0Z" class="g1_6" />
<image preserveAspectRatio="none" x="57" y="514" width="360" height="74" xlink:href="img/7.png" />
<g clip-path="url(#c2_6)">
<g fill="#595959" >
<use xlink:href="#f2_w" transform="matrix(12,0,0,12,68.2,532)" />
<use xlink:href="#f2_1t" transform="matrix(12,0,0,12,73.3,532)" />
<use xlink:href="#f2_5" transform="matrix(12,0,0,12,78.5,532)" />
<use xlink:href="#f2_1s" transform="matrix(12,0,0,12,81.8,532)" />
<use xlink:href="#f2_1n" transform="matrix(12,0,0,12,96.1,532)" />
<use xlink:href="#f2_1e" transform="matrix(12,0,0,12,106.3,532)" />
<use xlink:href="#f2_1v" transform="matrix(12,0,0,12,116.6,532)" />
<use xlink:href="#f2_1e" transform="matrix(12,0,0,12,125.8,532)" />
<use xlink:href="#f2_1r" transform="matrix(12,0,0,12,136,532)" />
<use xlink:href="#f2_1t" transform="matrix(12,0,0,12,147,532)" />
<use xlink:href="#f2_1o" transform="matrix(12,0,0,12,152.2,532)" />
<use xlink:href="#f2_1o" transform="matrix(12,0,0,12,162.4,532)" />
<use xlink:href="#f2_1l" transform="matrix(12,0,0,12,177.5,532)" />
<use xlink:href="#f2_1a" transform="matrix(12,0,0,12,181.5,532)" />
<use xlink:href="#f2_1t" transform="matrix(12,0,0,12,191.8,532)" />
<use xlink:href="#f2_1e" transform="matrix(12,0,0,12,196.9,532)" />
<use xlink:href="#f2_1t" transform="matrix(12,0,0,12,211.9,532)" />
<use xlink:href="#f2_1o" transform="matrix(12,0,0,12,217.1,532)" />
<use xlink:href="#f2_1i" transform="matrix(12,0,0,12,232.5,532)" />
<use xlink:href="#f2_1m" transform="matrix(12,0,0,12,236.5,532)" />
<use xlink:href="#f2_1p" transform="matrix(12,0,0,12,251.9,532)" />
<use xlink:href="#f2_1l" transform="matrix(12,0,0,12,261.8,532)" />
<use xlink:href="#f2_1e" transform="matrix(12,0,0,12,266.2,532)" />
<use xlink:href="#f2_1m" transform="matrix(12,0,0,12,276.1,532)" />
<use xlink:href="#f2_1e" transform="matrix(12,0,0,12,291.5,532)" />
<use xlink:href="#f2_1n" transform="matrix(12,0,0,12,301.8,532)" />
<use xlink:href="#f2_1t" transform="matrix(12,0,0,12,311.7,532)" />
<use xlink:href="#f2_13" transform="matrix(12,0,0,12,321.9,532)" />
<use xlink:href="#f2_s" transform="matrix(12,0,0,12,334,532)" />
<use xlink:href="#f2_10" transform="matrix(12,0,0,12,346.1,532)" />
<use xlink:href="#f2_9" transform="matrix(12,0,0,12,360.4,532)" />
</g>
</g>
<g clip-path="url(#c0_6)">
<g fill="#595959" >
<use xlink:href="#f2_1t" transform="matrix(12,0,0,12,68.2,557.3)" />
<use xlink:href="#f2_1h" transform="matrix(12,0,0,12,73.3,557.3)" />
<use xlink:href="#f2_1e" transform="matrix(12,0,0,12,83.6,557.3)" />
<use xlink:href="#f2_1b" transform="matrix(12,0,0,12,98.6,557.3)" />
<use xlink:href="#f2_1e" transform="matrix(12,0,0,12,108.9,557.3)" />
<use xlink:href="#f2_1s" transform="matrix(12,0,0,12,119.2,557.3)" />
<use xlink:href="#f2_1t" transform="matrix(12,0,0,12,128.3,557.3)" />
<use xlink:href="#f2_1t" transform="matrix(12,0,0,12,138.6,557.3)" />
<use xlink:href="#f2_1i" transform="matrix(12,0,0,12,143.7,557.3)" />
<use xlink:href="#f2_1m" transform="matrix(12,0,0,12,147.8,557.3)" />
<use xlink:href="#f2_1e" transform="matrix(12,0,0,12,162.8,557.3)" />
<use xlink:href="#f2_1t" transform="matrix(12,0,0,12,178.2,557.3)" />
<use xlink:href="#f2_1o" transform="matrix(12,0,0,12,183.3,557.3)" />
<use xlink:href="#f2_1d" transform="matrix(12,0,0,12,198.4,557.3)" />
<use xlink:href="#f2_1o" transform="matrix(12,0,0,12,208.6,557.3)" />
<use xlink:href="#f2_1i" transform="matrix(12,0,0,12,224,557.3)" />
<use xlink:href="#f2_1t" transform="matrix(12,0,0,12,228.1,557.3)" />
<use xlink:href="#f2_1i" transform="matrix(12,0,0,12,238,557.3)" />
<use xlink:href="#f2_1s" transform="matrix(12,0,0,12,242.4,557.3)" />
<use xlink:href="#f2_1n" transform="matrix(12,0,0,12,256.7,557.3)" />
<use xlink:href="#f2_1o" transform="matrix(12,0,0,12,266.9,557.3)" />
<use xlink:href="#f2_1w" transform="matrix(12,0,0,12,276.8,557.3)" />
<use xlink:href="#f2_1t" transform="matrix(12,0,0,12,295.2,557.3)" />
<use xlink:href="#f2_1o" transform="matrix(12,0,0,12,300.3,557.3)" />
<use xlink:href="#f2_1h" transform="matrix(12,0,0,12,315.7,557.3)" />
<use xlink:href="#f2_1a" transform="matrix(12,0,0,12,325.6,557.3)" />
<use xlink:href="#f2_1r" transform="matrix(12,0,0,12,335.9,557.3)" />
<use xlink:href="#f2_1v" transform="matrix(12,0,0,12,342.1,557.3)" />
<use xlink:href="#f2_1e" transform="matrix(12,0,0,12,351.3,557.3)" />
<use xlink:href="#f2_1s" transform="matrix(12,0,0,12,361.2,557.3)" />
<use xlink:href="#f2_1t" transform="matrix(12,0,0,12,370.7,557.3)" />
</g>
</g>
<g clip-path="url(#c2_6)">
<g fill="#595959" >
<use xlink:href="#f2_1i" transform="matrix(12,0,0,12,68.2,582.3)" />
<use xlink:href="#f2_1t" transform="matrix(12,0,0,12,72.2,582.3)" />
<use xlink:href="#f2_1s" transform="matrix(12,0,0,12,77.4,582.3)" />
<use xlink:href="#f2_1b" transform="matrix(12,0,0,12,91.7,582.3)" />
<use xlink:href="#f2_1e" transform="matrix(12,0,0,12,101.9,582.3)" />
<use xlink:href="#f2_1n" transform="matrix(12,0,0,12,112.2,582.3)" />
<use xlink:href="#f2_1e" transform="matrix(12,0,0,12,122.1,582.3)" />
<use xlink:href="#f2_1f" transform="matrix(12,0,0,12,132.4,582.3)" />
<use xlink:href="#f2_1i" transform="matrix(12,0,0,12,137.5,582.3)" />
<use xlink:href="#f2_1t" transform="matrix(12,0,0,12,141.5,582.3)" />
<use xlink:href="#f2_1s" transform="matrix(12,0,0,12,146.7,582.3)" />
<use xlink:href="#f2_1m" transform="matrix(12,0,0,12,161,582.3)" />
<use xlink:href="#f2_1o" transform="matrix(12,0,0,12,176.4,582.3)" />
<use xlink:href="#f2_1n" transform="matrix(12,0,0,12,186.3,582.3)" />
<use xlink:href="#f2_1t" transform="matrix(12,0,0,12,196.5,582.3)" />
<use xlink:href="#f2_1h" transform="matrix(12,0,0,12,201.7,582.3)" />
<use xlink:href="#f2_1s" transform="matrix(12,0,0,12,211.9,582.3)" />
<use xlink:href="#f2_1a" transform="matrix(12,0,0,12,226.2,582.3)" />
<use xlink:href="#f2_1f" transform="matrix(12,0,0,12,236.5,582.3)" />
<use xlink:href="#f2_1t" transform="matrix(12,0,0,12,241.6,582.3)" />
<use xlink:href="#f2_1e" transform="matrix(12,0,0,12,246.8,582.3)" />
<use xlink:href="#f2_1r" transform="matrix(12,0,0,12,256.7,582.3)" />
<use xlink:href="#f2_1a" transform="matrix(12,0,0,12,268,582.3)" />
<use xlink:href="#f2_1n" transform="matrix(12,0,0,12,278.3,582.3)" />
<use xlink:href="#f2_1d" transform="matrix(12,0,0,12,288.2,582.3)" />
<use xlink:href="#f2_1b" transform="matrix(12,0,0,12,303.6,582.3)" />
<use xlink:href="#f2_1e" transform="matrix(12,0,0,12,313.9,582.3)" />
<use xlink:href="#f2_1y" transform="matrix(12,0,0,12,324.1,582.3)" />
<use xlink:href="#f2_1o" transform="matrix(12,0,0,12,333.3,582.3)" />
<use xlink:href="#f2_1n" transform="matrix(12,0,0,12,343.2,582.3)" />
<use xlink:href="#f2_1d" transform="matrix(12,0,0,12,353.5,582.3)" />
<use xlink:href="#f2_b" transform="matrix(12,0,0,12,363.7,582.3)" />
</g>
</g>
<path fill-rule="evenodd" d="M56.7,460.9l151.4,0l0,45.4l-151.4,0Z" class="g1_6" />
<image preserveAspectRatio="none" x="57" y="467" width="150" height="33" xlink:href="img/8.png" />
<g clip-path="url(#c3_6)">
<g fill="#000000" >
<use xlink:href="#f1_h" transform="matrix(15.8,0,0,15.8,68,490.2)" />
<use xlink:href="#f1_s" transform="matrix(15.8,0,0,15.8,83.1,490.2)" />
<use xlink:href="#f1_p" transform="matrix(15.8,0,0,15.8,97.8,490.2)" />
<use xlink:href="#f1_a" transform="matrix(15.8,0,0,15.8,118.3,490.2)" />
<use xlink:href="#f1_13" transform="matrix(15.8,0,0,15.8,133.3,490.2)" />
<use xlink:href="#f1_12" transform="matrix(15.8,0,0,15.8,148,490.2)" />
<use xlink:href="#f1_13" transform="matrix(15.8,0,0,15.8,156.4,490.2)" />
<use xlink:href="#f1_10" transform="matrix(15.8,0,0,15.8,171.1,490.2)" />
<use xlink:href="#f1_p" transform="matrix(15.8,0,0,15.8,180.6,490.2)" />
</g>
</g>
<path fill-rule="evenodd" d="M56.9,601.6l360.3,0l0,85.4L56.9,687Z" class="g1_6" />
<image preserveAspectRatio="none" x="57" y="608" width="360" height="73" xlink:href="img/9.png" />
<g clip-path="url(#c4_6)">
<g fill="#595959" >
<use xlink:href="#f2_14" transform="matrix(12,0,0,12,68.3,625.5)" />
<use xlink:href="#f2_1h" transform="matrix(12,0,0,12,79.6,625.5)" />
<use xlink:href="#f2_1e" transform="matrix(12,0,0,12,89.5,625.5)" />
<use xlink:href="#f2_1e" transform="matrix(12,0,0,12,104.9,625.5)" />
<use xlink:href="#f2_1a" transform="matrix(12,0,0,12,114.8,625.5)" />
<use xlink:href="#f2_1r" transform="matrix(12,0,0,12,125.1,625.5)" />
<use xlink:href="#f2_1l" transform="matrix(12,0,0,12,131.3,625.5)" />
<use xlink:href="#f2_1i" transform="matrix(12,0,0,12,135.4,625.5)" />
<use xlink:href="#f2_1e" transform="matrix(12,0,0,12,139.4,625.5)" />
<use xlink:href="#f2_1r" transform="matrix(12,0,0,12,149.7,625.5)" />
<use xlink:href="#f2_1w" transform="matrix(12,0,0,12,160.7,625.5)" />
<use xlink:href="#f2_1e" transform="matrix(12,0,0,12,173.9,625.5)" />
<use xlink:href="#f2_1d" transform="matrix(12,0,0,12,189.3,625.5)" />
<use xlink:href="#f2_1o" transform="matrix(12,0,0,12,199.5,625.5)" />
<use xlink:href="#f2_13" transform="matrix(12,0,0,12,214.6,625.5)" />
<use xlink:href="#f2_s" transform="matrix(12,0,0,12,226.7,625.5)" />
<use xlink:href="#f2_10" transform="matrix(12,0,0,12,238.8,625.5)" />
<use xlink:href="#f2_1f" transform="matrix(12,0,0,12,258.2,625.5)" />
<use xlink:href="#f2_1o" transform="matrix(12,0,0,12,263.3,625.5)" />
<use xlink:href="#f2_1r" transform="matrix(12,0,0,12,273.2,625.5)" />
<use xlink:href="#f2_1y" transform="matrix(12,0,0,12,284.6,625.5)" />
<use xlink:href="#f2_1o" transform="matrix(12,0,0,12,293.8,625.5)" />
<use xlink:href="#f2_1u" transform="matrix(12,0,0,12,304,625.5)" />
<use xlink:href="#f2_9" transform="matrix(12,0,0,12,313.9,625.5)" />
</g>
</g>
<g clip-path="url(#c0_6)">
<g fill="#595959" >
<use xlink:href="#f2_1t" transform="matrix(12,0,0,12,68.3,650.8)" />
<use xlink:href="#f2_1h" transform="matrix(12,0,0,12,73.4,650.8)" />
<use xlink:href="#f2_1e" transform="matrix(12,0,0,12,83.7,650.8)" />
<use xlink:href="#f2_1f" transform="matrix(12,0,0,12,98.7,650.8)" />
<use xlink:href="#f2_1a" transform="matrix(12,0,0,12,103.8,650.8)" />
<use xlink:href="#f2_1s" transform="matrix(12,0,0,12,114.1,650.8)" />
<use xlink:href="#f2_1t" transform="matrix(12,0,0,12,123.3,650.8)" />
<use xlink:href="#f2_1e" transform="matrix(12,0,0,12,128.4,650.8)" />
<use xlink:href="#f2_1r" transform="matrix(12,0,0,12,138.7,650.8)" />
<use xlink:href="#f2_1a" transform="matrix(12,0,0,12,149.7,650.8)" />
<use xlink:href="#f2_1n" transform="matrix(12,0,0,12,159.9,650.8)" />
<use xlink:href="#f2_1d" transform="matrix(12,0,0,12,170.2,650.8)" />
<use xlink:href="#f2_1t" transform="matrix(12,0,0,12,185.2,650.8)" />
<use xlink:href="#f2_1h" transform="matrix(12,0,0,12,190.4,650.8)" />
<use xlink:href="#f2_1e" transform="matrix(12,0,0,12,200.6,650.8)" />
<use xlink:href="#f2_1b" transform="matrix(12,0,0,12,216,650.8)" />
<use xlink:href="#f2_1e" transform="matrix(12,0,0,12,226.3,650.8)" />
<use xlink:href="#f2_1t" transform="matrix(12,0,0,12,236.2,650.8)" />
<use xlink:href="#f2_1t" transform="matrix(12,0,0,12,241.3,650.8)" />
<use xlink:href="#f2_1e" transform="matrix(12,0,0,12,246.5,650.8)" />
<use xlink:href="#f2_1r" transform="matrix(12,0,0,12,256.7,650.8)" />
<use xlink:href="#f2_1y" transform="matrix(12,0,0,12,267.7,650.8)" />
<use xlink:href="#f2_1o" transform="matrix(12,0,0,12,276.9,650.8)" />
<use xlink:href="#f2_1u" transform="matrix(12,0,0,12,287.2,650.8)" />
<use xlink:href="#f2_1w" transform="matrix(12,0,0,12,302.2,650.8)" />
<use xlink:href="#f2_1i" transform="matrix(12,0,0,12,315.4,650.8)" />
<use xlink:href="#f2_1l" transform="matrix(12,0,0,12,319.4,650.8)" />
<use xlink:href="#f2_1l" transform="matrix(12,0,0,12,323.5,650.8)" />
<use xlink:href="#f2_1b" transform="matrix(12,0,0,12,332.6,650.8)" />
<use xlink:href="#f2_1e" transform="matrix(12,0,0,12,342.9,650.8)" />
</g>
</g>
<g clip-path="url(#c4_6)">
<g fill="#595959" >
<use xlink:href="#f2_1p" transform="matrix(12,0,0,12,68.3,675.7)" />
<use xlink:href="#f2_1o" transform="matrix(12,0,0,12,78.5,675.7)" />
<use xlink:href="#f2_1s" transform="matrix(12,0,0,12,88.4,675.7)" />
<use xlink:href="#f2_1i" transform="matrix(12,0,0,12,98,675.7)" />
<use xlink:href="#f2_1t" transform="matrix(12,0,0,12,102,675.7)" />
<use xlink:href="#f2_1i" transform="matrix(12,0,0,12,107.1,675.7)" />
<use xlink:href="#f2_1o" transform="matrix(12,0,0,12,111.2,675.7)" />
<use xlink:href="#f2_1n" transform="matrix(12,0,0,12,121.1,675.7)" />
<use xlink:href="#f2_1e" transform="matrix(12,0,0,12,131.3,675.7)" />
<use xlink:href="#f2_1d" transform="matrix(12,0,0,12,141.6,675.7)" />
<use xlink:href="#f2_1a" transform="matrix(12,0,0,12,157,675.7)" />
<use xlink:href="#f2_1g" transform="matrix(12,0,0,12,166.9,675.7)" />
<use xlink:href="#f2_1a" transform="matrix(12,0,0,12,177.2,675.7)" />
<use xlink:href="#f2_1i" transform="matrix(12,0,0,12,187.4,675.7)" />
<use xlink:href="#f2_1n" transform="matrix(12,0,0,12,191.5,675.7)" />
<use xlink:href="#f2_1s" transform="matrix(12,0,0,12,201.7,675.7)" />
<use xlink:href="#f2_1t" transform="matrix(12,0,0,12,210.9,675.7)" />
<use xlink:href="#f2_1y" transform="matrix(12,0,0,12,221.2,675.7)" />
<use xlink:href="#f2_1o" transform="matrix(12,0,0,12,230.3,675.7)" />
<use xlink:href="#f2_1u" transform="matrix(12,0,0,12,240.6,675.7)" />
<use xlink:href="#f2_1r" transform="matrix(12,0,0,12,250.5,675.7)" />
<use xlink:href="#f2_1c" transform="matrix(12,0,0,12,261.9,675.7)" />
<use xlink:href="#f2_1o" transform="matrix(12,0,0,12,271,675.7)" />
<use xlink:href="#f2_1m" transform="matrix(12,0,0,12,281.3,675.7)" />
<use xlink:href="#f2_1p" transform="matrix(12,0,0,12,296.3,675.7)" />
<use xlink:href="#f2_1e" transform="matrix(12,0,0,12,306.6,675.7)" />
<use xlink:href="#f2_1t" transform="matrix(12,0,0,12,316.9,675.7)" />
<use xlink:href="#f2_1i" transform="matrix(12,0,0,12,322,675.7)" />
<use xlink:href="#f2_1t" transform="matrix(12,0,0,12,326,675.7)" />
<use xlink:href="#f2_1o" transform="matrix(12,0,0,12,331.2,675.7)" />
<use xlink:href="#f2_1r" transform="matrix(12,0,0,12,341.1,675.7)" />
<use xlink:href="#f2_1s" transform="matrix(12,0,0,12,347.3,675.7)" />
<use xlink:href="#f2_b" transform="matrix(12,0,0,12,356.5,675.7)" />
</g>
</g>
<path fill-rule="evenodd" d="M58.4,692.5l391.1,0l0,218.1l-391.1,0Z" class="g1_6" />
<image preserveAspectRatio="none" x="59" y="698" width="390" height="206" xlink:href="img/10.png" />
<g clip-path="url(#c5_6)">
<g fill="#595959" >
<use xlink:href="#f2_13" transform="matrix(12,0,0,12,69.7,716.3)" />
<use xlink:href="#f2_s" transform="matrix(12,0,0,12,81.8,716.3)" />
<use xlink:href="#f2_10" transform="matrix(12,0,0,12,93.9,716.3)" />
<use xlink:href="#f2_1w" transform="matrix(12,0,0,12,113.4,716.3)" />
<use xlink:href="#f2_1i" transform="matrix(12,0,0,12,126.6,716.3)" />
<use xlink:href="#f2_1l" transform="matrix(12,0,0,12,130.6,716.3)" />
<use xlink:href="#f2_1l" transform="matrix(12,0,0,12,134.6,716.3)" />
<use xlink:href="#f2_1r" transform="matrix(12,0,0,12,143.8,716.3)" />
<use xlink:href="#f2_1e" transform="matrix(12,0,0,12,150,716.3)" />
<use xlink:href="#f2_1m" transform="matrix(12,0,0,12,159.9,716.3)" />
<use xlink:href="#f2_1a" transform="matrix(12,0,0,12,175.3,716.3)" />
<use xlink:href="#f2_1i" transform="matrix(12,0,0,12,185.6,716.3)" />
<use xlink:href="#f2_1n" transform="matrix(12,0,0,12,189.6,716.3)" />
<use xlink:href="#f2_1a" transform="matrix(12,0,0,12,205,716.3)" />
<use xlink:href="#f2_1s" transform="matrix(12,0,0,12,214.9,716.3)" />
<use xlink:href="#f2_1a" transform="matrix(12,0,0,12,229.6,716.3)" />
<use xlink:href="#f2_1p" transform="matrix(12,0,0,12,244.6,716.3)" />
<use xlink:href="#f2_1o" transform="matrix(12,0,0,12,254.9,716.3)" />
<use xlink:href="#f2_1t" transform="matrix(12,0,0,12,265.2,716.3)" />
<use xlink:href="#f2_1e" transform="matrix(12,0,0,12,270.3,716.3)" />
<use xlink:href="#f2_1n" transform="matrix(12,0,0,12,280.2,716.3)" />
<use xlink:href="#f2_1t" transform="matrix(12,0,0,12,290.5,716.3)" />
<use xlink:href="#f2_1o" transform="matrix(12,0,0,12,300.7,716.3)" />
<use xlink:href="#f2_1n" transform="matrix(12,0,0,12,310.6,716.3)" />
<use xlink:href="#f2_1l" transform="matrix(12,0,0,12,320.9,716.3)" />
<use xlink:href="#f2_1i" transform="matrix(12,0,0,12,324.9,716.3)" />
<use xlink:href="#f2_1n" transform="matrix(12,0,0,12,329,716.3)" />
<use xlink:href="#f2_1e" transform="matrix(12,0,0,12,339.2,716.3)" />
</g>
</g>
<g clip-path="url(#c0_6)">
<g fill="#595959" >
<use xlink:href="#f2_1m" transform="matrix(12,0,0,12,69.7,741.6)" />
<use xlink:href="#f2_1a" transform="matrix(12,0,0,12,85.1,741.6)" />
<use xlink:href="#f2_1r" transform="matrix(12,0,0,12,95,741.6)" />
<use xlink:href="#f2_1k" transform="matrix(12,0,0,12,101.3,741.6)" />
<use xlink:href="#f2_1e" transform="matrix(12,0,0,12,110.4,741.6)" />
<use xlink:href="#f2_1t" transform="matrix(12,0,0,12,120.7,741.6)" />
<use xlink:href="#f2_1i" transform="matrix(12,0,0,12,125.8,741.6)" />
<use xlink:href="#f2_1n" transform="matrix(12,0,0,12,129.9,741.6)" />
<use xlink:href="#f2_1g" transform="matrix(12,0,0,12,140.1,741.6)" />
<use xlink:href="#f2_1a" transform="matrix(12,0,0,12,155.2,741.6)" />
<use xlink:href="#f2_1r" transform="matrix(12,0,0,12,165.4,741.6)" />
<use xlink:href="#f2_1s" transform="matrix(12,0,0,12,171.7,741.6)" />
<use xlink:href="#f2_1e" transform="matrix(12,0,0,12,180.8,741.6)" />
<use xlink:href="#f2_1n" transform="matrix(12,0,0,12,191.1,741.6)" />
<use xlink:href="#f2_1a" transform="matrix(12,0,0,12,201,741.6)" />
<use xlink:href="#f2_1l" transform="matrix(12,0,0,12,211.3,741.6)" />
<use xlink:href="#f2_1f" transform="matrix(12,0,0,12,220.4,741.6)" />
<use xlink:href="#f2_1o" transform="matrix(12,0,0,12,225.6,741.6)" />
<use xlink:href="#f2_1r" transform="matrix(12,0,0,12,235.8,741.6)" />
<use xlink:href="#f2_1m" transform="matrix(12,0,0,12,246.8,741.6)" />
<use xlink:href="#f2_1a" transform="matrix(12,0,0,12,262.2,741.6)" />
<use xlink:href="#f2_1n" transform="matrix(12,0,0,12,272.5,741.6)" />
<use xlink:href="#f2_1y" transform="matrix(12,0,0,12,282.8,741.6)" />
<use xlink:href="#f2_9" transform="matrix(12,0,0,12,291.9,741.6)" />
<use xlink:href="#f2_1m" transform="matrix(12,0,0,12,301.8,741.6)" />
<use xlink:href="#f2_1a" transform="matrix(12,0,0,12,317.2,741.6)" />
<use xlink:href="#f2_1n" transform="matrix(12,0,0,12,327.5,741.6)" />
<use xlink:href="#f2_1y" transform="matrix(12,0,0,12,337.8,741.6)" />
<use xlink:href="#f2_1y" transform="matrix(12,0,0,12,352.1,741.6)" />
<use xlink:href="#f2_1e" transform="matrix(12,0,0,12,361.2,741.6)" />
<use xlink:href="#f2_1a" transform="matrix(12,0,0,12,371.1,741.6)" />
<use xlink:href="#f2_1r" transform="matrix(12,0,0,12,381.4,741.6)" />
<use xlink:href="#f2_1s" transform="matrix(12,0,0,12,387.6,741.6)" />
<use xlink:href="#f2_b" transform="matrix(12,0,0,12,396.8,741.6)" />
</g>
</g>
<g clip-path="url(#c5_6)">
<g fill="#595959" >
<use xlink:href="#f2_w" transform="matrix(12,0,0,12,69.7,766.9)" />
<use xlink:href="#f2_1t" transform="matrix(12,0,0,12,74.9,766.9)" />
<use xlink:href="#f2_1w" transform="matrix(12,0,0,12,85.1,766.9)" />
<use xlink:href="#f2_1i" transform="matrix(12,0,0,12,98.3,766.9)" />
<use xlink:href="#f2_1l" transform="matrix(12,0,0,12,102.4,766.9)" />
<use xlink:href="#f2_1l" transform="matrix(12,0,0,12,106.4,766.9)" />
<use xlink:href="#f2_1r" transform="matrix(12,0,0,12,115.6,766.9)" />
<use xlink:href="#f2_1e" transform="matrix(12,0,0,12,121.8,766.9)" />
<use xlink:href="#f2_1m" transform="matrix(12,0,0,12,131.7,766.9)" />
<use xlink:href="#f2_1a" transform="matrix(12,0,0,12,147.1,766.9)" />
<use xlink:href="#f2_1i" transform="matrix(12,0,0,12,157.4,766.9)" />
<use xlink:href="#f2_1n" transform="matrix(12,0,0,12,161.4,766.9)" />
<use xlink:href="#f2_1a" transform="matrix(12,0,0,12,176.8,766.9)" />
<use xlink:href="#f2_1s" transform="matrix(12,0,0,12,186.7,766.9)" />
<use xlink:href="#f2_1a" transform="matrix(12,0,0,12,201.4,766.9)" />
<use xlink:href="#f2_1b" transform="matrix(12,0,0,12,216.4,766.9)" />
<use xlink:href="#f2_1a" transform="matrix(12,0,0,12,226.7,766.9)" />
<use xlink:href="#f2_1s" transform="matrix(12,0,0,12,236.9,766.9)" />
<use xlink:href="#f2_1i" transform="matrix(12,0,0,12,246.1,766.9)" />
<use xlink:href="#f2_1c" transform="matrix(12,0,0,12,250.1,766.9)" />
<use xlink:href="#f2_1n" transform="matrix(12,0,0,12,264.4,766.9)" />
<use xlink:href="#f2_1e" transform="matrix(12,0,0,12,274.7,766.9)" />
<use xlink:href="#f2_1c" transform="matrix(12,0,0,12,285,766.9)" />
<use xlink:href="#f2_1e" transform="matrix(12,0,0,12,294.1,766.9)" />
<use xlink:href="#f2_1s" transform="matrix(12,0,0,12,304,766.9)" />
<use xlink:href="#f2_1s" transform="matrix(12,0,0,12,313.6,766.9)" />
<use xlink:href="#f2_1a" transform="matrix(12,0,0,12,322.7,766.9)" />
<use xlink:href="#f2_1r" transform="matrix(12,0,0,12,333,766.9)" />
<use xlink:href="#f2_1y" transform="matrix(12,0,0,12,338.9,766.9)" />
<use xlink:href="#f2_1i" transform="matrix(12,0,0,12,353.2,766.9)" />
<use xlink:href="#f2_1n" transform="matrix(12,0,0,12,357.2,766.9)" />
<use xlink:href="#f2_1g" transform="matrix(12,0,0,12,367.5,766.9)" />
<use xlink:href="#f2_1r" transform="matrix(12,0,0,12,377.7,766.9)" />
<use xlink:href="#f2_1e" transform="matrix(12,0,0,12,383.6,766.9)" />
<use xlink:href="#f2_1d" transform="matrix(12,0,0,12,393.9,766.9)" />
<use xlink:href="#f2_1i" transform="matrix(12,0,0,12,404.1,766.9)" />
<use xlink:href="#f2_1e" transform="matrix(12,0,0,12,408.2,766.9)" />
<use xlink:href="#f2_1n" transform="matrix(12,0,0,12,418.4,766.9)" />
<use xlink:href="#f2_1t" transform="matrix(12,0,0,12,428.3,766.9)" />
</g>
</g>
<g clip-path="url(#c0_6)">
<g fill="#595959" >
<use xlink:href="#f2_1t" transform="matrix(12,0,0,12,69.7,792.2)" />
<use xlink:href="#f2_1o" transform="matrix(12,0,0,12,74.9,792.2)" />
<use xlink:href="#f2_1s" transform="matrix(12,0,0,12,89.9,792.2)" />
<use xlink:href="#f2_1u" transform="matrix(12,0,0,12,99.4,792.2)" />
<use xlink:href="#f2_1c" transform="matrix(12,0,0,12,109.3,792.2)" />
<use xlink:href="#f2_1c" transform="matrix(12,0,0,12,118.5,792.2)" />
<use xlink:href="#f2_1e" transform="matrix(12,0,0,12,127.7,792.2)" />
<use xlink:href="#f2_1s" transform="matrix(12,0,0,12,137.9,792.2)" />
<use xlink:href="#f2_1s" transform="matrix(12,0,0,12,147.1,792.2)" />
<use xlink:href="#f2_1f" transform="matrix(12,0,0,12,156.3,792.2)" />
<use xlink:href="#f2_1u" transform="matrix(12,0,0,12,161.4,792.2)" />
<use xlink:href="#f2_1l" transform="matrix(12,0,0,12,171.7,792.2)" />
<use xlink:href="#f2_1o" transform="matrix(12,0,0,12,180.8,792.2)" />
<use xlink:href="#f2_1n" transform="matrix(12,0,0,12,190.7,792.2)" />
<use xlink:href="#f2_1l" transform="matrix(12,0,0,12,201,792.2)" />
<use xlink:href="#f2_1i" transform="matrix(12,0,0,12,205,792.2)" />
<use xlink:href="#f2_1n" transform="matrix(12,0,0,12,209.1,792.2)" />
<use xlink:href="#f2_1e" transform="matrix(12,0,0,12,219.3,792.2)" />
<use xlink:href="#f2_1m" transform="matrix(12,0,0,12,234.7,792.2)" />
<use xlink:href="#f2_1a" transform="matrix(12,0,0,12,249.8,792.2)" />
<use xlink:href="#f2_1r" transform="matrix(12,0,0,12,260,792.2)" />
<use xlink:href="#f2_1k" transform="matrix(12,0,0,12,266.3,792.2)" />
<use xlink:href="#f2_1e" transform="matrix(12,0,0,12,275.4,792.2)" />
<use xlink:href="#f2_1t" transform="matrix(12,0,0,12,285.3,792.2)" />
<use xlink:href="#f2_1i" transform="matrix(12,0,0,12,290.5,792.2)" />
<use xlink:href="#f2_1n" transform="matrix(12,0,0,12,294.5,792.2)" />
<use xlink:href="#f2_1g" transform="matrix(12,0,0,12,304.8,792.2)" />
<use xlink:href="#f2_1e" transform="matrix(12,0,0,12,320.2,792.2)" />
<use xlink:href="#f2_1v" transform="matrix(12,0,0,12,330.4,792.2)" />
<use xlink:href="#f2_1e" transform="matrix(12,0,0,12,339.6,792.2)" />
<use xlink:href="#f2_1n" transform="matrix(12,0,0,12,349.5,792.2)" />
<use xlink:href="#f2_1a" transform="matrix(12,0,0,12,364.9,792.2)" />
<use xlink:href="#f2_1s" transform="matrix(12,0,0,12,375.2,792.2)" />
</g>
</g>
<g clip-path="url(#c5_6)">
<g fill="#595959" >
<use xlink:href="#f2_1t" transform="matrix(12,0,0,12,69.7,817.5)" />
<use xlink:href="#f2_1e" transform="matrix(12,0,0,12,74.9,817.5)" />
<use xlink:href="#f2_1c" transform="matrix(12,0,0,12,85.1,817.5)" />
<use xlink:href="#f2_1h" transform="matrix(12,0,0,12,94.3,817.5)" />
<use xlink:href="#f2_1n" transform="matrix(12,0,0,12,104.2,817.5)" />
<use xlink:href="#f2_1o" transform="matrix(12,0,0,12,114.5,817.5)" />
<use xlink:href="#f2_1l" transform="matrix(12,0,0,12,124.7,817.5)" />
<use xlink:href="#f2_1o" transform="matrix(12,0,0,12,128.8,817.5)" />
<use xlink:href="#f2_1g" transform="matrix(12,0,0,12,139,817.5)" />
<use xlink:href="#f2_1i" transform="matrix(12,0,0,12,148.9,817.5)" />
<use xlink:href="#f2_1e" transform="matrix(12,0,0,12,153,817.5)" />
<use xlink:href="#f2_1s" transform="matrix(12,0,0,12,163.2,817.5)" />
<use xlink:href="#f2_1c" transform="matrix(12,0,0,12,177.5,817.5)" />
<use xlink:href="#f2_1o" transform="matrix(12,0,0,12,186.7,817.5)" />
<use xlink:href="#f2_1n" transform="matrix(12,0,0,12,197,817.5)" />
<use xlink:href="#f2_1t" transform="matrix(12,0,0,12,206.9,817.5)" />
<use xlink:href="#f2_1i" transform="matrix(12,0,0,12,212,817.5)" />
<use xlink:href="#f2_1n" transform="matrix(12,0,0,12,216,817.5)" />
<use xlink:href="#f2_1u" transform="matrix(12,0,0,12,226.3,817.5)" />
<use xlink:href="#f2_1e" transform="matrix(12,0,0,12,236.6,817.5)" />
<use xlink:href="#f2_1t" transform="matrix(12,0,0,12,251.6,817.5)" />
<use xlink:href="#f2_1o" transform="matrix(12,0,0,12,256.7,817.5)" />
<use xlink:href="#f2_1e" transform="matrix(12,0,0,12,272.1,817.5)" />
<use xlink:href="#f2_1v" transform="matrix(12,0,0,12,282,817.5)" />
<use xlink:href="#f2_1o" transform="matrix(12,0,0,12,291.2,817.5)" />
<use xlink:href="#f2_1l" transform="matrix(12,0,0,12,301.5,817.5)" />
<use xlink:href="#f2_1v" transform="matrix(12,0,0,12,305.5,817.5)" />
<use xlink:href="#f2_1e" transform="matrix(12,0,0,12,314.7,817.5)" />
<use xlink:href="#f2_1a" transform="matrix(12,0,0,12,330.1,817.5)" />
<use xlink:href="#f2_1n" transform="matrix(12,0,0,12,340,817.5)" />
<use xlink:href="#f2_1d" transform="matrix(12,0,0,12,350.2,817.5)" />
<use xlink:href="#f2_1d" transform="matrix(12,0,0,12,365.6,817.5)" />
<use xlink:href="#f2_1e" transform="matrix(12,0,0,12,375.9,817.5)" />
<use xlink:href="#f2_1v" transform="matrix(12,0,0,12,385.8,817.5)" />
<use xlink:href="#f2_1e" transform="matrix(12,0,0,12,395,817.5)" />
<use xlink:href="#f2_1l" transform="matrix(12,0,0,12,405.2,817.5)" />
<use xlink:href="#f2_1o" transform="matrix(12,0,0,12,409.3,817.5)" />
<use xlink:href="#f2_1p" transform="matrix(12,0,0,12,419.5,817.5)" />
</g>
</g>
<g clip-path="url(#c0_6)">
<g fill="#595959" >
<use xlink:href="#f2_1n" transform="matrix(12,0,0,12,69.7,842.8)" />
<use xlink:href="#f2_1e" transform="matrix(12,0,0,12,80,842.8)" />
<use xlink:href="#f2_1w" transform="matrix(12,0,0,12,89.9,842.8)" />
<use xlink:href="#f2_1o" transform="matrix(12,0,0,12,108.2,842.8)" />
<use xlink:href="#f2_1n" transform="matrix(12,0,0,12,118.5,842.8)" />
<use xlink:href="#f2_1l" transform="matrix(12,0,0,12,128.8,842.8)" />
<use xlink:href="#f2_1i" transform="matrix(12,0,0,12,132.8,842.8)" />
<use xlink:href="#f2_1n" transform="matrix(12,0,0,12,136.8,842.8)" />
<use xlink:href="#f2_1e" transform="matrix(12,0,0,12,147.1,842.8)" />
<use xlink:href="#f2_1m" transform="matrix(12,0,0,12,162.1,842.8)" />
<use xlink:href="#f2_1a" transform="matrix(12,0,0,12,177.5,842.8)" />
<use xlink:href="#f2_1r" transform="matrix(12,0,0,12,187.8,842.8)" />
<use xlink:href="#f2_1k" transform="matrix(12,0,0,12,194,842.8)" />
<use xlink:href="#f2_1e" transform="matrix(12,0,0,12,203.2,842.8)" />
<use xlink:href="#f2_1t" transform="matrix(12,0,0,12,213.1,842.8)" />
<use xlink:href="#f2_1i" transform="matrix(12,0,0,12,218.2,842.8)" />
<use xlink:href="#f2_1n" transform="matrix(12,0,0,12,222.3,842.8)" />
<use xlink:href="#f2_1g" transform="matrix(12,0,0,12,232.5,842.8)" />
<use xlink:href="#f2_1c" transform="matrix(12,0,0,12,247.9,842.8)" />
<use xlink:href="#f2_1h" transform="matrix(12,0,0,12,257.1,842.8)" />
<use xlink:href="#f2_1a" transform="matrix(12,0,0,12,267,842.8)" />
<use xlink:href="#f2_1n" transform="matrix(12,0,0,12,277.3,842.8)" />
<use xlink:href="#f2_1n" transform="matrix(12,0,0,12,287.5,842.8)" />
<use xlink:href="#f2_1e" transform="matrix(12,0,0,12,297.8,842.8)" />
<use xlink:href="#f2_1l" transform="matrix(12,0,0,12,308.1,842.8)" />
<use xlink:href="#f2_1s" transform="matrix(12,0,0,12,312.1,842.8)" />
<use xlink:href="#f2_b" transform="matrix(12,0,0,12,321.3,842.8)" />
<use xlink:href="#f2_w" transform="matrix(12,0,0,12,331.5,842.8)" />
<use xlink:href="#f2_1n" transform="matrix(12,0,0,12,336.7,842.8)" />
<use xlink:href="#f2_1f" transform="matrix(12,0,0,12,351.7,842.8)" />
<use xlink:href="#f2_1a" transform="matrix(12,0,0,12,356.8,842.8)" />
<use xlink:href="#f2_1c" transform="matrix(12,0,0,12,367.1,842.8)" />
<use xlink:href="#f2_1t" transform="matrix(12,0,0,12,376.3,842.8)" />
<use xlink:href="#f2_9" transform="matrix(12,0,0,12,381.4,842.8)" />
<use xlink:href="#f2_1t" transform="matrix(12,0,0,12,391.7,842.8)" />
<use xlink:href="#f2_1h" transform="matrix(12,0,0,12,396.4,842.8)" />
<use xlink:href="#f2_1e" transform="matrix(12,0,0,12,406.7,842.8)" />
<use xlink:href="#f2_1e" transform="matrix(12,0,0,12,69.7,868.1)" />
<use xlink:href="#f2_1x" transform="matrix(12,0,0,12,80,868.1)" />
<use xlink:href="#f2_1p" transform="matrix(12,0,0,12,89.2,868.1)" />
<use xlink:href="#f2_1a" transform="matrix(12,0,0,12,99.1,868.1)" />
<use xlink:href="#f2_1n" transform="matrix(12,0,0,12,109.3,868.1)" />
<use xlink:href="#f2_1s" transform="matrix(12,0,0,12,119.6,868.1)" />
<use xlink:href="#f2_1i" transform="matrix(12,0,0,12,128.8,868.1)" />
<use xlink:href="#f2_1o" transform="matrix(12,0,0,12,132.8,868.1)" />
<use xlink:href="#f2_1n" transform="matrix(12,0,0,12,143.1,868.1)" />
<use xlink:href="#f2_1o" transform="matrix(12,0,0,12,158.5,868.1)" />
<use xlink:href="#f2_1f" transform="matrix(12,0,0,12,168.4,868.1)" />
<use xlink:href="#f2_1l" transform="matrix(12,0,0,12,178.6,868.1)" />
<use xlink:href="#f2_1o" transform="matrix(12,0,0,12,182.7,868.1)" />
<use xlink:href="#f2_1c" transform="matrix(12,0,0,12,192.9,868.1)" />
<use xlink:href="#f2_1a" transform="matrix(12,0,0,12,202.1,868.1)" />
<use xlink:href="#f2_1l" transform="matrix(12,0,0,12,212.4,868.1)" />
<use xlink:href="#f2_1s" transform="matrix(12,0,0,12,221.5,868.1)" />
<use xlink:href="#f2_1e" transform="matrix(12,0,0,12,230.7,868.1)" />
<use xlink:href="#f2_1a" transform="matrix(12,0,0,12,241,868.1)" />
<use xlink:href="#f2_1r" transform="matrix(12,0,0,12,251.2,868.1)" />
<use xlink:href="#f2_1c" transform="matrix(12,0,0,12,257.1,868.1)" />
<use xlink:href="#f2_1h" transform="matrix(12,0,0,12,266.3,868.1)" />
<use xlink:href="#f2_1a" transform="matrix(12,0,0,12,281.7,868.1)" />
<use xlink:href="#f2_1n" transform="matrix(12,0,0,12,291.9,868.1)" />
<use xlink:href="#f2_1d" transform="matrix(12,0,0,12,301.8,868.1)" />
<use xlink:href="#f2_1t" transform="matrix(12,0,0,12,317.2,868.1)" />
<use xlink:href="#f2_1h" transform="matrix(12,0,0,12,322.4,868.1)" />
<use xlink:href="#f2_1e" transform="matrix(12,0,0,12,332.6,868.1)" />
<use xlink:href="#f2_1b" transform="matrix(12,0,0,12,347.7,868.1)" />
<use xlink:href="#f2_1i" transform="matrix(12,0,0,12,357.9,868.1)" />
<use xlink:href="#f2_1r" transform="matrix(12,0,0,12,362,868.1)" />
<use xlink:href="#f2_1t" transform="matrix(12,0,0,12,368.2,868.1)" />
<use xlink:href="#f2_1h" transform="matrix(12,0,0,12,373.3,868.1)" />
<use xlink:href="#f2_1o" transform="matrix(12,0,0,12,388.4,868.1)" />
<use xlink:href="#f2_1f" transform="matrix(12,0,0,12,398.6,868.1)" />
</g>
</g>
<g clip-path="url(#c5_6)">
<g fill="#595959" >
<use xlink:href="#f2_1l" transform="matrix(12,0,0,12,69.7,893)" />
<use xlink:href="#f2_1o" transform="matrix(12,0,0,12,73.8,893)" />
<use xlink:href="#f2_1c" transform="matrix(12,0,0,12,84,893)" />
<use xlink:href="#f2_1a" transform="matrix(12,0,0,12,93.2,893)" />
<use xlink:href="#f2_1l" transform="matrix(12,0,0,12,103.5,893)" />
<use xlink:href="#f2_1b" transform="matrix(12,0,0,12,112.6,893)" />
<use xlink:href="#f2_1u" transform="matrix(12,0,0,12,122.5,893)" />
<use xlink:href="#f2_1z" transform="matrix(12,0,0,12,132.8,893)" />
<use xlink:href="#f2_1z" transform="matrix(12,0,0,12,142,893)" />
<use xlink:href="#f2_1s" transform="matrix(12,0,0,12,156.3,893)" />
<use xlink:href="#f2_1e" transform="matrix(12,0,0,12,165.4,893)" />
<use xlink:href="#f2_1r" transform="matrix(12,0,0,12,175.7,893)" />
<use xlink:href="#f2_1v" transform="matrix(12,0,0,12,181.9,893)" />
<use xlink:href="#f2_1i" transform="matrix(12,0,0,12,191.1,893)" />
<use xlink:href="#f2_1c" transform="matrix(12,0,0,12,195.1,893)" />
<use xlink:href="#f2_1e" transform="matrix(12,0,0,12,204.3,893)" />
<use xlink:href="#f2_1s" transform="matrix(12,0,0,12,214.2,893)" />
<use xlink:href="#f2_1i" transform="matrix(12,0,0,12,228.5,893)" />
<use xlink:href="#f2_1s" transform="matrix(12,0,0,12,232.9,893)" />
<use xlink:href="#f2_1a" transform="matrix(12,0,0,12,247.2,893)" />
<use xlink:href="#f2_1n" transform="matrix(12,0,0,12,257.5,893)" />
<use xlink:href="#f2_1e" transform="matrix(12,0,0,12,272.5,893)" />
<use xlink:href="#f2_1x" transform="matrix(12,0,0,12,282.8,893)" />
<use xlink:href="#f2_1t" transform="matrix(12,0,0,12,291.9,893)" />
<use xlink:href="#f2_1e" transform="matrix(12,0,0,12,297.1,893)" />
<use xlink:href="#f2_1n" transform="matrix(12,0,0,12,307,893)" />
<use xlink:href="#f2_1s" transform="matrix(12,0,0,12,317.2,893)" />
<use xlink:href="#f2_1i" transform="matrix(12,0,0,12,326.4,893)" />
<use xlink:href="#f2_1o" transform="matrix(12,0,0,12,330.8,893)" />
<use xlink:href="#f2_1n" transform="matrix(12,0,0,12,340.7,893)" />
<use xlink:href="#f2_1o" transform="matrix(12,0,0,12,356.1,893)" />
<use xlink:href="#f2_1f" transform="matrix(12,0,0,12,366.4,893)" />
<use xlink:href="#f2_13" transform="matrix(12,0,0,12,376.3,893)" />
<use xlink:href="#f2_s" transform="matrix(12,0,0,12,388.4,893)" />
<use xlink:href="#f2_10" transform="matrix(12,0,0,12,400.5,893)" />
<use xlink:href="#f2_b" transform="matrix(12,0,0,12,414.8,893)" />
</g>
</g>
<path fill-rule="evenodd" d="M462.4,880l426.5,0l0,190l-426.5,0Z" class="g1_6" />
<image preserveAspectRatio="none" x="463" y="886" width="425" height="178" xlink:href="img/11.png" />
<g clip-path="url(#c6_6)">
<g fill="#595959" >
<use xlink:href="#f2_14" transform="matrix(12,0,0,12,473.7,903.8)" />
<use xlink:href="#f2_1h" transform="matrix(12,0,0,12,485.1,903.8)" />
<use xlink:href="#f2_1e" transform="matrix(12,0,0,12,495,903.8)" />
<use xlink:href="#f2_1s" transform="matrix(12,0,0,12,505.3,903.8)" />
<use xlink:href="#f2_1e" transform="matrix(12,0,0,12,514.4,903.8)" />
<use xlink:href="#f2_1n" transform="matrix(12,0,0,12,529.8,903.8)" />
<use xlink:href="#f2_1u" transform="matrix(12,0,0,12,540.1,903.8)" />
<use xlink:href="#f2_1m" transform="matrix(12,0,0,12,550,903.8)" />
<use xlink:href="#f2_1b" transform="matrix(12,0,0,12,565.4,903.8)" />
<use xlink:href="#f2_1e" transform="matrix(12,0,0,12,575.7,903.8)" />
<use xlink:href="#f2_1r" transform="matrix(12,0,0,12,585.6,903.8)" />
<use xlink:href="#f2_1s" transform="matrix(12,0,0,12,591.8,903.8)" />
<use xlink:href="#f2_1w" transform="matrix(12,0,0,12,606.1,903.8)" />
<use xlink:href="#f2_1i" transform="matrix(12,0,0,12,619.3,903.8)" />
<use xlink:href="#f2_1l" transform="matrix(12,0,0,12,623.3,903.8)" />
<use xlink:href="#f2_1l" transform="matrix(12,0,0,12,627.4,903.8)" />
<use xlink:href="#f2_1c" transform="matrix(12,0,0,12,636.5,903.8)" />
<use xlink:href="#f2_1o" transform="matrix(12,0,0,12,645.7,903.8)" />
<use xlink:href="#f2_1n" transform="matrix(12,0,0,12,656,903.8)" />
<use xlink:href="#f2_1t" transform="matrix(12,0,0,12,666.2,903.8)" />
<use xlink:href="#f2_1i" transform="matrix(12,0,0,12,671.4,903.8)" />
<use xlink:href="#f2_1n" transform="matrix(12,0,0,12,675.4,903.8)" />
<use xlink:href="#f2_1u" transform="matrix(12,0,0,12,685.7,903.8)" />
<use xlink:href="#f2_1e" transform="matrix(12,0,0,12,695.6,903.8)" />
<use xlink:href="#f2_1t" transform="matrix(12,0,0,12,711,903.8)" />
<use xlink:href="#f2_1o" transform="matrix(12,0,0,12,715.7,903.8)" />
<use xlink:href="#f2_1g" transform="matrix(12,0,0,12,731.1,903.8)" />
<use xlink:href="#f2_1r" transform="matrix(12,0,0,12,741.4,903.8)" />
<use xlink:href="#f2_1o" transform="matrix(12,0,0,12,747.3,903.8)" />
<use xlink:href="#f2_1w" transform="matrix(12,0,0,12,757.5,903.8)" />
<use xlink:href="#f2_1a" transform="matrix(12,0,0,12,775.9,903.8)" />
<use xlink:href="#f2_1s" transform="matrix(12,0,0,12,786.1,903.8)" />
<use xlink:href="#f2_1n" transform="matrix(12,0,0,12,800.4,903.8)" />
<use xlink:href="#f2_1e" transform="matrix(12,0,0,12,810.7,903.8)" />
<use xlink:href="#f2_1w" transform="matrix(12,0,0,12,820.6,903.8)" />
<use xlink:href="#f2_1l" transform="matrix(12,0,0,12,834.2,903.8)" />
<use xlink:href="#f2_1y" transform="matrix(12,0,0,12,838.2,903.8)" />
</g>
</g>
<g clip-path="url(#c0_6)">
<g fill="#595959" >
<use xlink:href="#f2_1f" transform="matrix(12,0,0,12,473.7,929.1)" />
<use xlink:href="#f2_1o" transform="matrix(12,0,0,12,478.9,929.1)" />
<use xlink:href="#f2_1r" transform="matrix(12,0,0,12,489.1,929.1)" />
<use xlink:href="#f2_1m" transform="matrix(12,0,0,12,495,929.1)" />
<use xlink:href="#f2_1e" transform="matrix(12,0,0,12,510.4,929.1)" />
<use xlink:href="#f2_1d" transform="matrix(12,0,0,12,520.3,929.1)" />
<use xlink:href="#f2_1b" transform="matrix(12,0,0,12,535.7,929.1)" />
<use xlink:href="#f2_1u" transform="matrix(12,0,0,12,546,929.1)" />
<use xlink:href="#f2_1s" transform="matrix(12,0,0,12,555.9,929.1)" />
<use xlink:href="#f2_1i" transform="matrix(12,0,0,12,565.4,929.1)" />
<use xlink:href="#f2_1n" transform="matrix(12,0,0,12,569.4,929.1)" />
<use xlink:href="#f2_1e" transform="matrix(12,0,0,12,579.7,929.1)" />
<use xlink:href="#f2_1s" transform="matrix(12,0,0,12,589.6,929.1)" />
<use xlink:href="#f2_1s" transform="matrix(12,0,0,12,599.1,929.1)" />
<use xlink:href="#f2_1e" transform="matrix(12,0,0,12,608.3,929.1)" />
<use xlink:href="#f2_1s" transform="matrix(12,0,0,12,618.2,929.1)" />
<use xlink:href="#f2_9" transform="matrix(12,0,0,12,627.7,929.1)" />
<use xlink:href="#f2_1a" transform="matrix(12,0,0,12,638,929.1)" />
<use xlink:href="#f2_1s" transform="matrix(12,0,0,12,647.9,929.1)" />
<use xlink:href="#f2_1w" transform="matrix(12,0,0,12,662.2,929.1)" />
<use xlink:href="#f2_1e" transform="matrix(12,0,0,12,675.8,929.1)" />
<use xlink:href="#f2_1l" transform="matrix(12,0,0,12,685.7,929.1)" />
<use xlink:href="#f2_1l" transform="matrix(12,0,0,12,689.7,929.1)" />
<use xlink:href="#f2_1a" transform="matrix(12,0,0,12,698.9,929.1)" />
<use xlink:href="#f2_1s" transform="matrix(12,0,0,12,709.1,929.1)" />
<use xlink:href="#f2_1l" transform="matrix(12,0,0,12,723.4,929.1)" />
<use xlink:href="#f2_1a" transform="matrix(12,0,0,12,727.5,929.1)" />
<use xlink:href="#f2_1t" transform="matrix(12,0,0,12,737.7,929.1)" />
<use xlink:href="#f2_1e" transform="matrix(12,0,0,12,742.9,929.1)" />
<use xlink:href="#f2_1a" transform="matrix(12,0,0,12,758.3,929.1)" />
<use xlink:href="#f2_1d" transform="matrix(12,0,0,12,768.2,929.1)" />
<use xlink:href="#f2_1o" transform="matrix(12,0,0,12,778.4,929.1)" />
<use xlink:href="#f2_1p" transform="matrix(12,0,0,12,788.7,929.1)" />
<use xlink:href="#f2_1t" transform="matrix(12,0,0,12,799,929.1)" />
<use xlink:href="#f2_1e" transform="matrix(12,0,0,12,804.1,929.1)" />
<use xlink:href="#f2_1r" transform="matrix(12,0,0,12,814,929.1)" />
<use xlink:href="#f2_1s" transform="matrix(12,0,0,12,820.2,929.1)" />
<use xlink:href="#f2_1w" transform="matrix(12,0,0,12,834.5,929.1)" />
<use xlink:href="#f2_1i" transform="matrix(12,0,0,12,847.7,929.1)" />
<use xlink:href="#f2_1l" transform="matrix(12,0,0,12,851.8,929.1)" />
<use xlink:href="#f2_1l" transform="matrix(12,0,0,12,855.8,929.1)" />
<use xlink:href="#f2_1e" transform="matrix(12,0,0,12,473.7,954.4)" />
<use xlink:href="#f2_1v" transform="matrix(12,0,0,12,484,954.4)" />
<use xlink:href="#f2_1e" transform="matrix(12,0,0,12,493.2,954.4)" />
<use xlink:href="#f2_1n" transform="matrix(12,0,0,12,503.1,954.4)" />
<use xlink:href="#f2_1t" transform="matrix(12,0,0,12,513.3,954.4)" />
<use xlink:href="#f2_1u" transform="matrix(12,0,0,12,518.5,954.4)" />
<use xlink:href="#f2_1a" transform="matrix(12,0,0,12,528.4,954.4)" />
<use xlink:href="#f2_1l" transform="matrix(12,0,0,12,538.6,954.4)" />
<use xlink:href="#f2_1l" transform="matrix(12,0,0,12,542.7,954.4)" />
<use xlink:href="#f2_1y" transform="matrix(12,0,0,12,546.7,954.4)" />
<use xlink:href="#f2_1g" transform="matrix(12,0,0,12,561,954.4)" />
<use xlink:href="#f2_1e" transform="matrix(12,0,0,12,571.3,954.4)" />
<use xlink:href="#f2_1t" transform="matrix(12,0,0,12,581.5,954.4)" />
<use xlink:href="#f2_1i" transform="matrix(12,0,0,12,591.8,954.4)" />
<use xlink:href="#f2_1n" transform="matrix(12,0,0,12,595.8,954.4)" />
<use xlink:href="#f2_1t" transform="matrix(12,0,0,12,605.7,954.4)" />
<use xlink:href="#f2_1o" transform="matrix(12,0,0,12,610.9,954.4)" />
<use xlink:href="#f2_13" transform="matrix(12,0,0,12,626.3,954.4)" />
<use xlink:href="#f2_s" transform="matrix(12,0,0,12,638,954.4)" />
<use xlink:href="#f2_10" transform="matrix(12,0,0,12,650.5,954.4)" />
<use xlink:href="#f2_1t" transform="matrix(12,0,0,12,669.5,954.4)" />
<use xlink:href="#f2_1o" transform="matrix(12,0,0,12,674.7,954.4)" />
<use xlink:href="#f2_1r" transform="matrix(12,0,0,12,690.1,954.4)" />
<use xlink:href="#f2_1e" transform="matrix(12,0,0,12,696.3,954.4)" />
<use xlink:href="#f2_1a" transform="matrix(12,0,0,12,706.2,954.4)" />
<use xlink:href="#f2_1p" transform="matrix(12,0,0,12,716.5,954.4)" />
<use xlink:href="#f2_1i" transform="matrix(12,0,0,12,731.9,954.4)" />
<use xlink:href="#f2_1t" transform="matrix(12,0,0,12,735.9,954.4)" />
<use xlink:href="#f2_1s" transform="matrix(12,0,0,12,741,954.4)" />
<use xlink:href="#f2_1b" transform="matrix(12,0,0,12,755.3,954.4)" />
<use xlink:href="#f2_1e" transform="matrix(12,0,0,12,765.6,954.4)" />
<use xlink:href="#f2_1n" transform="matrix(12,0,0,12,775.5,954.4)" />
<use xlink:href="#f2_1e" transform="matrix(12,0,0,12,785.8,954.4)" />
<use xlink:href="#f2_1f" transform="matrix(12,0,0,12,796,954.4)" />
<use xlink:href="#f2_1i" transform="matrix(12,0,0,12,801.2,954.4)" />
<use xlink:href="#f2_1t" transform="matrix(12,0,0,12,805.2,954.4)" />
<use xlink:href="#f2_1s" transform="matrix(12,0,0,12,810.3,954.4)" />
<use xlink:href="#f2_b" transform="matrix(12,0,0,12,819.5,954.4)" />
<use xlink:href="#f2_14" transform="matrix(12,0,0,12,473.7,979.7)" />
<use xlink:href="#f2_1o" transform="matrix(12,0,0,12,485.1,979.7)" />
<use xlink:href="#f2_1a" transform="matrix(12,0,0,12,500.1,979.7)" />
<use xlink:href="#f2_1t" transform="matrix(12,0,0,12,510.4,979.7)" />
<use xlink:href="#f2_1t" transform="matrix(12,0,0,12,515.5,979.7)" />
<use xlink:href="#f2_1a" transform="matrix(12,0,0,12,520.7,979.7)" />
<use xlink:href="#f2_1i" transform="matrix(12,0,0,12,530.6,979.7)" />
<use xlink:href="#f2_1n" transform="matrix(12,0,0,12,535,979.7)" />
<use xlink:href="#f2_1a" transform="matrix(12,0,0,12,550,979.7)" />
<use xlink:href="#f2_1n" transform="matrix(12,0,0,12,560.3,979.7)" />
<use xlink:href="#f2_1d" transform="matrix(12,0,0,12,570.5,979.7)" />
<use xlink:href="#f2_1t" transform="matrix(12,0,0,12,585.6,979.7)" />
<use xlink:href="#f2_1o" transform="matrix(12,0,0,12,590.7,979.7)" />
<use xlink:href="#f2_1k" transform="matrix(12,0,0,12,606.1,979.7)" />
<use xlink:href="#f2_1e" transform="matrix(12,0,0,12,615.3,979.7)" />
<use xlink:href="#f2_1e" transform="matrix(12,0,0,12,625.2,979.7)" />
<use xlink:href="#f2_1p" transform="matrix(12,0,0,12,635.4,979.7)" />
<use xlink:href="#f2_1a" transform="matrix(12,0,0,12,650.8,979.7)" />
<use xlink:href="#f2_1h" transform="matrix(12,0,0,12,666.2,979.7)" />
<use xlink:href="#f2_1i" transform="matrix(12,0,0,12,676.1,979.7)" />
<use xlink:href="#f2_1g" transform="matrix(12,0,0,12,680.2,979.7)" />
<use xlink:href="#f2_1h" transform="matrix(12,0,0,12,690.4,979.7)" />
<use xlink:href="#f2_1p" transform="matrix(12,0,0,12,705.8,979.7)" />
<use xlink:href="#f2_1o" transform="matrix(12,0,0,12,716.1,979.7)" />
<use xlink:href="#f2_1s" transform="matrix(12,0,0,12,726,979.7)" />
<use xlink:href="#f2_1i" transform="matrix(12,0,0,12,735.5,979.7)" />
<use xlink:href="#f2_1t" transform="matrix(12,0,0,12,739.6,979.7)" />
<use xlink:href="#f2_1i" transform="matrix(12,0,0,12,744.7,979.7)" />
<use xlink:href="#f2_1o" transform="matrix(12,0,0,12,748.7,979.7)" />
<use xlink:href="#f2_1n" transform="matrix(12,0,0,12,758.6,979.7)" />
<use xlink:href="#f2_1o" transform="matrix(12,0,0,12,774,979.7)" />
<use xlink:href="#f2_1n" transform="matrix(12,0,0,12,784.3,979.7)" />
<use xlink:href="#f2_1s" transform="matrix(12,0,0,12,799.3,979.7)" />
<use xlink:href="#f2_1e" transform="matrix(12,0,0,12,808.9,979.7)" />
<use xlink:href="#f2_1a" transform="matrix(12,0,0,12,818.8,979.7)" />
<use xlink:href="#f2_1r" transform="matrix(12,0,0,12,829,979.7)" />
<use xlink:href="#f2_1c" transform="matrix(12,0,0,12,835.3,979.7)" />
<use xlink:href="#f2_1h" transform="matrix(12,0,0,12,844.4,979.7)" />
<use xlink:href="#f2_1e" transform="matrix(12,0,0,12,473.7,1005)" />
<use xlink:href="#f2_1n" transform="matrix(12,0,0,12,484,1005)" />
<use xlink:href="#f2_1g" transform="matrix(12,0,0,12,493.9,1005)" />
<use xlink:href="#f2_1i" transform="matrix(12,0,0,12,504.2,1005)" />
<use xlink:href="#f2_1n" transform="matrix(12,0,0,12,508.2,1005)" />
<use xlink:href="#f2_1e" transform="matrix(12,0,0,12,518.5,1005)" />
<use xlink:href="#f2_1s" transform="matrix(12,0,0,12,528.7,1005)" />
<use xlink:href="#f2_9" transform="matrix(12,0,0,12,537.9,1005)" />
<use xlink:href="#f2_1i" transform="matrix(12,0,0,12,548.2,1005)" />
<use xlink:href="#f2_1t" transform="matrix(12,0,0,12,552.2,1005)" />
<use xlink:href="#f2_1i" transform="matrix(12,0,0,12,562.5,1005)" />
<use xlink:href="#f2_1s" transform="matrix(12,0,0,12,566.5,1005)" />
<use xlink:href="#f2_1r" transform="matrix(12,0,0,12,580.8,1005)" />
<use xlink:href="#f2_1e" transform="matrix(12,0,0,12,587,1005)" />
<use xlink:href="#f2_1c" transform="matrix(12,0,0,12,596.9,1005)" />
<use xlink:href="#f2_1o" transform="matrix(12,0,0,12,606.1,1005)" />
<use xlink:href="#f2_1m" transform="matrix(12,0,0,12,616.4,1005)" />
<use xlink:href="#f2_1m" transform="matrix(12,0,0,12,631.8,1005)" />
<use xlink:href="#f2_1e" transform="matrix(12,0,0,12,646.8,1005)" />
<use xlink:href="#f2_1n" transform="matrix(12,0,0,12,657.1,1005)" />
<use xlink:href="#f2_1d" transform="matrix(12,0,0,12,667.3,1005)" />
<use xlink:href="#f2_1e" transform="matrix(12,0,0,12,677.2,1005)" />
<use xlink:href="#f2_1d" transform="matrix(12,0,0,12,687.5,1005)" />
<use xlink:href="#f2_1f" transform="matrix(12,0,0,12,702.9,1005)" />
<use xlink:href="#f2_1o" transform="matrix(12,0,0,12,708,1005)" />
<use xlink:href="#f2_1r" transform="matrix(12,0,0,12,717.9,1005)" />
<use xlink:href="#f2_1b" transform="matrix(12,0,0,12,729.3,1005)" />
<use xlink:href="#f2_1u" transform="matrix(12,0,0,12,739.6,1005)" />
<use xlink:href="#f2_1s" transform="matrix(12,0,0,12,749.5,1005)" />
<use xlink:href="#f2_1i" transform="matrix(12,0,0,12,758.6,1005)" />
<use xlink:href="#f2_1n" transform="matrix(12,0,0,12,762.7,1005)" />
<use xlink:href="#f2_1e" transform="matrix(12,0,0,12,772.9,1005)" />
<use xlink:href="#f2_1s" transform="matrix(12,0,0,12,783.2,1005)" />
<use xlink:href="#f2_1s" transform="matrix(12,0,0,12,792.4,1005)" />
<use xlink:href="#f2_1e" transform="matrix(12,0,0,12,801.9,1005)" />
<use xlink:href="#f2_1s" transform="matrix(12,0,0,12,811.8,1005)" />
<use xlink:href="#f2_1t" transform="matrix(12,0,0,12,826.1,1005)" />
<use xlink:href="#f2_1o" transform="matrix(12,0,0,12,831.2,1005)" />
<use xlink:href="#f2_1m" transform="matrix(12,0,0,12,473.7,1030.3)" />
<use xlink:href="#f2_1a" transform="matrix(12,0,0,12,489.1,1030.3)" />
<use xlink:href="#f2_1i" transform="matrix(12,0,0,12,499,1030.3)" />
<use xlink:href="#f2_1n" transform="matrix(12,0,0,12,503.4,1030.3)" />
<use xlink:href="#f2_1t" transform="matrix(12,0,0,12,513.3,1030.3)" />
<use xlink:href="#f2_1a" transform="matrix(12,0,0,12,518.5,1030.3)" />
<use xlink:href="#f2_1i" transform="matrix(12,0,0,12,528.7,1030.3)" />
<use xlink:href="#f2_1n" transform="matrix(12,0,0,12,532.8,1030.3)" />
<use xlink:href="#f2_13" transform="matrix(12,0,0,12,548.2,1030.3)" />
<use xlink:href="#f2_s" transform="matrix(12,0,0,12,560.3,1030.3)" />
<use xlink:href="#f2_10" transform="matrix(12,0,0,12,572.4,1030.3)" />
<use xlink:href="#f2_1e" transform="matrix(12,0,0,12,591.8,1030.3)" />
<use xlink:href="#f2_1f" transform="matrix(12,0,0,12,601.7,1030.3)" />
<use xlink:href="#f2_1f" transform="matrix(12,0,0,12,606.8,1030.3)" />
<use xlink:href="#f2_1o" transform="matrix(12,0,0,12,612,1030.3)" />
<use xlink:href="#f2_1r" transform="matrix(12,0,0,12,622.2,1030.3)" />
<use xlink:href="#f2_1t" transform="matrix(12,0,0,12,628.1,1030.3)" />
<use xlink:href="#f2_1s" transform="matrix(12,0,0,12,633.2,1030.3)" />
<use xlink:href="#f2_1i" transform="matrix(12,0,0,12,647.5,1030.3)" />
<use xlink:href="#f2_1n" transform="matrix(12,0,0,12,651.6,1030.3)" />
<use xlink:href="#f2_1t" transform="matrix(12,0,0,12,667,1030.3)" />
<use xlink:href="#f2_1h" transform="matrix(12,0,0,12,672.1,1030.3)" />
<use xlink:href="#f2_1e" transform="matrix(12,0,0,12,682.4,1030.3)" />
<use xlink:href="#f2_1l" transform="matrix(12,0,0,12,697.4,1030.3)" />
<use xlink:href="#f2_1o" transform="matrix(12,0,0,12,701.4,1030.3)" />
<use xlink:href="#f2_1n" transform="matrix(12,0,0,12,711.7,1030.3)" />
<use xlink:href="#f2_1g" transform="matrix(12,0,0,12,722,1030.3)" />
<use xlink:href="#f2_1t" transform="matrix(12,0,0,12,737,1030.3)" />
<use xlink:href="#f2_1e" transform="matrix(12,0,0,12,742.1,1030.3)" />
<use xlink:href="#f2_1r" transform="matrix(12,0,0,12,752.4,1030.3)" />
<use xlink:href="#f2_1m" transform="matrix(12,0,0,12,758.6,1030.3)" />
<use xlink:href="#f2_1o" transform="matrix(12,0,0,12,778.8,1030.3)" />
<use xlink:href="#f2_1r" transform="matrix(12,0,0,12,789.1,1030.3)" />
<use xlink:href="#f2_1b" transform="matrix(12,0,0,12,800.1,1030.3)" />
<use xlink:href="#f2_1e" transform="matrix(12,0,0,12,810.3,1030.3)" />
</g>
</g>
<g clip-path="url(#c6_6)">
<g fill="#595959" >
<use xlink:href="#f2_1p" transform="matrix(12,0,0,12,473.7,1055.3)" />
<use xlink:href="#f2_1u" transform="matrix(12,0,0,12,484,1055.3)" />
<use xlink:href="#f2_1s" transform="matrix(12,0,0,12,493.9,1055.3)" />
<use xlink:href="#f2_1h" transform="matrix(12,0,0,12,503.4,1055.3)" />
<use xlink:href="#f2_1e" transform="matrix(12,0,0,12,513.3,1055.3)" />
<use xlink:href="#f2_1d" transform="matrix(12,0,0,12,523.6,1055.3)" />
<use xlink:href="#f2_1d" transform="matrix(12,0,0,12,539,1055.3)" />
<use xlink:href="#f2_1o" transform="matrix(12,0,0,12,548.9,1055.3)" />
<use xlink:href="#f2_1w" transform="matrix(12,0,0,12,559.2,1055.3)" />
<use xlink:href="#f2_1n" transform="matrix(12,0,0,12,572.4,1055.3)" />
<use xlink:href="#f2_1b" transform="matrix(12,0,0,12,587.8,1055.3)" />
<use xlink:href="#f2_1y" transform="matrix(12,0,0,12,598,1055.3)" />
<use xlink:href="#f2_1c" transform="matrix(12,0,0,12,612.3,1055.3)" />
<use xlink:href="#f2_1o" transform="matrix(12,0,0,12,621.5,1055.3)" />
<use xlink:href="#f2_1m" transform="matrix(12,0,0,12,631.4,1055.3)" />
<use xlink:href="#f2_1p" transform="matrix(12,0,0,12,646.8,1055.3)" />
<use xlink:href="#f2_1e" transform="matrix(12,0,0,12,657.1,1055.3)" />
<use xlink:href="#f2_1t" transform="matrix(12,0,0,12,667,1055.3)" />
<use xlink:href="#f2_1i" transform="matrix(12,0,0,12,672.1,1055.3)" />
<use xlink:href="#f2_1t" transform="matrix(12,0,0,12,676.1,1055.3)" />
<use xlink:href="#f2_1o" transform="matrix(12,0,0,12,681.3,1055.3)" />
<use xlink:href="#f2_1r" transform="matrix(12,0,0,12,691.5,1055.3)" />
<use xlink:href="#f2_1s" transform="matrix(12,0,0,12,697.8,1055.3)" />
<use xlink:href="#f2_b" transform="matrix(12,0,0,12,706.9,1055.3)" />
</g>
</g>
<g clip-path="url(#c0_6)">
<path fill-rule="evenodd" d="M25.7,1100.7c0,-8.1,6.6,-14.7,14.7,-14.7l808,0c8.1,0,14.7,6.6,14.7,14.7l0,58.8c0,8.1,-6.6,14.7,-14.7,14.7l-808,0c-8.1,0,-14.7,-6.6,-14.7,-14.7Z" class="g1_6" />
<path d="M25.7,1100.7c0,-8.1,6.6,-14.7,14.7,-14.7l808,0c8.1,0,14.7,6.6,14.7,14.7l0,58.8c0,8.1,-6.6,14.7,-14.7,14.7l-808,0c-8.1,0,-14.7,-6.6,-14.7,-14.7Z" class="g2_6" />
</g>
<image preserveAspectRatio="none" x="32" y="1098" width="825" height="64" xlink:href="img/12.png" />
<path fill-rule="evenodd" d="M236.5,164.8l652.9,0l0,40.8l-652.9,0Z" class="g1_6" />
<image preserveAspectRatio="none" x="237" y="171" width="652" height="29" xlink:href="img/13.png" />
<g clip-path="url(#c7_6)">
<g fill="#E36C0A" >
<use xlink:href="#f1_b" transform="matrix(13.9,0,0,13.9,247.9,191.5)" />
<use xlink:href="#f1_w" transform="matrix(13.9,0,0,13.9,253.7,191.5)" />
<use xlink:href="#f1_z" transform="matrix(13.9,0,0,13.9,272.8,191.5)" />
<use xlink:href="#f1_10" transform="matrix(13.9,0,0,13.9,286,191.5)" />
<use xlink:href="#f1_y" transform="matrix(13.9,0,0,13.9,294.1,191.5)" />
<use xlink:href="#f1_14" transform="matrix(13.9,0,0,13.9,307.3,191.5)" />
<use xlink:href="#f1_p" transform="matrix(13.9,0,0,13.9,319,191.5)" />
<use xlink:href="#f1_14" transform="matrix(13.9,0,0,13.9,337,191.5)" />
<use xlink:href="#f1_t" transform="matrix(13.9,0,0,13.9,349.1,191.5)" />
<use xlink:href="#f1_11" transform="matrix(13.9,0,0,13.9,354.9,191.5)" />
<use xlink:href="#f1_t" transform="matrix(13.9,0,0,13.9,366.7,191.5)" />
<use xlink:href="#f1_m" transform="matrix(13.9,0,0,13.9,372.5,191.5)" />
<use xlink:href="#f1_t" transform="matrix(13.9,0,0,13.9,385.8,191.5)" />
<use xlink:href="#f1_v" transform="matrix(13.9,0,0,13.9,391.6,191.5)" />
<use xlink:href="#f1_t" transform="matrix(13.9,0,0,13.9,397.5,191.5)" />
<use xlink:href="#f1_12" transform="matrix(13.9,0,0,13.9,403.7,191.5)" />
<use xlink:href="#f1_17" transform="matrix(13.9,0,0,13.9,410.7,191.5)" />
<use xlink:href="#f1_3" transform="matrix(13.9,0,0,13.9,428.7,191.5)" />
<use xlink:href="#f1_10" transform="matrix(13.9,0,0,13.9,449.9,191.5)" />
<use xlink:href="#f1_l" transform="matrix(13.9,0,0,13.9,458.4,191.5)" />
<use xlink:href="#f1_x" transform="matrix(13.9,0,0,13.9,470.1,191.5)" />
<use xlink:href="#f1_u" transform="matrix(13.9,0,0,13.9,483.3,191.5)" />
<use xlink:href="#f1_t" transform="matrix(13.9,0,0,13.9,495,191.5)" />
<use xlink:href="#f1_x" transform="matrix(13.9,0,0,13.9,501.3,191.5)" />
<use xlink:href="#f1_r" transform="matrix(13.9,0,0,13.9,514.1,191.5)" />
<use xlink:href="#f1_11" transform="matrix(13.9,0,0,13.9,527.3,191.5)" />
<use xlink:href="#f1_4" transform="matrix(13.9,0,0,13.9,539,191.5)" />
<use xlink:href="#f1_t" transform="matrix(13.9,0,0,13.9,551.1,191.5)" />
<use xlink:href="#f1_x" transform="matrix(13.9,0,0,13.9,557,191.5)" />
<use xlink:href="#f1_n" transform="matrix(13.9,0,0,13.9,569.8,191.5)" />
<use xlink:href="#f1_10" transform="matrix(13.9,0,0,13.9,581.5,191.5)" />
<use xlink:href="#f1_p" transform="matrix(13.9,0,0,13.9,590,191.5)" />
<use xlink:href="#f1_l" transform="matrix(13.9,0,0,13.9,602.1,191.5)" />
<use xlink:href="#f1_11" transform="matrix(13.9,0,0,13.9,613.8,191.5)" />
<use xlink:href="#f1_p" transform="matrix(13.9,0,0,13.9,625.5,191.5)" />
<use xlink:href="#f1_12" transform="matrix(13.9,0,0,13.9,643.5,191.5)" />
<use xlink:href="#f1_10" transform="matrix(13.9,0,0,13.9,650.8,191.5)" />
<use xlink:href="#f1_l" transform="matrix(13.9,0,0,13.9,658.9,191.5)" />
<use xlink:href="#f1_q" transform="matrix(13.9,0,0,13.9,671,191.5)" />
<use xlink:href="#f1_q" transform="matrix(13.9,0,0,13.9,678,191.5)" />
<use xlink:href="#f1_t" transform="matrix(13.9,0,0,13.9,685.3,191.5)" />
<use xlink:href="#f1_n" transform="matrix(13.9,0,0,13.9,691.1,191.5)" />
<use xlink:href="#f1_4" transform="matrix(13.9,0,0,13.9,702.9,191.5)" />
<use xlink:href="#f1_v" transform="matrix(13.9,0,0,13.9,715,191.5)" />
<use xlink:href="#f1_p" transform="matrix(13.9,0,0,13.9,720.8,191.5)" />
<use xlink:href="#f1_l" transform="matrix(13.9,0,0,13.9,732.6,191.5)" />
<use xlink:href="#f1_o" transform="matrix(13.9,0,0,13.9,744.7,191.5)" />
<use xlink:href="#f1_11" transform="matrix(13.9,0,0,13.9,757.5,191.5)" />
<use xlink:href="#f1_3" transform="matrix(13.9,0,0,13.9,775.5,191.5)" />
<use xlink:href="#f1_11" transform="matrix(13.9,0,0,13.9,796.7,191.5)" />
<use xlink:href="#f1_l" transform="matrix(13.9,0,0,13.9,808.8,191.5)" />
<use xlink:href="#f1_v" transform="matrix(13.9,0,0,13.9,820.5,191.5)" />
<use xlink:href="#f1_p" transform="matrix(13.9,0,0,13.9,826.4,191.5)" />
<use xlink:href="#f1_11" transform="matrix(13.9,0,0,13.9,838.5,191.5)" />
</g>
</g>
<image preserveAspectRatio="none" x="55" y="1086" width="797" height="84" xlink:href="img/14.png" />
<defs>
	<path d="M398.4,89.5c0,0,47.7,0,82.8,17.9c0,0,35,17.9,58.1,48.1c0,0,23.2,30.2,34,67.9c0,0,10.8,37.7,10.8,77.2c0,0,0,43.3,-8.6,78.7c0,0,-8.6,35.5,-28.7,60.1c0,0,-20.1,24.6,-53.7,38c0,0,-33.6,13.5,-82.8,13.5c0,0,-27.6,0,-55.2,-4.9c0,0,-27.6,-4.8,-53.3,-13.4c0,0,-25.8,-8.6,-49.3,-20.2c0,0,-23.5,-11.5,-42.9,-24.9c0,0,0,-96.3,12.3,-161.2c0,0,12.3,-64.9,35.8,-104c0,0,23.5,-39.2,58.6,-56c0,0,35.1,-16.8,82.1,-16.8Zm-12,-103.6c0,0,-60.4,0,-106.6,14.8c0,0,-46.3,15,-80.6,42.6c0,0,-34.3,27.6,-57.1,67.8c0,0,-22.7,40.3,-36.5,91.8c0,0,-13.8,51.5,-19.8,112.6c0,0,-6,61.2,-6,131.3c0,0,0,62,6.7,125.4c0,0,6.8,63.4,23.9,122.3c0,0,17.2,58.9,46.6,110.8c0,0,29.5,51.8,73.9,90.3c0,0,44.4,38.4,106.3,60.8c0,0,61.9,22.3,144,22.3c0,0,27.6,0,55.9,-3.3c0,0,28.4,-3.4,52.2,-9c0,0,23.9,-5.6,40.3,-12.3c0,0,16.4,-6.7,21.6,-10.8c0,0,5.3,-4.1,7.9,-8.9c0,0,2.6,-4.9,4.1,-10.5c0,0,1.5,-5.6,2.2,-12.7c0,0,0.8,-7.1,0.8,-17.5c0,0,0,-13.4,-0.4,-23.1c0,0,-0.4,-9.7,-3,-15.7c0,0,-2.6,-6,-6.7,-9c0,0,-4.1,-2.9,-10.8,-2.9c0,0,-8.2,0,-22.4,5.2c0,0,-14.2,5.2,-34.3,11.5c0,0,-20.2,6.4,-48.9,11.6c0,0,-28.7,5.2,-66.7,5.2c0,0,-69.4,0,-119.4,-28.3c0,0,-50,-28.4,-81.7,-76.1c0,0,-31.7,-47.7,-47,-110.8c0,0,-15.3,-63,-17.5,-131.6c0,0,19.4,11.1,43.6,22.3c0,0,24.3,11.2,53,20.2c0,0,28.7,8.9,60.8,14.5c0,0,32.1,5.6,68.6,5.6c0,0,78.3,0,132,-21.2c0,0,53.8,-21.3,87,-59c0,0,33.2,-37.6,47.3,-88.8c0,0,14.2,-51.1,14.2,-110.7c0,0,0,-63.4,-19.4,-122.7c0,0,-19.4,-59.4,-59.7,-104.5c0,0,-40.2,-45.1,-102.2,-72.3c0,0,-61.9,-27.2,-146.2,-27.2Z" 
	id="f0_b"
	transform="scale(0.001,-0.001)" />

	<path d="M160.8,0c0,0,-5.2,0,-9.7,2.6c0,0,-4.5,2.6,-8.6,8.6c0,0,-4.1,5.9,-6.3,15.6c0,0,-2.2,9.7,-2.2,23.8c0,0,0,13.4,2.2,23c0,0,2.2,9.7,5.6,16.1c0,0,3.3,6.3,8.2,9.6c0,0,4.8,3.4,10.8,3.4l201,0l0,734.3L175.5,725.5c0,0,-14.2,-7.4,-22.7,-8.9c0,0,-1.3,-0.2,-3.1,-0.2c-3,0,-7.5,0.5,-10.7,3.5c0,0,-5.2,4.9,-7.1,16.1c0,0,-1.8,11.2,-1.8,28.4c0,0,0,12.6,1.1,21.6c0,0,1.1,9,3.3,14.9c0,0,2.3,6,6.4,10.5c0,0,4.1,4.5,10.8,9l222,142.5c0,0,3,2.3,7.5,3.8c0,0,4.4,1.5,11.1,3c0,0,6.8,1.4,15.7,1.8c0,0,9,0.4,22.4,0.4c0,0,17.9,0,29.8,-1.5c0,0,12,-1.5,18.7,-4.1c0,0,6.7,-2.6,8.9,-6.7c0,0,2.3,-4.1,2.3,-8.6l0,-848.3l174.5,0c0,0,6,0,11.2,-3.4c0,0,5.3,-3.3,8.6,-9.6c0,0,3.4,-6.4,5.2,-16c0,0,1.9,-9.7,1.9,-23.1c0,0,0,-14.1,-2.2,-23.8c0,0,-2.3,-9.7,-6,-15.6c0,0,-3.7,-6,-8.6,-8.6c0,0,-4.8,-2.6,-10,-2.6Z" 
	id="f0_6"
	transform="scale(0.001,-0.001)" />

	<path d="M334.3,0L256,1100l243.9,0L511.1,470.1L505.2,294.8l68.6,171.6L832.6,1100l242.8,0l-3.8,-629.9l-3.7,-175.3l69.4,168.6L1420,1100l233.5,0L1110.4,0L890.8,0l3.7,643.3l6,212.7L817,643.3L547.7,0Z" 
	id="f1_j"
	transform="scale(0.001,-0.001)" />

	<path d="M100.7,0L333.5,1096.1l211.8,0l-82.8,-389c0,0,61.2,70.9,127.9,98.9c0,0,66.8,28,134,28c0,0,75.3,0,131.2,-26.1c0,0,56,-26.1,84.3,-79.8c0,0,23.9,-45.5,21.3,-93.6c0,0,-2.6,-48.1,-25.7,-157.1L834,0L616.9,0L721.4,494.5c0,0,14.1,65.6,0.7,105.9c0,0,-17.1,56.7,-98.5,56.7c0,0,-84.2,0,-139.8,-56.3c0,0,-55.6,-56.3,-78,-160.8L312.6,0Z" 
	id="f1_s"
	transform="scale(0.001,-0.001)" />

	<path d="M387.9,129.1c0,0,68.6,0,135,40.3c0,0,66.4,40.2,91.8,146.9l16.4,79.1c0,0,-22.4,-12.7,-44.8,-20.5c0,0,-22.3,-7.9,-59.6,-14.6l-49.3,-8.9c0,0,-70.1,-12,-102.9,-29.1c0,0,-55.2,-29.1,-67.9,-90.3c0,0,-11.9,-54.4,13.1,-78.7c0,0,25,-24.2,68.2,-24.2ZM292.4,-25.3c0,0,-110.4,0,-168.9,62.9c0,0,-58.6,63.1,-34,178.8c0,0,32.1,150,161.9,217.2c0,0,70.9,36.5,197.7,52.2l73.8,9c0,0,61.2,7.4,88.8,18.6c0,0,49.2,19.4,58.2,60.5c0,0,10.4,50,-20.2,69c0,0,-30.5,19.1,-97.7,19.1c0,0,-75.3,0,-114.9,-37.2c0,0,-27.5,-27.5,-45.5,-74.3l-205.1,0c0,0,29.8,106.6,97,175.2c0,0,107.4,107.4,312.5,107.4c0,0,133.6,0,226.1,-53c0,0,92.5,-53,61.2,-200.1L803.4,206.7c0,0,-8.2,-38.8,-17.9,-94.1c0,0,-6.7,-41.7,0.4,-56.6c0,0,7.1,-15,25.7,-24.7L805.7,0L574.4,0c0,0,-4.5,24.6,-3.7,46.2c0,0,0.7,21.7,4.4,49.3c0,0,-54.4,-47.8,-118.6,-81.4c0,0,-77.5,-39.4,-164.1,-39.4Z" 
	id="f1_l"
	transform="scale(0.001,-0.001)" />

	<path d="M358,-11.7c-34.3,0,-148.3,3.7,-184.9,52.2c0,0,-27.6,36.6,-12,112.7L267.8,654.1l-113.4,0l32.1,151.6l113.4,0l48.5,226.8l210.3,0L510.2,805.7l132.1,0L610.2,654.1l-132,0.1l-91.8,-430c0,0,-10.4,-50,-0.4,-62.3c0,0,10.1,-12.3,75,-12.3c0,0,9.7,0,20.5,0.5c0,0,10.9,0.5,22,1.5L469.2,-7.9L367.8,-11.6c0,0,-3.6,-0.1,-9.8,-0.1Z" 
	id="f1_12"
	transform="scale(0.001,-0.001)" />

	<path d="M97,0L269.3,813.5l202.9,0L442.4,671.3c0,0,66.4,81.1,108.9,110.9c0,0,70.9,49.9,166.3,49.9c0,0,6,0,10.1,-0.5c0,0,4.1,-0.5,17.5,-1.5L699,613.1c0,0,-19.4,2.3,-35.1,3.1c0,0,-15.6,0.8,-25.3,0.8c0,0,-128.4,0,-190.3,-83.6c0,0,-34.3,-47,-55.2,-144.7L311.1,0Z" 
	id="f1_10"
	transform="scale(0.001,-0.001)" />

	<path d="M688.5,487.9c0,0,12.7,84.6,-24.2,128.3c0,0,-36.9,43.8,-104.8,43.8c0,0,-73.9,0,-124.2,-46.4c0,0,-50.4,-46.4,-77.2,-125.7ZM421.5,-26.3c0,0,-155.2,0,-252.5,99.8c0,0,-97.4,100,-49.6,325.2c0,0,44.7,211.1,175.6,323.7c0,0,131,112.6,301.8,112.6c0,0,101.4,0,174.9,-38c0,0,73.5,-38,108.6,-120.1c0,0,32.8,-72.3,26.1,-167.7c0,0,-3,-56,-26.9,-161.1l-556.5,0c0,0,-21.6,-122.5,40.3,-171.8c0,0,37.3,-30.6,99.2,-30.6c0,0,65.7,0,114.9,37.5c0,0,26.1,20.3,51.5,56.4l217,0c0,0,-23.8,-72.5,-106.6,-147.2c0,0,-129.8,-118.7,-317.8,-118.7Z" 
	id="f1_p"
	transform="scale(0.001,-0.001)" />

	<path d="M406.6,0l87.2,413.4L259.6,1100l270.8,0L656.5,620.9L977.2,1100l260.4,0L723.6,413.4L636.3,0Z" 
	id="f1_k"
	transform="scale(0.001,-0.001)" />

	<path d="M495.3,149.6c0,0,93.3,0,157.4,66.4c0,0,64.2,66.4,90.3,188.7c0,0,26.1,122.3,-10.1,188.3c0,0,-36.2,66,-129.4,66c0,0,-93.3,0,-157.4,-66c0,0,-64.2,-66,-90.3,-188.3c0,0,-26.1,-122.3,10.1,-188.7c0,0,36.2,-66.4,129.4,-66.4ZM458,-28.2c0,0,-209.6,0,-285.3,127c0,0,-75.7,127.1,-37.7,306.1c0,0,37.3,176,167.9,305c0,0,130.5,129,340.1,129c0,0,209.7,0,285,-129c0,0,75.4,-129,38,-305c0,0,-38,-179,-168.2,-306.1c0,0,-130.1,-127,-339.8,-127Z" 
	id="f1_y"
	transform="scale(0.001,-0.001)" />

	<path d="M367,-18.5c0,0,-180.5,0,-215.6,129.9c0,0,-19.4,71.7,10.5,211.4L265.6,813.5l217.8,0L379.7,322.9c0,0,-14.9,-69.4,-6,-104.5c0,0,15.7,-62,100.8,-62c0,0,108.9,0,167.8,88.2c0,0,31.3,47.7,47.7,126.1l94,442.8l215.6,0L827.3,0L620.7,0l23.8,114.6c0,0,-3.7,-3.8,-19.4,-22.5c0,0,-15.6,-18.7,-35,-32.9C590.1,59.2,530.4,14.3,480,-2c0,0,-50.3,-16.5,-113,-16.5Z" 
	id="f1_13"
	transform="scale(0.001,-0.001)" />

	<path d="M570.7,-30.2c0,0,-237.2,0,-340.9,152c0,0,-103,152.9,-46.3,419.2c0,0,61.2,287.9,248.4,443.8c0,0,163.4,135.7,370.8,135.7c0,0,277.5,0,367,-182.3c0,0,49.2,-102.2,32.1,-205.2L972,733c0,0,-5.2,79.1,-32.1,119.4c0,0,-47,71.6,-170,71.6c0,0,-125.4,0,-219.3,-101c0,0,-94.1,-101,-132.8,-285.8c0,0,-39.6,-184.9,17.1,-276.9c0,0,56.7,-92.1,174.6,-92.1c0,0,120.8,0,201.4,79.1c0,0,44,42.5,85,127.5l227.6,0c0,0,-67.9,-179.7,-214.5,-292.4c0,0,-146.6,-112.6,-338.3,-112.6Z" 
	id="f1_7"
	transform="scale(0.001,-0.001)" />

	<path d="M95.5,0L267.8,811.6l206.7,0L449.1,693c0,0,52.9,63.5,94,90.3c0,0,71.6,47.8,170.1,47.8c0,0,93.2,0,142.4,-41.1c0,0,38.1,-38,49.3,-97.7c0,0,56.7,71.6,126,105.2c0,0,72.4,33.6,153,33.6c0,0,53.7,0,101.4,-20.9c0,0,47.8,-20.9,79.8,-73.1c0,0,24.7,-42.5,23.9,-104.5c0,0,-1.5,-41,-17.9,-120.1L1260.7,0L1042.9,0l109.6,517.5c0,0,9.7,46.2,1.5,76c0,0,-16.4,56.7,-92.5,56.7c0,0,-88,0,-137.2,-73.1c0,0,-25.4,-38.7,-37.3,-93.2L784.8,0L570.7,0L672.9,484.1c0,0,15.6,72.4,7.4,105.2c0,0,-14.1,59,-92.5,59c0,0,-91,0,-135,-59c0,0,-23.9,-33.5,-38,-99.9L311.1,0Z" 
	id="f1_w"
	transform="scale(0.001,-0.001)" />

	<path d="M510.2,155.5c0,0,88.8,0,150,68.6c0,0,61.2,68.6,85,182.6c0,0,20.2,94,-7.4,166.3c0,0,-27.6,72.3,-123.8,72.3c0,0,-115.7,0,-182.1,-109.6c0,0,-34.3,-58.1,-53.7,-147.6c0,0,-29.8,-141.7,32.8,-199.1c0,0,38.1,-33.5,99.2,-33.5ZM24.6,-319.6l241,1133.1l203.6,0L443.9,693.1c0,0,45.5,52.9,91,83.5c0,0,82,54.5,179.7,54.5c0,0,142.5,0,219,-105.1c0,0,76.5,-105.1,33.2,-308.7c0,0,-45.5,-214.7,-166,-327.2c0,0,-120.5,-112.5,-272.6,-112.5c0,0,-97,0,-150.7,48.3c0,0,-29.9,26.8,-52.3,78.2L235,-319.6Z" 
	id="f1_z"
	transform="scale(0.001,-0.001)" />

	<path d="M102.2,0L274.5,813.1l215.6,0L317.8,0ZM295.4,910.3l41.8,196.5l215.6,0L511,910.3Z" 
	id="f1_t"
	transform="scale(0.001,-0.001)" />

	<path d="M417.8,-27.3c0,0,-191.8,0,-266,80.9c0,0,-74.2,81.1,-48.1,206.5l215.6,0c0,0,-5.2,-56.8,12.7,-80.6c0,0,29.8,-42.6,136.5,-42.6c0,0,62.6,0,103.7,18.6c0,0,41,18.7,49.2,55.9c0,0,7.5,35.8,-18.6,54.4c0,0,-26.2,18.7,-208.2,64.1c0,0,-130.5,34.3,-176,85.7c0,0,-46.3,50.7,-25.4,146.1c0,0,23.9,112.6,129.4,193.4c0,0,105.6,80.9,266,80.9c0,0,152.2,0,235,-60.8c0,0,82.8,-60.8,65.6,-210l-212.6,0c0,0,3.7,41.1,-9.7,65.1c0,0,-26.1,43.4,-110.4,43.4c0,0,-69.4,0,-103.3,-21.6c0,0,-34,-21.7,-39.9,-50.8c0,0,-8.2,-36.5,20.1,-52.9c0,0,27.6,-17.2,208.9,-58.9c0,0,120.1,-29.9,170.8,-90.3c0,0,50,-61.1,30.6,-152.9c0,0,-26.1,-120.8,-132,-197.2c0,0,-106,-76.4,-293.9,-76.4Z" 
	id="f1_11"
	transform="scale(0.001,-0.001)" />

	<path d="M591.6,190.7c0,0,162.6,0,261.1,160.4c0,0,53.7,88,79,209.6c0,0,35.8,167.9,2.3,257.7c0,0,-33.6,90,-190.2,90l-211.9,0L379.7,190.7ZM116.4,0L349.9,1099l473.7,0c0,0,101.4,-1.5,164.8,-23.9c0,0,107.5,-38,157.4,-139.4c0,0,40.3,-82,40.7,-177.4c0,0,0.4,-95.5,-17.5,-182c0,0,-47,-219.2,-167.1,-371.3C1001.9,205,839.2,0,590.1,0Z" 
	id="f1_8"
	transform="scale(0.001,-0.001)" />

	<path d="M100.7,0L273,811.6l205.2,0L452.8,693.4c0,0,54.5,62.8,97,90.4c0,0,76.1,49.3,176.8,49.3c0,0,126.1,0,192.1,-66.1c0,0,66,-66.1,33.9,-219.1L836.2,0L618.4,0L722.9,494.9c0,0,14.1,64.1,3.7,98.5c0,0,-17.9,62.7,-105.9,62.7c0,0,-108.2,0,-167.9,-91.8c0,0,-31.3,-48.6,-47,-123.9L312.6,0Z" 
	id="f1_x"
	transform="scale(0.001,-0.001)" />

	<path d="M484.9,174.1c0,0,74.6,0,138,56.4c0,0,63.4,56.4,89.5,179.8c0,0,24.6,115.9,-11.2,176.4c0,0,-35.8,60.6,-117.8,60.6c0,0,-111.9,0,-176.8,-105.4c0,0,-34.4,-56.1,-52.3,-138.3c0,0,-14.9,-71.1,-2.2,-126.4c0,0,20.9,-103.1,132.8,-103.1ZM361.1,-332.3c0,0,-155.9,0,-241.4,61c0,0,-85.4,61.1,-70.5,182.4l231.3,0c0,0,1.5,-37,17.9,-53.2c0,0,28.3,-28.9,109.7,-28.9c0,0,114.8,0,170,76.6c0,0,35.9,49.1,60.5,165l11.1,52.1c0,0,-41.7,-52.1,-82.8,-78.2c0,0,-73.8,-48.3,-175.3,-48.3c0,0,-156.6,0,-226.7,110c0,0,-70.2,110.1,-29.9,298.3c0,0,38.1,181.4,154.8,305c0,0,116.8,123.6,282.4,123.6c0,0,61.1,0,102.2,-18.9c0,0,70.8,-32,100.7,-117.8l24.6,117.1l206.6,0L842.2,42.1c0,0,-32.8,-157.3,-102.9,-237.2c0,0,-120.1,-137.2,-378.2,-137.2Z" 
	id="f1_r"
	transform="scale(0.001,-0.001)" />

	<path d="M364,0l45.6,215.1l222.2,0L586.3,0Zm72.4,318.2c0,0,31.3,126,60.8,174.2c0,0,29.5,48.1,123.5,110.7l63.4,42.6c0,0,31.3,20.1,52.9,44c0,0,38.8,41,49.3,90.2c0,0,11.9,56.7,-11.6,103.4c0,0,-23.5,46.6,-111.5,46.6c0,0,-86.6,0,-134.7,-57.5c0,0,-48.1,-57.4,-61.5,-119.3l-215.6,0c0,0,54.5,212.5,212.6,301.1c0,0,100,56.6,228.3,56.6c0,0,168.6,0,262.9,-80.4c0,0,94.4,-80.4,60.8,-238.5c0,0,-20.9,-97,-83.5,-163.4c0,0,-36.6,-40.3,-130.6,-102.9L740,484.5c0,0,-50,-33.5,-73.8,-78.3c0,0,-15,-28.3,-28.4,-88Z" 
	id="f1_6"
	transform="scale(0.001,-0.001)" />

	<path d="M150.6,0l0,1096.1l149.6,0L300.2,0Z" 
	id="f2_w"
	transform="scale(0.001,-0.001)" />

	<path d="M287.1,-12.6c0,0,-93.9,0,-127.4,48c0,0,-33.6,48.1,-33.6,125l0,528.9l-108.5,0l0,109.5l108.5,0l0,223l135.9,0l0,-223l127.2,0l0,-109.5l-127.2,0l0,-521.5c0,0,0,-41.8,28.3,-56c0,0,15.6,-8.2,52,-8.2c0,0,9.7,0,20.8,0.5c0,0,11.2,0.5,26.1,2.5L389.2,0c0,0,-23.1,-6.6,-48.1,-9.6c0,0,-25,-3,-54,-3Z" 
	id="f2_1t"
	transform="scale(0.001,-0.001)" />

	<path d="M141,657.1l-24.6,439l135.9,0l-24.7,-439Z" 
	id="f2_5"
	transform="scale(0.001,-0.001)" />

	<path d="M385,-30.2c0,0,-180.5,0,-255.7,80.9c0,0,-75.1,81.1,-80.4,200.6l129.1,0c0,0,6.1,-67.3,34.2,-103.2c0,0,51.8,-65,179.7,-65c0,0,76.1,0,134,32.4c0,0,57.8,32.4,57.8,100.2c0,0,0,51.4,-46.2,78.2c0,0,-29.5,16.4,-116.7,38L312.4,358.8c0,0,-103.9,25.3,-153.1,56.6c0,0,-87.9,54.4,-87.9,150.6c0,0,0,113.3,82.8,183.3c0,0,82.9,70.1,222.8,70.1c0,0,183.1,0,264.1,-105.8c0,0,50.7,-67.1,49.2,-144.5l-127.1,0c0,0,-3.8,45.2,-32.8,82.3c0,0,-47.3,52.6,-164.1,52.6c0,0,-77.9,0,-118,-29c0,0,-40,-29,-40,-76.5c0,0,0,-52.1,52.6,-83.3c0,0,30.4,-18.5,89.6,-32.7l90.4,-21.6c0,0,147.3,-35.1,197.4,-67.9c0,0,78.4,-51.4,78.4,-161.7c0,0,0,-106.6,-82,-184.1c0,0,-81.9,-77.4,-249.7,-77.4Z" 
	id="f2_1s"
	transform="scale(0.001,-0.001)" />

	<path d="M98.8,0l0,798.8l127.1,0l0,-114c0,0,56.7,70.3,120.2,101c0,0,63.4,30.6,141.1,30.6c0,0,170.2,0,229.9,-118.5c0,0,32.9,-64.9,32.9,-185.7L750,0L613.1,0l0,503c0,0,0,73,-21.6,117.7c0,0,-35.8,74.5,-129.8,74.5c0,0,-47.7,0,-78.3,-9.7c0,0,-55.2,-16.4,-97,-65.5c0,0,-33.6,-39.6,-43.6,-81.6c0,0,-10.1,-42.1,-10.1,-120.4l0,-418Z" 
	id="f2_1n"
	transform="scale(0.001,-0.001)" />

	<path d="M640.5,462.5c0,0,-8.2,87.3,-37.8,139.6c0,0,-54.9,97,-183.1,97c0,0,-91.9,0,-154.2,-66.8c0,0,-62.2,-66.8,-65.9,-169.8ZM407.6,-28.2c0,0,-148.5,0,-251.6,108.3C156,80.1,52.8,188.6,52.8,384c0,0,0,192.3,103.9,312.4c0,0,103.8,120,271.5,120c0,0,84.5,0,163.9,-39.9c0,0,79.4,-40,120.9,-103.4c0,0,40.1,-60.5,53.4,-141.2c0,0,11.9,-55.2,11.9,-176l-581.8,0c0,0,3.7,-121.7,57.1,-195.3C253.6,160.6,307,87,419,87c0,0,104.6,0,166.9,69.7c0,0,35.1,40.4,49.7,93.6l132,0c0,0,-5.2,-43.9,-34.7,-98c0,0,-29.4,-54,-65.8,-88.3c0,0,-60.8,-59.6,-150.5,-80.3c0,0,-48.2,-11.9,-109,-11.9Z" 
	id="f2_1e"
	transform="scale(0.001,-0.001)" />

	<path d="M303.2,0L8.3,798.8l155.9,0L377.9,148.4L600.6,798.8l146.9,0L446.5,0Z" 
	id="f2_1v"
	transform="scale(0.001,-0.001)" />

	<path d="M102.7,0l0,798.8l127.1,0l0,-138.4c0,0,15.7,40.3,77.1,98.2c0,0,61.4,57.8,141.5,57.8c0,0,3.7,0,12.7,-0.7c0,0,9,-0.8,30.7,-3.2l0,-141.7c0,0,-11.9,2.3,-22,3.1c0,0,-10.2,0.8,-22.1,0.8c0,0,-101.8,0,-156.4,-65.3c0,0,-54.7,-65.3,-54.7,-150.3L236.6,0Z" 
	id="f2_1r"
	transform="scale(0.001,-0.001)" />

	<path d="M413,87c0,0,132.2,0,181.3,100.9c0,0,49.1,100.8,49.1,224.4c0,0,0,111.6,-35.5,181.5c0,0,-56.1,110.2,-193.4,110.2c0,0,-121.9,0,-177.3,-93.8c0,0,-55.3,-93.7,-55.3,-226.2c0,0,0,-127.3,55.3,-212.1c0,0,55.4,-84.9,175.8,-84.9ZM400.3,-28.2c0,0,-163.7,0,-260,111.2C140.3,83,44,194.3,44,382c0,0,0,201,101.5,320.2c0,0,101.5,119.1,272.5,119.1c0,0,153.4,0,259.3,-102.7c0,0,105.9,-102.8,105.9,-302.4c0,0,0,-192.9,-93.3,-318.7c0,0,-93.3,-125.7,-289.6,-125.7Z" 
	id="f2_1o"
	transform="scale(0.001,-0.001)" />

	<path d="M102.7,0l0,1096.1l133.9,0L236.6,0Z" 
	id="f2_1l"
	transform="scale(0.001,-0.001)" />

	<path d="M344.9,88c0,0,71,0,137.5,32.5c0,0,112.1,53.9,112.1,177.6l0,108c0,0,-24.6,-15.8,-63.3,-26.3c0,0,-38.7,-10.6,-76,-14.9L374,354.8c0,0,-73,-9.4,-110,-30.3c0,0,-62.6,-34.9,-62.6,-111.5c0,0,0,-58.1,42.6,-91.5c0,0,42.6,-33.5,100.9,-33.5Zm-31,-114.3c0,0,-111.3,0,-181.8,67.3c0,0,-70.5,67.4,-70.5,168.6c0,0,0,110.9,69.4,172c0,0,69.4,61,182.1,75.2l214.3,26.8c0,0,46.2,6,61.9,38.8c0,0,9.1,17.9,9.1,51.6c0,0,0,68.9,-48.8,99.9c0,0,-48.8,31.1,-139.7,31.1c0,0,-105.1,0,-149.1,-56.9c0,0,-24.6,-31.5,-32,-93.7l-125.2,0c0,0,3.8,148.1,95.7,206c0,0,92,58,213.4,58c0,0,140.8,0,228.6,-53.7c0,0,87.2,-53.7,87.2,-167.2l0,-460.3c0,0,0,-20.9,8.5,-33.6c0,0,8.6,-12.7,36.3,-12.7c0,0,9,0,20.2,1.2c0,0,11.2,1.1,23.9,3.3l0,-99.3c0,0,-31.3,-9.1,-47.7,-11.3c0,0,-16.4,-2.3,-44.7,-2.3c0,0,-69.4,0,-100.7,49.3c0,0,-16.4,26.2,-23.1,74.1c0,0,-41,-53.5,-117.9,-92.9c0,0,-76.9,-39.3,-169.4,-39.3Z" 
	id="f2_1a"
	transform="scale(0.001,-0.001)" />

	<path d="M98.8,0l0,794.9l136.8,0L235.6,0Zm0,943.6l0,152.5l136.8,0l0,-152.5Z" 
	id="f2_1i"
	transform="scale(0.001,-0.001)" />

	<path d="M98.8,0l0,798.8l132,0l0,-113.5c0,0,47.8,58.8,86.7,85.7c0,0,66.5,45.4,151,45.4c0,0,95.7,0,154,-46.9c0,0,32.9,-26.8,59.8,-79c0,0,44.8,64.1,105.3,95c0,0,60.4,30.9,135.8,30.9c0,0,161.3,0,219.5,-116.3c0,0,31.4,-62.6,31.4,-168.5L1174.3,0L1034.5,0l0,554.8c0,0,0,79.8,-39.9,109.6c0,0,-40,29.8,-97.4,29.8c0,0,-79.1,0,-136.1,-52.9c0,0,-57.1,-53,-57.1,-176.7L704,0L567.1,0l0,520.9c0,0,0,81.2,-19.4,118.4c0,0,-30.6,55.9,-114.2,55.9c0,0,-76.1,0,-138.5,-58.6c0,0,-62.3,-58.7,-62.3,-213.1L232.7,0Z" 
	id="f2_1m"
	transform="scale(0.001,-0.001)" />

	<path d="M435.1,90.9c0,0,94.2,0,156.6,78.6c0,0,62.4,78.6,62.4,234.9c0,0,0,95.4,-27.6,163.9c0,0,-52.3,131.8,-191.4,131.8c0,0,-139.8,0,-191.3,-139.3c0,0,-27.7,-74.4,-27.7,-189.1c0,0,0,-92.3,27.7,-157.1c0,0,52.3,-123.7,191.3,-123.7ZM87,-318.6L87,794.9l131.1,0l0,-106c0,0,40.3,54.7,88.1,84.6c0,0,68,44.9,160,44.9c0,0,136,0,230.9,-104c0,0,94.9,-104,94.9,-297.1c0,0,0,-261,-137,-372.9c0,0,-86.8,-70.7,-202,-70.7c0,0,-90.6,0,-152,39.5c0,0,-35.9,22.4,-80,77l0,-408.8Z" 
	id="f2_1p"
	transform="scale(0.001,-0.001)" />

	<path d="M496.9,-32.2c0,0,-199.3,0,-312.1,104.5c0,0,-112.7,103.8,-110.5,281.7l139.8,0c0,0,5.1,-93.6,42.4,-151.9c0,0,71.1,-109.2,250.5,-109.2c0,0,80.4,0,146.5,23.9c0,0,127.8,46.3,127.8,165.7c0,0,0,89.6,-54.2,127.7c0,0,-55,37.4,-172.1,65.1L411.2,508.9c0,0,-141,33,-199.5,72.5c0,0,-101.2,68.6,-101.2,205c0,0,0,147.7,99.4,242.4c0,0,99.5,94.7,281.7,94.7c0,0,167.7,0,284.9,-83.2c0,0,117.2,-83.2,117.2,-265.9l-139.8,0c0,0,-10.7,88.1,-45.8,135.1c0,0,-65,85.9,-220.9,85.9c0,0,-125.8,0,-180.8,-55.3c0,0,-55.1,-55.2,-55.1,-128.3c0,0,0,-80.7,65.1,-118c0,0,42.6,-23.9,193,-59.7L658.4,599c0,0,107.8,-25.4,166.3,-69.4c0,0,101.3,-76.8,101.3,-223.1c0,0,0,-182.1,-129.1,-260.4c0,0,-129.1,-78.3,-300,-78.3Z" 
	id="f2_13"
	transform="scale(0.001,-0.001)" />

	<path d="M131,0l0,1096.1l796,0l0,-134l-651.3,0l0,-333.4l602.4,0l0,-127.1l-602.4,0l0,-371.6l662,0l0,-130Z" 
	id="f2_s"
	transform="scale(0.001,-0.001)" />

	<path d="M604.7,100.7c0,0,196.5,0,284.3,140.8c0,0,87.8,140.7,87.8,323.6c0,0,0,193.4,-101.2,311.3c0,0,-101.3,118,-276.9,118c0,0,-170.4,0,-277.9,-116.8c0,0,-107.6,-116.9,-107.6,-344.6c0,0,0,-182.2,92.2,-307.2c0,0,92.3,-125.1,299.3,-125.1ZM586.5,-32.2c0,0,-253,0,-397.7,167c0,0,-129.2,161.1,-129.2,407.3c0,0,0,222.3,110.5,380.4c0,0,141.8,202.9,419.4,202.9c0,0,290.3,0,429.9,-186.5c0,0,109,-145.4,109,-372.2c0,0,0,-245.4,-124.7,-408c0,0,-146.2,-190.9,-417.2,-190.9Z" 
	id="f2_10"
	transform="scale(0.001,-0.001)" />

	<path d="M127.1,-226.7l0,70.4c0,0,51.4,9,72.2,72.6c0,0,11.2,33.7,11.2,65.1c0,0,0,5.2,-0.3,9.3c0,0,-0.4,4.2,-1.9,9.3L127.1,0l0,162.3l159.4,0l0,-150.6c0,0,0,-88.6,-35.8,-155.7c0,0,-35.7,-67.1,-123.6,-82.7Z" 
	id="f2_9"
	transform="scale(0.001,-0.001)" />

	<path d="M98.8,0l0,1100l133.9,0l0,-409.3c0,0,47.8,60.5,85.9,85.1c0,0,64.9,42.6,161.9,42.6c0,0,173.9,0,235.9,-121.6c0,0,33.6,-66.4,33.6,-184.3L750,0L612.1,0l0,503.5c0,0,0,88,-22.4,129c0,0,-36.6,65.6,-137.4,65.6c0,0,-83.7,0,-151.6,-57.4c0,0,-68,-57.4,-68,-217L232.7,0Z" 
	id="f2_1h"
	transform="scale(0.001,-0.001)" />

	<path d="M436.7,92.9c0,0,109.1,0,163.3,86.5c0,0,54.1,86.5,54.1,228.2c0,0,0,126,-54.1,208.8c0,0,-54.2,82.7,-159.6,82.7c0,0,-91.9,0,-161,-67.8c0,0,-69.2,-67.9,-69.2,-223.7c0,0,0,-112.6,28.4,-182.7c0,0,53.1,-132,198.1,-132Zm8.5,-118.2c0,0,-91.2,0,-154,43.8c0,0,-37.4,26,-80,83.3L211.2,0L87,0l0,1100l131,0l0,-398.6c0,0,44.1,57.5,105.4,87.7c0,0,61.3,30.3,133,30.3c0,0,149.5,0,242.5,-102.6c0,0,93.1,-102.5,93.1,-302.3c0,0,0,-189.4,-91.9,-314.6c0,0,-92,-125.2,-254.9,-125.2Z" 
	id="f2_1b"
	transform="scale(0.001,-0.001)" />

	<path d="M411.1,89c0,0,92.5,0,152.2,80.2c0,0,59.6,80.2,59.6,230.1c0,0,0,151.4,-61.5,224.2c0,0,-61.4,72.7,-151.8,72.7c0,0,-100.7,0,-163.2,-77.6c0,0,-62.6,-77.6,-62.6,-228.3c0,0,0,-128.3,54.1,-214.8c0,0,54,-86.5,173.2,-86.5ZM369.2,-28.2c0,0,-132.8,0,-230,112.2C139.2,84,42,196.3,42,382.9c0,0,0,174.6,88.7,302.6c0,0,88.7,128,253.5,128c0,0,91.3,0,152.9,-38.9c0,0,35.6,-22.4,80.9,-78.4l0,403.8l129,0L747,0L625.8,0l0,111.4c0,0,-46.7,-74,-110.5,-106.9c0,0,-63.8,-32.7,-146.1,-32.7Z" 
	id="f2_1d"
	transform="scale(0.001,-0.001)" />

	<path d="M243.4,0L13.2,798.8l146.9,0L313.4,169.3L469.3,798.8l150.8,0L776.8,173l163,625.8l134.3,0L842.4,0L702.9,0L540.2,618.4L382.8,0Z" 
	id="f2_1w"
	transform="scale(0.001,-0.001)" />

	<path d="M132,0l0,689.3l-111.5,0l0,105.6l111.5,0l0,125.6c0,0,3,83.6,29.1,122.5c0,0,46.9,68.7,181.2,68.7c0,0,12.6,0,26,-0.7c0,0,13.5,-0.7,30.6,-2.2l0,-122.2c0,0,-21,1.3,-30.4,1.6c0,0,-9.5,0.3,-17.7,0.3c0,0,-61.8,0,-73.8,-31.7c0,0,-12,-31.8,-12,-161.9l133.9,0l0,-105.6l-133.9,0L265,0Z" 
	id="f2_1f"
	transform="scale(0.001,-0.001)" />

	<path d="M170.2,-327.4c0,0,-28.3,0,-43.6,2.2c0,0,-15.3,2.2,-37.6,8.2l0,122c0,0,35,-9.7,50.7,-11.9c0,0,15.6,-2.2,27.5,-2.2c0,0,37.3,0,54.8,12.3c0,0,17.5,12.3,29.5,30.3c0,0,3.7,6,26.8,61.4c0,0,23.1,55.3,33.6,82.2L16.1,798.8l152.4,0L382.8,148.5L598.2,798.8l148.3,0c0,0,-28.3,-76.8,-125.9,-350.5c0,0,-73.1,-205.8,-122.3,-335.5c0,0,-116.3,-305.9,-164,-373.1c0,0,-47.7,-67.1,-164.1,-67.1Z" 
	id="f2_1y"
	transform="scale(0.001,-0.001)" />

	<path d="M131,0l0,162.3l155.5,0L286.5,0Z" 
	id="f2_b"
	transform="scale(0.001,-0.001)" />

	<path d="M355.1,0L546.8,905.4l-330.5,0L258.1,1100l890.7,0L1107,905.4l-328.9,0L586.3,0Z" 
	id="f1_h"
	transform="scale(0.001,-0.001)" />

	<path d="M116.4,0L349.1,1098l779.6,0L1087.6,904.5l-551.2,0L482.7,652.2l482.6,0L925,461.5l-482.6,0L344.7,0Z" 
	id="f1_a"
	transform="scale(0.001,-0.001)" />

	<path d="M394,0l0,966.1l-369.6,0l0,130l889.8,0l0,-130l-369.6,0L544.6,0Z" 
	id="f2_14"
	transform="scale(0.001,-0.001)" />

	<path d="M357.1,-21.4c0,0,-167.6,0,-228.4,114c0,0,-32.9,61.1,-32.9,163.3l0,542.9l136.9,0l0,-530.4c0,0,0,-61.2,18.9,-100c0,0,34.9,-71.6,130,-71.6c0,0,136.6,0,186,125.3c0,0,26.9,67.2,26.9,184.3l0,392.4l134,0L728.5,0L602.3,0l1.5,117.7c0,0,-25.6,-45.4,-63.7,-76.7c0,0,-75.4,-62.4,-183,-62.4Z" 
	id="f2_1u"
	transform="scale(0.001,-0.001)" />

	<path d="M384.4,99.7c0,0,143.5,0,202,130.8c0,0,32.6,74,32.6,172.6c0,0,0,148.7,-60.7,220.4c0,0,-60.7,71.7,-154.7,71.7c0,0,-140.6,0,-192.4,-133c0,0,-27.4,-71,-27.4,-186c0,0,0,-135.3,54.4,-205.9c0,0,54.4,-70.6,146.2,-70.6Zm0.1,-437.9c0,0,-128.4,0,-216,57.8c0,0,-87.6,57.7,-98.1,180.8l136.9,0c0,0,9.6,-53.6,38.4,-82.5c0,0,45.2,-44.6,142.1,-44.6c0,0,153.1,0,200.4,108.8c0,0,28.1,64.2,25.9,228.8c0,0,-40.1,-61.1,-96.4,-90.9c0,0,-56.4,-29.7,-149.1,-29.7c0,0,-129.1,0,-225.9,92.1c0,0,-96.7,92.2,-96.7,304.9c0,0,0,200.8,97.4,313.5c0,0,97.5,112.7,235.4,112.7c0,0,93.4,0,163.1,-46.1c0,0,37.8,-26.1,77.1,-75.9l0,99.5l124.1,0l0,-726.5c0,0,0,-152.1,-44.5,-240.1c0,0,-83.2,-162.6,-314.1,-162.6Z" 
	id="f2_1g"
	transform="scale(0.001,-0.001)" />

	<path d="M387.3,-23.4c0,0,-156.7,0,-250,114.4C137.3,91,44,205.4,44,376.9c0,0,0,210.3,102.2,327.4c0,0,102.3,117,260.5,117c0,0,135.1,0,219.8,-65.5c0,0,84.7,-65.6,102,-225.8l-131,0c0,0,-12,73.6,-54.6,122.3c0,0,-42.5,48.8,-136.6,48.8c0,0,-128.5,0,-183.7,-125.1c0,0,-35.8,-81.2,-35.8,-200.4c0,0,0,-119.8,50.7,-201.8c0,0,50.8,-81.9,159.8,-81.9c0,0,83.7,0,132.6,51c0,0,48.9,51.1,67.6,139.7l131,0c0,0,-22.5,-159,-112.1,-232.5c0,0,-89.5,-73.5,-229.1,-73.5Z" 
	id="f2_1c"
	transform="scale(0.001,-0.001)" />

	<path d="M95.8,0l0,1096.1l129.1,0l0,-636.5L568.8,798.8l171.4,0L433.7,502L757.5,0L586,0L335,406.6L224.9,299.8L224.9,0Z" 
	id="f2_1k"
	transform="scale(0.001,-0.001)" />

	<path d="M8.2,0L289.4,409.5L22.4,798.8l173.8,0L379.7,517.6L565.5,798.8l163.3,-3.7L459.5,409.5L740.8,0L569.2,0L370.8,299.8L178.3,0Z" 
	id="f2_1x"
	transform="scale(0.001,-0.001)" />

	<path d="M39.1,0l0,106.1L512.8,678.6l-438.5,0l0,120.2l619,0l0,-109.8L222.7,120.3l485.2,0L707.9,0Z" 
	id="f2_1z"
	transform="scale(0.001,-0.001)" />

	<path d="M98.5,0L332,1100l228.2,0L326.7,0Z" 
	id="f1_b"
	transform="scale(0.001,-0.001)" />

	<path d="M311.1,0L191.7,813.5l238.7,0l41.8,-600l300.6,600l228.3,0L535.6,0Z" 
	id="f1_14"
	transform="scale(0.001,-0.001)" />

	<path d="M516.2,153.5c0,0,82.1,0,141.8,66.4c0,0,59.6,66.5,82.8,174.7c0,0,18.6,86.5,8.2,143.3c0,0,-20.2,107.4,-134.3,107.4c0,0,-115.6,0,-181.3,-105.2c0,0,-34.3,-56,-53,-144.8c0,0,-22.3,-104.5,9.4,-173.1c0,0,31.7,-68.7,126.4,-68.7ZM535.6,-21.4c0,0,-100.7,0,-152.9,40.1c0,0,-31.3,23.8,-61.2,83.4L299.9,0L91.8,0L324.5,1098l211.9,0L453.6,707.3c0,0,52.2,56.7,107.4,86.5c0,0,64.9,37.3,153.6,37.3c0,0,160.4,0,226.5,-115.6c0,0,66,-115.6,27.2,-298.4c0,0,-40.3,-189.5,-156.3,-314c0,0,-116,-124.5,-276.4,-124.5Z" 
	id="f1_m"
	transform="scale(0.001,-0.001)" />

	<path d="M103.7,0L337.2,1100l212.6,0L316.3,0Z" 
	id="f1_v"
	transform="scale(0.001,-0.001)" />

	<path d="M158.9,-328.4c0,0,-28.4,0,-45.5,0.3c0,0,-17.2,0.4,-50.7,2.6l35.8,170.1l26.8,-1.5c0,0,6,-0.3,15.2,-0.3c11.6,0,28.3,0.5,44.5,2.5c0,0,29.1,3.8,51.5,17.2c0,0,21.6,12.7,46.2,52.9c0,0,24.6,40.3,23.2,49.3L188,813.5l236.5,0l50,-599.7L769.9,813.5l226,0L546.8,13.8c0,0,-129.8,-231.1,-188.4,-286.7c0,0,-58.5,-55.5,-199.5,-55.5Z" 
	id="f1_17"
	transform="scale(0.001,-0.001)" />

	<path d="M484.9,151.6c0,0,52.2,0,103.7,24.2c0,0,51.5,24.2,87.3,54.1L527.4,479.1c0,0,-91,-53,-125.3,-93.3c0,0,-34.3,-40.3,-44.8,-88.8c0,0,-11.2,-54.4,23.5,-99.9c0,0,34.7,-45.5,104.1,-45.5ZM640.8,708.5c0,0,51.5,31.3,76.1,52.9c0,0,45.5,40.3,55.2,87.3c0,0,7.4,34.3,-9.3,61.2c0,0,-16.8,26.8,-62.3,26.8c0,0,-28.4,0,-56,-15.6c0,0,-42.5,-23.2,-52.9,-73.1c0,0,-6,-29.9,7.4,-62.7c0,0,9,-21.6,41.8,-76.8ZM431.9,-26.3c0,0,-167.1,0,-240.2,98.4c0,0,-73.1,98.4,-47.7,218.5c0,0,20.9,99.2,85.4,170c0,0,64.5,70.9,191.3,140.2L446.8,615c0,0,-36.5,53.7,-50.7,109.6c0,0,-14.2,56,-1.5,116.4c0,0,25.4,120.1,120.5,187.6c0,0,95.1,67.5,223.4,67.5c0,0,117.1,0,178.7,-69c0,0,61.5,-69,39.2,-176.4c0,0,-20.9,-97,-79.5,-157.4c0,0,-58.6,-60.4,-158.5,-111.9L833.3,389c0,0,35,38.8,59.3,84.3c0,0,24.2,45.5,36.2,96.2l188.7,0c0,0,-26.1,-100,-91,-202.1c0,0,-35.8,-57.5,-104.5,-126.8L1071.2,0.4l-258.1,0L756.4,93.7c0,0,-66.4,-51.5,-119.3,-76.1c0,0,-94,-43.9,-205.2,-43.9Z" 
	id="f1_3"
	transform="scale(0.001,-0.001)" />

	<path d="M97,0L329.7,1096.1l208.9,0L412.5,503.6l329.8,306l263.3,0L655,498.4L845.2,0L588.6,0L467.7,347.7L359.6,255.9L305.9,0Z" 
	id="f1_u"
	transform="scale(0.001,-0.001)" />

	<path d="M32.8,-259L50,-176.9c0,0,67.9,18,107,59.8c0,0,39.2,41.8,60.1,117.1L88,0l47,222l229.8,0L323.8,29.5c0,0,-10.5,-50.6,-35.8,-105.8c0,0,-25.4,-55.2,-70.2,-95.4c0,0,-49.2,-43.3,-107,-65.3c0,0,-57.8,-22,-78,-22Z" 
	id="f1_4"
	transform="scale(0.001,-0.001)" />

	<path d="M427.5,-28.2c0,0,-196.2,0,-263.8,116.3c0,0,-67.5,116.4,-27.9,302.3c0,0,44,209.8,171.2,326.2c0,0,127.2,116.5,307,116.5c0,0,152.9,0,235.7,-68.6c0,0,82.8,-68.6,63.4,-242.4l-217.8,0c0,0,3.7,45.4,-13.5,81.9c0,0,-25.3,49.2,-100.7,49.2c0,0,-107.4,0,-169.3,-106.9c0,0,-32.8,-56.8,-53,-150.9c0,0,-18.6,-89.6,-9.7,-144.2c0,0,16.4,-101.6,121.6,-101.6c0,0,74.6,0,114.5,40.3c0,0,39.9,40.3,60.1,104.4l217.1,0c0,0,-27.6,-96.9,-109,-183.3c0,0,-129.8,-139.2,-325.9,-139.2Z" 
	id="f1_n"
	transform="scale(0.001,-0.001)" />

	<path d="M134.3,0L273,656.1l-118.6,0l32.1,149.6l116.4,0l11.2,52.2c0,0,27.6,130.5,82,179.8c0,0,61.9,73.1,238.7,73.1c0,0,20.2,0,36.2,-1.3c0,0,16.1,-1.2,44.4,-3.6L678.1,933.1c0,0,-17.2,2.2,-58.9,3.3c0,0,-0.5,0,-1.2,0c-7.1,0,-42.7,-0.9,-61.1,-18.6c0,0,-20.5,-19.8,-25,-43.6c0,0,-5.2,-23.8,-14.9,-68.5l139.5,0L624.4,656.1l-139.5,0L346.1,0Z" 
	id="f1_q"
	transform="scale(0.001,-0.001)" />

	<path d="M477.4,153.5c0,0,90.3,0,151.8,67.1c0,0,61.6,67.1,84,173.7c0,0,31.3,149.1,-29.9,213.3c0,0,-38,38.7,-99.2,38.7c0,0,-93.2,0,-151.8,-70.4c0,0,-58.6,-70.5,-80.9,-174.9c0,0,-23.9,-112.6,5.9,-180c0,0,29.9,-67.5,120.1,-67.5ZM378.2,-25.3c0,0,-142.5,0,-215.2,115.1c0,0,-72.7,115.2,-34.7,295.6c0,0,44.8,208.1,166,327.4c0,0,121.2,119.3,281.6,119.3c0,0,73.8,0,124.2,-32.5c0,0,50.4,-32.4,74.2,-89.9L856.4,1098l215.6,0L839.2,0L632.6,0l23.9,112.5c0,0,-61.2,-72.3,-126.5,-105.1c0,0,-65.2,-32.7,-151.8,-32.7Z" 
	id="f1_o"
	transform="scale(0.001,-0.001)" />


</defs>
</svg>