<?xml version="1.0" encoding="UTF-8" standalone="no"?>
<!DOCTYPE svg PUBLIC "-//W3C//DTD SVG 1.1//EN"
"http://www.w3.org/Graphics/SVG/1.1/DTD/svg11.dtd">
<svg viewBox="0 0 935 1210" version="1.1" xmlns="http://www.w3.org/2000/svg" xmlns:xlink="http://www.w3.org/1999/xlink">
<defs>
<clipPath id="c0_5"><path d="M27.5,1191.7L27.5,18.3l880,0l0,1173.4Z" /></clipPath>
<clipPath id="c1_5"><path d="M65.8,451.8L65.8,325l363.4,0l0,126.8Z" /></clipPath>
<clipPath id="c2_5"><path d="M305.6,919.7l0,-85.8l558.8,0l0,85.8Z" /></clipPath>
<clipPath id="c3_5"><path d="M709.1,1067.9l0,-20.9l166.5,0l0,20.9Z" /></clipPath>
<clipPath id="c4_5"><path d="M236.9,200.8l0,-28.6l651.9,0l0,28.6Z" /></clipPath>
<style type="text/css"><![CDATA[
.g1_5{
fill: #FFFFFF;
}
.g2_5{
fill: none;
stroke: #4F81BD;
stroke-width: 3.8194444;
stroke-linecap: butt;
stroke-linejoin: round;
}
]]></style>
</defs>
<g clip-path="url(#c0_5)">
<g fill="#000000" >
<use xlink:href="#f0_a" transform="matrix(10.8,0,0,10.8,899,70.8)" />
<use xlink:href="#f0_6" transform="matrix(10.8,0,0,10.8,110,1129.7)" />
<use xlink:href="#f0_a" transform="matrix(10.8,0,0,10.8,463.2,1129.7)" />
<use xlink:href="#f0_a" transform="matrix(10.8,0,0,10.8,905.9,1129.7)" />
</g>
</g>
<image preserveAspectRatio="none" x="0" y="0" width="946" height="229" xlink:href="img/1.png" />
<image preserveAspectRatio="none" x="54" y="229" width="807" height="84" xlink:href="img/2.png" />
<image preserveAspectRatio="none" x="477" y="335" width="377" height="414" xlink:href="img/3.png" />
<image preserveAspectRatio="none" x="54" y="690" width="226" height="370" xlink:href="img/4.png" />
<image preserveAspectRatio="none" x="268" y="761" width="578" height="65" xlink:href="img/5.png" />
<image preserveAspectRatio="none" x="285" y="926" width="593" height="119" xlink:href="img/6.png" />
<image preserveAspectRatio="none" x="77" y="459" width="376" height="303" xlink:href="img/7.png" />
<path fill-rule="evenodd" d="M65.1,319.5l364.2,0l0,138.6l-364.2,0Z" class="g1_5" />
<image preserveAspectRatio="none" x="66" y="325" width="363" height="127" xlink:href="img/8.png" />
<g clip-path="url(#c1_5)">
<g fill="#595959" >
<use xlink:href="#f1_13" transform="matrix(13,0,0,13,76.8,344)" />
<use xlink:href="#f1_s" transform="matrix(13,0,0,13,89.6,344)" />
<use xlink:href="#f1_10" transform="matrix(13,0,0,13,102.9,344)" />
<use xlink:href="#f1_1d" transform="matrix(13,0,0,13,124.1,344)" />
<use xlink:href="#f1_1o" transform="matrix(13,0,0,13,135.1,344)" />
<use xlink:href="#f1_1m" transform="matrix(13,0,0,13,146.1,344)" />
<use xlink:href="#f1_1i" transform="matrix(13,0,0,13,162.6,344)" />
<use xlink:href="#f1_1n" transform="matrix(13,0,0,13,167,344)" />
<use xlink:href="#f1_1a" transform="matrix(13,0,0,13,178,344)" />
<use xlink:href="#f1_1t" transform="matrix(13,0,0,13,189,344)" />
<use xlink:href="#f1_1e" transform="matrix(13,0,0,13,194.5,344)" />
<use xlink:href="#f1_1s" transform="matrix(13,0,0,13,205.5,344)" />
<use xlink:href="#f1_1a" transform="matrix(13,0,0,13,221.3,344)" />
<use xlink:href="#f1_1s" transform="matrix(13,0,0,13,232.3,344)" />
<use xlink:href="#f1_1t" transform="matrix(13,0,0,13,247.7,344)" />
<use xlink:href="#f1_1h" transform="matrix(13,0,0,13,253.2,344)" />
<use xlink:href="#f1_1e" transform="matrix(13,0,0,13,264.2,344)" />
<use xlink:href="#f1_1o" transform="matrix(13,0,0,13,280.7,344)" />
<use xlink:href="#f1_1n" transform="matrix(13,0,0,13,291.7,344)" />
<use xlink:href="#f1_1l" transform="matrix(13,0,0,13,303.1,344)" />
<use xlink:href="#f1_1i" transform="matrix(13,0,0,13,307.5,344)" />
<use xlink:href="#f1_1n" transform="matrix(13,0,0,13,311.9,344)" />
<use xlink:href="#f1_1e" transform="matrix(13,0,0,13,322.9,344)" />
</g>
</g>
<g clip-path="url(#c0_5)">
<g fill="#595959" >
<use xlink:href="#f1_1m" transform="matrix(13,0,0,13,76.8,371.5)" />
<use xlink:href="#f1_1a" transform="matrix(13,0,0,13,93.3,371.5)" />
<use xlink:href="#f1_1r" transform="matrix(13,0,0,13,104.3,371.5)" />
<use xlink:href="#f1_1k" transform="matrix(13,0,0,13,110.9,371.5)" />
<use xlink:href="#f1_1e" transform="matrix(13,0,0,13,120.8,371.5)" />
<use xlink:href="#f1_1t" transform="matrix(13,0,0,13,131.8,371.5)" />
<use xlink:href="#f1_1i" transform="matrix(13,0,0,13,137.3,371.5)" />
<use xlink:href="#f1_1n" transform="matrix(13,0,0,13,141.7,371.5)" />
<use xlink:href="#f1_1g" transform="matrix(13,0,0,13,153.1,371.5)" />
<use xlink:href="#f1_1i" transform="matrix(13,0,0,13,169.6,371.5)" />
<use xlink:href="#f1_1m" transform="matrix(13,0,0,13,174,371.5)" />
<use xlink:href="#f1_1p" transform="matrix(13,0,0,13,190.5,371.5)" />
<use xlink:href="#f1_1l" transform="matrix(13,0,0,13,201.5,371.5)" />
<use xlink:href="#f1_1e" transform="matrix(13,0,0,13,205.9,371.5)" />
<use xlink:href="#f1_1m" transform="matrix(13,0,0,13,216.9,371.5)" />
<use xlink:href="#f1_1e" transform="matrix(13,0,0,13,233.4,371.5)" />
<use xlink:href="#f1_1n" transform="matrix(13,0,0,13,244.4,371.5)" />
<use xlink:href="#f1_1t" transform="matrix(13,0,0,13,255.4,371.5)" />
<use xlink:href="#f1_1a" transform="matrix(13,0,0,13,260.9,371.5)" />
<use xlink:href="#f1_1t" transform="matrix(13,0,0,13,271.9,371.5)" />
<use xlink:href="#f1_1i" transform="matrix(13,0,0,13,277.4,371.5)" />
<use xlink:href="#f1_1o" transform="matrix(13,0,0,13,281.8,371.5)" />
<use xlink:href="#f1_1n" transform="matrix(13,0,0,13,292.8,371.5)" />
<use xlink:href="#f1_1o" transform="matrix(13,0,0,13,309.3,371.5)" />
<use xlink:href="#f1_1f" transform="matrix(13,0,0,13,320.3,371.5)" />
<use xlink:href="#f1_1c" transform="matrix(13,0,0,13,331.3,371.5)" />
<use xlink:href="#f1_1h" transform="matrix(13,0,0,13,341.6,371.5)" />
<use xlink:href="#f1_1o" transform="matrix(13,0,0,13,352.6,371.5)" />
<use xlink:href="#f1_1i" transform="matrix(13,0,0,13,363.6,371.5)" />
<use xlink:href="#f1_1c" transform="matrix(13,0,0,13,368,371.5)" />
<use xlink:href="#f1_1e" transform="matrix(13,0,0,13,377.9,371.5)" />
</g>
</g>
<g clip-path="url(#c1_5)">
<g fill="#595959" >
<use xlink:href="#f1_1f" transform="matrix(13,0,0,13,76.8,399)" />
<use xlink:href="#f1_1o" transform="matrix(13,0,0,13,82.3,399)" />
<use xlink:href="#f1_1r" transform="matrix(13,0,0,13,93.3,399)" />
<use xlink:href="#f1_1l" transform="matrix(13,0,0,13,105.4,399)" />
<use xlink:href="#f1_1e" transform="matrix(13,0,0,13,109.8,399)" />
<use xlink:href="#f1_1a" transform="matrix(13,0,0,13,120.8,399)" />
<use xlink:href="#f1_1d" transform="matrix(13,0,0,13,131.8,399)" />
<use xlink:href="#f1_1g" transform="matrix(13,0,0,13,148.3,399)" />
<use xlink:href="#f1_1e" transform="matrix(13,0,0,13,159.3,399)" />
<use xlink:href="#f1_1n" transform="matrix(13,0,0,13,170.3,399)" />
<use xlink:href="#f1_1e" transform="matrix(13,0,0,13,181.3,399)" />
<use xlink:href="#f1_1r" transform="matrix(13,0,0,13,192.3,399)" />
<use xlink:href="#f1_1a" transform="matrix(13,0,0,13,198.9,399)" />
<use xlink:href="#f1_1t" transform="matrix(13,0,0,13,209.9,399)" />
<use xlink:href="#f1_1i" transform="matrix(13,0,0,13,215.8,399)" />
<use xlink:href="#f1_1o" transform="matrix(13,0,0,13,220.2,399)" />
<use xlink:href="#f1_1n" transform="matrix(13,0,0,13,230.8,399)" />
<use xlink:href="#f1_1i" transform="matrix(13,0,0,13,247.7,399)" />
<use xlink:href="#f1_1n" transform="matrix(13,0,0,13,252.1,399)" />
<use xlink:href="#f1_1t" transform="matrix(13,0,0,13,268.6,399)" />
<use xlink:href="#f1_1e" transform="matrix(13,0,0,13,274.1,399)" />
<use xlink:href="#f1_1r" transform="matrix(13,0,0,13,285.1,399)" />
<use xlink:href="#f1_1m" transform="matrix(13,0,0,13,291.7,399)" />
<use xlink:href="#f1_1s" transform="matrix(13,0,0,13,308.2,399)" />
<use xlink:href="#f1_1o" transform="matrix(13,0,0,13,323.6,399)" />
<use xlink:href="#f1_1f" transform="matrix(13,0,0,13,334.6,399)" />
<use xlink:href="#f1_1g" transform="matrix(13,0,0,13,345.6,399)" />
<use xlink:href="#f1_1e" transform="matrix(13,0,0,13,357,399)" />
<use xlink:href="#f1_1n" transform="matrix(13,0,0,13,367.6,399)" />
<use xlink:href="#f1_1e" transform="matrix(13,0,0,13,379,399)" />
<use xlink:href="#f1_1r" transform="matrix(13,0,0,13,390,399)" />
<use xlink:href="#f1_1a" transform="matrix(13,0,0,13,396.6,399)" />
<use xlink:href="#f1_1l" transform="matrix(13,0,0,13,407.6,399)" />
</g>
</g>
<g clip-path="url(#c0_5)">
<g fill="#595959" >
<use xlink:href="#f1_1i" transform="matrix(13,0,0,13,76.8,426.5)" />
<use xlink:href="#f1_1m" transform="matrix(13,0,0,13,81.2,426.5)" />
<use xlink:href="#f1_1p" transform="matrix(13,0,0,13,97.7,426.5)" />
<use xlink:href="#f1_1o" transform="matrix(13,0,0,13,108.7,426.5)" />
<use xlink:href="#f1_1r" transform="matrix(13,0,0,13,119.7,426.5)" />
<use xlink:href="#f1_1t" transform="matrix(13,0,0,13,126.3,426.5)" />
<use xlink:href="#f1_1a" transform="matrix(13,0,0,13,131.8,426.5)" />
<use xlink:href="#f1_1n" transform="matrix(13,0,0,13,142.8,426.5)" />
<use xlink:href="#f1_1c" transform="matrix(13,0,0,13,153.8,426.5)" />
<use xlink:href="#f1_1e" transform="matrix(13,0,0,13,163.7,426.5)" />
<use xlink:href="#f1_1a" transform="matrix(13,0,0,13,180.2,426.5)" />
<use xlink:href="#f1_1s" transform="matrix(13,0,0,13,191.2,426.5)" />
<use xlink:href="#f1_1w" transform="matrix(13,0,0,13,207,426.5)" />
<use xlink:href="#f1_1e" transform="matrix(13,0,0,13,221.3,426.5)" />
<use xlink:href="#f1_1l" transform="matrix(13,0,0,13,232.3,426.5)" />
<use xlink:href="#f1_1l" transform="matrix(13,0,0,13,236.7,426.5)" />
<use xlink:href="#f1_1a" transform="matrix(13,0,0,13,246.6,426.5)" />
<use xlink:href="#f1_1s" transform="matrix(13,0,0,13,257.6,426.5)" />
<use xlink:href="#f1_1i" transform="matrix(13,0,0,13,273.4,426.5)" />
<use xlink:href="#f1_1n" transform="matrix(13,0,0,13,277.8,426.5)" />
<use xlink:href="#f1_p" transform="matrix(13,0,0,13,294.3,426.5)" />
<use xlink:href="#f1_f" transform="matrix(13,0,0,13,307.5,426.5)" />
<use xlink:href="#f1_p" transform="matrix(13,0,0,13,318.5,426.5)" />
<use xlink:href="#f1_9" transform="matrix(13,0,0,13,332,426.5)" />
<use xlink:href="#f1_p" transform="matrix(13,0,0,13,343,426.5)" />
<use xlink:href="#f1_f" transform="matrix(13,0,0,13,356.2,426.5)" />
<use xlink:href="#f1_q" transform="matrix(13,0,0,13,367.2,426.5)" />
</g>
</g>
<g clip-path="url(#c1_5)">
<g fill="#595959" >
<use xlink:href="#f1_1a" transform="matrix(13,0,0,13,76.8,453.7)" />
<use xlink:href="#f1_1n" transform="matrix(13,0,0,13,87.8,453.7)" />
<use xlink:href="#f1_1d" transform="matrix(13,0,0,13,98.8,453.7)" />
<use xlink:href="#f1_1m" transform="matrix(13,0,0,13,115.3,453.7)" />
<use xlink:href="#f1_1i" transform="matrix(13,0,0,13,131.8,453.7)" />
<use xlink:href="#f1_1x" transform="matrix(13,0,0,13,136.6,453.7)" />
<use xlink:href="#f1_1e" transform="matrix(13,0,0,13,146.5,453.7)" />
<use xlink:href="#f1_1d" transform="matrix(13,0,0,13,157.5,453.7)" />
<use xlink:href="#f1_p" transform="matrix(13,0,0,13,174,453.7)" />
<use xlink:href="#f1_f" transform="matrix(13,0,0,13,187.2,453.7)" />
<use xlink:href="#f1_p" transform="matrix(13,0,0,13,198.2,453.7)" />
<use xlink:href="#f1_c" transform="matrix(13,0,0,13,211.4,453.7)" />
<use xlink:href="#f1_p" transform="matrix(13,0,0,13,216.9,453.7)" />
<use xlink:href="#f1_f" transform="matrix(13,0,0,13,230.5,453.7)" />
<use xlink:href="#f1_q" transform="matrix(13,0,0,13,241.5,453.7)" />
<use xlink:href="#f1_1c" transform="matrix(13,0,0,13,261.3,453.7)" />
<use xlink:href="#f1_1a" transform="matrix(13,0,0,13,271.2,453.7)" />
<use xlink:href="#f1_1t" transform="matrix(13,0,0,13,282.2,453.7)" />
<use xlink:href="#f1_1e" transform="matrix(13,0,0,13,287.7,453.7)" />
<use xlink:href="#f1_1g" transform="matrix(13,0,0,13,298.7,453.7)" />
<use xlink:href="#f1_1o" transform="matrix(13,0,0,13,309.7,453.7)" />
<use xlink:href="#f1_1r" transform="matrix(13,0,0,13,320.7,453.7)" />
<use xlink:href="#f1_1i" transform="matrix(13,0,0,13,327.3,453.7)" />
<use xlink:href="#f1_1e" transform="matrix(13,0,0,13,331.7,453.7)" />
<use xlink:href="#f1_1s" transform="matrix(13,0,0,13,342.7,453.7)" />
<use xlink:href="#f1_b" transform="matrix(13,0,0,13,352.6,453.7)" />
</g>
</g>
<path fill-rule="evenodd" d="M304.9,828.4l559.9,0l0,97.4l-559.9,0Z" class="g1_5" />
<image preserveAspectRatio="none" x="306" y="834" width="559" height="86" xlink:href="img/9.png" />
<g clip-path="url(#c2_5)">
<g fill="#595959" >
<use xlink:href="#f1_x" transform="matrix(13,0,0,13,316.6,853)" />
<use xlink:href="#f1_1o" transform="matrix(13,0,0,13,327.6,853)" />
<use xlink:href="#f1_1n" transform="matrix(13,0,0,13,338.6,853)" />
<use xlink:href="#f1_1g" transform="matrix(13,0,0,13,349.6,853)" />
<use xlink:href="#f1_1t" transform="matrix(13,0,0,13,366.1,853)" />
<use xlink:href="#f1_1e" transform="matrix(13,0,0,13,371.6,853)" />
<use xlink:href="#f1_1r" transform="matrix(13,0,0,13,382.6,853)" />
<use xlink:href="#f1_1m" transform="matrix(13,0,0,13,389.2,853)" />
<use xlink:href="#f1_13" transform="matrix(13,0,0,13,411.2,853)" />
<use xlink:href="#f1_s" transform="matrix(13,0,0,13,424.4,853)" />
<use xlink:href="#f1_10" transform="matrix(13,0,0,13,437.6,853)" />
<use xlink:href="#f1_1u" transform="matrix(13,0,0,13,458.5,853)" />
<use xlink:href="#f1_1n" transform="matrix(13,0,0,13,469.5,853)" />
<use xlink:href="#f1_1d" transform="matrix(13,0,0,13,480.5,853)" />
<use xlink:href="#f1_1e" transform="matrix(13,0,0,13,491.5,853)" />
<use xlink:href="#f1_1r" transform="matrix(13,0,0,13,502.5,853)" />
<use xlink:href="#f1_1g" transform="matrix(13,0,0,13,509.1,853)" />
<use xlink:href="#f1_1o" transform="matrix(13,0,0,13,520.1,853)" />
<use xlink:href="#f1_1i" transform="matrix(13,0,0,13,531.1,853)" />
<use xlink:href="#f1_1n" transform="matrix(13,0,0,13,535.5,853)" />
<use xlink:href="#f1_1g" transform="matrix(13,0,0,13,546.5,853)" />
<use xlink:href="#f1_1i" transform="matrix(13,0,0,13,563,853)" />
<use xlink:href="#f1_1n" transform="matrix(13,0,0,13,567.4,853)" />
<use xlink:href="#f1_1c" transform="matrix(13,0,0,13,578.4,853)" />
<use xlink:href="#f1_1r" transform="matrix(13,0,0,13,588.3,853)" />
<use xlink:href="#f1_1e" transform="matrix(13,0,0,13,595.3,853)" />
<use xlink:href="#f1_1m" transform="matrix(13,0,0,13,605.9,853)" />
<use xlink:href="#f1_1e" transform="matrix(13,0,0,13,622.8,853)" />
<use xlink:href="#f1_1n" transform="matrix(13,0,0,13,633.8,853)" />
<use xlink:href="#f1_1t" transform="matrix(13,0,0,13,644.8,853)" />
<use xlink:href="#f1_1a" transform="matrix(13,0,0,13,650.3,853)" />
<use xlink:href="#f1_1l" transform="matrix(13,0,0,13,661.3,853)" />
<use xlink:href="#f1_1o" transform="matrix(13,0,0,13,671.2,853)" />
<use xlink:href="#f1_1r" transform="matrix(13,0,0,13,682.2,853)" />
<use xlink:href="#f1_1c" transform="matrix(13,0,0,13,694.3,853)" />
<use xlink:href="#f1_1o" transform="matrix(13,0,0,13,704.2,853)" />
<use xlink:href="#f1_1n" transform="matrix(13,0,0,13,715.2,853)" />
<use xlink:href="#f1_1t" transform="matrix(13,0,0,13,726.2,853)" />
<use xlink:href="#f1_1i" transform="matrix(13,0,0,13,731.7,853)" />
<use xlink:href="#f1_1n" transform="matrix(13,0,0,13,736.1,853)" />
<use xlink:href="#f1_1u" transform="matrix(13,0,0,13,747.1,853)" />
<use xlink:href="#f1_1o" transform="matrix(13,0,0,13,758.1,853)" />
<use xlink:href="#f1_1u" transform="matrix(13,0,0,13,769.1,853)" />
<use xlink:href="#f1_1s" transform="matrix(13,0,0,13,780.1,853)" />
</g>
</g>
<g clip-path="url(#c0_5)">
<g fill="#595959" >
<use xlink:href="#f1_1i" transform="matrix(13,0,0,13,316.6,880.5)" />
<use xlink:href="#f1_1m" transform="matrix(13,0,0,13,321,880.5)" />
<use xlink:href="#f1_1p" transform="matrix(13,0,0,13,337.5,880.5)" />
<use xlink:href="#f1_1r" transform="matrix(13,0,0,13,348.5,880.5)" />
<use xlink:href="#f1_1o" transform="matrix(13,0,0,13,355.1,880.5)" />
<use xlink:href="#f1_1v" transform="matrix(13,0,0,13,366.1,880.5)" />
<use xlink:href="#f1_1e" transform="matrix(13,0,0,13,376,880.5)" />
<use xlink:href="#f1_1m" transform="matrix(13,0,0,13,387,880.5)" />
<use xlink:href="#f1_1e" transform="matrix(13,0,0,13,403.9,880.5)" />
<use xlink:href="#f1_1n" transform="matrix(13,0,0,13,414.5,880.5)" />
<use xlink:href="#f1_1t" transform="matrix(13,0,0,13,425.9,880.5)" />
<use xlink:href="#f1_1s" transform="matrix(13,0,0,13,431.4,880.5)" />
<use xlink:href="#f1_1f" transform="matrix(13,0,0,13,446.8,880.5)" />
<use xlink:href="#f1_1r" transform="matrix(13,0,0,13,452.3,880.5)" />
<use xlink:href="#f1_1o" transform="matrix(13,0,0,13,458.9,880.5)" />
<use xlink:href="#f1_1m" transform="matrix(13,0,0,13,469.9,880.5)" />
<use xlink:href="#f1_1t" transform="matrix(13,0,0,13,491.9,880.5)" />
<use xlink:href="#f1_1h" transform="matrix(13,0,0,13,497.4,880.5)" />
<use xlink:href="#f1_1e" transform="matrix(13,0,0,13,508.4,880.5)" />
<use xlink:href="#f1_1t" transform="matrix(13,0,0,13,524.9,880.5)" />
<use xlink:href="#f1_1r" transform="matrix(13,0,0,13,530.4,880.5)" />
<use xlink:href="#f1_1i" transform="matrix(13,0,0,13,537,880.5)" />
<use xlink:href="#f1_1a" transform="matrix(13,0,0,13,541.4,880.5)" />
<use xlink:href="#f1_1l" transform="matrix(13,0,0,13,552.7,880.5)" />
<use xlink:href="#f1_1p" transform="matrix(13,0,0,13,562.6,880.5)" />
<use xlink:href="#f1_1h" transform="matrix(13,0,0,13,573.6,880.5)" />
<use xlink:href="#f1_1a" transform="matrix(13,0,0,13,584.6,880.5)" />
<use xlink:href="#f1_1s" transform="matrix(13,0,0,13,595.6,880.5)" />
<use xlink:href="#f1_1e" transform="matrix(13,0,0,13,605.5,880.5)" />
<use xlink:href="#f1_9" transform="matrix(13,0,0,13,616.5,880.5)" />
<use xlink:href="#f1_1t" transform="matrix(13,0,0,13,627.9,880.5)" />
<use xlink:href="#f1_1r" transform="matrix(13,0,0,13,633.4,880.5)" />
<use xlink:href="#f1_1a" transform="matrix(13,0,0,13,640,880.5)" />
<use xlink:href="#f1_1n" transform="matrix(13,0,0,13,651,880.5)" />
<use xlink:href="#f1_1s" transform="matrix(13,0,0,13,662,880.5)" />
<use xlink:href="#f1_1i" transform="matrix(13,0,0,13,671.9,880.5)" />
<use xlink:href="#f1_1t" transform="matrix(13,0,0,13,676.3,880.5)" />
<use xlink:href="#f1_1i" transform="matrix(13,0,0,13,681.8,880.5)" />
<use xlink:href="#f1_1o" transform="matrix(13,0,0,13,686.2,880.5)" />
<use xlink:href="#f1_1n" transform="matrix(13,0,0,13,697.2,880.5)" />
<use xlink:href="#f1_1a" transform="matrix(13,0,0,13,708.2,880.5)" />
<use xlink:href="#f1_1l" transform="matrix(13,0,0,13,719.2,880.5)" />
<use xlink:href="#f1_1p" transform="matrix(13,0,0,13,729.5,880.5)" />
<use xlink:href="#f1_1h" transform="matrix(13,0,0,13,740.5,880.5)" />
<use xlink:href="#f1_1a" transform="matrix(13,0,0,13,751.5,880.5)" />
<use xlink:href="#f1_1s" transform="matrix(13,0,0,13,762.5,880.5)" />
<use xlink:href="#f1_1e" transform="matrix(13,0,0,13,772.4,880.5)" />
<use xlink:href="#f1_9" transform="matrix(13,0,0,13,783.4,880.5)" />
<use xlink:href="#f1_1u" transform="matrix(13,0,0,13,794.4,880.5)" />
<use xlink:href="#f1_1p" transform="matrix(13,0,0,13,805.4,880.5)" />
<use xlink:href="#f1_1t" transform="matrix(13,0,0,13,821.9,880.5)" />
<use xlink:href="#f1_1o" transform="matrix(13,0,0,13,827.4,880.5)" />
</g>
</g>
<g clip-path="url(#c2_5)">
<g fill="#595959" >
<use xlink:href="#f1_1t" transform="matrix(13,0,0,13,316.6,908)" />
<use xlink:href="#f1_1h" transform="matrix(13,0,0,13,322.1,908)" />
<use xlink:href="#f1_1e" transform="matrix(13,0,0,13,333.1,908)" />
<use xlink:href="#f1_1a" transform="matrix(13,0,0,13,349.6,908)" />
<use xlink:href="#f1_1d" transform="matrix(13,0,0,13,360.6,908)" />
<use xlink:href="#f1_1v" transform="matrix(13,0,0,13,371.6,908)" />
<use xlink:href="#f1_1a" transform="matrix(13,0,0,13,381.5,908)" />
<use xlink:href="#f1_1n" transform="matrix(13,0,0,13,392.9,908)" />
<use xlink:href="#f1_1c" transform="matrix(13,0,0,13,403.9,908)" />
<use xlink:href="#f1_1e" transform="matrix(13,0,0,13,413.8,908)" />
<use xlink:href="#f1_1d" transform="matrix(13,0,0,13,424.8,908)" />
<use xlink:href="#f1_1o" transform="matrix(13,0,0,13,441.3,908)" />
<use xlink:href="#f1_1r" transform="matrix(13,0,0,13,452.3,908)" />
<use xlink:href="#f1_1s" transform="matrix(13,0,0,13,464.4,908)" />
<use xlink:href="#f1_1t" transform="matrix(13,0,0,13,474.3,908)" />
<use xlink:href="#f1_1r" transform="matrix(13,0,0,13,479.8,908)" />
<use xlink:href="#f1_1a" transform="matrix(13,0,0,13,486.4,908)" />
<use xlink:href="#f1_1t" transform="matrix(13,0,0,13,497.4,908)" />
<use xlink:href="#f1_1e" transform="matrix(13,0,0,13,502.9,908)" />
<use xlink:href="#f1_1g" transform="matrix(13,0,0,13,513.9,908)" />
<use xlink:href="#f1_1i" transform="matrix(13,0,0,13,524.9,908)" />
<use xlink:href="#f1_1c" transform="matrix(13,0,0,13,529.3,908)" />
<use xlink:href="#f1_1p" transform="matrix(13,0,0,13,545,908)" />
<use xlink:href="#f1_1h" transform="matrix(13,0,0,13,556,908)" />
<use xlink:href="#f1_1a" transform="matrix(13,0,0,13,567,908)" />
<use xlink:href="#f1_1s" transform="matrix(13,0,0,13,578,908)" />
<use xlink:href="#f1_1e" transform="matrix(13,0,0,13,587.9,908)" />
<use xlink:href="#f1_9" transform="matrix(13,0,0,13,598.9,908)" />
<use xlink:href="#f1_1a" transform="matrix(13,0,0,13,610,908)" />
<use xlink:href="#f1_1d" transform="matrix(13,0,0,13,621,908)" />
<use xlink:href="#f1_1d" transform="matrix(13,0,0,13,632.3,908)" />
<use xlink:href="#f1_1u" transform="matrix(13,0,0,13,648.8,908)" />
<use xlink:href="#f1_1p" transform="matrix(13,0,0,13,659.5,908)" />
<use xlink:href="#f1_1t" transform="matrix(13,0,0,13,676.3,908)" />
<use xlink:href="#f1_1o" transform="matrix(13,0,0,13,681.8,908)" />
<use xlink:href="#f1_1m" transform="matrix(13,0,0,13,698.3,908)" />
<use xlink:href="#f1_1o" transform="matrix(13,0,0,13,714.8,908)" />
<use xlink:href="#f1_1r" transform="matrix(13,0,0,13,725.8,908)" />
<use xlink:href="#f1_1e" transform="matrix(13,0,0,13,732.4,908)" />
<use xlink:href="#f1_1g" transform="matrix(13,0,0,13,748.9,908)" />
<use xlink:href="#f1_1a" transform="matrix(13,0,0,13,759.9,908)" />
<use xlink:href="#f1_1i" transform="matrix(13,0,0,13,770.9,908)" />
<use xlink:href="#f1_1n" transform="matrix(13,0,0,13,775.3,908)" />
<use xlink:href="#f1_1s" transform="matrix(13,0,0,13,786.3,908)" />
<use xlink:href="#f1_b" transform="matrix(13,0,0,13,796.2,908)" />
</g>
</g>
<path fill-rule="evenodd" d="M708.7,1041.2l167.2,0l0,32.8l-167.2,0Z" class="g1_5" />
<image preserveAspectRatio="none" x="709" y="1047" width="167" height="21" xlink:href="img/10.png" />
<g clip-path="url(#c3_5)">
<g fill="#595959" >
<use xlink:href="#f1_a" transform="matrix(10.8,0,0,10.8,720.1,1062.8)" />
<use xlink:href="#f1_y" transform="matrix(10.8,0,0,10.8,730.4,1062.8)" />
<use xlink:href="#f1_1a" transform="matrix(10.8,0,0,10.8,744.3,1062.8)" />
<use xlink:href="#f1_1r" transform="matrix(10.8,0,0,10.8,753.8,1062.8)" />
<use xlink:href="#f1_1k" transform="matrix(10.8,0,0,10.8,759.3,1062.8)" />
<use xlink:href="#f1_1e" transform="matrix(10.8,0,0,10.8,767.8,1062.8)" />
<use xlink:href="#f1_1t" transform="matrix(10.8,0,0,10.8,776.9,1062.8)" />
<use xlink:href="#f1_1i" transform="matrix(10.8,0,0,10.8,781.7,1062.8)" />
<use xlink:href="#f1_1n" transform="matrix(10.8,0,0,10.8,785.4,1062.8)" />
<use xlink:href="#f1_1g" transform="matrix(10.8,0,0,10.8,794.9,1062.8)" />
<use xlink:href="#f1_13" transform="matrix(10.8,0,0,10.8,808.8,1062.8)" />
<use xlink:href="#f1_1h" transform="matrix(10.8,0,0,10.8,819.8,1062.8)" />
<use xlink:href="#f1_1e" transform="matrix(10.8,0,0,10.8,829,1062.8)" />
<use xlink:href="#f1_1r" transform="matrix(10.8,0,0,10.8,838.5,1062.8)" />
<use xlink:href="#f1_1p" transform="matrix(10.8,0,0,10.8,844,1062.8)" />
<use xlink:href="#f1_1a" transform="matrix(10.8,0,0,10.8,853.2,1062.8)" />
</g>
</g>
<path fill-rule="evenodd" d="M53.2,1097.8c0,-8.1,6.5,-14.7,14.7,-14.7l807.9,0c8.2,0,14.7,6.6,14.7,14.7l0,58.8c0,8.1,-6.5,14.7,-14.7,14.7l-807.9,0c-8.2,0,-14.7,-6.6,-14.7,-14.7Z" class="g1_5" />
<path d="M53.2,1097.8c0,-8.1,6.5,-14.7,14.7,-14.7l807.9,0c8.2,0,14.7,6.6,14.7,14.7l0,58.8c0,8.1,-6.5,14.7,-14.7,14.7l-807.9,0c-8.2,0,-14.7,-6.6,-14.7,-14.7Z" class="g2_5" />
<image preserveAspectRatio="none" x="59" y="1095" width="825" height="65" xlink:href="img/11.png" />
<path fill-rule="evenodd" d="M236.5,166.4l652.9,0l0,40.8l-652.9,0Z" class="g1_5" />
<image preserveAspectRatio="none" x="237" y="172" width="652" height="29" xlink:href="img/12.png" />
<g clip-path="url(#c4_5)">
<g fill="#E36C0A" >
<use xlink:href="#f2_b" transform="matrix(13.9,0,0,13.9,247.9,192.8)" />
<use xlink:href="#f2_w" transform="matrix(13.9,0,0,13.9,253.7,192.8)" />
<use xlink:href="#f2_z" transform="matrix(13.9,0,0,13.9,272.8,192.8)" />
<use xlink:href="#f2_10" transform="matrix(13.9,0,0,13.9,286,192.8)" />
<use xlink:href="#f2_y" transform="matrix(13.9,0,0,13.9,294.1,192.8)" />
<use xlink:href="#f2_14" transform="matrix(13.9,0,0,13.9,307.3,192.8)" />
<use xlink:href="#f2_p" transform="matrix(13.9,0,0,13.9,319,192.8)" />
<use xlink:href="#f2_14" transform="matrix(13.9,0,0,13.9,337,192.8)" />
<use xlink:href="#f2_t" transform="matrix(13.9,0,0,13.9,349.1,192.8)" />
<use xlink:href="#f2_11" transform="matrix(13.9,0,0,13.9,354.9,192.8)" />
<use xlink:href="#f2_t" transform="matrix(13.9,0,0,13.9,366.7,192.8)" />
<use xlink:href="#f2_m" transform="matrix(13.9,0,0,13.9,372.5,192.8)" />
<use xlink:href="#f2_t" transform="matrix(13.9,0,0,13.9,385.8,192.8)" />
<use xlink:href="#f2_v" transform="matrix(13.9,0,0,13.9,391.6,192.8)" />
<use xlink:href="#f2_t" transform="matrix(13.9,0,0,13.9,397.5,192.8)" />
<use xlink:href="#f2_12" transform="matrix(13.9,0,0,13.9,403.7,192.8)" />
<use xlink:href="#f2_17" transform="matrix(13.9,0,0,13.9,410.7,192.8)" />
<use xlink:href="#f2_3" transform="matrix(13.9,0,0,13.9,428.7,192.8)" />
<use xlink:href="#f2_10" transform="matrix(13.9,0,0,13.9,449.9,192.8)" />
<use xlink:href="#f2_l" transform="matrix(13.9,0,0,13.9,458.4,192.8)" />
<use xlink:href="#f2_x" transform="matrix(13.9,0,0,13.9,470.1,192.8)" />
<use xlink:href="#f2_u" transform="matrix(13.9,0,0,13.9,483.3,192.8)" />
<use xlink:href="#f2_t" transform="matrix(13.9,0,0,13.9,495,192.8)" />
<use xlink:href="#f2_x" transform="matrix(13.9,0,0,13.9,501.3,192.8)" />
<use xlink:href="#f2_r" transform="matrix(13.9,0,0,13.9,514.1,192.8)" />
<use xlink:href="#f2_11" transform="matrix(13.9,0,0,13.9,527.3,192.8)" />
<use xlink:href="#f2_4" transform="matrix(13.9,0,0,13.9,539,192.8)" />
<use xlink:href="#f2_t" transform="matrix(13.9,0,0,13.9,551.1,192.8)" />
<use xlink:href="#f2_x" transform="matrix(13.9,0,0,13.9,557,192.8)" />
<use xlink:href="#f2_n" transform="matrix(13.9,0,0,13.9,569.8,192.8)" />
<use xlink:href="#f2_10" transform="matrix(13.9,0,0,13.9,581.9,192.8)" />
<use xlink:href="#f2_p" transform="matrix(13.9,0,0,13.9,590.4,192.8)" />
<use xlink:href="#f2_l" transform="matrix(13.9,0,0,13.9,602.1,192.8)" />
<use xlink:href="#f2_11" transform="matrix(13.9,0,0,13.9,614.2,192.8)" />
<use xlink:href="#f2_p" transform="matrix(13.9,0,0,13.9,625.9,192.8)" />
<use xlink:href="#f2_12" transform="matrix(13.9,0,0,13.9,643.9,192.8)" />
<use xlink:href="#f2_10" transform="matrix(13.9,0,0,13.9,650.9,192.8)" />
<use xlink:href="#f2_l" transform="matrix(13.9,0,0,13.9,659.3,192.8)" />
<use xlink:href="#f2_q" transform="matrix(13.9,0,0,13.9,671,192.8)" />
<use xlink:href="#f2_q" transform="matrix(13.9,0,0,13.9,678.4,192.8)" />
<use xlink:href="#f2_t" transform="matrix(13.9,0,0,13.9,685.4,192.8)" />
<use xlink:href="#f2_n" transform="matrix(13.9,0,0,13.9,691.2,192.8)" />
<use xlink:href="#f2_4" transform="matrix(13.9,0,0,13.9,703.3,192.8)" />
<use xlink:href="#f2_v" transform="matrix(13.9,0,0,13.9,715.1,192.8)" />
<use xlink:href="#f2_p" transform="matrix(13.9,0,0,13.9,720.9,192.8)" />
<use xlink:href="#f2_l" transform="matrix(13.9,0,0,13.9,733,192.8)" />
<use xlink:href="#f2_o" transform="matrix(13.9,0,0,13.9,744.8,192.8)" />
<use xlink:href="#f2_11" transform="matrix(13.9,0,0,13.9,758,192.8)" />
<use xlink:href="#f2_3" transform="matrix(13.9,0,0,13.9,775.6,192.8)" />
<use xlink:href="#f2_11" transform="matrix(13.9,0,0,13.9,797.2,192.8)" />
<use xlink:href="#f2_l" transform="matrix(13.9,0,0,13.9,808.9,192.8)" />
<use xlink:href="#f2_v" transform="matrix(13.9,0,0,13.9,821,192.8)" />
<use xlink:href="#f2_p" transform="matrix(13.9,0,0,13.9,826.9,192.8)" />
<use xlink:href="#f2_11" transform="matrix(13.9,0,0,13.9,838.7,192.8)" />
</g>
</g>
<image preserveAspectRatio="none" x="69" y="1086" width="796" height="84" xlink:href="img/13.png" />
<defs>
	<path d="M324.3,-13.6c0,0,-44.8,0,-85,6.4c0,0,-40.3,6.3,-71.6,15.5c0,0,-31.3,9.3,-51.4,18.2c0,0,-20.2,8.9,-25.8,14.1c0,0,-5.6,5.3,-7.8,9.7c0,0,-2.2,4.5,-4.1,10.8c0,0,-1.9,6.4,-2.6,16c0,0,-0.7,9.7,-0.7,23.1c0,0,0,12.6,1.1,22.7c0,0,1.1,10,4.1,16.4c0,0,2.9,6.3,7,9.3c0,0,4.2,3,9.4,3c0,0,7.4,0,23.1,-9.4c0,0,15.6,-9.3,42.1,-20.1c0,0,26.5,-10.8,65.6,-20.5c0,0,39.1,-9.7,92.8,-9.7c0,0,50,0,91.7,12c0,0,41.7,11.9,71.9,37.3c0,0,30.2,25.3,47.4,63.8c0,0,17.1,38.4,17.1,93.6c0,0,0,46.3,-14.5,81.8c0,0,-14.6,35.4,-44.8,58.9c0,0,-30.2,23.5,-76.4,35.1c0,0,-46.3,11.6,-110.5,11.6c0,0,-45.5,0,-78.3,-4.5c0,0,-32.8,-4.5,-61.2,-4.5c0,0,-20.8,0,-29.8,9.7c0,0,-9,9.7,-9,37.3l0,392.6c0,0,0,24.6,11.6,36.5c0,0,11.6,12,33.2,12l427.5,0c0,0,6,0,11.6,-3.4c0,0,5.6,-3.3,9.3,-10c0,0,3.7,-6.7,5.6,-17.1c0,0,1.9,-10.4,1.9,-24.5c0,0,0,-26.8,-7.5,-41.6c0,0,-7.5,-14.9,-20.9,-14.9l-360.3,0l0,-270.2c0,0,26.1,3.7,53.3,4.5c0,0,27.2,0.7,63,0.7c0,0,82.8,0,144.7,-19.8c0,0,62,-19.7,103.4,-55.9c0,0,41.4,-36.2,62.6,-87.7c0,0,21.3,-51.5,21.3,-114.2c0,0,0,-77.7,-26.1,-138.1c0,0,-26.1,-60.5,-73.8,-101.9c0,0,-47.7,-41.4,-113.7,-63c0,0,-66,-21.6,-146.5,-21.6Z" 
	id="f0_a"
	transform="scale(0.001,-0.001)" />

	<path d="M160.8,0c0,0,-5.2,0,-9.7,2.6c0,0,-4.5,2.6,-8.6,8.6c0,0,-4.1,5.9,-6.3,15.6c0,0,-2.2,9.7,-2.2,23.8c0,0,0,13.4,2.2,23c0,0,2.2,9.7,5.6,16.1c0,0,3.3,6.3,8.2,9.6c0,0,4.8,3.4,10.8,3.4l201,0l0,734.3L175.5,725.5c0,0,-14.2,-7.4,-22.7,-8.9c0,0,-1.3,-0.2,-3.1,-0.2c-3,0,-7.5,0.5,-10.7,3.5c0,0,-5.2,4.9,-7.1,16.1c0,0,-1.8,11.2,-1.8,28.4c0,0,0,12.6,1.1,21.6c0,0,1.1,9,3.3,14.9c0,0,2.3,6,6.4,10.5c0,0,4.1,4.5,10.8,9l222,142.5c0,0,3,2.3,7.5,3.8c0,0,4.4,1.5,11.1,3c0,0,6.8,1.4,15.7,1.8c0,0,9,0.4,22.4,0.4c0,0,17.9,0,29.8,-1.5c0,0,12,-1.5,18.7,-4.1c0,0,6.7,-2.6,8.9,-6.7c0,0,2.3,-4.1,2.3,-8.6l0,-848.3l174.5,0c0,0,6,0,11.2,-3.4c0,0,5.3,-3.3,8.6,-9.6c0,0,3.4,-6.4,5.2,-16c0,0,1.9,-9.7,1.9,-23.1c0,0,0,-14.1,-2.2,-23.8c0,0,-2.3,-9.7,-6,-15.6c0,0,-3.7,-6,-8.6,-8.6c0,0,-4.8,-2.6,-10,-2.6Z" 
	id="f0_6"
	transform="scale(0.001,-0.001)" />

	<path d="M496.9,-32.2c0,0,-199.3,0,-312.1,104.5c0,0,-112.7,103.8,-110.5,281.7l139.8,0c0,0,5.1,-93.6,42.4,-151.9c0,0,71.1,-109.2,250.5,-109.2c0,0,80.4,0,146.5,23.9c0,0,127.8,46.3,127.8,165.7c0,0,0,89.6,-54.2,127.7c0,0,-55,37.4,-172.1,65.1L411.2,508.9c0,0,-141,33,-199.5,72.5c0,0,-101.2,68.6,-101.2,205c0,0,0,147.7,99.4,242.4c0,0,99.5,94.7,281.7,94.7c0,0,167.7,0,284.9,-83.2c0,0,117.2,-83.2,117.2,-265.9l-139.8,0c0,0,-10.7,88.1,-45.8,135.1c0,0,-65,85.9,-220.9,85.9c0,0,-125.8,0,-180.8,-55.3c0,0,-55.1,-55.2,-55.1,-128.3c0,0,0,-80.7,65.1,-118c0,0,42.6,-23.9,193,-59.7L658.4,599c0,0,107.8,-25.4,166.3,-69.4c0,0,101.3,-76.8,101.3,-223.1c0,0,0,-182.1,-129.1,-260.4c0,0,-129.1,-78.3,-300,-78.3Z" 
	id="f1_13"
	transform="scale(0.001,-0.001)" />

	<path d="M131,0l0,1096.1l796,0l0,-134l-651.3,0l0,-333.4l602.4,0l0,-127.1l-602.4,0l0,-371.6l662,0l0,-130Z" 
	id="f1_s"
	transform="scale(0.001,-0.001)" />

	<path d="M604.7,100.7c0,0,196.5,0,284.3,140.8c0,0,87.8,140.7,87.8,323.6c0,0,0,193.4,-101.2,311.3c0,0,-101.3,118,-276.9,118c0,0,-170.4,0,-277.9,-116.8c0,0,-107.6,-116.9,-107.6,-344.6c0,0,0,-182.2,92.2,-307.2c0,0,92.3,-125.1,299.3,-125.1ZM586.5,-32.2c0,0,-253,0,-397.7,167c0,0,-129.2,161.1,-129.2,407.3c0,0,0,222.3,110.5,380.4c0,0,141.8,202.9,419.4,202.9c0,0,290.3,0,429.9,-186.5c0,0,109,-145.4,109,-372.2c0,0,0,-245.4,-124.7,-408c0,0,-146.2,-190.9,-417.2,-190.9Z" 
	id="f1_10"
	transform="scale(0.001,-0.001)" />

	<path d="M411.1,89c0,0,92.5,0,152.2,80.2c0,0,59.6,80.2,59.6,230.1c0,0,0,151.4,-61.5,224.2c0,0,-61.4,72.7,-151.8,72.7c0,0,-100.7,0,-163.2,-77.6c0,0,-62.6,-77.6,-62.6,-228.3c0,0,0,-128.3,54.1,-214.8c0,0,54,-86.5,173.2,-86.5ZM369.2,-28.2c0,0,-132.8,0,-230,112.2C139.2,84,42,196.3,42,382.9c0,0,0,174.6,88.7,302.6c0,0,88.7,128,253.5,128c0,0,91.3,0,152.9,-38.9c0,0,35.6,-22.4,80.9,-78.4l0,403.8l129,0L747,0L625.8,0l0,111.4c0,0,-46.7,-74,-110.5,-106.9c0,0,-63.8,-32.7,-146.1,-32.7Z" 
	id="f1_1d"
	transform="scale(0.001,-0.001)" />

	<path d="M413,87c0,0,132.2,0,181.3,100.9c0,0,49.1,100.8,49.1,224.4c0,0,0,111.6,-35.5,181.5c0,0,-56.1,110.2,-193.4,110.2c0,0,-121.9,0,-177.3,-93.8c0,0,-55.3,-93.7,-55.3,-226.2c0,0,0,-127.3,55.3,-212.1c0,0,55.4,-84.9,175.8,-84.9ZM400.3,-28.2c0,0,-163.7,0,-260,111.2C140.3,83,44,194.3,44,382c0,0,0,201,101.5,320.2c0,0,101.5,119.1,272.5,119.1c0,0,153.4,0,259.3,-102.7c0,0,105.9,-102.8,105.9,-302.4c0,0,0,-192.9,-93.3,-318.7c0,0,-93.3,-125.7,-289.6,-125.7Z" 
	id="f1_1o"
	transform="scale(0.001,-0.001)" />

	<path d="M98.8,0l0,798.8l132,0l0,-113.5c0,0,47.8,58.8,86.7,85.7c0,0,66.5,45.4,151,45.4c0,0,95.7,0,154,-46.9c0,0,32.9,-26.8,59.8,-79c0,0,44.8,64.1,105.3,95c0,0,60.4,30.9,135.8,30.9c0,0,161.3,0,219.5,-116.3c0,0,31.4,-62.6,31.4,-168.5L1174.3,0L1034.5,0l0,554.8c0,0,0,79.8,-39.9,109.6c0,0,-40,29.8,-97.4,29.8c0,0,-79.1,0,-136.1,-52.9c0,0,-57.1,-53,-57.1,-176.7L704,0L567.1,0l0,520.9c0,0,0,81.2,-19.4,118.4c0,0,-30.6,55.9,-114.2,55.9c0,0,-76.1,0,-138.5,-58.6c0,0,-62.3,-58.7,-62.3,-213.1L232.7,0Z" 
	id="f1_1m"
	transform="scale(0.001,-0.001)" />

	<path d="M98.8,0l0,794.9l136.8,0L235.6,0Zm0,943.6l0,152.5l136.8,0l0,-152.5Z" 
	id="f1_1i"
	transform="scale(0.001,-0.001)" />

	<path d="M98.8,0l0,798.8l127.1,0l0,-114c0,0,56.7,70.3,120.2,101c0,0,63.4,30.6,141.1,30.6c0,0,170.2,0,229.9,-118.5c0,0,32.9,-64.9,32.9,-185.7L750,0L613.1,0l0,503c0,0,0,73,-21.6,117.7c0,0,-35.8,74.5,-129.8,74.5c0,0,-47.7,0,-78.3,-9.7c0,0,-55.2,-16.4,-97,-65.5c0,0,-33.6,-39.6,-43.6,-81.6c0,0,-10.1,-42.1,-10.1,-120.4l0,-418Z" 
	id="f1_1n"
	transform="scale(0.001,-0.001)" />

	<path d="M344.9,88c0,0,71,0,137.5,32.5c0,0,112.1,53.9,112.1,177.6l0,108c0,0,-24.6,-15.8,-63.3,-26.3c0,0,-38.7,-10.6,-76,-14.9L374,354.8c0,0,-73,-9.4,-110,-30.3c0,0,-62.6,-34.9,-62.6,-111.5c0,0,0,-58.1,42.6,-91.5c0,0,42.6,-33.5,100.9,-33.5Zm-31,-114.3c0,0,-111.3,0,-181.8,67.3c0,0,-70.5,67.4,-70.5,168.6c0,0,0,110.9,69.4,172c0,0,69.4,61,182.1,75.2l214.3,26.8c0,0,46.2,6,61.9,38.8c0,0,9.1,17.9,9.1,51.6c0,0,0,68.9,-48.8,99.9c0,0,-48.8,31.1,-139.7,31.1c0,0,-105.1,0,-149.1,-56.9c0,0,-24.6,-31.5,-32,-93.7l-125.2,0c0,0,3.8,148.1,95.7,206c0,0,92,58,213.4,58c0,0,140.8,0,228.6,-53.7c0,0,87.2,-53.7,87.2,-167.2l0,-460.3c0,0,0,-20.9,8.5,-33.6c0,0,8.6,-12.7,36.3,-12.7c0,0,9,0,20.2,1.2c0,0,11.2,1.1,23.9,3.3l0,-99.3c0,0,-31.3,-9.1,-47.7,-11.3c0,0,-16.4,-2.3,-44.7,-2.3c0,0,-69.4,0,-100.7,49.3c0,0,-16.4,26.2,-23.1,74.1c0,0,-41,-53.5,-117.9,-92.9c0,0,-76.9,-39.3,-169.4,-39.3Z" 
	id="f1_1a"
	transform="scale(0.001,-0.001)" />

	<path d="M287.1,-12.6c0,0,-93.9,0,-127.4,48c0,0,-33.6,48.1,-33.6,125l0,528.9l-108.5,0l0,109.5l108.5,0l0,223l135.9,0l0,-223l127.2,0l0,-109.5l-127.2,0l0,-521.5c0,0,0,-41.8,28.3,-56c0,0,15.6,-8.2,52,-8.2c0,0,9.7,0,20.8,0.5c0,0,11.2,0.5,26.1,2.5L389.2,0c0,0,-23.1,-6.6,-48.1,-9.6c0,0,-25,-3,-54,-3Z" 
	id="f1_1t"
	transform="scale(0.001,-0.001)" />

	<path d="M640.5,462.5c0,0,-8.2,87.3,-37.8,139.6c0,0,-54.9,97,-183.1,97c0,0,-91.9,0,-154.2,-66.8c0,0,-62.2,-66.8,-65.9,-169.8ZM407.6,-28.2c0,0,-148.5,0,-251.6,108.3C156,80.1,52.8,188.6,52.8,384c0,0,0,192.3,103.9,312.4c0,0,103.8,120,271.5,120c0,0,84.5,0,163.9,-39.9c0,0,79.4,-40,120.9,-103.4c0,0,40.1,-60.5,53.4,-141.2c0,0,11.9,-55.2,11.9,-176l-581.8,0c0,0,3.7,-121.7,57.1,-195.3C253.6,160.6,307,87,419,87c0,0,104.6,0,166.9,69.7c0,0,35.1,40.4,49.7,93.6l132,0c0,0,-5.2,-43.9,-34.7,-98c0,0,-29.4,-54,-65.8,-88.3c0,0,-60.8,-59.6,-150.5,-80.3c0,0,-48.2,-11.9,-109,-11.9Z" 
	id="f1_1e"
	transform="scale(0.001,-0.001)" />

	<path d="M385,-30.2c0,0,-180.5,0,-255.7,80.9c0,0,-75.1,81.1,-80.4,200.6l129.1,0c0,0,6.1,-67.3,34.2,-103.2c0,0,51.8,-65,179.7,-65c0,0,76.1,0,134,32.4c0,0,57.8,32.4,57.8,100.2c0,0,0,51.4,-46.2,78.2c0,0,-29.5,16.4,-116.7,38L312.4,358.8c0,0,-103.9,25.3,-153.1,56.6c0,0,-87.9,54.4,-87.9,150.6c0,0,0,113.3,82.8,183.3c0,0,82.9,70.1,222.8,70.1c0,0,183.1,0,264.1,-105.8c0,0,50.7,-67.1,49.2,-144.5l-127.1,0c0,0,-3.8,45.2,-32.8,82.3c0,0,-47.3,52.6,-164.1,52.6c0,0,-77.9,0,-118,-29c0,0,-40,-29,-40,-76.5c0,0,0,-52.1,52.6,-83.3c0,0,30.4,-18.5,89.6,-32.7l90.4,-21.6c0,0,147.3,-35.1,197.4,-67.9c0,0,78.4,-51.4,78.4,-161.7c0,0,0,-106.6,-82,-184.1c0,0,-81.9,-77.4,-249.7,-77.4Z" 
	id="f1_1s"
	transform="scale(0.001,-0.001)" />

	<path d="M98.8,0l0,1100l133.9,0l0,-409.3c0,0,47.8,60.5,85.9,85.1c0,0,64.9,42.6,161.9,42.6c0,0,173.9,0,235.9,-121.6c0,0,33.6,-66.4,33.6,-184.3L750,0L612.1,0l0,503.5c0,0,0,88,-22.4,129c0,0,-36.6,65.6,-137.4,65.6c0,0,-83.7,0,-151.6,-57.4c0,0,-68,-57.4,-68,-217L232.7,0Z" 
	id="f1_1h"
	transform="scale(0.001,-0.001)" />

	<path d="M102.7,0l0,1096.1l133.9,0L236.6,0Z" 
	id="f1_1l"
	transform="scale(0.001,-0.001)" />

	<path d="M102.7,0l0,798.8l127.1,0l0,-138.4c0,0,15.7,40.3,77.1,98.2c0,0,61.4,57.8,141.5,57.8c0,0,3.7,0,12.7,-0.7c0,0,9,-0.8,30.7,-3.2l0,-141.7c0,0,-11.9,2.3,-22,3.1c0,0,-10.2,0.8,-22.1,0.8c0,0,-101.8,0,-156.4,-65.3c0,0,-54.7,-65.3,-54.7,-150.3L236.6,0Z" 
	id="f1_1r"
	transform="scale(0.001,-0.001)" />

	<path d="M95.8,0l0,1096.1l129.1,0l0,-636.5L568.8,798.8l171.4,0L433.7,502L757.5,0L586,0L335,406.6L224.9,299.8L224.9,0Z" 
	id="f1_1k"
	transform="scale(0.001,-0.001)" />

	<path d="M384.4,99.7c0,0,143.5,0,202,130.8c0,0,32.6,74,32.6,172.6c0,0,0,148.7,-60.7,220.4c0,0,-60.7,71.7,-154.7,71.7c0,0,-140.6,0,-192.4,-133c0,0,-27.4,-71,-27.4,-186c0,0,0,-135.3,54.4,-205.9c0,0,54.4,-70.6,146.2,-70.6Zm0.1,-437.9c0,0,-128.4,0,-216,57.8c0,0,-87.6,57.7,-98.1,180.8l136.9,0c0,0,9.6,-53.6,38.4,-82.5c0,0,45.2,-44.6,142.1,-44.6c0,0,153.1,0,200.4,108.8c0,0,28.1,64.2,25.9,228.8c0,0,-40.1,-61.1,-96.4,-90.9c0,0,-56.4,-29.7,-149.1,-29.7c0,0,-129.1,0,-225.9,92.1c0,0,-96.7,92.2,-96.7,304.9c0,0,0,200.8,97.4,313.5c0,0,97.5,112.7,235.4,112.7c0,0,93.4,0,163.1,-46.1c0,0,37.8,-26.1,77.1,-75.9l0,99.5l124.1,0l0,-726.5c0,0,0,-152.1,-44.5,-240.1c0,0,-83.2,-162.6,-314.1,-162.6Z" 
	id="f1_1g"
	transform="scale(0.001,-0.001)" />

	<path d="M435.1,90.9c0,0,94.2,0,156.6,78.6c0,0,62.4,78.6,62.4,234.9c0,0,0,95.4,-27.6,163.9c0,0,-52.3,131.8,-191.4,131.8c0,0,-139.8,0,-191.3,-139.3c0,0,-27.7,-74.4,-27.7,-189.1c0,0,0,-92.3,27.7,-157.1c0,0,52.3,-123.7,191.3,-123.7ZM87,-318.6L87,794.9l131.1,0l0,-106c0,0,40.3,54.7,88.1,84.6c0,0,68,44.9,160,44.9c0,0,136,0,230.9,-104c0,0,94.9,-104,94.9,-297.1c0,0,0,-261,-137,-372.9c0,0,-86.8,-70.7,-202,-70.7c0,0,-90.6,0,-152,39.5c0,0,-35.9,22.4,-80,77l0,-408.8Z" 
	id="f1_1p"
	transform="scale(0.001,-0.001)" />

	<path d="M132,0l0,689.3l-111.5,0l0,105.6l111.5,0l0,125.6c0,0,3,83.6,29.1,122.5c0,0,46.9,68.7,181.2,68.7c0,0,12.6,0,26,-0.7c0,0,13.5,-0.7,30.6,-2.2l0,-122.2c0,0,-21,1.3,-30.4,1.6c0,0,-9.5,0.3,-17.7,0.3c0,0,-61.8,0,-73.8,-31.7c0,0,-12,-31.8,-12,-161.9l133.9,0l0,-105.6l-133.9,0L265,0Z" 
	id="f1_1f"
	transform="scale(0.001,-0.001)" />

	<path d="M387.3,-23.4c0,0,-156.7,0,-250,114.4C137.3,91,44,205.4,44,376.9c0,0,0,210.3,102.2,327.4c0,0,102.3,117,260.5,117c0,0,135.1,0,219.8,-65.5c0,0,84.7,-65.6,102,-225.8l-131,0c0,0,-12,73.6,-54.6,122.3c0,0,-42.5,48.8,-136.6,48.8c0,0,-128.5,0,-183.7,-125.1c0,0,-35.8,-81.2,-35.8,-200.4c0,0,0,-119.8,50.7,-201.8c0,0,50.8,-81.9,159.8,-81.9c0,0,83.7,0,132.6,51c0,0,48.9,51.1,67.6,139.7l131,0c0,0,-22.5,-159,-112.1,-232.5c0,0,-89.5,-73.5,-229.1,-73.5Z" 
	id="f1_1c"
	transform="scale(0.001,-0.001)" />

	<path d="M243.4,0L13.2,798.8l146.9,0L313.4,169.3L469.3,798.8l150.8,0L776.8,173l163,625.8l134.3,0L842.4,0L702.9,0L540.2,618.4L382.8,0Z" 
	id="f1_1w"
	transform="scale(0.001,-0.001)" />

	<path d="M580.5,127.1c0,0,137.6,0,196.2,79c0,0,36.8,49.9,36.8,120.7c0,0,0,119.2,-107.5,162.5c0,0,-57.1,23.1,-151,23.1l-296.9,0l0,-385.3Zm-50,505.5c0,0,94.8,0,147.5,26.1c0,0,82.7,41,82.7,147.7c0,0,0,107.3,-88,144.6c0,0,-49.7,20.9,-147.5,20.9l-267.1,0l0,-339.3ZM112.4,0l0,1096.1l473.5,0c0,0,193.6,0,275.4,-115c0,0,48,-67.9,48,-156.7c0,0,0,-103.7,-59,-170.2c0,0,-30.6,-35.1,-88.1,-64.2c0,0,84.3,-32,126.1,-72.3c0,0,73.8,-71.6,73.8,-197.7c0,0,0,-105.9,-66.7,-191.7C895.4,128.3,795.6,0,578.2,0Z" 
	id="f1_p"
	transform="scale(0.001,-0.001)" />

	<path d="M47.9,0c0,0,7.5,138.3,57.4,240.4c0,0,49.8,102.2,193.5,185.7l143,82.8c0,0,96,55.9,134.7,95.5c0,0,61,62,61,141.9c0,0,0,93.4,-55.8,148.2c0,0,-55.8,54.9,-148.8,54.9c0,0,-137.6,0,-190.5,-104.6c0,0,-28.2,-56.1,-31.2,-155.5l-136.9,0c0,0,2.2,139.4,51.4,227.3c0,0,87.2,155,307.9,155c0,0,183.3,0,267.9,-99.1c0,0,84.6,-99.1,84.6,-220.6c0,0,0,-128.2,-90.3,-219.2c0,0,-52.3,-52.9,-187,-128.2L406.9,347.8c0,0,-72.9,-40.2,-114.9,-76.8c0,0,-75,-64.9,-94.5,-143.9l583.8,0L781.3,0Z" 
	id="f1_f"
	transform="scale(0.001,-0.001)" />

	<path d="M127.1,-226.7l0,70.4c0,0,51.4,9,72.2,72.6c0,0,11.2,33.7,11.2,65.1c0,0,0,5.2,-0.3,9.3c0,0,-0.4,4.2,-1.9,9.3L127.1,0l0,162.3l159.4,0l0,-150.6c0,0,0,-88.6,-35.8,-155.7c0,0,-35.7,-67.1,-123.6,-82.7Z" 
	id="f1_9"
	transform="scale(0.001,-0.001)" />

	<path d="M553.1,-28.2c0,0,-188.7,0,-316.9,115.4c0,0,-168.7,152.9,-168.7,472.1c0,0,0,242.4,126.7,397.5c0,0,136.9,168.6,377.8,168.6c0,0,205.5,0,319,-109.6c0,0,113.4,-109.7,125.9,-249.2l-144.7,0c0,0,-24.1,105.9,-96.3,167.9c0,0,-72.1,61.9,-202.5,61.9c0,0,-158.9,0,-256.6,-113.7C316.8,882.7,219,769,219,534.2c0,0,0,-192.3,88.3,-311.9c0,0,88.3,-119.6,263.5,-119.6c0,0,161.2,0,245.5,125.9c0,0,44.7,66.2,66.7,174.2l144.7,0c0,0,-19.2,-173,-126.8,-290.2c0,0,-129,-140.8,-347.8,-140.8Z" 
	id="f1_q"
	transform="scale(0.001,-0.001)" />

	<path d="M8.2,0L289.4,409.5L22.4,798.8l173.8,0L379.7,517.6L565.5,798.8l163.3,-3.7L459.5,409.5L740.8,0L569.2,0L370.8,299.8L178.3,0Z" 
	id="f1_1x"
	transform="scale(0.001,-0.001)" />

	<path d="M-0.4,0l348,1096.1l113.4,0L112.9,0Z" 
	id="f1_c"
	transform="scale(0.001,-0.001)" />

	<path d="M131,0l0,162.3l155.5,0L286.5,0Z" 
	id="f1_b"
	transform="scale(0.001,-0.001)" />

	<path d="M116.4,0l0,1096.1l148.6,0L265,130l548.5,0l0,-130Z" 
	id="f1_x"
	transform="scale(0.001,-0.001)" />

	<path d="M357.1,-21.4c0,0,-167.6,0,-228.4,114c0,0,-32.9,61.1,-32.9,163.3l0,542.9l136.9,0l0,-530.4c0,0,0,-61.2,18.9,-100c0,0,34.9,-71.6,130,-71.6c0,0,136.6,0,186,125.3c0,0,26.9,67.2,26.9,184.3l0,392.4l134,0L728.5,0L602.3,0l1.5,117.7c0,0,-25.6,-45.4,-63.7,-76.7c0,0,-75.4,-62.4,-183,-62.4Z" 
	id="f1_1u"
	transform="scale(0.001,-0.001)" />

	<path d="M303.2,0L8.3,798.8l155.9,0L377.9,148.4L600.6,798.8l146.9,0L446.5,0Z" 
	id="f1_1v"
	transform="scale(0.001,-0.001)" />

	<path d="M63.6,356.9l0,137.9l374.5,0l0,-137.9Z" 
	id="f1_a"
	transform="scale(0.001,-0.001)" />

	<path d="M112.4,0l0,1096.1l211.7,0L639,169.4l312.4,926.7l210.2,0L1161.6,0L1020.8,0l0,646.9c0,0,0,33.6,1.5,111.2c0,0,1.4,77.6,1.4,166.4L711.3,0L564.4,0l-316,924.5l0,-33.6c0,0,0,-40.3,2.4,-122.7c0,0,2.4,-82.5,2.4,-121.3L253.2,0Z" 
	id="f1_y"
	transform="scale(0.001,-0.001)" />

	<path d="M98.5,0L332,1100l228.2,0L326.7,0Z" 
	id="f2_b"
	transform="scale(0.001,-0.001)" />

	<path d="M95.5,0L267.8,811.6l206.7,0L449.1,693c0,0,52.9,63.5,94,90.3c0,0,71.6,47.8,170.1,47.8c0,0,93.2,0,142.4,-41.1c0,0,38.1,-38,49.3,-97.7c0,0,56.7,71.6,126,105.2c0,0,72.4,33.6,153,33.6c0,0,53.7,0,101.4,-20.9c0,0,47.8,-20.9,79.8,-73.1c0,0,24.7,-42.5,23.9,-104.5c0,0,-1.5,-41,-17.9,-120.1L1260.7,0L1042.9,0l109.6,517.5c0,0,9.7,46.2,1.5,76c0,0,-16.4,56.7,-92.5,56.7c0,0,-88,0,-137.2,-73.1c0,0,-25.4,-38.7,-37.3,-93.2L784.8,0L570.7,0L672.9,484.1c0,0,15.6,72.4,7.4,105.2c0,0,-14.1,59,-92.5,59c0,0,-91,0,-135,-59c0,0,-23.9,-33.5,-38,-99.9L311.1,0Z" 
	id="f2_w"
	transform="scale(0.001,-0.001)" />

	<path d="M510.2,155.5c0,0,88.8,0,150,68.6c0,0,61.2,68.6,85,182.6c0,0,20.2,94,-7.4,166.3c0,0,-27.6,72.3,-123.8,72.3c0,0,-115.7,0,-182.1,-109.6c0,0,-34.3,-58.1,-53.7,-147.6c0,0,-29.8,-141.7,32.8,-199.1c0,0,38.1,-33.5,99.2,-33.5ZM24.6,-319.6l241,1133.1l203.6,0L443.9,693.1c0,0,45.5,52.9,91,83.5c0,0,82,54.5,179.7,54.5c0,0,142.5,0,219,-105.1c0,0,76.5,-105.1,33.2,-308.7c0,0,-45.5,-214.7,-166,-327.2c0,0,-120.5,-112.5,-272.6,-112.5c0,0,-97,0,-150.7,48.3c0,0,-29.9,26.8,-52.3,78.2L235,-319.6Z" 
	id="f2_z"
	transform="scale(0.001,-0.001)" />

	<path d="M97,0L269.3,813.5l202.9,0L442.4,671.3c0,0,66.4,81.1,108.9,110.9c0,0,70.9,49.9,166.3,49.9c0,0,6,0,10.1,-0.5c0,0,4.1,-0.5,17.5,-1.5L699,613.1c0,0,-19.4,2.3,-35.1,3.1c0,0,-15.6,0.8,-25.3,0.8c0,0,-128.4,0,-190.3,-83.6c0,0,-34.3,-47,-55.2,-144.7L311.1,0Z" 
	id="f2_10"
	transform="scale(0.001,-0.001)" />

	<path d="M495.3,149.6c0,0,93.3,0,157.4,66.4c0,0,64.2,66.4,90.3,188.7c0,0,26.1,122.3,-10.1,188.3c0,0,-36.2,66,-129.4,66c0,0,-93.3,0,-157.4,-66c0,0,-64.2,-66,-90.3,-188.3c0,0,-26.1,-122.3,10.1,-188.7c0,0,36.2,-66.4,129.4,-66.4ZM458,-28.2c0,0,-209.6,0,-285.3,127c0,0,-75.7,127.1,-37.7,306.1c0,0,37.3,176,167.9,305c0,0,130.5,129,340.1,129c0,0,209.7,0,285,-129c0,0,75.4,-129,38,-305c0,0,-38,-179,-168.2,-306.1c0,0,-130.1,-127,-339.8,-127Z" 
	id="f2_y"
	transform="scale(0.001,-0.001)" />

	<path d="M311.1,0L191.7,813.5l238.7,0l41.8,-600l300.6,600l228.3,0L535.6,0Z" 
	id="f2_14"
	transform="scale(0.001,-0.001)" />

	<path d="M688.5,487.9c0,0,12.7,84.6,-24.2,128.3c0,0,-36.9,43.8,-104.8,43.8c0,0,-73.9,0,-124.2,-46.4c0,0,-50.4,-46.4,-77.2,-125.7ZM421.5,-26.3c0,0,-155.2,0,-252.5,99.8c0,0,-97.4,100,-49.6,325.2c0,0,44.7,211.1,175.6,323.7c0,0,131,112.6,301.8,112.6c0,0,101.4,0,174.9,-38c0,0,73.5,-38,108.6,-120.1c0,0,32.8,-72.3,26.1,-167.7c0,0,-3,-56,-26.9,-161.1l-556.5,0c0,0,-21.6,-122.5,40.3,-171.8c0,0,37.3,-30.6,99.2,-30.6c0,0,65.7,0,114.9,37.5c0,0,26.1,20.3,51.5,56.4l217,0c0,0,-23.8,-72.5,-106.6,-147.2c0,0,-129.8,-118.7,-317.8,-118.7Z" 
	id="f2_p"
	transform="scale(0.001,-0.001)" />

	<path d="M102.2,0L274.5,813.1l215.6,0L317.8,0ZM295.4,910.3l41.8,196.5l215.6,0L511,910.3Z" 
	id="f2_t"
	transform="scale(0.001,-0.001)" />

	<path d="M417.8,-27.3c0,0,-191.8,0,-266,80.9c0,0,-74.2,81.1,-48.1,206.5l215.6,0c0,0,-5.2,-56.8,12.7,-80.6c0,0,29.8,-42.6,136.5,-42.6c0,0,62.6,0,103.7,18.6c0,0,41,18.7,49.2,55.9c0,0,7.5,35.8,-18.6,54.4c0,0,-26.2,18.7,-208.2,64.1c0,0,-130.5,34.3,-176,85.7c0,0,-46.3,50.7,-25.4,146.1c0,0,23.9,112.6,129.4,193.4c0,0,105.6,80.9,266,80.9c0,0,152.2,0,235,-60.8c0,0,82.8,-60.8,65.6,-210l-212.6,0c0,0,3.7,41.1,-9.7,65.1c0,0,-26.1,43.4,-110.4,43.4c0,0,-69.4,0,-103.3,-21.6c0,0,-34,-21.7,-39.9,-50.8c0,0,-8.2,-36.5,20.1,-52.9c0,0,27.6,-17.2,208.9,-58.9c0,0,120.1,-29.9,170.8,-90.3c0,0,50,-61.1,30.6,-152.9c0,0,-26.1,-120.8,-132,-197.2c0,0,-106,-76.4,-293.9,-76.4Z" 
	id="f2_11"
	transform="scale(0.001,-0.001)" />

	<path d="M516.2,153.5c0,0,82.1,0,141.8,66.4c0,0,59.6,66.5,82.8,174.7c0,0,18.6,86.5,8.2,143.3c0,0,-20.2,107.4,-134.3,107.4c0,0,-115.6,0,-181.3,-105.2c0,0,-34.3,-56,-53,-144.8c0,0,-22.3,-104.5,9.4,-173.1c0,0,31.7,-68.7,126.4,-68.7ZM535.6,-21.4c0,0,-100.7,0,-152.9,40.1c0,0,-31.3,23.8,-61.2,83.4L299.9,0L91.8,0L324.5,1098l211.9,0L453.6,707.3c0,0,52.2,56.7,107.4,86.5c0,0,64.9,37.3,153.6,37.3c0,0,160.4,0,226.5,-115.6c0,0,66,-115.6,27.2,-298.4c0,0,-40.3,-189.5,-156.3,-314c0,0,-116,-124.5,-276.4,-124.5Z" 
	id="f2_m"
	transform="scale(0.001,-0.001)" />

	<path d="M103.7,0L337.2,1100l212.6,0L316.3,0Z" 
	id="f2_v"
	transform="scale(0.001,-0.001)" />

	<path d="M358,-11.7c-34.3,0,-148.3,3.7,-184.9,52.2c0,0,-27.6,36.6,-12,112.7L267.8,654.1l-113.4,0l32.1,151.6l113.4,0l48.5,226.8l210.3,0L510.2,805.7l132.1,0L610.2,654.1l-132,0.1l-91.8,-430c0,0,-10.4,-50,-0.4,-62.3c0,0,10.1,-12.3,75,-12.3c0,0,9.7,0,20.5,0.5c0,0,10.9,0.5,22,1.5L469.2,-7.9L367.8,-11.6c0,0,-3.6,-0.1,-9.8,-0.1Z" 
	id="f2_12"
	transform="scale(0.001,-0.001)" />

	<path d="M158.9,-328.4c0,0,-28.4,0,-45.5,0.3c0,0,-17.2,0.4,-50.7,2.6l35.8,170.1l26.8,-1.5c0,0,6,-0.3,15.2,-0.3c11.6,0,28.3,0.5,44.5,2.5c0,0,29.1,3.8,51.5,17.2c0,0,21.6,12.7,46.2,52.9c0,0,24.6,40.3,23.2,49.3L188,813.5l236.5,0l50,-599.7L769.9,813.5l226,0L546.8,13.8c0,0,-129.8,-231.1,-188.4,-286.7c0,0,-58.5,-55.5,-199.5,-55.5Z" 
	id="f2_17"
	transform="scale(0.001,-0.001)" />

	<path d="M484.9,151.6c0,0,52.2,0,103.7,24.2c0,0,51.5,24.2,87.3,54.1L527.4,479.1c0,0,-91,-53,-125.3,-93.3c0,0,-34.3,-40.3,-44.8,-88.8c0,0,-11.2,-54.4,23.5,-99.9c0,0,34.7,-45.5,104.1,-45.5ZM640.8,708.5c0,0,51.5,31.3,76.1,52.9c0,0,45.5,40.3,55.2,87.3c0,0,7.4,34.3,-9.3,61.2c0,0,-16.8,26.8,-62.3,26.8c0,0,-28.4,0,-56,-15.6c0,0,-42.5,-23.2,-52.9,-73.1c0,0,-6,-29.9,7.4,-62.7c0,0,9,-21.6,41.8,-76.8ZM431.9,-26.3c0,0,-167.1,0,-240.2,98.4c0,0,-73.1,98.4,-47.7,218.5c0,0,20.9,99.2,85.4,170c0,0,64.5,70.9,191.3,140.2L446.8,615c0,0,-36.5,53.7,-50.7,109.6c0,0,-14.2,56,-1.5,116.4c0,0,25.4,120.1,120.5,187.6c0,0,95.1,67.5,223.4,67.5c0,0,117.1,0,178.7,-69c0,0,61.5,-69,39.2,-176.4c0,0,-20.9,-97,-79.5,-157.4c0,0,-58.6,-60.4,-158.5,-111.9L833.3,389c0,0,35,38.8,59.3,84.3c0,0,24.2,45.5,36.2,96.2l188.7,0c0,0,-26.1,-100,-91,-202.1c0,0,-35.8,-57.5,-104.5,-126.8L1071.2,0.4l-258.1,0L756.4,93.7c0,0,-66.4,-51.5,-119.3,-76.1c0,0,-94,-43.9,-205.2,-43.9Z" 
	id="f2_3"
	transform="scale(0.001,-0.001)" />

	<path d="M387.9,129.1c0,0,68.6,0,135,40.3c0,0,66.4,40.2,91.8,146.9l16.4,79.1c0,0,-22.4,-12.7,-44.8,-20.5c0,0,-22.3,-7.9,-59.6,-14.6l-49.3,-8.9c0,0,-70.1,-12,-102.9,-29.1c0,0,-55.2,-29.1,-67.9,-90.3c0,0,-11.9,-54.4,13.1,-78.7c0,0,25,-24.2,68.2,-24.2ZM292.4,-25.3c0,0,-110.4,0,-168.9,62.9c0,0,-58.6,63.1,-34,178.8c0,0,32.1,150,161.9,217.2c0,0,70.9,36.5,197.7,52.2l73.8,9c0,0,61.2,7.4,88.8,18.6c0,0,49.2,19.4,58.2,60.5c0,0,10.4,50,-20.2,69c0,0,-30.5,19.1,-97.7,19.1c0,0,-75.3,0,-114.9,-37.2c0,0,-27.5,-27.5,-45.5,-74.3l-205.1,0c0,0,29.8,106.6,97,175.2c0,0,107.4,107.4,312.5,107.4c0,0,133.6,0,226.1,-53c0,0,92.5,-53,61.2,-200.1L803.4,206.7c0,0,-8.2,-38.8,-17.9,-94.1c0,0,-6.7,-41.7,0.4,-56.6c0,0,7.1,-15,25.7,-24.7L805.7,0L574.4,0c0,0,-4.5,24.6,-3.7,46.2c0,0,0.7,21.7,4.4,49.3c0,0,-54.4,-47.8,-118.6,-81.4c0,0,-77.5,-39.4,-164.1,-39.4Z" 
	id="f2_l"
	transform="scale(0.001,-0.001)" />

	<path d="M100.7,0L273,811.6l205.2,0L452.8,693.4c0,0,54.5,62.8,97,90.4c0,0,76.1,49.3,176.8,49.3c0,0,126.1,0,192.1,-66.1c0,0,66,-66.1,33.9,-219.1L836.2,0L618.4,0L722.9,494.9c0,0,14.1,64.1,3.7,98.5c0,0,-17.9,62.7,-105.9,62.7c0,0,-108.2,0,-167.9,-91.8c0,0,-31.3,-48.6,-47,-123.9L312.6,0Z" 
	id="f2_x"
	transform="scale(0.001,-0.001)" />

	<path d="M97,0L329.7,1096.1l208.9,0L412.5,503.6l329.8,306l263.3,0L655,498.4L845.2,0L588.6,0L467.7,347.7L359.6,255.9L305.9,0Z" 
	id="f2_u"
	transform="scale(0.001,-0.001)" />

	<path d="M484.9,174.1c0,0,74.6,0,138,56.4c0,0,63.4,56.4,89.5,179.8c0,0,24.6,115.9,-11.2,176.4c0,0,-35.8,60.6,-117.8,60.6c0,0,-111.9,0,-176.8,-105.4c0,0,-34.4,-56.1,-52.3,-138.3c0,0,-14.9,-71.1,-2.2,-126.4c0,0,20.9,-103.1,132.8,-103.1ZM361.1,-332.3c0,0,-155.9,0,-241.4,61c0,0,-85.4,61.1,-70.5,182.4l231.3,0c0,0,1.5,-37,17.9,-53.2c0,0,28.3,-28.9,109.7,-28.9c0,0,114.8,0,170,76.6c0,0,35.9,49.1,60.5,165l11.1,52.1c0,0,-41.7,-52.1,-82.8,-78.2c0,0,-73.8,-48.3,-175.3,-48.3c0,0,-156.6,0,-226.7,110c0,0,-70.2,110.1,-29.9,298.3c0,0,38.1,181.4,154.8,305c0,0,116.8,123.6,282.4,123.6c0,0,61.1,0,102.2,-18.9c0,0,70.8,-32,100.7,-117.8l24.6,117.1l206.6,0L842.2,42.1c0,0,-32.8,-157.3,-102.9,-237.2c0,0,-120.1,-137.2,-378.2,-137.2Z" 
	id="f2_r"
	transform="scale(0.001,-0.001)" />

	<path d="M32.8,-259L50,-176.9c0,0,67.9,18,107,59.8c0,0,39.2,41.8,60.1,117.1L88,0l47,222l229.8,0L323.8,29.5c0,0,-10.5,-50.6,-35.8,-105.8c0,0,-25.4,-55.2,-70.2,-95.4c0,0,-49.2,-43.3,-107,-65.3c0,0,-57.8,-22,-78,-22Z" 
	id="f2_4"
	transform="scale(0.001,-0.001)" />

	<path d="M427.5,-28.2c0,0,-196.2,0,-263.8,116.3c0,0,-67.5,116.4,-27.9,302.3c0,0,44,209.8,171.2,326.2c0,0,127.2,116.5,307,116.5c0,0,152.9,0,235.7,-68.6c0,0,82.8,-68.6,63.4,-242.4l-217.8,0c0,0,3.7,45.4,-13.5,81.9c0,0,-25.3,49.2,-100.7,49.2c0,0,-107.4,0,-169.3,-106.9c0,0,-32.8,-56.8,-53,-150.9c0,0,-18.6,-89.6,-9.7,-144.2c0,0,16.4,-101.6,121.6,-101.6c0,0,74.6,0,114.5,40.3c0,0,39.9,40.3,60.1,104.4l217.1,0c0,0,-27.6,-96.9,-109,-183.3c0,0,-129.8,-139.2,-325.9,-139.2Z" 
	id="f2_n"
	transform="scale(0.001,-0.001)" />

	<path d="M134.3,0L273,656.1l-118.6,0l32.1,149.6l116.4,0l11.2,52.2c0,0,27.6,130.5,82,179.8c0,0,61.9,73.1,238.7,73.1c0,0,20.2,0,36.2,-1.3c0,0,16.1,-1.2,44.4,-3.6L678.1,933.1c0,0,-17.2,2.2,-58.9,3.3c0,0,-0.5,0,-1.2,0c-7.1,0,-42.7,-0.9,-61.1,-18.6c0,0,-20.5,-19.8,-25,-43.6c0,0,-5.2,-23.8,-14.9,-68.5l139.5,0L624.4,656.1l-139.5,0L346.1,0Z" 
	id="f2_q"
	transform="scale(0.001,-0.001)" />

	<path d="M477.4,153.5c0,0,90.3,0,151.8,67.1c0,0,61.6,67.1,84,173.7c0,0,31.3,149.1,-29.9,213.3c0,0,-38,38.7,-99.2,38.7c0,0,-93.2,0,-151.8,-70.4c0,0,-58.6,-70.5,-80.9,-174.9c0,0,-23.9,-112.6,5.9,-180c0,0,29.9,-67.5,120.1,-67.5ZM378.2,-25.3c0,0,-142.5,0,-215.2,115.1c0,0,-72.7,115.2,-34.7,295.6c0,0,44.8,208.1,166,327.4c0,0,121.2,119.3,281.6,119.3c0,0,73.8,0,124.2,-32.5c0,0,50.4,-32.4,74.2,-89.9L856.4,1098l215.6,0L839.2,0L632.6,0l23.9,112.5c0,0,-61.2,-72.3,-126.5,-105.1c0,0,-65.2,-32.7,-151.8,-32.7Z" 
	id="f2_o"
	transform="scale(0.001,-0.001)" />


</defs>
</svg>