<?xml version="1.0" encoding="UTF-8" standalone="no"?>
<!DOCTYPE svg PUBLIC "-//W3C//DTD SVG 1.1//EN"
"http://www.w3.org/Graphics/SVG/1.1/DTD/svg11.dtd">
<svg viewBox="0 0 935 1210" version="1.1" xmlns="http://www.w3.org/2000/svg" xmlns:xlink="http://www.w3.org/1999/xlink">
<defs>
<clipPath id="c0_1"><path d="M27.5,1191.7L27.5,18.3l880,0l0,1173.4Z" /></clipPath>
<clipPath id="c1_1"><path d="M279.3,319.6l0,-156.9l353.1,0l0,156.9Z" /></clipPath>
<clipPath id="c2_1"><path d="M45.1,387l0,-33.4l237.6,0l0,33.4Z" /></clipPath>
<clipPath id="c3_1"><path d="M46.1,476.4l0,-76.3l861.4,0l0,76.3Z" /></clipPath>
<clipPath id="c4_1"><path d="M44.7,616.7l0,-128l836,0l0,128Z" /></clipPath>
<clipPath id="c5_1"><path d="M43.2,677.2l0,-23.4l331.9,0l0,23.4Z" /></clipPath>
<style type="text/css"><![CDATA[
.g1_1{
fill: #FFFFFF;
}
.g2_1{
fill: none;
stroke: #4F81BD;
stroke-width: 3.8194444;
stroke-linecap: butt;
stroke-linejoin: round;
}
.g3_1{
fill: #7F7F7F;
}
]]></style>
</defs>
<g clip-path="url(#c0_1)">
<g fill="#000000" >
<use xlink:href="#f0_6" transform="matrix(10.8,0,0,10.8,899,70.8)" />
<use xlink:href="#f0_6" transform="matrix(10.8,0,0,10.8,110,1129.7)" />
<use xlink:href="#f0_6" transform="matrix(10.8,0,0,10.8,463.2,1129.7)" />
<use xlink:href="#f0_6" transform="matrix(10.8,0,0,10.8,905.9,1129.7)" />
</g>
</g>
<image preserveAspectRatio="none" x="0" y="0" width="934" height="348" xlink:href="img/1.png" />
<image preserveAspectRatio="none" x="69" y="682" width="788" height="399" xlink:href="img/2.png" />
<path fill-rule="evenodd" d="M51.6,1102.8c0,-8.1,6.5,-14.7,14.7,-14.7l807.9,0c8.2,0,14.7,6.6,14.7,14.7l0,58.7c0,8.2,-6.5,14.7,-14.7,14.7l-807.9,0c-8.2,0,-14.7,-6.5,-14.7,-14.7Z" class="g1_1" />
<path d="M51.6,1102.8c0,-8.1,6.5,-14.7,14.7,-14.7l807.9,0c8.2,0,14.7,6.6,14.7,14.7l0,58.7c0,8.2,-6.5,14.7,-14.7,14.7l-807.9,0c-8.2,0,-14.7,-6.5,-14.7,-14.7Z" class="g2_1" />
<image preserveAspectRatio="none" x="58" y="1100" width="825" height="65" xlink:href="img/3.png" />
<path fill-rule="evenodd" d="M279,156.8l354.1,0l0,169l-354.1,0Z" class="g1_1" />
<image preserveAspectRatio="none" x="279" y="163" width="353" height="157" xlink:href="img/4.png" />
<g clip-path="url(#c1_1)">
<g fill="#E36C0A" >
<use xlink:href="#f1_8" transform="matrix(13,0,0,13,290.3,181.8)" />
<use xlink:href="#f1_t" transform="matrix(13,0,0,13,304.6,181.8)" />
<use xlink:href="#f1_o" transform="matrix(13,0,0,13,310.1,181.8)" />
<use xlink:href="#f1_17" transform="matrix(13,0,0,13,327.7,181.8)" />
<use xlink:href="#f1_y" transform="matrix(13,0,0,13,338.7,181.8)" />
<use xlink:href="#f1_13" transform="matrix(13,0,0,13,350.8,181.8)" />
<use xlink:href="#f1_u" transform="matrix(13,0,0,13,368.4,181.8)" />
<use xlink:href="#f1_x" transform="matrix(13,0,0,13,379.8,181.8)" />
<use xlink:href="#f1_y" transform="matrix(13,0,0,13,391.9,181.8)" />
<use xlink:href="#f1_15" transform="matrix(13,0,0,13,404,181.8)" />
<use xlink:href="#f1_12" transform="matrix(13,0,0,13,424.9,181.8)" />
<use xlink:href="#f1_s" transform="matrix(13,0,0,13,431.5,181.8)" />
<use xlink:href="#f1_l" transform="matrix(13,0,0,13,443.6,181.8)" />
<use xlink:href="#f1_12" transform="matrix(13,0,0,13,454.6,181.8)" />
<use xlink:href="#f1_g" transform="matrix(13,0,0,13,466.7,181.8)" />
<use xlink:href="#f1_9" transform="matrix(13,0,0,13,479.9,181.8)" />
<use xlink:href="#f1_e" transform="matrix(13,0,0,13,493.5,181.8)" />
<use xlink:href="#f1_t" transform="matrix(13,0,0,13,514.4,181.8)" />
<use xlink:href="#f1_x" transform="matrix(13,0,0,13,519.9,181.8)" />
<use xlink:href="#f1_n" transform="matrix(13,0,0,13,532,181.8)" />
<use xlink:href="#f1_10" transform="matrix(13,0,0,13,543,181.8)" />
<use xlink:href="#f1_p" transform="matrix(13,0,0,13,550.7,181.8)" />
<use xlink:href="#f1_l" transform="matrix(13,0,0,13,561.7,181.8)" />
<use xlink:href="#f1_11" transform="matrix(13,0,0,13,572.7,181.8)" />
<use xlink:href="#f1_p" transform="matrix(13,0,0,13,583.7,181.8)" />
<use xlink:href="#f1_11" transform="matrix(13,0,0,13,595,181.8)" />
</g>
</g>
<g clip-path="url(#c0_1)">
<g fill="#E36C0A" >
<use xlink:href="#f1_12" transform="matrix(13,0,0,13,290.3,209.3)" />
<use xlink:href="#f1_10" transform="matrix(13,0,0,13,296.9,209.3)" />
<use xlink:href="#f1_l" transform="matrix(13,0,0,13,304.6,209.3)" />
<use xlink:href="#f1_q" transform="matrix(13,0,0,13,315.6,209.3)" />
<use xlink:href="#f1_q" transform="matrix(13,0,0,13,322.2,209.3)" />
<use xlink:href="#f1_t" transform="matrix(13,0,0,13,328.8,209.3)" />
<use xlink:href="#f1_n" transform="matrix(13,0,0,13,334.3,209.3)" />
<use xlink:href="#f1_4" transform="matrix(13,0,0,13,345.3,209.3)" />
<use xlink:href="#f1_v" transform="matrix(13,0,0,13,356.7,209.3)" />
<use xlink:href="#f1_p" transform="matrix(13,0,0,13,362.2,209.3)" />
<use xlink:href="#f1_l" transform="matrix(13,0,0,13,373.2,209.3)" />
<use xlink:href="#f1_o" transform="matrix(13,0,0,13,384.2,209.3)" />
<use xlink:href="#f1_11" transform="matrix(13,0,0,13,396.3,209.3)" />
<use xlink:href="#f1_l" transform="matrix(13,0,0,13,412.8,209.3)" />
<use xlink:href="#f1_x" transform="matrix(13,0,0,13,423.7,209.3)" />
<use xlink:href="#f1_o" transform="matrix(13,0,0,13,435.9,209.3)" />
<use xlink:href="#f1_11" transform="matrix(13,0,0,13,453.4,209.3)" />
<use xlink:href="#f1_l" transform="matrix(13,0,0,13,464.8,209.3)" />
<use xlink:href="#f1_v" transform="matrix(13,0,0,13,475.8,209.3)" />
<use xlink:href="#f1_p" transform="matrix(13,0,0,13,481.3,209.3)" />
<use xlink:href="#f1_11" transform="matrix(13,0,0,13,492.3,209.3)" />
<use xlink:href="#f1_6" transform="matrix(13,0,0,13,503.3,209.3)" />
</g>
<g fill="#404040" >
<use xlink:href="#f2_m" transform="matrix(13,0,0,13,290.3,251.8)" />
<use xlink:href="#f2_c" transform="matrix(13,0,0,13,303.5,251.8)" />
<use xlink:href="#f2_j" transform="matrix(13,0,0,13,317.1,251.8)" />
<use xlink:href="#f2_7" transform="matrix(13,0,0,13,338,251.8)" />
<use xlink:href="#f2_h" transform="matrix(13,0,0,13,354.9,251.8)" />
<use xlink:href="#f2_13" transform="matrix(13,0,0,13,371.7,251.8)" />
<use xlink:href="#f2_15" transform="matrix(13,0,0,13,383.8,251.8)" />
<use xlink:href="#f2_u" transform="matrix(13,0,0,13,391.5,251.8)" />
<use xlink:href="#f2_p" transform="matrix(13,0,0,13,408.4,251.8)" />
<use xlink:href="#f2_u" transform="matrix(13,0,0,13,427.1,251.8)" />
<use xlink:href="#f2_r" transform="matrix(13,0,0,13,438.8,251.8)" />
<use xlink:href="#f2_16" transform="matrix(13,0,0,13,450.9,251.8)" />
<use xlink:href="#f2_y" transform="matrix(13,0,0,13,461.9,251.8)" />
<use xlink:href="#f2_17" transform="matrix(13,0,0,13,467.4,251.8)" />
<use xlink:href="#f2_u" transform="matrix(13,0,0,13,474,251.8)" />
<use xlink:href="#f2_o" transform="matrix(13,0,0,13,491.3,251.8)" />
<use xlink:href="#f2_y" transform="matrix(13,0,0,13,504.5,251.8)" />
<use xlink:href="#f2_16" transform="matrix(13,0,0,13,510,251.8)" />
<use xlink:href="#f2_y" transform="matrix(13,0,0,13,521,251.8)" />
<use xlink:href="#f2_17" transform="matrix(13,0,0,13,526.5,251.8)" />
<use xlink:href="#f2_13" transform="matrix(13,0,0,13,533.1,251.8)" />
<use xlink:href="#f2_15" transform="matrix(13,0,0,13,545.2,251.8)" />
<use xlink:href="#f2_16" transform="matrix(13,0,0,13,552.9,251.8)" />
<use xlink:href="#f2_h" transform="matrix(13,0,0,13,290.3,279.3)" />
<use xlink:href="#f2_13" transform="matrix(13,0,0,13,306.8,279.3)" />
<use xlink:href="#f2_15" transform="matrix(13,0,0,13,318.9,279.3)" />
<use xlink:href="#f2_u" transform="matrix(13,0,0,13,326.7,279.3)" />
<use xlink:href="#f2_n" transform="matrix(13,0,0,13,343.9,279.3)" />
<use xlink:href="#f2_15" transform="matrix(13,0,0,13,356,279.3)" />
<use xlink:href="#f2_q" transform="matrix(13,0,0,13,363.7,279.3)" />
<use xlink:href="#f2_v" transform="matrix(13,0,0,13,374.7,279.3)" />
<use xlink:href="#f2_v" transform="matrix(13,0,0,13,381.3,279.3)" />
<use xlink:href="#f2_y" transform="matrix(13,0,0,13,387.9,279.3)" />
<use xlink:href="#f2_s" transform="matrix(13,0,0,13,393.4,279.3)" />
<use xlink:href="#f2_7" transform="matrix(13,0,0,13,410.2,279.3)" />
<use xlink:href="#f2_h" transform="matrix(13,0,0,13,427.1,279.3)" />
<use xlink:href="#f2_13" transform="matrix(13,0,0,13,443.6,279.3)" />
<use xlink:href="#f2_15" transform="matrix(13,0,0,13,455.7,279.3)" />
<use xlink:href="#f2_u" transform="matrix(13,0,0,13,463.8,279.3)" />
<use xlink:href="#f2_g" transform="matrix(13,0,0,13,480.6,279.3)" />
<use xlink:href="#f2_u" transform="matrix(13,0,0,13,492.7,279.3)" />
<use xlink:href="#f2_q" transform="matrix(13,0,0,13,504.4,279.3)" />
<use xlink:href="#f2_t" transform="matrix(13,0,0,13,515.4,279.3)" />
<use xlink:href="#f2_16" transform="matrix(13,0,0,13,527.5,279.3)" />
</g>
</g>
<g clip-path="url(#c1_1)">
<g fill="#404040" >
<use xlink:href="#f2_h" transform="matrix(13,0,0,13,290.3,306.8)" />
<use xlink:href="#f2_13" transform="matrix(13,0,0,13,306.8,306.8)" />
<use xlink:href="#f2_15" transform="matrix(13,0,0,13,318.9,306.8)" />
<use xlink:href="#f2_u" transform="matrix(13,0,0,13,326.7,306.8)" />
<use xlink:href="#f2_g" transform="matrix(13,0,0,13,343.9,306.8)" />
<use xlink:href="#f2_u" transform="matrix(13,0,0,13,356,306.8)" />
<use xlink:href="#f2_q" transform="matrix(13,0,0,13,367.3,306.8)" />
<use xlink:href="#f2_t" transform="matrix(13,0,0,13,378.7,306.8)" />
<use xlink:href="#f2_16" transform="matrix(13,0,0,13,390.8,306.8)" />
<use xlink:href="#f2_7" transform="matrix(13,0,0,13,401.8,306.8)" />
<use xlink:href="#f2_h" transform="matrix(13,0,0,13,419,306.8)" />
<use xlink:href="#f2_13" transform="matrix(13,0,0,13,435.5,306.8)" />
<use xlink:href="#f2_15" transform="matrix(13,0,0,13,447.6,306.8)" />
<use xlink:href="#f2_u" transform="matrix(13,0,0,13,455.3,306.8)" />
<use xlink:href="#f2_m" transform="matrix(13,0,0,13,472.2,306.8)" />
<use xlink:href="#f2_q" transform="matrix(13,0,0,13,485.8,306.8)" />
<use xlink:href="#f2_10" transform="matrix(13,0,0,13,496.8,306.8)" />
<use xlink:href="#f2_u" transform="matrix(13,0,0,13,502.3,306.8)" />
<use xlink:href="#f2_16" transform="matrix(13,0,0,13,513.6,306.8)" />
</g>
</g>
<image preserveAspectRatio="none" x="45" y="354" width="238" height="33" xlink:href="img/5.png" />
<g clip-path="url(#c2_1)">
<g fill="#000000" >
<use xlink:href="#f3_6" transform="matrix(19.9,0,0,19.9,56.1,382.3)" />
<use xlink:href="#f3_8" transform="matrix(19.9,0,0,19.9,84.3,382.3)" />
<use xlink:href="#f3_7" transform="matrix(19.9,0,0,19.9,102.3,382.3)" />
<use xlink:href="#f3_b" transform="matrix(19.9,0,0,19.9,119.5,382.3)" />
<use xlink:href="#f3_9" transform="matrix(19.9,0,0,19.9,137.5,382.3)" />
<use xlink:href="#f3_a" transform="matrix(19.9,0,0,19.9,146.7,382.3)" />
<use xlink:href="#f3_5" transform="matrix(19.9,0,0,19.9,166.8,382.3)" />
<use xlink:href="#f3_3" transform="matrix(19.9,0,0,19.9,182.2,382.3)" />
<use xlink:href="#f3_4" transform="matrix(19.9,0,0,19.9,199.5,382.3)" />
<use xlink:href="#f3_c" transform="matrix(19.9,0,0,19.9,220,382.3)" />
</g>
</g>
<image preserveAspectRatio="none" x="46" y="400" width="862" height="76" xlink:href="img/6.png" />
<g clip-path="url(#c3_1)">
<g fill="#7F7F7F" >
<use xlink:href="#f4_13" transform="matrix(13,0,0,13,57.1,419.2)" />
<use xlink:href="#f4_1e" transform="matrix(13,0,0,13,70,419.2)" />
<use xlink:href="#f4_1a" transform="matrix(13,0,0,13,81,419.2)" />
<use xlink:href="#f4_1r" transform="matrix(13,0,0,13,92,419.2)" />
<use xlink:href="#f4_1c" transform="matrix(13,0,0,13,98.6,419.2)" />
<use xlink:href="#f4_1h" transform="matrix(13,0,0,13,108.8,419.2)" />
<use xlink:href="#f4_1e" transform="matrix(13,0,0,13,125.3,419.2)" />
<use xlink:href="#f4_1n" transform="matrix(13,0,0,13,136.3,419.2)" />
<use xlink:href="#f4_1g" transform="matrix(13,0,0,13,147.3,419.2)" />
<use xlink:href="#f4_1i" transform="matrix(13,0,0,13,158.3,419.2)" />
<use xlink:href="#f4_1n" transform="matrix(13,0,0,13,162.7,419.2)" />
<use xlink:href="#f4_1e" transform="matrix(13,0,0,13,173.7,419.2)" />
<use xlink:href="#f4_1o" transform="matrix(13,0,0,13,190.2,419.2)" />
<use xlink:href="#f4_1p" transform="matrix(13,0,0,13,201.2,419.2)" />
<use xlink:href="#f4_1t" transform="matrix(13,0,0,13,212.2,419.2)" />
<use xlink:href="#f4_1i" transform="matrix(13,0,0,13,217.7,419.2)" />
<use xlink:href="#f4_1m" transform="matrix(13,0,0,13,222.1,419.2)" />
<use xlink:href="#f4_1i" transform="matrix(13,0,0,13,238.6,419.2)" />
<use xlink:href="#f4_1z" transform="matrix(13,0,0,13,243,419.2)" />
<use xlink:href="#f4_1a" transform="matrix(13,0,0,13,252.9,419.2)" />
<use xlink:href="#f4_1t" transform="matrix(13,0,0,13,264.3,419.2)" />
<use xlink:href="#f4_1i" transform="matrix(13,0,0,13,269.8,419.2)" />
<use xlink:href="#f4_1o" transform="matrix(13,0,0,13,274.2,419.2)" />
<use xlink:href="#f4_1n" transform="matrix(13,0,0,13,285.2,419.2)" />
<use xlink:href="#f4_1i" transform="matrix(13,0,0,13,301.7,419.2)" />
<use xlink:href="#f4_1s" transform="matrix(13,0,0,13,306.1,419.2)" />
<use xlink:href="#f4_1t" transform="matrix(13,0,0,13,321.5,419.2)" />
<use xlink:href="#f4_1h" transform="matrix(13,0,0,13,327,419.2)" />
<use xlink:href="#f4_1e" transform="matrix(13,0,0,13,338,419.2)" />
<use xlink:href="#f4_1p" transform="matrix(13,0,0,13,354.5,419.2)" />
<use xlink:href="#f4_1r" transform="matrix(13,0,0,13,365.9,419.2)" />
<use xlink:href="#f4_1o" transform="matrix(13,0,0,13,372.5,419.2)" />
<use xlink:href="#f4_1c" transform="matrix(13,0,0,13,383.1,419.2)" />
<use xlink:href="#f4_1e" transform="matrix(13,0,0,13,393.4,419.2)" />
<use xlink:href="#f4_1s" transform="matrix(13,0,0,13,404.4,419.2)" />
<use xlink:href="#f4_1s" transform="matrix(13,0,0,13,414.3,419.2)" />
<use xlink:href="#f4_1o" transform="matrix(13,0,0,13,429.7,419.2)" />
<use xlink:href="#f4_1f" transform="matrix(13,0,0,13,440.7,419.2)" />
<use xlink:href="#f4_1i" transform="matrix(13,0,0,13,451.7,419.2)" />
<use xlink:href="#f4_1m" transform="matrix(13,0,0,13,456.1,419.2)" />
<use xlink:href="#f4_1p" transform="matrix(13,0,0,13,472.9,419.2)" />
<use xlink:href="#f4_1r" transform="matrix(13,0,0,13,483.9,419.2)" />
<use xlink:href="#f4_1o" transform="matrix(13,0,0,13,490.5,419.2)" />
<use xlink:href="#f4_1v" transform="matrix(13,0,0,13,501.5,419.2)" />
<use xlink:href="#f4_1i" transform="matrix(13,0,0,13,511.4,419.2)" />
<use xlink:href="#f4_1n" transform="matrix(13,0,0,13,515.8,419.2)" />
<use xlink:href="#f4_1g" transform="matrix(13,0,0,13,526.8,419.2)" />
<use xlink:href="#f4_1t" transform="matrix(13,0,0,13,543.3,419.2)" />
<use xlink:href="#f4_1h" transform="matrix(13,0,0,13,548.8,419.2)" />
<use xlink:href="#f4_1e" transform="matrix(13,0,0,13,559.8,419.2)" />
<use xlink:href="#f2_15" transform="matrix(13,0,0,13,576.3,419.2)" />
<use xlink:href="#f2_q" transform="matrix(13,0,0,13,584,419.2)" />
<use xlink:href="#f2_12" transform="matrix(13,0,0,13,595,419.2)" />
<use xlink:href="#f2_z" transform="matrix(13,0,0,13,607.1,419.2)" />
<use xlink:href="#f2_y" transform="matrix(13,0,0,13,618.5,419.2)" />
<use xlink:href="#f2_12" transform="matrix(13,0,0,13,624,419.2)" />
<use xlink:href="#f2_w" transform="matrix(13,0,0,13,636.1,419.2)" />
<use xlink:href="#f4_1o" transform="matrix(13,0,0,13,653.7,419.2)" />
<use xlink:href="#f4_1f" transform="matrix(13,0,0,13,664.7,419.2)" />
<use xlink:href="#f4_1y" transform="matrix(13,0,0,13,675.7,419.2)" />
<use xlink:href="#f4_1o" transform="matrix(13,0,0,13,685.6,419.2)" />
<use xlink:href="#f4_1u" transform="matrix(13,0,0,13,696.6,419.2)" />
<use xlink:href="#f4_1r" transform="matrix(13,0,0,13,707.6,419.2)" />
<use xlink:href="#f4_1w" transform="matrix(13,0,0,13,719.7,419.2)" />
<use xlink:href="#f4_1e" transform="matrix(13,0,0,13,734,419.2)" />
<use xlink:href="#f4_1b" transform="matrix(13,0,0,13,745,419.2)" />
<use xlink:href="#f4_1p" transform="matrix(13,0,0,13,761.5,419.2)" />
<use xlink:href="#f4_1a" transform="matrix(13,0,0,13,772.5,419.2)" />
<use xlink:href="#f4_1g" transform="matrix(13,0,0,13,783.9,419.2)" />
<use xlink:href="#f4_1e" transform="matrix(13,0,0,13,794.9,419.2)" />
<use xlink:href="#f4_1s" transform="matrix(13,0,0,13,805.9,419.2)" />
<use xlink:href="#f4_1o" transform="matrix(13,0,0,13,821.3,419.2)" />
<use xlink:href="#f4_1n" transform="matrix(13,0,0,13,832.3,419.2)" />
</g>
</g>
<path fill-rule="evenodd" d="M576.3,421.7l71.9,0l0,-0.3l-71.9,0l0,0.3Z" class="g3_1" />
<g clip-path="url(#c0_1)">
<g fill="#7F7F7F" >
<use xlink:href="#f4_1s" transform="matrix(13,0,0,13,57.1,446.3)" />
<use xlink:href="#f4_1e" transform="matrix(13,0,0,13,67,446.3)" />
<use xlink:href="#f4_1a" transform="matrix(13,0,0,13,78,446.3)" />
<use xlink:href="#f4_1r" transform="matrix(13,0,0,13,89,446.3)" />
<use xlink:href="#f4_1c" transform="matrix(13,0,0,13,95.6,446.3)" />
<use xlink:href="#f4_1h" transform="matrix(13,0,0,13,105.9,446.3)" />
<use xlink:href="#f4_1e" transform="matrix(13,0,0,13,122.4,446.3)" />
<use xlink:href="#f4_1n" transform="matrix(13,0,0,13,133.4,446.3)" />
<use xlink:href="#f4_1g" transform="matrix(13,0,0,13,144.4,446.3)" />
<use xlink:href="#f4_1i" transform="matrix(13,0,0,13,155.4,446.3)" />
<use xlink:href="#f4_1n" transform="matrix(13,0,0,13,159.8,446.3)" />
<use xlink:href="#f4_1e" transform="matrix(13,0,0,13,170.8,446.3)" />
<use xlink:href="#f4_1s" transform="matrix(13,0,0,13,181.8,446.3)" />
<use xlink:href="#f4_5" transform="matrix(13,0,0,13,191.7,446.3)" />
<use xlink:href="#f4_1o" transform="matrix(13,0,0,13,201.2,446.3)" />
<use xlink:href="#f4_1r" transform="matrix(13,0,0,13,212.2,446.3)" />
<use xlink:href="#f4_1g" transform="matrix(13,0,0,13,218.8,446.3)" />
<use xlink:href="#f4_1a" transform="matrix(13,0,0,13,229.8,446.3)" />
<use xlink:href="#f4_1n" transform="matrix(13,0,0,13,240.8,446.3)" />
<use xlink:href="#f4_1i" transform="matrix(13,0,0,13,251.8,446.3)" />
<use xlink:href="#f4_1c" transform="matrix(13,0,0,13,256.2,446.3)" />
<use xlink:href="#f4_1o" transform="matrix(13,0,0,13,271.6,446.3)" />
<use xlink:href="#f4_1r" transform="matrix(13,0,0,13,282.6,446.3)" />
<use xlink:href="#f4_1u" transform="matrix(13,0,0,13,294.7,446.3)" />
<use xlink:href="#f4_1n" transform="matrix(13,0,0,13,305.7,446.3)" />
<use xlink:href="#f4_1p" transform="matrix(13,0,0,13,316.7,446.3)" />
<use xlink:href="#f4_1a" transform="matrix(13,0,0,13,327.7,446.3)" />
<use xlink:href="#f4_1i" transform="matrix(13,0,0,13,338.7,446.3)" />
<use xlink:href="#f4_1d" transform="matrix(13,0,0,13,343.1,446.3)" />
<use xlink:href="#f4_1s" transform="matrix(13,0,0,13,360,446.3)" />
<use xlink:href="#f4_1e" transform="matrix(13,0,0,13,369.9,446.3)" />
<use xlink:href="#f4_1a" transform="matrix(13,0,0,13,380.9,446.3)" />
<use xlink:href="#f4_1r" transform="matrix(13,0,0,13,391.9,446.3)" />
<use xlink:href="#f4_1c" transform="matrix(13,0,0,13,398.5,446.3)" />
<use xlink:href="#f4_1h" transform="matrix(13,0,0,13,408.4,446.3)" />
<use xlink:href="#f4_1r" transform="matrix(13,0,0,13,424.9,446.3)" />
<use xlink:href="#f4_1e" transform="matrix(13,0,0,13,431.5,446.3)" />
<use xlink:href="#f4_1s" transform="matrix(13,0,0,13,442.5,446.3)" />
<use xlink:href="#f4_1u" transform="matrix(13,0,0,13,452.8,446.3)" />
<use xlink:href="#f4_1l" transform="matrix(13,0,0,13,463.4,446.3)" />
<use xlink:href="#f4_1t" transform="matrix(13,0,0,13,467.8,446.3)" />
<use xlink:href="#f4_1s" transform="matrix(13,0,0,13,473.3,446.3)" />
<use xlink:href="#f4_1p" transform="matrix(13,0,0,13,489.1,446.3)" />
<use xlink:href="#f4_1a" transform="matrix(13,0,0,13,500.1,446.3)" />
<use xlink:href="#f4_1g" transform="matrix(13,0,0,13,511.1,446.3)" />
<use xlink:href="#f4_1e" transform="matrix(13,0,0,13,522.1,446.3)" />
<use xlink:href="#f4_1s" transform="matrix(13,0,0,13,533.1,446.3)" />
<use xlink:href="#f4_6" transform="matrix(13,0,0,13,548.8,446.3)" />
<use xlink:href="#f4_1s" transform="matrix(13,0,0,13,555.4,446.3)" />
<use xlink:href="#f4_1u" transform="matrix(13,0,0,13,565.3,446.3)" />
<use xlink:href="#f4_1c" transform="matrix(13,0,0,13,576.3,446.3)" />
<use xlink:href="#f4_1h" transform="matrix(13,0,0,13,586.2,446.3)" />
<use xlink:href="#f4_1a" transform="matrix(13,0,0,13,602.7,446.3)" />
<use xlink:href="#f4_1s" transform="matrix(13,0,0,13,613.7,446.3)" />
<use xlink:href="#f4_1o" transform="matrix(13,0,0,13,629.5,446.3)" />
<use xlink:href="#f4_1n" transform="matrix(13,0,0,13,640.5,446.3)" />
<use xlink:href="#f4_u" transform="matrix(13,0,0,13,657,446.3)" />
<use xlink:href="#f4_1o" transform="matrix(13,0,0,13,672,446.3)" />
<use xlink:href="#f4_1o" transform="matrix(13,0,0,13,683,446.3)" />
<use xlink:href="#f4_1g" transform="matrix(13,0,0,13,694.1,446.3)" />
<use xlink:href="#f4_1l" transform="matrix(13,0,0,13,705.1,446.3)" />
<use xlink:href="#f4_1e" transform="matrix(13,0,0,13,709.5,446.3)" />
<use xlink:href="#f4_9" transform="matrix(13,0,0,13,720.5,446.3)" />
<use xlink:href="#f4_19" transform="matrix(13,0,0,13,731.5,446.3)" />
<use xlink:href="#f4_1a" transform="matrix(13,0,0,13,744.7,446.3)" />
<use xlink:href="#f4_1h" transform="matrix(13,0,0,13,756,446.3)" />
<use xlink:href="#f4_1o" transform="matrix(13,0,0,13,767,446.3)" />
<use xlink:href="#f4_1o" transform="matrix(13,0,0,13,778,446.3)" />
<use xlink:href="#f4_1a" transform="matrix(13,0,0,13,794.5,446.3)" />
<use xlink:href="#f4_1n" transform="matrix(13,0,0,13,805.5,446.3)" />
<use xlink:href="#f4_1d" transform="matrix(13,0,0,13,816.5,446.3)" />
<use xlink:href="#f4_p" transform="matrix(13,0,0,13,833,446.3)" />
<use xlink:href="#f4_1i" transform="matrix(13,0,0,13,846.2,446.3)" />
<use xlink:href="#f4_1n" transform="matrix(13,0,0,13,850.6,446.3)" />
<use xlink:href="#f4_1g" transform="matrix(13,0,0,13,861.6,446.3)" />
<use xlink:href="#f4_7" transform="matrix(13,0,0,13,873,446.3)" />
</g>
</g>
<g clip-path="url(#c3_1)">
<g fill="#7F7F7F" >
<use xlink:href="#f4_1f" transform="matrix(13,0,0,13,57.1,473.8)" />
<use xlink:href="#f4_1o" transform="matrix(13,0,0,13,62.6,473.8)" />
<use xlink:href="#f4_1r" transform="matrix(13,0,0,13,73.6,473.8)" />
<use xlink:href="#f4_1s" transform="matrix(13,0,0,13,85.7,473.8)" />
<use xlink:href="#f4_1e" transform="matrix(13,0,0,13,95.6,473.8)" />
<use xlink:href="#f4_1a" transform="matrix(13,0,0,13,106.6,473.8)" />
<use xlink:href="#f4_1r" transform="matrix(13,0,0,13,118,473.8)" />
<use xlink:href="#f4_1c" transform="matrix(13,0,0,13,124.6,473.8)" />
<use xlink:href="#f4_1h" transform="matrix(13,0,0,13,134.5,473.8)" />
<use xlink:href="#f4_1q" transform="matrix(13,0,0,13,151,473.8)" />
<use xlink:href="#f4_1u" transform="matrix(13,0,0,13,162,473.8)" />
<use xlink:href="#f4_1e" transform="matrix(13,0,0,13,173,473.8)" />
<use xlink:href="#f4_1r" transform="matrix(13,0,0,13,184,473.8)" />
<use xlink:href="#f4_1i" transform="matrix(13,0,0,13,190.6,473.8)" />
<use xlink:href="#f4_1e" transform="matrix(13,0,0,13,195,473.8)" />
<use xlink:href="#f4_1s" transform="matrix(13,0,0,13,206,473.8)" />
<use xlink:href="#f4_1r" transform="matrix(13,0,0,13,221.4,473.8)" />
<use xlink:href="#f4_1e" transform="matrix(13,0,0,13,228,473.8)" />
<use xlink:href="#f4_1l" transform="matrix(13,0,0,13,239,473.8)" />
<use xlink:href="#f4_1a" transform="matrix(13,0,0,13,243.4,473.8)" />
<use xlink:href="#f4_1t" transform="matrix(13,0,0,13,254.4,473.8)" />
<use xlink:href="#f4_1e" transform="matrix(13,0,0,13,259.9,473.8)" />
<use xlink:href="#f4_1d" transform="matrix(13,0,0,13,270.9,473.8)" />
<use xlink:href="#f4_1t" transform="matrix(13,0,0,13,287.4,473.8)" />
<use xlink:href="#f4_1o" transform="matrix(13,0,0,13,292.9,473.8)" />
<use xlink:href="#f4_1y" transform="matrix(13,0,0,13,309.4,473.8)" />
<use xlink:href="#f4_1o" transform="matrix(13,0,0,13,319.3,473.8)" />
<use xlink:href="#f4_1u" transform="matrix(13,0,0,13,330.3,473.8)" />
<use xlink:href="#f4_1r" transform="matrix(13,0,0,13,341.3,473.8)" />
<use xlink:href="#f4_1b" transform="matrix(13,0,0,13,353.4,473.8)" />
<use xlink:href="#f4_1u" transform="matrix(13,0,0,13,364.4,473.8)" />
<use xlink:href="#f4_1s" transform="matrix(13,0,0,13,375.4,473.8)" />
<use xlink:href="#f4_1i" transform="matrix(13,0,0,13,385.3,473.8)" />
<use xlink:href="#f4_1n" transform="matrix(13,0,0,13,389.7,473.8)" />
<use xlink:href="#f4_1e" transform="matrix(13,0,0,13,400.7,473.8)" />
<use xlink:href="#f4_1s" transform="matrix(13,0,0,13,411.7,473.8)" />
<use xlink:href="#f4_1s" transform="matrix(13,0,0,13,422,473.8)" />
<use xlink:href="#f4_9" transform="matrix(13,0,0,13,431.9,473.8)" />
<use xlink:href="#f4_1b" transform="matrix(13,0,0,13,442.9,473.8)" />
<use xlink:href="#f4_1r" transform="matrix(13,0,0,13,453.9,473.8)" />
<use xlink:href="#f4_1a" transform="matrix(13,0,0,13,460.5,473.8)" />
<use xlink:href="#f4_1n" transform="matrix(13,0,0,13,471.5,473.8)" />
<use xlink:href="#f4_1d" transform="matrix(13,0,0,13,482.8,473.8)" />
<use xlink:href="#f4_9" transform="matrix(13,0,0,13,493.8,473.8)" />
<use xlink:href="#f4_1p" transform="matrix(13,0,0,13,504.8,473.8)" />
<use xlink:href="#f4_1r" transform="matrix(13,0,0,13,515.8,473.8)" />
<use xlink:href="#f4_1o" transform="matrix(13,0,0,13,522.4,473.8)" />
<use xlink:href="#f4_1d" transform="matrix(13,0,0,13,533.4,473.8)" />
<use xlink:href="#f4_1u" transform="matrix(13,0,0,13,544.4,473.8)" />
<use xlink:href="#f4_1c" transform="matrix(13,0,0,13,555.4,473.8)" />
<use xlink:href="#f4_1t" transform="matrix(13,0,0,13,565.3,473.8)" />
<use xlink:href="#f4_1o" transform="matrix(13,0,0,13,576.3,473.8)" />
<use xlink:href="#f4_1r" transform="matrix(13,0,0,13,587.3,473.8)" />
<use xlink:href="#f4_1s" transform="matrix(13,0,0,13,599.4,473.8)" />
<use xlink:href="#f4_1e" transform="matrix(13,0,0,13,609.3,473.8)" />
<use xlink:href="#f4_1r" transform="matrix(13,0,0,13,620.3,473.8)" />
<use xlink:href="#f4_1v" transform="matrix(13,0,0,13,626.9,473.8)" />
<use xlink:href="#f4_1i" transform="matrix(13,0,0,13,636.8,473.8)" />
<use xlink:href="#f4_1c" transform="matrix(13,0,0,13,641.2,473.8)" />
<use xlink:href="#f4_1e" transform="matrix(13,0,0,13,651.1,473.8)" />
<use xlink:href="#f4_b" transform="matrix(13,0,0,13,662.1,473.8)" />
</g>
</g>
<image preserveAspectRatio="none" x="45" y="489" width="836" height="128" xlink:href="img/7.png" />
<g clip-path="url(#c4_1)">
<g fill="#7F7F7F" >
<use xlink:href="#f4_13" transform="matrix(13,0,0,13,55.7,507.8)" />
<use xlink:href="#f4_1i" transform="matrix(13,0,0,13,68.5,507.8)" />
<use xlink:href="#f4_1n" transform="matrix(13,0,0,13,72.9,507.8)" />
<use xlink:href="#f4_1c" transform="matrix(13,0,0,13,84.3,507.8)" />
<use xlink:href="#f4_1e" transform="matrix(13,0,0,13,94.2,507.8)" />
<use xlink:href="#f4_u" transform="matrix(13,0,0,13,110.7,507.8)" />
<use xlink:href="#f4_1o" transform="matrix(13,0,0,13,125.7,507.8)" />
<use xlink:href="#f4_1o" transform="matrix(13,0,0,13,136.7,507.8)" />
<use xlink:href="#f4_1g" transform="matrix(13,0,0,13,147.7,507.8)" />
<use xlink:href="#f4_1l" transform="matrix(13,0,0,13,158.7,507.8)" />
<use xlink:href="#f4_1e" transform="matrix(13,0,0,13,163.1,507.8)" />
<use xlink:href="#f4_1i" transform="matrix(13,0,0,13,179.6,507.8)" />
<use xlink:href="#f4_1s" transform="matrix(13,0,0,13,184,507.8)" />
<use xlink:href="#f4_1t" transform="matrix(13,0,0,13,199.8,507.8)" />
<use xlink:href="#f4_1h" transform="matrix(13,0,0,13,205.3,507.8)" />
<use xlink:href="#f4_1e" transform="matrix(13,0,0,13,216.3,507.8)" />
<use xlink:href="#f4_1l" transform="matrix(13,0,0,13,232.8,507.8)" />
<use xlink:href="#f4_1e" transform="matrix(13,0,0,13,237.2,507.8)" />
<use xlink:href="#f4_1a" transform="matrix(13,0,0,13,248.2,507.8)" />
<use xlink:href="#f4_1d" transform="matrix(13,0,0,13,259.2,507.8)" />
<use xlink:href="#f4_1i" transform="matrix(13,0,0,13,270.2,507.8)" />
<use xlink:href="#f4_1n" transform="matrix(13,0,0,13,274.6,507.8)" />
<use xlink:href="#f4_1g" transform="matrix(13,0,0,13,285.6,507.8)" />
<use xlink:href="#f4_1s" transform="matrix(13,0,0,13,302.1,507.8)" />
<use xlink:href="#f4_1e" transform="matrix(13,0,0,13,312.3,507.8)" />
<use xlink:href="#f4_1a" transform="matrix(13,0,0,13,323,507.8)" />
<use xlink:href="#f4_1r" transform="matrix(13,0,0,13,334.3,507.8)" />
<use xlink:href="#f4_1c" transform="matrix(13,0,0,13,340.9,507.8)" />
<use xlink:href="#f4_1h" transform="matrix(13,0,0,13,350.8,507.8)" />
<use xlink:href="#f4_1e" transform="matrix(13,0,0,13,367.4,507.8)" />
<use xlink:href="#f4_1n" transform="matrix(13,0,0,13,378.4,507.8)" />
<use xlink:href="#f4_1g" transform="matrix(13,0,0,13,389.4,507.8)" />
<use xlink:href="#f4_1i" transform="matrix(13,0,0,13,400.4,507.8)" />
<use xlink:href="#f4_1n" transform="matrix(13,0,0,13,404.8,507.8)" />
<use xlink:href="#f4_1e" transform="matrix(13,0,0,13,415.8,507.8)" />
<use xlink:href="#f4_1w" transform="matrix(13,0,0,13,432.3,507.8)" />
<use xlink:href="#f4_1i" transform="matrix(13,0,0,13,446.6,507.8)" />
<use xlink:href="#f4_1t" transform="matrix(13,0,0,13,451,507.8)" />
<use xlink:href="#f4_1h" transform="matrix(13,0,0,13,456.5,507.8)" />
<use xlink:href="#f4_g" transform="matrix(13,0,0,13,473.3,507.8)" />
<use xlink:href="#f4_h" transform="matrix(13,0,0,13,484.3,507.8)" />
<use xlink:href="#f4_4" transform="matrix(13,0,0,13,495.3,507.8)" />
<use xlink:href="#f4_1m" transform="matrix(13,0,0,13,518.4,507.8)" />
<use xlink:href="#f4_1a" transform="matrix(13,0,0,13,534.9,507.8)" />
<use xlink:href="#f4_1r" transform="matrix(13,0,0,13,545.9,507.8)" />
<use xlink:href="#f4_1k" transform="matrix(13,0,0,13,552.5,507.8)" />
<use xlink:href="#f4_1e" transform="matrix(13,0,0,13,562.4,507.8)" />
<use xlink:href="#f4_1t" transform="matrix(13,0,0,13,573.4,507.8)" />
<use xlink:href="#f4_1s" transform="matrix(13,0,0,13,584.4,507.8)" />
<use xlink:href="#f4_1h" transform="matrix(13,0,0,13,594.7,507.8)" />
<use xlink:href="#f4_1a" transform="matrix(13,0,0,13,605.7,507.8)" />
<use xlink:href="#f4_1r" transform="matrix(13,0,0,13,616.7,507.8)" />
<use xlink:href="#f4_1e" transform="matrix(13,0,0,13,623.3,507.8)" />
<use xlink:href="#f4_9" transform="matrix(13,0,0,13,634.3,507.8)" />
<use xlink:href="#f4_1a" transform="matrix(13,0,0,13,645.3,507.8)" />
<use xlink:href="#f4_1n" transform="matrix(13,0,0,13,656.3,507.8)" />
<use xlink:href="#f4_1e" transform="matrix(13,0,0,13,672.8,507.8)" />
<use xlink:href="#f4_1f" transform="matrix(13,0,0,13,683.8,507.8)" />
<use xlink:href="#f4_1f" transform="matrix(13,0,0,13,689.3,507.8)" />
<use xlink:href="#f4_1e" transform="matrix(13,0,0,13,694.8,507.8)" />
<use xlink:href="#f4_1c" transform="matrix(13,0,0,13,705.8,507.8)" />
<use xlink:href="#f4_1t" transform="matrix(13,0,0,13,715.7,507.8)" />
<use xlink:href="#f4_1i" transform="matrix(13,0,0,13,721.2,507.8)" />
<use xlink:href="#f4_1v" transform="matrix(13,0,0,13,726,507.8)" />
<use xlink:href="#f4_1e" transform="matrix(13,0,0,13,735.9,507.8)" />
<use xlink:href="#f4_13" transform="matrix(13,0,0,13,752.4,507.8)" />
<use xlink:href="#f4_s" transform="matrix(13,0,0,13,765.2,507.8)" />
<use xlink:href="#f4_10" transform="matrix(13,0,0,13,778.4,507.8)" />
</g>
</g>
<g clip-path="url(#c0_1)">
<g fill="#7F7F7F" >
<use xlink:href="#f4_1d" transform="matrix(13,0,0,13,55.7,535.3)" />
<use xlink:href="#f4_1e" transform="matrix(13,0,0,13,66.7,535.3)" />
<use xlink:href="#f4_1m" transform="matrix(13,0,0,13,77.7,535.3)" />
<use xlink:href="#f4_1a" transform="matrix(13,0,0,13,94.2,535.3)" />
<use xlink:href="#f4_1n" transform="matrix(13,0,0,13,105.2,535.3)" />
<use xlink:href="#f4_1d" transform="matrix(13,0,0,13,116.2,535.3)" />
<use xlink:href="#f4_1s" transform="matrix(13,0,0,13,127.2,535.3)" />
<use xlink:href="#f4_1a" transform="matrix(13,0,0,13,142.9,535.3)" />
<use xlink:href="#f4_1d" transform="matrix(13,0,0,13,159.4,535.3)" />
<use xlink:href="#f4_1e" transform="matrix(13,0,0,13,170.4,535.3)" />
<use xlink:href="#f4_1e" transform="matrix(13,0,0,13,181.4,535.3)" />
<use xlink:href="#f4_1p" transform="matrix(13,0,0,13,192.4,535.3)" />
<use xlink:href="#f4_1u" transform="matrix(13,0,0,13,208.9,535.3)" />
<use xlink:href="#f4_1n" transform="matrix(13,0,0,13,219.9,535.3)" />
<use xlink:href="#f4_1d" transform="matrix(13,0,0,13,230.9,535.3)" />
<use xlink:href="#f4_1e" transform="matrix(13,0,0,13,241.9,535.3)" />
<use xlink:href="#f4_1r" transform="matrix(13,0,0,13,252.9,535.3)" />
<use xlink:href="#f4_1s" transform="matrix(13,0,0,13,259.5,535.3)" />
<use xlink:href="#f4_1t" transform="matrix(13,0,0,13,269.4,535.3)" />
<use xlink:href="#f4_1a" transform="matrix(13,0,0,13,274.9,535.3)" />
<use xlink:href="#f4_1n" transform="matrix(13,0,0,13,285.9,535.3)" />
<use xlink:href="#f4_1d" transform="matrix(13,0,0,13,297.3,535.3)" />
<use xlink:href="#f4_1i" transform="matrix(13,0,0,13,308.3,535.3)" />
<use xlink:href="#f4_1n" transform="matrix(13,0,0,13,312.7,535.3)" />
<use xlink:href="#f4_1g" transform="matrix(13,0,0,13,323.7,535.3)" />
<use xlink:href="#f4_1o" transform="matrix(13,0,0,13,340.2,535.3)" />
<use xlink:href="#f4_1f" transform="matrix(13,0,0,13,351.2,535.3)" />
<use xlink:href="#f4_1i" transform="matrix(13,0,0,13,362.2,535.3)" />
<use xlink:href="#f4_1t" transform="matrix(13,0,0,13,366.6,535.3)" />
<use xlink:href="#f4_1s" transform="matrix(13,0,0,13,372.1,535.3)" />
<use xlink:href="#f4_1i" transform="matrix(13,0,0,13,387.5,535.3)" />
<use xlink:href="#f4_1n" transform="matrix(13,0,0,13,391.9,535.3)" />
<use xlink:href="#f4_1t" transform="matrix(13,0,0,13,403.3,535.3)" />
<use xlink:href="#f4_1r" transform="matrix(13,0,0,13,408.8,535.3)" />
<use xlink:href="#f4_1i" transform="matrix(13,0,0,13,415.4,535.3)" />
<use xlink:href="#f4_1c" transform="matrix(13,0,0,13,419.8,535.3)" />
<use xlink:href="#f4_1a" transform="matrix(13,0,0,13,429.7,535.3)" />
<use xlink:href="#f4_1t" transform="matrix(13,0,0,13,440.7,535.3)" />
<use xlink:href="#f4_1e" transform="matrix(13,0,0,13,446.2,535.3)" />
<use xlink:href="#f4_1a" transform="matrix(13,0,0,13,462.7,535.3)" />
<use xlink:href="#f4_1l" transform="matrix(13,0,0,13,473.7,535.3)" />
<use xlink:href="#f4_1g" transform="matrix(13,0,0,13,478.1,535.3)" />
<use xlink:href="#f4_1o" transform="matrix(13,0,0,13,489.1,535.3)" />
<use xlink:href="#f4_1r" transform="matrix(13,0,0,13,500.1,535.3)" />
<use xlink:href="#f4_1i" transform="matrix(13,0,0,13,506.7,535.3)" />
<use xlink:href="#f4_1t" transform="matrix(13,0,0,13,511.1,535.3)" />
<use xlink:href="#f4_1h" transform="matrix(13,0,0,13,516.6,535.3)" />
<use xlink:href="#f4_1m" transform="matrix(13,0,0,13,527.6,535.3)" />
<use xlink:href="#f4_1s" transform="matrix(13,0,0,13,544.1,535.3)" />
<use xlink:href="#f4_1a" transform="matrix(13,0,0,13,559.9,535.3)" />
<use xlink:href="#f4_1n" transform="matrix(13,0,0,13,570.9,535.3)" />
<use xlink:href="#f4_1d" transform="matrix(13,0,0,13,581.9,535.3)" />
<use xlink:href="#f4_1r" transform="matrix(13,0,0,13,598.4,535.3)" />
<use xlink:href="#f4_1a" transform="matrix(13,0,0,13,605,535.3)" />
<use xlink:href="#f4_1n" transform="matrix(13,0,0,13,616,535.3)" />
<use xlink:href="#f4_1k" transform="matrix(13,0,0,13,627,535.3)" />
<use xlink:href="#f4_1i" transform="matrix(13,0,0,13,637.2,535.3)" />
<use xlink:href="#f4_1n" transform="matrix(13,0,0,13,641.6,535.3)" />
<use xlink:href="#f4_1g" transform="matrix(13,0,0,13,652.6,535.3)" />
<use xlink:href="#f4_1f" transform="matrix(13,0,0,13,669.1,535.3)" />
<use xlink:href="#f4_1a" transform="matrix(13,0,0,13,674.6,535.3)" />
<use xlink:href="#f4_1c" transform="matrix(13,0,0,13,685.6,535.3)" />
<use xlink:href="#f4_1t" transform="matrix(13,0,0,13,695.5,535.3)" />
<use xlink:href="#f4_1o" transform="matrix(13,0,0,13,701,535.3)" />
<use xlink:href="#f4_1r" transform="matrix(13,0,0,13,712,535.3)" />
<use xlink:href="#f4_1s" transform="matrix(13,0,0,13,718.6,535.3)" />
<use xlink:href="#f4_b" transform="matrix(13,0,0,13,728.5,535.3)" />
<use xlink:href="#f4_14" transform="matrix(13,0,0,13,739.9,535.3)" />
<use xlink:href="#f4_1h" transform="matrix(13,0,0,13,752,535.3)" />
<use xlink:href="#f4_1e" transform="matrix(13,0,0,13,763,535.3)" />
<use xlink:href="#f4_1s" transform="matrix(13,0,0,13,774,535.3)" />
<use xlink:href="#f4_1e" transform="matrix(13,0,0,13,783.9,535.3)" />
<use xlink:href="#f4_1a" transform="matrix(13,0,0,13,800.4,535.3)" />
<use xlink:href="#f4_1r" transform="matrix(13,0,0,13,811.4,535.3)" />
<use xlink:href="#f4_1e" transform="matrix(13,0,0,13,818,535.3)" />
<use xlink:href="#f4_1c" transform="matrix(13,0,0,13,55.7,562.8)" />
<use xlink:href="#f4_1o" transform="matrix(13,0,0,13,65.6,562.8)" />
<use xlink:href="#f4_1n" transform="matrix(13,0,0,13,76.6,562.8)" />
<use xlink:href="#f4_1t" transform="matrix(13,0,0,13,87.6,562.8)" />
<use xlink:href="#f4_1i" transform="matrix(13,0,0,13,93.1,562.8)" />
<use xlink:href="#f4_1n" transform="matrix(13,0,0,13,97.5,562.8)" />
<use xlink:href="#f4_1u" transform="matrix(13,0,0,13,108.5,562.8)" />
<use xlink:href="#f4_1o" transform="matrix(13,0,0,13,119.5,562.8)" />
<use xlink:href="#f4_1u" transform="matrix(13,0,0,13,130.5,562.8)" />
<use xlink:href="#f4_1s" transform="matrix(13,0,0,13,141.5,562.8)" />
<use xlink:href="#f4_1l" transform="matrix(13,0,0,13,151.4,562.8)" />
<use xlink:href="#f4_1y" transform="matrix(13,0,0,13,155.8,562.8)" />
<use xlink:href="#f4_1d" transform="matrix(13,0,0,13,171.2,562.8)" />
<use xlink:href="#f4_1e" transform="matrix(13,0,0,13,182.2,562.8)" />
<use xlink:href="#f4_1v" transform="matrix(13,0,0,13,193.2,562.8)" />
<use xlink:href="#f4_1e" transform="matrix(13,0,0,13,203.1,562.8)" />
<use xlink:href="#f4_1l" transform="matrix(13,0,0,13,214.1,562.8)" />
<use xlink:href="#f4_1o" transform="matrix(13,0,0,13,218.5,562.8)" />
<use xlink:href="#f4_1p" transform="matrix(13,0,0,13,229.5,562.8)" />
<use xlink:href="#f4_1i" transform="matrix(13,0,0,13,240.8,562.8)" />
<use xlink:href="#f4_1n" transform="matrix(13,0,0,13,245.2,562.8)" />
<use xlink:href="#f4_1g" transform="matrix(13,0,0,13,256.2,562.8)" />
<use xlink:href="#f4_1t" transform="matrix(13,0,0,13,272.7,562.8)" />
<use xlink:href="#f4_1o" transform="matrix(13,0,0,13,278.3,562.8)" />
<use xlink:href="#f4_1d" transform="matrix(13,0,0,13,294.8,562.8)" />
<use xlink:href="#f4_1i" transform="matrix(13,0,0,13,305.8,562.8)" />
<use xlink:href="#f4_1s" transform="matrix(13,0,0,13,310.2,562.8)" />
<use xlink:href="#f4_1p" transform="matrix(13,0,0,13,320.1,562.8)" />
<use xlink:href="#f4_1l" transform="matrix(13,0,0,13,331.1,562.8)" />
<use xlink:href="#f4_1a" transform="matrix(13,0,0,13,335.5,562.8)" />
<use xlink:href="#f4_1y" transform="matrix(13,0,0,13,346.8,562.8)" />
<use xlink:href="#f4_1t" transform="matrix(13,0,0,13,362.2,562.8)" />
<use xlink:href="#f4_1h" transform="matrix(13,0,0,13,367.7,562.8)" />
<use xlink:href="#f4_1e" transform="matrix(13,0,0,13,378.7,562.8)" />
<use xlink:href="#f4_1m" transform="matrix(13,0,0,13,395.2,562.8)" />
<use xlink:href="#f4_1o" transform="matrix(13,0,0,13,411.7,562.8)" />
<use xlink:href="#f4_1s" transform="matrix(13,0,0,13,422.7,562.8)" />
<use xlink:href="#f4_1t" transform="matrix(13,0,0,13,432.6,562.8)" />
<use xlink:href="#f4_1r" transform="matrix(13,0,0,13,443.6,562.8)" />
<use xlink:href="#f4_1e" transform="matrix(13,0,0,13,450.2,562.8)" />
<use xlink:href="#f4_1l" transform="matrix(13,0,0,13,461.2,562.8)" />
<use xlink:href="#f4_1e" transform="matrix(13,0,0,13,465.6,562.8)" />
<use xlink:href="#f4_1v" transform="matrix(13,0,0,13,476.6,562.8)" />
<use xlink:href="#f4_1a" transform="matrix(13,0,0,13,486.5,562.8)" />
<use xlink:href="#f4_1n" transform="matrix(13,0,0,13,497.9,562.8)" />
<use xlink:href="#f4_1t" transform="matrix(13,0,0,13,508.9,562.8)" />
<use xlink:href="#f4_1s" transform="matrix(13,0,0,13,519.9,562.8)" />
<use xlink:href="#f4_1e" transform="matrix(13,0,0,13,529.8,562.8)" />
<use xlink:href="#f4_1a" transform="matrix(13,0,0,13,540.8,562.8)" />
<use xlink:href="#f4_1r" transform="matrix(13,0,0,13,551.8,562.8)" />
<use xlink:href="#f4_1c" transform="matrix(13,0,0,13,558.4,562.8)" />
<use xlink:href="#f4_1h" transform="matrix(13,0,0,13,568.3,562.8)" />
<use xlink:href="#f4_1r" transform="matrix(13,0,0,13,585.2,562.8)" />
<use xlink:href="#f4_1e" transform="matrix(13,0,0,13,591.8,562.8)" />
<use xlink:href="#f4_1s" transform="matrix(13,0,0,13,602.8,562.8)" />
<use xlink:href="#f4_1u" transform="matrix(13,0,0,13,612.7,562.8)" />
<use xlink:href="#f4_1l" transform="matrix(13,0,0,13,623.7,562.8)" />
<use xlink:href="#f4_1t" transform="matrix(13,0,0,13,628.1,562.8)" />
<use xlink:href="#f4_1s" transform="matrix(13,0,0,13,633.6,562.8)" />
<use xlink:href="#f4_1t" transform="matrix(13,0,0,13,649,562.8)" />
<use xlink:href="#f4_1o" transform="matrix(13,0,0,13,654.5,562.8)" />
<use xlink:href="#f4_1u" transform="matrix(13,0,0,13,671,562.8)" />
<use xlink:href="#f4_1s" transform="matrix(13,0,0,13,682,562.8)" />
<use xlink:href="#f4_1e" transform="matrix(13,0,0,13,691.9,562.8)" />
<use xlink:href="#f4_1r" transform="matrix(13,0,0,13,702.9,562.8)" />
<use xlink:href="#f4_1s" transform="matrix(13,0,0,13,709.5,562.8)" />
<use xlink:href="#f4_b" transform="matrix(13,0,0,13,719.7,562.8)" />
<use xlink:href="#f4_o" transform="matrix(13,0,0,13,730.7,562.8)" />
<use xlink:href="#f4_1s" transform="matrix(13,0,0,13,743.9,562.8)" />
<use xlink:href="#f4_1t" transform="matrix(13,0,0,13,759.3,562.8)" />
<use xlink:href="#f4_1h" transform="matrix(13,0,0,13,764.8,562.8)" />
<use xlink:href="#f4_1e" transform="matrix(13,0,0,13,776.2,562.8)" />
<use xlink:href="#f4_1l" transform="matrix(13,0,0,13,792.7,562.8)" />
<use xlink:href="#f4_1e" transform="matrix(13,0,0,13,797.1,562.8)" />
<use xlink:href="#f4_1a" transform="matrix(13,0,0,13,807.7,562.8)" />
<use xlink:href="#f4_1d" transform="matrix(13,0,0,13,819.1,562.8)" />
<use xlink:href="#f4_1i" transform="matrix(13,0,0,13,830.1,562.8)" />
<use xlink:href="#f4_1n" transform="matrix(13,0,0,13,834.5,562.8)" />
<use xlink:href="#f4_1g" transform="matrix(13,0,0,13,845.5,562.8)" />
<use xlink:href="#f4_1s" transform="matrix(13,0,0,13,55.7,590.3)" />
<use xlink:href="#f4_1e" transform="matrix(13,0,0,13,65.6,590.3)" />
<use xlink:href="#f4_1a" transform="matrix(13,0,0,13,76.6,590.3)" />
<use xlink:href="#f4_1r" transform="matrix(13,0,0,13,87.6,590.3)" />
<use xlink:href="#f4_1c" transform="matrix(13,0,0,13,94.2,590.3)" />
<use xlink:href="#f4_1h" transform="matrix(13,0,0,13,104.4,590.3)" />
<use xlink:href="#f4_1e" transform="matrix(13,0,0,13,120.9,590.3)" />
<use xlink:href="#f4_1n" transform="matrix(13,0,0,13,131.9,590.3)" />
<use xlink:href="#f4_1g" transform="matrix(13,0,0,13,142.9,590.3)" />
<use xlink:href="#f4_1i" transform="matrix(13,0,0,13,153.9,590.3)" />
<use xlink:href="#f4_1n" transform="matrix(13,0,0,13,158.3,590.3)" />
<use xlink:href="#f4_1e" transform="matrix(13,0,0,13,169.3,590.3)" />
<use xlink:href="#f4_9" transform="matrix(13,0,0,13,180.3,590.3)" />
<use xlink:href="#f4_1i" transform="matrix(13,0,0,13,191.3,590.3)" />
<use xlink:href="#f4_1t" transform="matrix(13,0,0,13,195.7,590.3)" />
<use xlink:href="#f4_1i" transform="matrix(13,0,0,13,206.7,590.3)" />
<use xlink:href="#f4_1s" transform="matrix(13,0,0,13,211.1,590.3)" />
<use xlink:href="#f4_1c" transform="matrix(13,0,0,13,226.9,590.3)" />
<use xlink:href="#f4_1r" transform="matrix(13,0,0,13,236.8,590.3)" />
<use xlink:href="#f4_1i" transform="matrix(13,0,0,13,243.4,590.3)" />
<use xlink:href="#f4_1t" transform="matrix(13,0,0,13,247.8,590.3)" />
<use xlink:href="#f4_1i" transform="matrix(13,0,0,13,253.3,590.3)" />
<use xlink:href="#f4_1c" transform="matrix(13,0,0,13,257.7,590.3)" />
<use xlink:href="#f4_1a" transform="matrix(13,0,0,13,267.6,590.3)" />
<use xlink:href="#f4_1l" transform="matrix(13,0,0,13,278.6,590.3)" />
<use xlink:href="#f4_1t" transform="matrix(13,0,0,13,288.5,590.3)" />
<use xlink:href="#f4_1o" transform="matrix(13,0,0,13,294,590.3)" />
<use xlink:href="#f4_1a" transform="matrix(13,0,0,13,310.5,590.3)" />
<use xlink:href="#f4_1l" transform="matrix(13,0,0,13,321.5,590.3)" />
<use xlink:href="#f4_1i" transform="matrix(13,0,0,13,325.9,590.3)" />
<use xlink:href="#f4_1g" transform="matrix(13,0,0,13,330.3,590.3)" />
<use xlink:href="#f4_1n" transform="matrix(13,0,0,13,341.3,590.3)" />
<use xlink:href="#f4_1w" transform="matrix(13,0,0,13,358.2,590.3)" />
<use xlink:href="#f4_1i" transform="matrix(13,0,0,13,372.5,590.3)" />
<use xlink:href="#f4_1t" transform="matrix(13,0,0,13,376.9,590.3)" />
<use xlink:href="#f4_1h" transform="matrix(13,0,0,13,382.4,590.3)" />
<use xlink:href="#f4_u" transform="matrix(13,0,0,13,398.9,590.3)" />
<use xlink:href="#f4_1o" transform="matrix(13,0,0,13,414.3,590.3)" />
<use xlink:href="#f4_1o" transform="matrix(13,0,0,13,424.9,590.3)" />
<use xlink:href="#f4_1g" transform="matrix(13,0,0,13,435.9,590.3)" />
<use xlink:href="#f4_1l" transform="matrix(13,0,0,13,446.9,590.3)" />
<use xlink:href="#f4_1e" transform="matrix(13,0,0,13,451.3,590.3)" />
<use xlink:href="#f4_5" transform="matrix(13,0,0,13,462.3,590.3)" />
<use xlink:href="#f4_1s" transform="matrix(13,0,0,13,466.4,590.3)" />
<use xlink:href="#f4_1b" transform="matrix(13,0,0,13,481.8,590.3)" />
<use xlink:href="#f4_1e" transform="matrix(13,0,0,13,492.8,590.3)" />
<use xlink:href="#f4_1s" transform="matrix(13,0,0,13,503.8,590.3)" />
<use xlink:href="#f4_1t" transform="matrix(13,0,0,13,514,590.3)" />
<use xlink:href="#f4_1p" transform="matrix(13,0,0,13,525,590.3)" />
<use xlink:href="#f4_1r" transform="matrix(13,0,0,13,536,590.3)" />
<use xlink:href="#f4_1a" transform="matrix(13,0,0,13,542.6,590.3)" />
<use xlink:href="#f4_1c" transform="matrix(13,0,0,13,553.6,590.3)" />
<use xlink:href="#f4_1t" transform="matrix(13,0,0,13,563.5,590.3)" />
<use xlink:href="#f4_1i" transform="matrix(13,0,0,13,569,590.3)" />
<use xlink:href="#f4_1c" transform="matrix(13,0,0,13,573.4,590.3)" />
<use xlink:href="#f4_1e" transform="matrix(13,0,0,13,583.3,590.3)" />
<use xlink:href="#f4_1s" transform="matrix(13,0,0,13,594.3,590.3)" />
<use xlink:href="#f4_1a" transform="matrix(13,0,0,13,610.1,590.3)" />
<use xlink:href="#f4_1n" transform="matrix(13,0,0,13,621.1,590.3)" />
<use xlink:href="#f4_1d" transform="matrix(13,0,0,13,632.1,590.3)" />
<use xlink:href="#f4_1t" transform="matrix(13,0,0,13,648.6,590.3)" />
<use xlink:href="#f4_1h" transform="matrix(13,0,0,13,654.1,590.3)" />
<use xlink:href="#f4_1i" transform="matrix(13,0,0,13,665.1,590.3)" />
<use xlink:href="#f4_1s" transform="matrix(13,0,0,13,669.5,590.3)" />
<use xlink:href="#f4_1a" transform="matrix(13,0,0,13,685.3,590.3)" />
<use xlink:href="#f4_1l" transform="matrix(13,0,0,13,696.3,590.3)" />
<use xlink:href="#f4_1s" transform="matrix(13,0,0,13,700.7,590.3)" />
<use xlink:href="#f4_1o" transform="matrix(13,0,0,13,710.6,590.3)" />
<use xlink:href="#f4_1m" transform="matrix(13,0,0,13,727.1,590.3)" />
<use xlink:href="#f4_1e" transform="matrix(13,0,0,13,743.6,590.3)" />
<use xlink:href="#f4_1a" transform="matrix(13,0,0,13,754.6,590.3)" />
<use xlink:href="#f4_1n" transform="matrix(13,0,0,13,765.6,590.3)" />
<use xlink:href="#f4_1s" transform="matrix(13,0,0,13,776.9,590.3)" />
</g>
</g>
<g clip-path="url(#c4_1)">
<g fill="#7F7F7F" >
<use xlink:href="#f4_1e" transform="matrix(13,0,0,13,55.7,617.8)" />
<use xlink:href="#f4_1x" transform="matrix(13,0,0,13,66.7,617.8)" />
<use xlink:href="#f4_1c" transform="matrix(13,0,0,13,76.6,617.8)" />
<use xlink:href="#f4_1e" transform="matrix(13,0,0,13,86.5,617.8)" />
<use xlink:href="#f4_1e" transform="matrix(13,0,0,13,97.5,617.8)" />
<use xlink:href="#f4_1d" transform="matrix(13,0,0,13,108.5,617.8)" />
<use xlink:href="#f4_1i" transform="matrix(13,0,0,13,119.5,617.8)" />
<use xlink:href="#f4_1n" transform="matrix(13,0,0,13,123.9,617.8)" />
<use xlink:href="#f4_1g" transform="matrix(13,0,0,13,134.9,617.8)" />
<use xlink:href="#f4_1t" transform="matrix(13,0,0,13,151.4,617.8)" />
<use xlink:href="#f4_1h" transform="matrix(13,0,0,13,156.9,617.8)" />
<use xlink:href="#f4_1e" transform="matrix(13,0,0,13,167.9,617.8)" />
<use xlink:href="#f4_1s" transform="matrix(13,0,0,13,184.4,617.8)" />
<use xlink:href="#f4_1t" transform="matrix(13,0,0,13,194.6,617.8)" />
<use xlink:href="#f4_1a" transform="matrix(13,0,0,13,200.1,617.8)" />
<use xlink:href="#f4_1n" transform="matrix(13,0,0,13,211.1,617.8)" />
<use xlink:href="#f4_1d" transform="matrix(13,0,0,13,222.1,617.8)" />
<use xlink:href="#f4_1a" transform="matrix(13,0,0,13,233.1,617.8)" />
<use xlink:href="#f4_1r" transform="matrix(13,0,0,13,244.1,617.8)" />
<use xlink:href="#f4_1d" transform="matrix(13,0,0,13,250.7,617.8)" />
<use xlink:href="#f4_1s" transform="matrix(13,0,0,13,261.7,617.8)" />
<use xlink:href="#f4_1o" transform="matrix(13,0,0,13,277.5,617.8)" />
<use xlink:href="#f4_1f" transform="matrix(13,0,0,13,288.5,617.8)" />
<use xlink:href="#f4_p" transform="matrix(13,0,0,13,299.5,617.8)" />
<use xlink:href="#f4_1i" transform="matrix(13,0,0,13,312.7,617.8)" />
<use xlink:href="#f4_1n" transform="matrix(13,0,0,13,317.1,617.8)" />
<use xlink:href="#f4_1g" transform="matrix(13,0,0,13,328.1,617.8)" />
<use xlink:href="#f4_1a" transform="matrix(13,0,0,13,344.6,617.8)" />
<use xlink:href="#f4_1n" transform="matrix(13,0,0,13,356,617.8)" />
<use xlink:href="#f4_1d" transform="matrix(13,0,0,13,367,617.8)" />
<use xlink:href="#f4_19" transform="matrix(13,0,0,13,383.5,617.8)" />
<use xlink:href="#f4_1a" transform="matrix(13,0,0,13,396.7,617.8)" />
<use xlink:href="#f4_1h" transform="matrix(13,0,0,13,407.7,617.8)" />
<use xlink:href="#f4_1o" transform="matrix(13,0,0,13,418.7,617.8)" />
<use xlink:href="#f4_1o" transform="matrix(13,0,0,13,429.7,617.8)" />
<use xlink:href="#f4_b" transform="matrix(13,0,0,13,440.7,617.8)" />
</g>
</g>
<image preserveAspectRatio="none" x="43" y="654" width="332" height="23" xlink:href="img/8.png" />
<g clip-path="url(#c5_1)">
<g fill="#000000" >
<use xlink:href="#f1_j" transform="matrix(13,0,0,13,54.2,672.8)" />
<use xlink:href="#f1_s" transform="matrix(13,0,0,13,72.9,672.8)" />
<use xlink:href="#f1_17" transform="matrix(13,0,0,13,85,672.8)" />
<use xlink:href="#f1_8" transform="matrix(13,0,0,13,101.5,672.8)" />
<use xlink:href="#f1_y" transform="matrix(13,0,0,13,116.2,672.8)" />
<use xlink:href="#f1_p" transform="matrix(13,0,0,13,128.3,672.8)" />
<use xlink:href="#f1_11" transform="matrix(13,0,0,13,139.3,672.8)" />
<use xlink:href="#f1_f" transform="matrix(13,0,0,13,155.8,672.8)" />
<use xlink:href="#f1_l" transform="matrix(13,0,0,13,170.1,672.8)" />
<use xlink:href="#f1_x" transform="matrix(13,0,0,13,181.1,672.8)" />
<use xlink:href="#f1_u" transform="matrix(13,0,0,13,193.2,672.8)" />
<use xlink:href="#f1_t" transform="matrix(13,0,0,13,204.2,672.8)" />
<use xlink:href="#f1_x" transform="matrix(13,0,0,13,209.7,672.8)" />
<use xlink:href="#f1_r" transform="matrix(13,0,0,13,221.8,672.8)" />
<use xlink:href="#f1_c" transform="matrix(13,0,0,13,239.7,672.8)" />
<use xlink:href="#f1_l" transform="matrix(13,0,0,13,256.2,672.8)" />
<use xlink:href="#f1_12" transform="matrix(13,0,0,13,267.2,672.8)" />
<use xlink:href="#f1_12" transform="matrix(13,0,0,13,273.8,672.8)" />
<use xlink:href="#f1_p" transform="matrix(13,0,0,13,280.4,672.8)" />
<use xlink:href="#f1_10" transform="matrix(13,0,0,13,291.4,672.8)" />
<use xlink:href="#f1_6" transform="matrix(13,0,0,13,299.1,672.8)" />
</g>
</g>
<image preserveAspectRatio="none" x="69" y="1086" width="796" height="84" xlink:href="img/9.png" />
<defs>
	<path d="M160.8,0c0,0,-5.2,0,-9.7,2.6c0,0,-4.5,2.6,-8.6,8.6c0,0,-4.1,5.9,-6.3,15.6c0,0,-2.2,9.7,-2.2,23.8c0,0,0,13.4,2.2,23c0,0,2.2,9.7,5.6,16.1c0,0,3.3,6.3,8.2,9.6c0,0,4.8,3.4,10.8,3.4l201,0l0,734.3L175.5,725.5c0,0,-14.2,-7.4,-22.7,-8.9c0,0,-1.3,-0.2,-3.1,-0.2c-3,0,-7.5,0.5,-10.7,3.5c0,0,-5.2,4.9,-7.1,16.1c0,0,-1.8,11.2,-1.8,28.4c0,0,0,12.6,1.1,21.6c0,0,1.1,9,3.3,14.9c0,0,2.3,6,6.4,10.5c0,0,4.1,4.5,10.8,9l222,142.5c0,0,3,2.3,7.5,3.8c0,0,4.4,1.5,11.1,3c0,0,6.8,1.4,15.7,1.8c0,0,9,0.4,22.4,0.4c0,0,17.9,0,29.8,-1.5c0,0,12,-1.5,18.7,-4.1c0,0,6.7,-2.6,8.9,-6.7c0,0,2.3,-4.1,2.3,-8.6l0,-848.3l174.5,0c0,0,6,0,11.2,-3.4c0,0,5.3,-3.3,8.6,-9.6c0,0,3.4,-6.4,5.2,-16c0,0,1.9,-9.7,1.9,-23.1c0,0,0,-14.1,-2.2,-23.8c0,0,-2.3,-9.7,-6,-15.6c0,0,-3.7,-6,-8.6,-8.6c0,0,-4.8,-2.6,-10,-2.6Z" 
	id="f0_6"
	transform="scale(0.001,-0.001)" />

	<path d="M591.6,190.7c0,0,162.6,0,261.1,160.4c0,0,53.7,88,79,209.6c0,0,35.8,167.9,2.3,257.7c0,0,-33.6,90,-190.2,90l-211.9,0L379.7,190.7ZM116.4,0L349.9,1099l473.7,0c0,0,101.4,-1.5,164.8,-23.9c0,0,107.5,-38,157.4,-139.4c0,0,40.3,-82,40.7,-177.4c0,0,0.4,-95.5,-17.5,-182c0,0,-47,-219.2,-167.1,-371.3C1001.9,205,839.2,0,590.1,0Z" 
	id="f1_8"
	transform="scale(0.001,-0.001)" />

	<path d="M102.2,0L274.5,813.1l215.6,0L317.8,0ZM295.4,910.3l41.8,196.5l215.6,0L511,910.3Z" 
	id="f1_t"
	transform="scale(0.001,-0.001)" />

	<path d="M477.4,153.5c0,0,90.3,0,151.8,67.1c0,0,61.6,67.1,84,173.7c0,0,31.3,149.1,-29.9,213.3c0,0,-38,38.7,-99.2,38.7c0,0,-93.2,0,-151.8,-70.4c0,0,-58.6,-70.5,-80.9,-174.9c0,0,-23.9,-112.6,5.9,-180c0,0,29.9,-67.5,120.1,-67.5ZM378.2,-25.3c0,0,-142.5,0,-215.2,115.1c0,0,-72.7,115.2,-34.7,295.6c0,0,44.8,208.1,166,327.4c0,0,121.2,119.3,281.6,119.3c0,0,73.8,0,124.2,-32.5c0,0,50.4,-32.4,74.2,-89.9L856.4,1098l215.6,0L839.2,0L632.6,0l23.9,112.5c0,0,-61.2,-72.3,-126.5,-105.1c0,0,-65.2,-32.7,-151.8,-32.7Z" 
	id="f1_o"
	transform="scale(0.001,-0.001)" />

	<path d="M158.9,-328.4c0,0,-28.4,0,-45.5,0.3c0,0,-17.2,0.4,-50.7,2.6l35.8,170.1l26.8,-1.5c0,0,6,-0.3,15.2,-0.3c11.6,0,28.3,0.5,44.5,2.5c0,0,29.1,3.8,51.5,17.2c0,0,21.6,12.7,46.2,52.9c0,0,24.6,40.3,23.2,49.3L188,813.5l236.5,0l50,-599.7L769.9,813.5l226,0L546.8,13.8c0,0,-129.8,-231.1,-188.4,-286.7c0,0,-58.5,-55.5,-199.5,-55.5Z" 
	id="f1_17"
	transform="scale(0.001,-0.001)" />

	<path d="M495.3,149.6c0,0,93.3,0,157.4,66.4c0,0,64.2,66.4,90.3,188.7c0,0,26.1,122.3,-10.1,188.3c0,0,-36.2,66,-129.4,66c0,0,-93.3,0,-157.4,-66c0,0,-64.2,-66,-90.3,-188.3c0,0,-26.1,-122.3,10.1,-188.7c0,0,36.2,-66.4,129.4,-66.4ZM458,-28.2c0,0,-209.6,0,-285.3,127c0,0,-75.7,127.1,-37.7,306.1c0,0,37.3,176,167.9,305c0,0,130.5,129,340.1,129c0,0,209.7,0,285,-129c0,0,75.4,-129,38,-305c0,0,-38,-179,-168.2,-306.1c0,0,-130.1,-127,-339.8,-127Z" 
	id="f1_y"
	transform="scale(0.001,-0.001)" />

	<path d="M367,-18.5c0,0,-180.5,0,-215.6,129.9c0,0,-19.4,71.7,10.5,211.4L265.6,813.5l217.8,0L379.7,322.9c0,0,-14.9,-69.4,-6,-104.5c0,0,15.7,-62,100.8,-62c0,0,108.9,0,167.8,88.2c0,0,31.3,47.7,47.7,126.1l94,442.8l215.6,0L827.3,0L620.7,0l23.8,114.6c0,0,-3.7,-3.8,-19.4,-22.5c0,0,-15.6,-18.7,-35,-32.9C590.1,59.2,530.4,14.3,480,-2c0,0,-50.3,-16.5,-113,-16.5Z" 
	id="f1_13"
	transform="scale(0.001,-0.001)" />

	<path d="M97,0L329.7,1096.1l208.9,0L412.5,503.6l329.8,306l263.3,0L655,498.4L845.2,0L588.6,0L467.7,347.7L359.6,255.9L305.9,0Z" 
	id="f1_u"
	transform="scale(0.001,-0.001)" />

	<path d="M100.7,0L273,811.6l205.2,0L452.8,693.4c0,0,54.5,62.8,97,90.4c0,0,76.1,49.3,176.8,49.3c0,0,126.1,0,192.1,-66.1c0,0,66,-66.1,33.9,-219.1L836.2,0L618.4,0L722.9,494.9c0,0,14.1,64.1,3.7,98.5c0,0,-17.9,62.7,-105.9,62.7c0,0,-108.2,0,-167.9,-91.8c0,0,-31.3,-48.6,-47,-123.9L312.6,0Z" 
	id="f1_x"
	transform="scale(0.001,-0.001)" />

	<path d="M238.6,0l-56,813.5l228.3,0l3,-583.6L654.8,813.5l215.2,0L869.2,227.6l251.4,585.9l221.6,0L934.1,0L716,0l-2.2,592.6L459.4,0Z" 
	id="f1_15"
	transform="scale(0.001,-0.001)" />

	<path d="M358,-11.7c-34.3,0,-148.3,3.7,-184.9,52.2c0,0,-27.6,36.6,-12,112.7L267.8,654.1l-113.4,0l32.1,151.6l113.4,0l48.5,226.8l210.3,0L510.2,805.7l132.1,0L610.2,654.1l-132,0.1l-91.8,-430c0,0,-10.4,-50,-0.4,-62.3c0,0,10.1,-12.3,75,-12.3c0,0,9.7,0,20.5,0.5c0,0,10.9,0.5,22,1.5L469.2,-7.9L367.8,-11.6c0,0,-3.6,-0.1,-9.8,-0.1Z" 
	id="f1_12"
	transform="scale(0.001,-0.001)" />

	<path d="M100.7,0L333.5,1096.1l211.8,0l-82.8,-389c0,0,61.2,70.9,127.9,98.9c0,0,66.8,28,134,28c0,0,75.3,0,131.2,-26.1c0,0,56,-26.1,84.3,-79.8c0,0,23.9,-45.5,21.3,-93.6c0,0,-2.6,-48.1,-25.7,-157.1L834,0L616.9,0L721.4,494.5c0,0,14.1,65.6,0.7,105.9c0,0,-17.1,56.7,-98.5,56.7c0,0,-84.2,0,-139.8,-56.3c0,0,-55.6,-56.3,-78,-160.8L312.6,0Z" 
	id="f1_s"
	transform="scale(0.001,-0.001)" />

	<path d="M387.9,129.1c0,0,68.6,0,135,40.3c0,0,66.4,40.2,91.8,146.9l16.4,79.1c0,0,-22.4,-12.7,-44.8,-20.5c0,0,-22.3,-7.9,-59.6,-14.6l-49.3,-8.9c0,0,-70.1,-12,-102.9,-29.1c0,0,-55.2,-29.1,-67.9,-90.3c0,0,-11.9,-54.4,13.1,-78.7c0,0,25,-24.2,68.2,-24.2ZM292.4,-25.3c0,0,-110.4,0,-168.9,62.9c0,0,-58.6,63.1,-34,178.8c0,0,32.1,150,161.9,217.2c0,0,70.9,36.5,197.7,52.2l73.8,9c0,0,61.2,7.4,88.8,18.6c0,0,49.2,19.4,58.2,60.5c0,0,10.4,50,-20.2,69c0,0,-30.5,19.1,-97.7,19.1c0,0,-75.3,0,-114.9,-37.2c0,0,-27.5,-27.5,-45.5,-74.3l-205.1,0c0,0,29.8,106.6,97,175.2c0,0,107.4,107.4,312.5,107.4c0,0,133.6,0,226.1,-53c0,0,92.5,-53,61.2,-200.1L803.4,206.7c0,0,-8.2,-38.8,-17.9,-94.1c0,0,-6.7,-41.7,0.4,-56.6c0,0,7.1,-15,25.7,-24.7L805.7,0L574.4,0c0,0,-4.5,24.6,-3.7,46.2c0,0,0.7,21.7,4.4,49.3c0,0,-54.4,-47.8,-118.6,-81.4c0,0,-77.5,-39.4,-164.1,-39.4Z" 
	id="f1_l"
	transform="scale(0.001,-0.001)" />

	<path d="M517.7,-28.2c0,0,-214.8,0,-317,97.9c0,0,-102.2,98.1,-65.7,269.6l219.3,0c0,0,-5.2,-75.5,17.2,-112.9c0,0,41.8,-68,177.6,-68c0,0,81.3,0,135.7,17.9c0,0,103.7,34.3,123.1,127.6c0,0,11.9,54.5,-29.8,84.3c0,0,-41.1,29.1,-138.8,51.5L528.2,465.8c0,0,-163.4,38.8,-219.4,84.3c0,0,-94.7,76.1,-60.4,238c0,0,31.4,147.7,159.7,245.4c0,0,128.3,97.8,336.4,97.8c0,0,173.8,0,276.7,-92.2c0,0,103,-92.2,71.7,-267.6l-220.8,0c0,0,15.6,99.5,-56,141.4c0,0,-47.7,27.7,-127.6,27.7c0,0,-88.7,0,-149.5,-35.8c0,0,-60.8,-35.8,-74.2,-99.9c0,0,-12.7,-59,33.5,-88.1c0,0,29.1,-19.4,133.5,-45.5L811.6,625.8c0,0,117.9,-29.8,170.9,-79.8c0,0,82,-77.6,50.7,-224.5c0,0,-32.1,-150.7,-168.6,-250.3c0,0,-136.5,-99.4,-346.9,-99.4Z" 
	id="f1_g"
	transform="scale(0.001,-0.001)" />

	<path d="M123.1,0L356.6,1100l806.4,0L1121.2,905.4l-581.8,0L490.1,670.8l534.1,0l-41,-190.7l-534.1,0L389.4,197.5l608.7,0L956.4,0Z" 
	id="f1_9"
	transform="scale(0.001,-0.001)" />

	<path d="M637.1,164.3c0,0,136.5,0,238.3,100.7c0,0,101.8,100.7,141.4,286.5c0,0,38.8,185,-19.8,286.1c0,0,-58.5,101.1,-195.1,101.1c0,0,-136.5,0,-239.1,-100.7c0,0,-102.5,-100.8,-142.1,-286.5c0,0,-39.5,-185.8,20.2,-286.5c0,0,59.7,-100.7,196.2,-100.7ZM596,-30.2c0,0,-235.7,0,-333.4,128.2c0,0,-133.5,157.4,-70.1,453.5c0,0,64.1,302,263.3,453.4c0,0,151.4,128.3,387.2,128.3c0,0,235.7,0,333.4,-128.3c0,0,134.3,-151.4,70.1,-453.4c0,0,-63.4,-296.1,-263.3,-453.5C983.2,98,831.8,-30.2,596,-30.2Z" 
	id="f1_e"
	transform="scale(0.001,-0.001)" />

	<path d="M427.5,-28.2c0,0,-196.2,0,-263.8,116.3c0,0,-67.5,116.4,-27.9,302.3c0,0,44,209.8,171.2,326.2c0,0,127.2,116.5,307,116.5c0,0,152.9,0,235.7,-68.6c0,0,82.8,-68.6,63.4,-242.4l-217.8,0c0,0,3.7,45.4,-13.5,81.9c0,0,-25.3,49.2,-100.7,49.2c0,0,-107.4,0,-169.3,-106.9c0,0,-32.8,-56.8,-53,-150.9c0,0,-18.6,-89.6,-9.7,-144.2c0,0,16.4,-101.6,121.6,-101.6c0,0,74.6,0,114.5,40.3c0,0,39.9,40.3,60.1,104.4l217.1,0c0,0,-27.6,-96.9,-109,-183.3c0,0,-129.8,-139.2,-325.9,-139.2Z" 
	id="f1_n"
	transform="scale(0.001,-0.001)" />

	<path d="M97,0L269.3,813.5l202.9,0L442.4,671.3c0,0,66.4,81.1,108.9,110.9c0,0,70.9,49.9,166.3,49.9c0,0,6,0,10.1,-0.5c0,0,4.1,-0.5,17.5,-1.5L699,613.1c0,0,-19.4,2.3,-35.1,3.1c0,0,-15.6,0.8,-25.3,0.8c0,0,-128.4,0,-190.3,-83.6c0,0,-34.3,-47,-55.2,-144.7L311.1,0Z" 
	id="f1_10"
	transform="scale(0.001,-0.001)" />

	<path d="M688.5,487.9c0,0,12.7,84.6,-24.2,128.3c0,0,-36.9,43.8,-104.8,43.8c0,0,-73.9,0,-124.2,-46.4c0,0,-50.4,-46.4,-77.2,-125.7ZM421.5,-26.3c0,0,-155.2,0,-252.5,99.8c0,0,-97.4,100,-49.6,325.2c0,0,44.7,211.1,175.6,323.7c0,0,131,112.6,301.8,112.6c0,0,101.4,0,174.9,-38c0,0,73.5,-38,108.6,-120.1c0,0,32.8,-72.3,26.1,-167.7c0,0,-3,-56,-26.9,-161.1l-556.5,0c0,0,-21.6,-122.5,40.3,-171.8c0,0,37.3,-30.6,99.2,-30.6c0,0,65.7,0,114.9,37.5c0,0,26.1,20.3,51.5,56.4l217,0c0,0,-23.8,-72.5,-106.6,-147.2c0,0,-129.8,-118.7,-317.8,-118.7Z" 
	id="f1_p"
	transform="scale(0.001,-0.001)" />

	<path d="M417.8,-27.3c0,0,-191.8,0,-266,80.9c0,0,-74.2,81.1,-48.1,206.5l215.6,0c0,0,-5.2,-56.8,12.7,-80.6c0,0,29.8,-42.6,136.5,-42.6c0,0,62.6,0,103.7,18.6c0,0,41,18.7,49.2,55.9c0,0,7.5,35.8,-18.6,54.4c0,0,-26.2,18.7,-208.2,64.1c0,0,-130.5,34.3,-176,85.7c0,0,-46.3,50.7,-25.4,146.1c0,0,23.9,112.6,129.4,193.4c0,0,105.6,80.9,266,80.9c0,0,152.2,0,235,-60.8c0,0,82.8,-60.8,65.6,-210l-212.6,0c0,0,3.7,41.1,-9.7,65.1c0,0,-26.1,43.4,-110.4,43.4c0,0,-69.4,0,-103.3,-21.6c0,0,-34,-21.7,-39.9,-50.8c0,0,-8.2,-36.5,20.1,-52.9c0,0,27.6,-17.2,208.9,-58.9c0,0,120.1,-29.9,170.8,-90.3c0,0,50,-61.1,30.6,-152.9c0,0,-26.1,-120.8,-132,-197.2c0,0,-106,-76.4,-293.9,-76.4Z" 
	id="f1_11"
	transform="scale(0.001,-0.001)" />

	<path d="M134.3,0L273,656.1l-118.6,0l32.1,149.6l116.4,0l11.2,52.2c0,0,27.6,130.5,82,179.8c0,0,61.9,73.1,238.7,73.1c0,0,20.2,0,36.2,-1.3c0,0,16.1,-1.2,44.4,-3.6L678.1,933.1c0,0,-17.2,2.2,-58.9,3.3c0,0,-0.5,0,-1.2,0c-7.1,0,-42.7,-0.9,-61.1,-18.6c0,0,-20.5,-19.8,-25,-43.6c0,0,-5.2,-23.8,-14.9,-68.5l139.5,0L624.4,656.1l-139.5,0L346.1,0Z" 
	id="f1_q"
	transform="scale(0.001,-0.001)" />

	<path d="M32.8,-259L50,-176.9c0,0,67.9,18,107,59.8c0,0,39.2,41.8,60.1,117.1L88,0l47,222l229.8,0L323.8,29.5c0,0,-10.5,-50.6,-35.8,-105.8c0,0,-25.4,-55.2,-70.2,-95.4c0,0,-49.2,-43.3,-107,-65.3c0,0,-57.8,-22,-78,-22Z" 
	id="f1_4"
	transform="scale(0.001,-0.001)" />

	<path d="M103.7,0L337.2,1100l212.6,0L316.3,0Z" 
	id="f1_v"
	transform="scale(0.001,-0.001)" />

	<path d="M364,0l45.6,215.1l222.2,0L586.3,0Zm72.4,318.2c0,0,31.3,126,60.8,174.2c0,0,29.5,48.1,123.5,110.7l63.4,42.6c0,0,31.3,20.1,52.9,44c0,0,38.8,41,49.3,90.2c0,0,11.9,56.7,-11.6,103.4c0,0,-23.5,46.6,-111.5,46.6c0,0,-86.6,0,-134.7,-57.5c0,0,-48.1,-57.4,-61.5,-119.3l-215.6,0c0,0,54.5,212.5,212.6,301.1c0,0,100,56.6,228.3,56.6c0,0,168.6,0,262.9,-80.4c0,0,94.4,-80.4,60.8,-238.5c0,0,-20.9,-97,-83.5,-163.4c0,0,-36.6,-40.3,-130.6,-102.9L740,484.5c0,0,-50,-33.5,-73.8,-78.3c0,0,-15,-28.3,-28.4,-88Z" 
	id="f1_6"
	transform="scale(0.001,-0.001)" />

	<path d="M528.4,-28.2c0,0,-217.1,0,-341.4,97.9c0,0,-124.4,98.1,-124.4,269.6l220,0c0,0,10.6,-75.5,41.7,-112.9c0,0,57,-68,195.2,-68c0,0,82.8,0,134.5,17.9c0,0,97.9,34.4,97.9,127.7c0,0,0,54.5,-48.1,84.4c0,0,-48,29.1,-152.3,51.5L432.8,466c0,0,-175,38.7,-240.9,84.2c0,0,-111.7,76.1,-111.7,238c0,0,0,147.7,108.7,245.4c0,0,108.7,97.7,319.4,97.7c0,0,175.9,0,300.1,-92.2c0,0,124.2,-92.2,130.3,-267.6l-221,0c0,0,-6.1,99.5,-88.7,141.4c0,0,-55.1,27.7,-137,27.7c0,0,-91,0,-145.3,-35.8c0,0,-54.3,-35.9,-54.3,-100.2c0,0,0,-59,53.5,-88.2c0,0,34.4,-19.4,146.1,-45.5L685,625.4c0,0,126.9,-29.8,190.3,-79.7c0,0,98.6,-77.6,98.6,-224.4c0,0,0,-150.6,-116.5,-250.1c0,0,-116.4,-99.4,-329,-99.4Z" 
	id="f2_m"
	transform="scale(0.001,-0.001)" />

	<path d="M123.2,0l0,1100l806.8,0l0,-194.6l-581.9,0l0,-234.6l534.1,0l0,-190.7l-534.1,0l0,-282.6l608.7,0L956.8,0Z" 
	id="f2_c"
	transform="scale(0.001,-0.001)" />

	<path d="M602.5,164.3c0,0,136.6,0,216.8,100.7c0,0,80.3,100.7,80.3,286.5c0,0,0,185,-80.3,286.1c0,0,-80.2,101.1,-216.8,101.1c0,0,-136.6,0,-218,-100.7c0,0,-81.4,-100.8,-81.4,-286.5c0,0,0,-185.8,81.4,-286.5c0,0,81.4,-100.7,218,-100.7Zm0.2,-194.5c0,0,-235.8,0,-360.3,128.2c0,0,-167.1,157.4,-167.1,453.5c0,0,0,302,167.1,453.4c0,0,124.5,128.3,360.3,128.3c0,0,235.7,0,360.3,-128.3c0,0,166.3,-151.4,166.3,-453.4c0,0,0,-296.1,-166.3,-453.5C963,98,838.4,-30.2,602.7,-30.2Z" 
	id="f2_j"
	transform="scale(0.001,-0.001)" />

	<path d="M54.8,132l0,196.5l806.6,0l0,-196.5Zm0,349.1l0,196.5l806.6,0l0,-196.5Z" 
	id="f2_7"
	transform="scale(0.001,-0.001)" />

	<path d="M112.4,0l0,1100l334.2,0L646.5,235.1L844.8,1100l330.5,0l0,-1100L961.2,0l0,744c0,0,0,32.1,0.7,90c0,0,0.8,57.8,0.8,89.1L754.6,0l-223,0L325.1,923.1c0,0,0,-31.3,0.7,-89.1c0,0,0.8,-57.9,0.8,-90l0,-744Z" 
	id="f2_h"
	transform="scale(0.001,-0.001)" />

	<path d="M464.3,150.6c0,0,93.5,0,143.6,66.2c0,0,50.2,66.3,50.2,188.4c0,0,0,122.1,-50.1,187.9c0,0,-50.2,65.9,-143.7,65.9c0,0,-93.5,0,-143.9,-65.8c0,0,-50.5,-65.9,-50.5,-188c0,0,0,-122.1,50.4,-188.3c0,0,50.5,-66.3,144,-66.3Zm1.1,-177.9c0,0,-209.6,0,-312.6,126.9c0,0,-102.9,127,-102.9,305.8c0,0,0,175.8,102.9,304.7c0,0,103,128.8,312.6,128.8c0,0,209.7,0,312.6,-128.8c0,0,103,-128.9,103,-304.7c0,0,0,-178.8,-103,-305.8c0,0,-102.9,-126.9,-312.6,-126.9Z" 
	id="f2_13"
	transform="scale(0.001,-0.001)" />

	<path d="M96.8,0l0,813.5l203.4,0l0,-142c0,0,49.1,81.1,85.6,110.8c0,0,59.6,49.8,154.9,49.8c0,0,6,0,10.1,-0.5c0,0,4.1,-0.5,18.3,-1.5l0,-218c0,0,-20.2,2.9,-35.8,3.9c0,0,-15.7,1,-25.4,1c0,0,-128.3,0,-172.3,-83.6c0,0,-24.7,-47,-24.7,-144.7L310.9,0Z" 
	id="f2_15"
	transform="scale(0.001,-0.001)" />

	<path d="M621.9,486.9c0,0,-5.8,85.1,-56.9,129.1c0,0,-51,44,-126.5,44c0,0,-82.2,0,-127.4,-46.6c0,0,-45.3,-46.7,-56.9,-126.5ZM446.1,-27.3c0,0,-162.5,0,-286.7,100c0,0,-124.2,100,-124.2,325.5c0,0,0,211.3,112.1,324.1c0,0,112.1,112.7,291,112.7c0,0,106.3,0,191.4,-38.1c0,0,85.2,-38.1,140.7,-120.3c0,0,50,-72.5,64.8,-168.1c0,0,8.6,-56,7,-161.4l-592.9,0c0,0,5,-122.5,85.3,-171.8c0,0,48.8,-30.6,117.5,-30.6c0,0,72.9,0,118.4,37.6c0,0,24.9,20.2,43.9,56.3l216.7,0c0,0,-8.6,-72.5,-78.9,-147.2c0,0,-109.3,-118.7,-306.1,-118.7Z" 
	id="f2_u"
	transform="scale(0.001,-0.001)" />

	<path d="M334.6,0L22.4,1100l244,0L412.1,470.1L443.4,294.8l32.1,171.6L599.2,1100l242.3,0L972.1,470.1l33.5,-175.3l33.6,168.6L1186,1100l233.5,0L1110.2,0L890.8,0L757.9,643.5L719.2,856L680.4,643.3L547.8,0Z" 
	id="f2_p"
	transform="scale(0.001,-0.001)" />

	<path d="M486.7,153.5c0,0,82.7,0,128.5,66.4c0,0,45.8,66.5,45.8,174.7c0,0,0,86.5,-22.5,143.3c0,0,-42.8,107.4,-157.8,107.4c0,0,-116.4,0,-159.9,-105.2c0,0,-22.5,-56,-22.5,-144.8c0,0,0,-104.5,46.5,-173.1c0,0,46.6,-68.7,141.9,-68.7ZM543.1,-21.4c0,0,-101.1,0,-162.5,40.1c0,0,-36.7,23.8,-79.4,83.4L301.2,0L91.9,0l0,1098l212.2,0l0,-390.7c0,0,40.5,56.7,89.3,86.5c0,0,57.7,37.3,147,37.3c0,0,161.2,0,252.4,-115.6c0,0,91.1,-115.6,91.1,-298.4c0,0,0,-189.5,-89.9,-314c0,0,-89.9,-124.5,-250.9,-124.5Z" 
	id="f2_r"
	transform="scale(0.001,-0.001)" />

	<path d="M423.8,-27.3c0,0,-191.9,0,-283.4,80.9c0,0,-91.5,81.1,-91.5,206.5l215.1,0c0,0,6.7,-56.8,29.2,-80.6c0,0,39.7,-42.6,146.7,-42.6c0,0,62.9,0,99.9,18.7c0,0,37.1,18.6,37.1,55.9c0,0,0,35.8,-29.6,54.5c0,0,-29.6,18.7,-222.2,64c0,0,-138.6,34.3,-195.2,85.7c0,0,-56.6,50.7,-56.6,146.1c0,0,0,112.5,88.5,193.3c0,0,88.6,80.9,249.2,80.9c0,0,152.3,0,248.3,-60.8c0,0,96,-60.8,110.2,-210l-212.1,0c0,0,-4.5,41.1,-23.3,65.1c0,0,-35.2,43.4,-119.8,43.4c0,0,-69.6,0,-99.2,-21.7c0,0,-29.6,-21.7,-29.6,-50.8c0,0,0,-36.6,31.5,-53c0,0,31.4,-17.2,221.8,-58.9c0,0,127,-29.8,190.4,-90.2c0,0,62.8,-61.1,62.8,-152.8c0,0,0,-120.8,-90,-197.2c0,0,-90,-76.4,-278.2,-76.4Z" 
	id="f2_16"
	transform="scale(0.001,-0.001)" />

	<path d="M102.7,0l0,813.5l216.1,0L318.8,0Zm0,909.3l0,196.6l216.1,0l0,-196.6Z" 
	id="f2_y"
	transform="scale(0.001,-0.001)" />

	<path d="M360.8,-10.8c-34.3,0,-149.3,3.8,-196,52.2c0,0,-35.7,36.5,-35.7,112.6l0,500.1l-113.4,0l0,151.6l113.4,0l0,226.8l210.2,0l0,-226.8l132,0l0,-151.6l-132,0l0,-429c0,0,0,-49.9,12.7,-62.2c0,0,12.6,-12.3,77.5,-12.3c0,0,9.7,0,20.5,0.5c0,0,10.9,0.5,21.3,1.4l0,-158.2L370.6,-10.6c0,0,-3.5,-0.2,-9.8,-0.2Z" 
	id="f2_17"
	transform="scale(0.001,-0.001)" />

	<path d="M406.1,0L34.7,1100l245.4,0L518.7,264.9L759.9,1100l238.7,0L623.1,0Z" 
	id="f2_o"
	transform="scale(0.001,-0.001)" />

	<path d="M354.9,0l0,905.4l-330.5,0l0,194.6l890.8,0l0,-194.6l-328.5,0L586.7,0Z" 
	id="f2_n"
	transform="scale(0.001,-0.001)" />

	<path d="M361.4,129.1c0,0,69.7,0,128.4,40.2c0,0,58.7,40.3,60.9,146.9l2,79c0,0,-21,-12.6,-42.4,-20.5c0,0,-21.3,-7.8,-57.5,-14.5l-48.2,-9c0,0,-67.8,-11.9,-97.8,-29c0,0,-50.6,-29.1,-50.6,-90.2c0,0,0,-54.5,30.6,-78.7c0,0,30.7,-24.2,74.6,-24.2ZM299.5,-25.3c0,0,-110.9,0,-183.2,62.9C116.3,37.6,44,100.5,44,216c0,0,0,149.9,116.3,216.9c0,0,63.9,36.5,187.7,52.2l72.9,8.9c0,0,59.3,7.5,84.8,18.7c0,0,45.8,19.3,45.8,60.3c0,0,0,50,-35,69c0,0,-35.1,19,-102.9,19c0,0,-76.1,0,-107.7,-37.2c0,0,-22.6,-27.4,-30.2,-74.3l-205.3,0c0,0,6.7,106.7,59.8,175.2c0,0,84.5,107.4,290.2,107.4c0,0,133.8,0,237.8,-53.3c0,0,103.9,-53.2,103.9,-200l0,-372.5c0,0,0,-38.7,1.5,-93.9c0,0,2.3,-41.6,12.7,-56.5c0,0,10.5,-14.9,31.3,-24.6L807.6,0L576.7,0c0,0,-9.7,24.6,-13.4,46.2c0,0,-3.7,21.7,-6,49.3c0,0,-44.2,-47.8,-101.9,-81.4c0,0,-68.9,-39.4,-155.9,-39.4Z" 
	id="f2_q"
	transform="scale(0.001,-0.001)" />

	<path d="M134.9,0l0,656.1l-119.3,0l0,149.6l116.4,0l0,52.1c0,0,0,130.3,44,179.5c0,0,46.3,73.5,222.9,73.5c0,0,20.1,0,36.5,-1.3c0,0,16.4,-1.2,44.7,-3.6l0,-173.1c0,0,-17.9,2.9,-59.9,4.1c0,0,-0.5,0,-1.3,0c-7.1,0,-42.4,-0.9,-56.8,-18.7c0,0,-16,-19.8,-16,-43.7c0,0,0,-24,0,-68.8l138.9,0l0,-149.6l-138.9,0L346.1,0Z" 
	id="f2_v"
	transform="scale(0.001,-0.001)" />

	<path d="M434.3,-27.3c0,0,-196.4,0,-288.9,116.1c0,0,-92.6,116.3,-92.6,301.5c0,0,0,209,102.4,325.4c0,0,102.3,116.4,282.4,116.4c0,0,153.2,0,250.7,-68.6c0,0,97.5,-68.6,115.4,-242.3l-218,0c0,0,-6,45.4,-30.7,81.9c0,0,-36,49.1,-111.7,49.1c0,0,-107.9,0,-147.6,-106.5c0,0,-20.9,-56.5,-20.9,-150.2c0,0,0,-89.2,20.9,-143.5c0,0,38.2,-101.4,143.6,-101.4c0,0,74.9,0,106.3,40.3c0,0,31.4,40.3,38.2,104.4l217,0c0,0,-7.5,-96.9,-70.2,-183.3c0,0,-100,-139.3,-296.3,-139.3Z" 
	id="f2_s"
	transform="scale(0.001,-0.001)" />

	<path d="M116.4,0l0,1100l229.7,0l0,-902.5l547.6,0L893.7,0Z" 
	id="f2_g"
	transform="scale(0.001,-0.001)" />

	<path d="M445.7,153.5c0,0,90.2,0,137.1,67.1c0,0,46.9,67.1,46.9,173.7c0,0,0,149.1,-75.1,213.3c0,0,-46.2,38.7,-107.4,38.7c0,0,-93.1,0,-136.7,-70.4c0,0,-43.6,-70.5,-43.6,-174.9c0,0,0,-112.6,44.4,-180c0,0,44.3,-67.5,134.4,-67.5ZM384.2,-25.3c0,0,-142.5,0,-239.9,115.1c0,0,-97.4,115.2,-97.4,295.6c0,0,0,208.1,95.9,327.4c0,0,95.9,119.3,256.4,119.3c0,0,73.9,0,131.4,-32.5c0,0,57.4,-32.4,93.3,-89.9l0,388.3l216,0L839.9,0L632.7,0l0,112.5c0,0,-45.6,-72.3,-103.8,-105.1c0,0,-58.2,-32.7,-144.7,-32.7Z" 
	id="f2_t"
	transform="scale(0.001,-0.001)" />

	<path d="M103.6,0l0,1100l212.2,0L315.8,0Z" 
	id="f2_10"
	transform="scale(0.001,-0.001)" />

	<path d="M240.9,-5.1L226,788.5c0,0,-1.5,70.9,-10.8,107.4c0,0,-9.3,36.6,-25,52.6c0,0,-15.6,16.1,-44,20.5l11.2,49.3l382,0L528.2,969c0,0,-21.7,-3,-37,-10c0,0,-15.3,-7.1,-25.3,-20.9c0,0,-10.1,-13.8,-14.2,-35.5c0,0,-4.1,-21.6,-4.9,-39.5l-0.7,-87.3l-3,-280.5c0,0,-0.7,-61.9,-3.7,-149.2l-3.7,-88.7l9.6,0c0,0,17.2,38,37,79c0,0,19.7,41.1,72,145.5l269.3,536.4l163.3,0l0.8,-488.6l0.7,-66.4c0,0,0,-104.5,-5.2,-205.9l9.7,0c0,0,35.1,73.1,126.1,252.8l111.1,217.1c0,0,32.9,63.4,48.5,103.7c0,0,15.7,40.3,15.7,67.2c0,0,0,22.3,-5.2,35.8c0,0,-5.3,13.4,-19.4,22.4c0,0,-14.2,8.9,-38.8,12.6l11.2,49.3l317,0L1547.9,969c0,0,-24.6,-4.4,-43.6,-17.9c0,0,-19,-13.4,-36.2,-35.8c0,0,-17.2,-22.4,-33.6,-51.1c0,0,-16.4,-28.7,-44,-80.2L963.1,-5.1L784,-5.1l-1.5,480.3l0,126.8c0,0,0,48.5,0.8,101.5l-9.7,0c0,0,-24.6,-53,-41.8,-88.8L420,-5.1Z" 
	id="f3_6"
	transform="scale(0.001,-0.001)" />

	<path d="M38,0L226.8,843c0,0,16.4,73.1,16.4,106.6c0,0,0,16.4,-3.4,25.8c0,0,-3.3,9.3,-10,15.3c0,0,-6.7,5.9,-17.9,9.3c0,0,-11.2,3.4,-44.1,7.8l12,48.5l223,12l84.3,0L372.2,612.5l9.7,-3c0,0,59.7,73.1,121.3,107.8c0,0,61.5,34.7,137.6,34.7c0,0,76.1,0,120.1,-42.9c0,0,44,-42.9,44,-118.3c0,0,0,-48.5,-14.9,-115.6l-61.2,-276c0,0,-7.4,-34.3,-10,-53c0,0,-2.7,-18.6,-2.7,-32.1c0,0,0,-33.5,16.8,-47c0,0,16.8,-13.4,57.8,-17.9L781.8,0L472.2,0l93.3,405.8c0,0,20.1,86.6,24.6,119.4c0,0,4.5,32.8,4.5,51.4c0,0,0,33.6,-14.2,50c0,0,-14.2,16.4,-41,16.4c0,0,-23.9,0,-52.3,-17.9c0,0,-28.3,-17.9,-63.4,-55.9c0,0,-35,-38.1,-55.9,-80.6c0,0,-20.9,-42.5,-33.6,-105.9L252.1,0Z" 
	id="f3_8"
	transform="scale(0.001,-0.001)" />

	<path d="M323,97.7c0,0,49.2,0,100.3,48.1c0,0,51.2,48.2,82.5,113.1c0,0,31.3,64.9,55.9,177.5l6,27.6c0,0,5.2,23.9,8.6,53.3c0,0,3.3,29.5,3.3,57.1c0,0,0,49.2,-18.6,74.6c0,0,-18.7,25.4,-61.2,25.4c0,0,-69.4,0,-123.1,-69.8c0,0,-53.7,-69.7,-86.5,-187.6c0,0,-32.8,-117.9,-32.8,-211.1c0,0,0,-54.5,16,-81.3c0,0,16,-26.9,49.6,-26.9ZM232,-11.8c0,0,-52.2,0,-91.7,24.5c0,0,-39.6,24.6,-62.7,77.9c0,0,-23.1,53.4,-23.1,135.4c0,0,0,78.4,18.2,158.2c0,0,18.3,79.8,54.1,148.8c0,0,35.8,69,90.3,118.2c0,0,54.4,49.3,123.4,75c0,0,69.1,25.8,150.4,25.8c0,0,111.1,0,189.4,-53.8L747.5,752L831,740L716.1,220.1c0,0,-8.9,-39.6,-13,-63.4c0,0,-4.1,-23.9,-4.1,-40.3c0,0,0,-33.6,16.4,-48.5c0,0,16.4,-14.9,58.2,-18.7L765.4,0L478.9,0l40.3,152.9l-9.7,3c0,0,-50.7,-65.6,-94.4,-101.8c0,0,-43.6,-36.2,-85.7,-51.1c0,0,-42.2,-14.8,-97.4,-14.8Z" 
	id="f3_7"
	transform="scale(0.001,-0.001)" />

	<path d="M258.9,-11.8c0,0,-60.5,0,-100.4,21.9c0,0,-39.9,22,-57.8,58.9c0,0,-17.9,36.9,-17.9,83.2c0,0,0,35,5.2,66.7c0,0,5.3,31.7,21.7,104.1l76.8,323.8l-100.7,0L96.2,696c0,0,46.3,3,72.4,15.3c0,0,26.1,12.3,44.4,36.2c0,0,18.3,23.8,34.7,65.6c0,0,16.4,41.8,36.5,113.4l179.1,0L420,740l181.3,0L581.1,646.8l-182.7,0L315.5,305.9c0,0,-5.2,-22.4,-9.6,-44.1c0,0,-4.5,-21.6,-7.5,-41.4c0,0,-3,-19.7,-4.1,-32.8c0,0,-1.1,-13,-1.1,-23.5c0,0,0,-35,12.6,-51.1c0,0,12.7,-16,37.4,-16c0,0,33.5,0,68.9,23.8c0,0,35.5,23.9,76.5,73.9l57.5,-58.9c0,0,-53,-57.5,-94.8,-88.1c0,0,-41.7,-30.5,-87.2,-45.1c0,0,-45.6,-14.4,-105.2,-14.4Z" 
	id="f3_b"
	transform="scale(0.001,-0.001)" />

	<path d="M47,0L163.4,520.7c0,0,9.7,44.8,13.4,69.7c0,0,3.7,25,3.7,42.2c0,0,0,29.1,-13.8,41.4c0,0,-13.8,12.3,-57.8,16.8L120.1,740l218.6,8.2l85,0L303.6,199.2c0,0,-8.2,-37.3,-10.4,-55.2c0,0,-2.3,-17.9,-2.3,-29.9c0,0,0,-32,16.8,-46.2c0,0,16.8,-14.2,57.8,-18.7L357.3,0ZM243.9,854.9L285,1037.7l190.9,0L437.1,854.9Z" 
	id="f3_9"
	transform="scale(0.001,-0.001)" />

	<path d="M274.5,-11.8c0,0,-79.8,0,-148.4,9.7c0,0,-68.7,9.6,-129,26l41.7,185l94.7,0c0,0,3.8,-53.7,22,-86.2c0,0,18.3,-32.4,45.2,-44.7c0,0,26.8,-12.4,62.6,-12.4c0,0,59,0,91,28.8c0,0,32.1,28.7,32.1,80.9c0,0,0,31.3,-10.4,53c0,0,-10.5,21.6,-34.3,42.1c0,0,-23.9,20.5,-77.6,53.4c0,0,-74.6,44.7,-108.6,92.8c0,0,-33.9,48.2,-33.9,107.8c0,0,0,109.7,82.1,168.6c0,0,82,59,229.7,59c0,0,57.5,0,123.5,-9.4c0,0,66,-9.3,120.5,-25L638.6,539.4l-94.8,0c0,0,-6.7,69.3,-35.4,102.1c0,0,-28.7,32.9,-82.4,32.9c0,0,-50,0,-80.2,-25.8c0,0,-30.3,-25.7,-30.3,-69.7c0,0,0,-27.6,11.6,-48.5c0,0,11.6,-20.9,36.9,-41.8c0,0,25.4,-20.9,75.4,-50.7c0,0,79.1,-47,113.4,-97c0,0,34.3,-50,34.3,-117.1c0,0,0,-76.1,-40.7,-129.8c0,0,-40.6,-53.7,-111.1,-79.8c0,0,-70.5,-26,-160.8,-26Z" 
	id="f3_a"
	transform="scale(0.001,-0.001)" />

	<path d="M282,-11.8c0,0,-68.6,0,-143.6,11.8c0,0,-75,11.9,-144.3,33.6L40.3,248.4l97.7,0c0,0,2.3,-65.6,20.1,-103.3c0,0,17.9,-37.7,50.8,-53.7c0,0,32.8,-16,86.5,-16c0,0,81.3,0,128.3,46.6c0,0,47,46.6,47,130.1c0,0,0,43.3,-14.9,76.5c0,0,-14.9,33.2,-45.9,64.5c0,0,-30.9,31.4,-107,87.3c0,0,-70.9,52.2,-107.1,115.6c0,0,-36.2,63.5,-36.2,132.8c0,0,0,59,25.4,115.6c0,0,25.4,56.7,75,98.9c0,0,49.6,42.1,124.9,64.5c0,0,75.4,22.4,176.1,22.4c0,0,74.6,0,137.2,-7.8c0,0,62.7,-7.9,129.1,-28L781.8,781.8l-97.7,0c0,0,-0.8,83.5,-32.9,122.3c0,0,-32,38.8,-103.6,38.8c0,0,-78.4,0,-123.9,-42.1c0,0,-45.5,-42.2,-45.5,-116c0,0,0,-52.2,36.2,-98.9c0,0,36.2,-46.6,109.3,-99.6c0,0,66.4,-49.2,102.2,-88.4c0,0,35.8,-39.1,53.7,-83.1c0,0,17.9,-44,17.9,-100.7c0,0,0,-76.1,-36.6,-144.8c0,0,-35,-64.1,-94.7,-106.6c0,0,-53,-37.3,-108.9,-53.7c0,0,-68.6,-20.8,-175.3,-20.8Z" 
	id="f3_5"
	transform="scale(0.001,-0.001)" />

	<path d="M4.5,0L14.9,49.2c0,0,31.3,9,48.1,24.7c0,0,16.8,15.6,28.8,44.3c0,0,11.9,28.8,23.8,83.2L251.4,816.9c0,0,9.7,44,9.7,87.2c0,0,0,31.4,-14.5,45.9c0,0,-14.6,14.6,-47.4,19l10.4,49.3l724.4,0L881,778.1l-95.5,0c0,0,-3.7,70.8,-13.4,99.2c0,0,-9.7,28.3,-29.8,41c0,0,-20.2,12.7,-56.7,12.7l-187.3,0L419.2,572.9l103.7,0c0,0,29.9,0,50.4,9.7c0,0,20.5,9.7,38,32.5c0,0,17.6,22.7,34.7,63l82.1,0L656.5,375.2l-76.9,0c0,0,0,43.3,-5.2,66.4c0,0,-5.2,23.2,-19.4,33.6c0,0,-14.2,10.4,-48.5,10.4l-105.9,0L312.6,87.3l167.8,0c0,0,32.8,0,51.1,4.5c0,0,18.3,4.4,33.6,14.1c0,0,15.3,9.7,35.4,31c0,0,20.2,21.3,39.9,53.7c0,0,19.8,32.5,40.7,78l101.4,0L713.9,0Z" 
	id="f3_3"
	transform="scale(0.001,-0.001)" />

	<path d="M441.6,75.4c0,0,35.8,0,68.6,16.4c0,0,41.1,20.1,78.4,61.9c0,0,46.2,51.5,85,131.3c0,0,38.8,79.8,64.2,174.5c0,0,20.9,76.9,36.5,179.1c0,0,9,56.7,9,111.9c0,0,0,99.9,-29.8,146.2c0,0,-29.9,46.2,-98.5,46.2c0,0,-64.9,0,-126.1,-57.8c0,0,-61.2,-57.8,-110.8,-163c0,0,-49.6,-105.2,-76.4,-236.1c0,0,-26.9,-130.9,-26.9,-215.9c0,0,0,-103,29.8,-148.9c0,0,29.9,-45.8,97,-45.8Zm-8.2,-87.2c0,0,-170.1,0,-256.6,89c0,0,-86.5,89.2,-86.5,262.2c0,0,0,59,11.9,135c0,0,11.9,76.1,40.3,160.8c0,0,28.3,84.7,78.3,160c0,0,50,75.4,117.5,128.7c0,0,67.5,53.3,150.3,79.8c0,0,82.8,26.5,173.8,26.5c0,0,170.1,0,257.8,-88.8c0,0,87.6,-88.7,87.6,-258.1c0,0,0,-71.6,-15.3,-159.2c0,0,-15.3,-87.7,-49.9,-176.1c0,0,-34.7,-88.4,-85.5,-157c0,0,-50.7,-68.7,-117.1,-114.5c0,0,-66.4,-45.9,-142.8,-67.2c0,0,-76.5,-21.1,-163.8,-21.1Z" 
	id="f3_4"
	transform="scale(0.001,-0.001)" />

	<path d="M129.8,0l50,225.3l191,0L320,0ZM229,332.7l6.7,27.6c0,0,3,9.7,6.7,20.1c0,0,3.8,10.5,9.4,22.4c0,0,5.6,12,14.5,26.9c0,0,9,14.9,23.1,34.3c0,0,14.2,19.4,32.5,40.7c0,0,18.3,21.2,42.1,47.3c0,0,57.5,62,89.6,107.1c0,0,32,45.1,50.3,92.9c0,0,18.3,47.7,18.3,99.2c0,0,0,49.2,-19,75.3c0,0,-19.1,26.1,-58.6,26.1c0,0,-44.7,0,-80.6,-35.8c0,0,-35.8,-35.8,-55.2,-99.9l-132.8,0l31.4,143.9c0,0,73.1,29.9,116,42.9c0,0,42.9,13.1,84.7,19.8c0,0,41.7,6.7,85.7,6.7c0,0,79.1,0,131.7,-23.1c0,0,52.6,-23.1,76.5,-61.2c0,0,23.8,-38,23.8,-85c0,0,0,-41.1,-11.5,-77.2c0,0,-11.6,-36.2,-36.6,-72.4c0,0,-25,-36.2,-64.9,-75.7c0,0,-39.9,-39.6,-114.5,-106.7c0,0,-47,-43.3,-73.1,-73.1c0,0,-26.1,-29.8,-39.9,-56.3c0,0,-13.8,-26.5,-21.3,-60.1l-1.5,-6.7Z" 
	id="f3_c"
	transform="scale(0.001,-0.001)" />

	<path d="M496.9,-32.2c0,0,-199.3,0,-312.1,104.5c0,0,-112.7,103.8,-110.5,281.7l139.8,0c0,0,5.1,-93.6,42.4,-151.9c0,0,71.1,-109.2,250.5,-109.2c0,0,80.4,0,146.5,23.9c0,0,127.8,46.3,127.8,165.7c0,0,0,89.6,-54.2,127.7c0,0,-55,37.4,-172.1,65.1L411.2,508.9c0,0,-141,33,-199.5,72.5c0,0,-101.2,68.6,-101.2,205c0,0,0,147.7,99.4,242.4c0,0,99.5,94.7,281.7,94.7c0,0,167.7,0,284.9,-83.2c0,0,117.2,-83.2,117.2,-265.9l-139.8,0c0,0,-10.7,88.1,-45.8,135.1c0,0,-65,85.9,-220.9,85.9c0,0,-125.8,0,-180.8,-55.3c0,0,-55.1,-55.2,-55.1,-128.3c0,0,0,-80.7,65.1,-118c0,0,42.6,-23.9,193,-59.7L658.4,599c0,0,107.8,-25.4,166.3,-69.4c0,0,101.3,-76.8,101.3,-223.1c0,0,0,-182.1,-129.1,-260.4c0,0,-129.1,-78.3,-300,-78.3Z" 
	id="f4_13"
	transform="scale(0.001,-0.001)" />

	<path d="M640.5,462.5c0,0,-8.2,87.3,-37.8,139.6c0,0,-54.9,97,-183.1,97c0,0,-91.9,0,-154.2,-66.8c0,0,-62.2,-66.8,-65.9,-169.8ZM407.6,-28.2c0,0,-148.5,0,-251.6,108.3C156,80.1,52.8,188.6,52.8,384c0,0,0,192.3,103.9,312.4c0,0,103.8,120,271.5,120c0,0,84.5,0,163.9,-39.9c0,0,79.4,-40,120.9,-103.4c0,0,40.1,-60.5,53.4,-141.2c0,0,11.9,-55.2,11.9,-176l-581.8,0c0,0,3.7,-121.7,57.1,-195.3C253.6,160.6,307,87,419,87c0,0,104.6,0,166.9,69.7c0,0,35.1,40.4,49.7,93.6l132,0c0,0,-5.2,-43.9,-34.7,-98c0,0,-29.4,-54,-65.8,-88.3c0,0,-60.8,-59.6,-150.5,-80.3c0,0,-48.2,-11.9,-109,-11.9Z" 
	id="f4_1e"
	transform="scale(0.001,-0.001)" />

	<path d="M344.9,88c0,0,71,0,137.5,32.5c0,0,112.1,53.9,112.1,177.6l0,108c0,0,-24.6,-15.8,-63.3,-26.3c0,0,-38.7,-10.6,-76,-14.9L374,354.8c0,0,-73,-9.4,-110,-30.3c0,0,-62.6,-34.9,-62.6,-111.5c0,0,0,-58.1,42.6,-91.5c0,0,42.6,-33.5,100.9,-33.5Zm-31,-114.3c0,0,-111.3,0,-181.8,67.3c0,0,-70.5,67.4,-70.5,168.6c0,0,0,110.9,69.4,172c0,0,69.4,61,182.1,75.2l214.3,26.8c0,0,46.2,6,61.9,38.8c0,0,9.1,17.9,9.1,51.6c0,0,0,68.9,-48.8,99.9c0,0,-48.8,31.1,-139.7,31.1c0,0,-105.1,0,-149.1,-56.9c0,0,-24.6,-31.5,-32,-93.7l-125.2,0c0,0,3.8,148.1,95.7,206c0,0,92,58,213.4,58c0,0,140.8,0,228.6,-53.7c0,0,87.2,-53.7,87.2,-167.2l0,-460.3c0,0,0,-20.9,8.5,-33.6c0,0,8.6,-12.7,36.3,-12.7c0,0,9,0,20.2,1.2c0,0,11.2,1.1,23.9,3.3l0,-99.3c0,0,-31.3,-9.1,-47.7,-11.3c0,0,-16.4,-2.3,-44.7,-2.3c0,0,-69.4,0,-100.7,49.3c0,0,-16.4,26.2,-23.1,74.1c0,0,-41,-53.5,-117.9,-92.9c0,0,-76.9,-39.3,-169.4,-39.3Z" 
	id="f4_1a"
	transform="scale(0.001,-0.001)" />

	<path d="M102.7,0l0,798.8l127.1,0l0,-138.4c0,0,15.7,40.3,77.1,98.2c0,0,61.4,57.8,141.5,57.8c0,0,3.7,0,12.7,-0.7c0,0,9,-0.8,30.7,-3.2l0,-141.7c0,0,-11.9,2.3,-22,3.1c0,0,-10.2,0.8,-22.1,0.8c0,0,-101.8,0,-156.4,-65.3c0,0,-54.7,-65.3,-54.7,-150.3L236.6,0Z" 
	id="f4_1r"
	transform="scale(0.001,-0.001)" />

	<path d="M387.3,-23.4c0,0,-156.7,0,-250,114.4C137.3,91,44,205.4,44,376.9c0,0,0,210.3,102.2,327.4c0,0,102.3,117,260.5,117c0,0,135.1,0,219.8,-65.5c0,0,84.7,-65.6,102,-225.8l-131,0c0,0,-12,73.6,-54.6,122.3c0,0,-42.5,48.8,-136.6,48.8c0,0,-128.5,0,-183.7,-125.1c0,0,-35.8,-81.2,-35.8,-200.4c0,0,0,-119.8,50.7,-201.8c0,0,50.8,-81.9,159.8,-81.9c0,0,83.7,0,132.6,51c0,0,48.9,51.1,67.6,139.7l131,0c0,0,-22.5,-159,-112.1,-232.5c0,0,-89.5,-73.5,-229.1,-73.5Z" 
	id="f4_1c"
	transform="scale(0.001,-0.001)" />

	<path d="M98.8,0l0,1100l133.9,0l0,-409.3c0,0,47.8,60.5,85.9,85.1c0,0,64.9,42.6,161.9,42.6c0,0,173.9,0,235.9,-121.6c0,0,33.6,-66.4,33.6,-184.3L750,0L612.1,0l0,503.5c0,0,0,88,-22.4,129c0,0,-36.6,65.6,-137.4,65.6c0,0,-83.7,0,-151.6,-57.4c0,0,-68,-57.4,-68,-217L232.7,0Z" 
	id="f4_1h"
	transform="scale(0.001,-0.001)" />

	<path d="M98.8,0l0,798.8l127.1,0l0,-114c0,0,56.7,70.3,120.2,101c0,0,63.4,30.6,141.1,30.6c0,0,170.2,0,229.9,-118.5c0,0,32.9,-64.9,32.9,-185.7L750,0L613.1,0l0,503c0,0,0,73,-21.6,117.7c0,0,-35.8,74.5,-129.8,74.5c0,0,-47.7,0,-78.3,-9.7c0,0,-55.2,-16.4,-97,-65.5c0,0,-33.6,-39.6,-43.6,-81.6c0,0,-10.1,-42.1,-10.1,-120.4l0,-418Z" 
	id="f4_1n"
	transform="scale(0.001,-0.001)" />

	<path d="M384.4,99.7c0,0,143.5,0,202,130.8c0,0,32.6,74,32.6,172.6c0,0,0,148.7,-60.7,220.4c0,0,-60.7,71.7,-154.7,71.7c0,0,-140.6,0,-192.4,-133c0,0,-27.4,-71,-27.4,-186c0,0,0,-135.3,54.4,-205.9c0,0,54.4,-70.6,146.2,-70.6Zm0.1,-437.9c0,0,-128.4,0,-216,57.8c0,0,-87.6,57.7,-98.1,180.8l136.9,0c0,0,9.6,-53.6,38.4,-82.5c0,0,45.2,-44.6,142.1,-44.6c0,0,153.1,0,200.4,108.8c0,0,28.1,64.2,25.9,228.8c0,0,-40.1,-61.1,-96.4,-90.9c0,0,-56.4,-29.7,-149.1,-29.7c0,0,-129.1,0,-225.9,92.1c0,0,-96.7,92.2,-96.7,304.9c0,0,0,200.8,97.4,313.5c0,0,97.5,112.7,235.4,112.7c0,0,93.4,0,163.1,-46.1c0,0,37.8,-26.1,77.1,-75.9l0,99.5l124.1,0l0,-726.5c0,0,0,-152.1,-44.5,-240.1c0,0,-83.2,-162.6,-314.1,-162.6Z" 
	id="f4_1g"
	transform="scale(0.001,-0.001)" />

	<path d="M98.8,0l0,794.9l136.8,0L235.6,0Zm0,943.6l0,152.5l136.8,0l0,-152.5Z" 
	id="f4_1i"
	transform="scale(0.001,-0.001)" />

	<path d="M413,87c0,0,132.2,0,181.3,100.9c0,0,49.1,100.8,49.1,224.4c0,0,0,111.6,-35.5,181.5c0,0,-56.1,110.2,-193.4,110.2c0,0,-121.9,0,-177.3,-93.8c0,0,-55.3,-93.7,-55.3,-226.2c0,0,0,-127.3,55.3,-212.1c0,0,55.4,-84.9,175.8,-84.9ZM400.3,-28.2c0,0,-163.7,0,-260,111.2C140.3,83,44,194.3,44,382c0,0,0,201,101.5,320.2c0,0,101.5,119.1,272.5,119.1c0,0,153.4,0,259.3,-102.7c0,0,105.9,-102.8,105.9,-302.4c0,0,0,-192.9,-93.3,-318.7c0,0,-93.3,-125.7,-289.6,-125.7Z" 
	id="f4_1o"
	transform="scale(0.001,-0.001)" />

	<path d="M435.1,90.9c0,0,94.2,0,156.6,78.6c0,0,62.4,78.6,62.4,234.9c0,0,0,95.4,-27.6,163.9c0,0,-52.3,131.8,-191.4,131.8c0,0,-139.8,0,-191.3,-139.3c0,0,-27.7,-74.4,-27.7,-189.1c0,0,0,-92.3,27.7,-157.1c0,0,52.3,-123.7,191.3,-123.7ZM87,-318.6L87,794.9l131.1,0l0,-106c0,0,40.3,54.7,88.1,84.6c0,0,68,44.9,160,44.9c0,0,136,0,230.9,-104c0,0,94.9,-104,94.9,-297.1c0,0,0,-261,-137,-372.9c0,0,-86.8,-70.7,-202,-70.7c0,0,-90.6,0,-152,39.5c0,0,-35.9,22.4,-80,77l0,-408.8Z" 
	id="f4_1p"
	transform="scale(0.001,-0.001)" />

	<path d="M287.1,-12.6c0,0,-93.9,0,-127.4,48c0,0,-33.6,48.1,-33.6,125l0,528.9l-108.5,0l0,109.5l108.5,0l0,223l135.9,0l0,-223l127.2,0l0,-109.5l-127.2,0l0,-521.5c0,0,0,-41.8,28.3,-56c0,0,15.6,-8.2,52,-8.2c0,0,9.7,0,20.8,0.5c0,0,11.2,0.5,26.1,2.5L389.2,0c0,0,-23.1,-6.6,-48.1,-9.6c0,0,-25,-3,-54,-3Z" 
	id="f4_1t"
	transform="scale(0.001,-0.001)" />

	<path d="M98.8,0l0,798.8l132,0l0,-113.5c0,0,47.8,58.8,86.7,85.7c0,0,66.5,45.4,151,45.4c0,0,95.7,0,154,-46.9c0,0,32.9,-26.8,59.8,-79c0,0,44.8,64.1,105.3,95c0,0,60.4,30.9,135.8,30.9c0,0,161.3,0,219.5,-116.3c0,0,31.4,-62.6,31.4,-168.5L1174.3,0L1034.5,0l0,554.8c0,0,0,79.8,-39.9,109.6c0,0,-40,29.8,-97.4,29.8c0,0,-79.1,0,-136.1,-52.9c0,0,-57.1,-53,-57.1,-176.7L704,0L567.1,0l0,520.9c0,0,0,81.2,-19.4,118.4c0,0,-30.6,55.9,-114.2,55.9c0,0,-76.1,0,-138.5,-58.6c0,0,-62.3,-58.7,-62.3,-213.1L232.7,0Z" 
	id="f4_1m"
	transform="scale(0.001,-0.001)" />

	<path d="M39.1,0l0,106.1L512.8,678.6l-438.5,0l0,120.2l619,0l0,-109.8L222.7,120.3l485.2,0L707.9,0Z" 
	id="f4_1z"
	transform="scale(0.001,-0.001)" />

	<path d="M385,-30.2c0,0,-180.5,0,-255.7,80.9c0,0,-75.1,81.1,-80.4,200.6l129.1,0c0,0,6.1,-67.3,34.2,-103.2c0,0,51.8,-65,179.7,-65c0,0,76.1,0,134,32.4c0,0,57.8,32.4,57.8,100.2c0,0,0,51.4,-46.2,78.2c0,0,-29.5,16.4,-116.7,38L312.4,358.8c0,0,-103.9,25.3,-153.1,56.6c0,0,-87.9,54.4,-87.9,150.6c0,0,0,113.3,82.8,183.3c0,0,82.9,70.1,222.8,70.1c0,0,183.1,0,264.1,-105.8c0,0,50.7,-67.1,49.2,-144.5l-127.1,0c0,0,-3.8,45.2,-32.8,82.3c0,0,-47.3,52.6,-164.1,52.6c0,0,-77.9,0,-118,-29c0,0,-40,-29,-40,-76.5c0,0,0,-52.1,52.6,-83.3c0,0,30.4,-18.5,89.6,-32.7l90.4,-21.6c0,0,147.3,-35.1,197.4,-67.9c0,0,78.4,-51.4,78.4,-161.7c0,0,0,-106.6,-82,-184.1c0,0,-81.9,-77.4,-249.7,-77.4Z" 
	id="f4_1s"
	transform="scale(0.001,-0.001)" />

	<path d="M132,0l0,689.3l-111.5,0l0,105.6l111.5,0l0,125.6c0,0,3,83.6,29.1,122.5c0,0,46.9,68.7,181.2,68.7c0,0,12.6,0,26,-0.7c0,0,13.5,-0.7,30.6,-2.2l0,-122.2c0,0,-21,1.3,-30.4,1.6c0,0,-9.5,0.3,-17.7,0.3c0,0,-61.8,0,-73.8,-31.7c0,0,-12,-31.8,-12,-161.9l133.9,0l0,-105.6l-133.9,0L265,0Z" 
	id="f4_1f"
	transform="scale(0.001,-0.001)" />

	<path d="M303.2,0L8.3,798.8l155.9,0L377.9,148.4L600.6,798.8l146.9,0L446.5,0Z" 
	id="f4_1v"
	transform="scale(0.001,-0.001)" />

	<path d="M100.7,0l0,811.6l205.4,0l0,-119.1c0,0,40.8,62.7,77.2,90.3c0,0,65.3,49.3,165.6,49.3c0,0,125.5,0,205.3,-66c0,0,79.9,-66.1,79.9,-218.9L834.1,0L616,0l0,494.1c0,0,0,64.1,-17,98.4c0,0,-31,62.6,-118.3,62.6c0,0,-107.2,0,-147.1,-91.7c0,0,-20.7,-48.4,-20.7,-123.7L312.9,0Z" 
	id="f2_12"
	transform="scale(0.001,-0.001)" />

	<path d="M96.8,0l0,1096.1l209.2,0l0,-593.4L574.1,809.6l264.3,0L547.1,506.7L849.7,0L591,0L394.8,347.5L306,255.9L306,0Z" 
	id="f2_z"
	transform="scale(0.001,-0.001)" />

	<path d="M448.6,174.1c0,0,74.5,0,125.8,56.3c0,0,51.4,56.3,51.4,179.4c0,0,0,115.6,-48.8,176.1c0,0,-48.7,60.4,-130.7,60.4c0,0,-111.7,0,-154.1,-105.2c0,0,-22.3,-55.9,-22.3,-138c0,0,0,-70.9,23.8,-126.1c0,0,43.2,-102.9,154.9,-102.9ZM432.8,-332.3c0,0,-155.9,0,-254.4,61.3c0,0,-98.5,61.3,-109,183.1l231.8,0c0,0,8.9,-37.4,29,-53.9c0,0,34.3,-29.2,115.6,-29.2c0,0,114.9,0,153.7,76.6c0,0,25.3,49.1,25.3,165l0,52.1c0,0,-30.6,-52.1,-65.7,-78.2c0,0,-63.5,-48.3,-165,-48.3c0,0,-156.8,0,-250.5,109.9c0,0,-93.7,110,-93.7,297.9c0,0,0,181.2,90.2,304.7c0,0,90.2,123.4,255.8,123.4c0,0,61.1,0,106.6,-18.6c0,0,77.5,-32.1,125.3,-117.7l0,117.7l207.2,0L835,42.1c0,0,0,-157.3,-53,-237.2c0,0,-91,-137.2,-349.2,-137.2Z" 
	id="f2_w"
	transform="scale(0.001,-0.001)" />

	<path d="M170.2,-327.4c0,0,-28.3,0,-43.6,2.2c0,0,-15.3,2.2,-37.6,8.2l0,122c0,0,35,-9.7,50.7,-11.9c0,0,15.6,-2.2,27.5,-2.2c0,0,37.3,0,54.8,12.3c0,0,17.5,12.3,29.5,30.3c0,0,3.7,6,26.8,61.4c0,0,23.1,55.3,33.6,82.2L16.1,798.8l152.4,0L382.8,148.5L598.2,798.8l148.3,0c0,0,-28.3,-76.8,-125.9,-350.5c0,0,-73.1,-205.8,-122.3,-335.5c0,0,-116.3,-305.9,-164,-373.1c0,0,-47.7,-67.1,-164.1,-67.1Z" 
	id="f4_1y"
	transform="scale(0.001,-0.001)" />

	<path d="M357.1,-21.4c0,0,-167.6,0,-228.4,114c0,0,-32.9,61.1,-32.9,163.3l0,542.9l136.9,0l0,-530.4c0,0,0,-61.2,18.9,-100c0,0,34.9,-71.6,130,-71.6c0,0,136.6,0,186,125.3c0,0,26.9,67.2,26.9,184.3l0,392.4l134,0L728.5,0L602.3,0l1.5,117.7c0,0,-25.6,-45.4,-63.7,-76.7c0,0,-75.4,-62.4,-183,-62.4Z" 
	id="f4_1u"
	transform="scale(0.001,-0.001)" />

	<path d="M243.4,0L13.2,798.8l146.9,0L313.4,169.3L469.3,798.8l150.8,0L776.8,173l163,625.8l134.3,0L842.4,0L702.9,0L540.2,618.4L382.8,0Z" 
	id="f4_1w"
	transform="scale(0.001,-0.001)" />

	<path d="M436.7,92.9c0,0,109.1,0,163.3,86.5c0,0,54.1,86.5,54.1,228.2c0,0,0,126,-54.1,208.8c0,0,-54.2,82.7,-159.6,82.7c0,0,-91.9,0,-161,-67.8c0,0,-69.2,-67.9,-69.2,-223.7c0,0,0,-112.6,28.4,-182.7c0,0,53.1,-132,198.1,-132Zm8.5,-118.2c0,0,-91.2,0,-154,43.8c0,0,-37.4,26,-80,83.3L211.2,0L87,0l0,1100l131,0l0,-398.6c0,0,44.1,57.5,105.4,87.7c0,0,61.3,30.3,133,30.3c0,0,149.5,0,242.5,-102.6c0,0,93.1,-102.5,93.1,-302.3c0,0,0,-189.4,-91.9,-314.6c0,0,-92,-125.2,-254.9,-125.2Z" 
	id="f4_1b"
	transform="scale(0.001,-0.001)" />

	<path d="M141,657.1l-24.6,439l135.9,0l-24.7,-439Z" 
	id="f4_5"
	transform="scale(0.001,-0.001)" />

	<path d="M411.1,89c0,0,92.5,0,152.2,80.2c0,0,59.6,80.2,59.6,230.1c0,0,0,151.4,-61.5,224.2c0,0,-61.4,72.7,-151.8,72.7c0,0,-100.7,0,-163.2,-77.6c0,0,-62.6,-77.6,-62.6,-228.3c0,0,0,-128.3,54.1,-214.8c0,0,54,-86.5,173.2,-86.5ZM369.2,-28.2c0,0,-132.8,0,-230,112.2C139.2,84,42,196.3,42,382.9c0,0,0,174.6,88.7,302.6c0,0,88.7,128,253.5,128c0,0,91.3,0,152.9,-38.9c0,0,35.6,-22.4,80.9,-78.4l0,403.8l129,0L747,0L625.8,0l0,111.4c0,0,-46.7,-74,-110.5,-106.9c0,0,-63.8,-32.7,-146.1,-32.7Z" 
	id="f4_1d"
	transform="scale(0.001,-0.001)" />

	<path d="M102.7,0l0,1096.1l133.9,0L236.6,0Z" 
	id="f4_1l"
	transform="scale(0.001,-0.001)" />

	<path d="M363.7,-310.8c0,0,-108.9,170.1,-135,217.1c0,0,-26.1,47,-56.7,127.4c0,0,-41.8,110.4,-58.2,235.7c0,0,-8.2,64.9,-8.2,123.9c0,0,0,220.8,69.5,393.1c0,0,44,109.7,183.8,328.3l92.8,0c0,0,-117.2,-227.6,-152.3,-335c0,0,-53,-163.4,-53,-377.5c0,0,0,-216.3,60.4,-395.3c0,0,37.3,-110.3,146.9,-317.7Z" 
	id="f4_6"
	transform="scale(0.001,-0.001)" />

	<path d="M554.1,-28.2c0,0,-191.5,0,-329.4,125.9c0,0,-150.4,158,-150.4,433.9c0,0,0,275.2,147.1,437.7c0,0,139.6,155.1,361.7,155.1c0,0,152.2,0,263.2,-59.7c0,0,161,-85.9,197,-301l-146.6,0c0,0,-26.4,120.1,-109,174.9c0,0,-82.7,54.8,-208.5,54.8c0,0,-149.3,0,-251.3,-114c0,0,-102,-114.1,-102,-340c0,0,0,-195.3,84.1,-318c0,0,84.1,-122.6,274.3,-122.6c0,0,145.6,0,241.1,86.1c0,0,95.5,86.2,97.7,278.6l-343.2,0l0,123.2l481,0L1060.9,0L965.6,0L929.8,141.3c0,0,-74.1,-82.6,-131.4,-114.6c0,0,-96.1,-54.9,-244.3,-54.9Z" 
	id="f4_u"
	transform="scale(0.001,-0.001)" />

	<path d="M127.1,-226.7l0,70.4c0,0,51.4,9,72.2,72.6c0,0,11.2,33.7,11.2,65.1c0,0,0,5.2,-0.3,9.3c0,0,-0.4,4.2,-1.9,9.3L127.1,0l0,162.3l159.4,0l0,-150.6c0,0,0,-88.6,-35.8,-155.7c0,0,-35.7,-67.1,-123.6,-82.7Z" 
	id="f4_9"
	transform="scale(0.001,-0.001)" />

	<path d="M445.9,0l0,441.7L30.7,1096.1l174.2,0L519.7,569.3l315,526.8l174.2,0L594.5,441.7L594.5,0Z" 
	id="f4_19"
	transform="scale(0.001,-0.001)" />

	<path d="M580.5,127.1c0,0,137.6,0,196.2,79c0,0,36.8,49.9,36.8,120.7c0,0,0,119.2,-107.5,162.5c0,0,-57.1,23.1,-151,23.1l-296.9,0l0,-385.3Zm-50,505.5c0,0,94.8,0,147.5,26.1c0,0,82.7,41,82.7,147.7c0,0,0,107.3,-88,144.6c0,0,-49.7,20.9,-147.5,20.9l-267.1,0l0,-339.3ZM112.4,0l0,1096.1l473.5,0c0,0,193.6,0,275.4,-115c0,0,48,-67.9,48,-156.7c0,0,0,-103.7,-59,-170.2c0,0,-30.6,-35.1,-88.1,-64.2c0,0,84.3,-32,126.1,-72.3c0,0,73.8,-71.6,73.8,-197.7c0,0,0,-105.9,-66.7,-191.7C895.4,128.3,795.6,0,578.2,0Z" 
	id="f4_p"
	transform="scale(0.001,-0.001)" />

	<path d="M52.8,-310.8c0,0,118.7,231.2,153.1,337c0,0,52.2,160.4,52.2,376c0,0,0,215.6,-60.4,394.7c0,0,-37.3,110.4,-146.9,317.8l90,0c0,0,114.9,-183.5,139.1,-226.4c0,0,24.3,-42.9,52.6,-118.3c0,0,35.8,-93.2,51.1,-184.2c0,0,15.3,-91.1,15.3,-175.3c0,0,0,-220.9,-70.2,-394c0,0,-44.1,-111,-183,-327.3Z" 
	id="f4_7"
	transform="scale(0.001,-0.001)" />

	<path d="M396.9,90c0,0,140.1,0,193,131.3c0,0,29.1,72.4,29.1,185.1c0,0,0,103.7,-32.1,173.1c0,0,-54.4,118.6,-191.5,118.6c0,0,-87.1,0,-149.4,-75.7c0,0,-62.2,-75.7,-62.2,-233.9c0,0,0,-103.8,29.1,-173.9c0,0,51.4,-124.6,184,-124.6ZM613.1,-318.6l0,410.1c0,0,-33.5,-53.7,-92.7,-85.3c0,0,-59.3,-31.5,-147.9,-31.5c0,0,-127.4,0,-227.9,99.8C144.6,74.5,44,174.4,44,378.7c0,0,0,191.7,94.3,314.7c0,0,94.3,123,244.1,123c0,0,99.1,0,166.9,-49.8c0,0,37.3,-26.8,71.6,-78.9l0,111.1l126.1,0l0,-1117.4Z" 
	id="f4_1q"
	transform="scale(0.001,-0.001)" />

	<path d="M131,0l0,162.3l155.5,0L286.5,0Z" 
	id="f4_b"
	transform="scale(0.001,-0.001)" />

	<path d="M437.1,90.9c0,0,105.9,0,158.6,71.3c0,0,52.6,71.3,52.6,168.4c0,0,0,82.1,-47,156.4c0,0,-47.1,74.3,-171,74.3c0,0,-86.5,0,-151.8,-57.5c0,0,-65.3,-57.5,-65.3,-173.2c0,0,0,-101.6,59.3,-170.6c0,0,59.3,-69.1,164.6,-69.1ZM425.3,-28.2c0,0,-149.8,0,-258.7,113.7c0,0,-108.9,113.8,-108.9,383.3c0,0,0,199.3,48.4,338.1c0,0,93.2,265.7,340.7,265.7c0,0,178.9,0,249.3,-92.9c0,0,70.5,-93,70.5,-191.6l-133,0c0,0,-11.9,63.4,-38,99.1c0,0,-48.5,67.1,-146.8,67.1c0,0,-112.6,0,-179,-104c0,0,-66.3,-104.1,-73.8,-298c0,0,46.3,67.8,116.4,101.3c0,0,64.2,29.9,143.3,29.9c0,0,134.3,0,234.3,-85.8c0,0,100,-85.8,100,-256c0,0,0,-145.5,-94.7,-257.7c0,0,-94.7,-112.2,-270,-112.2Z" 
	id="f4_g"
	transform="scale(0.001,-0.001)" />

	<path d="M208.3,0c0,0,50.7,305.8,223.7,608.7c0,0,102.2,177.5,214.8,306.5l-591.1,0l0,134.9l743.1,0l0,-117c0,0,-51.4,-50,-136.7,-173.8c0,0,-85.4,-123.9,-151,-267c0,0,-64.8,-139.5,-98.3,-254.4c0,0,-21.6,-73.8,-55.9,-237.9Z" 
	id="f4_h"
	transform="scale(0.001,-0.001)" />

	<path d="M1041.7,105.6c0,0,63.6,0,108.9,45.4c0,0,45.2,45.3,45.2,109.1c0,0,0,63.7,-45.2,109.1c0,0,-45.3,45.4,-108.9,45.4c0,0,-64.3,0,-109.6,-45.4c0,0,-45.3,-45.4,-45.3,-109.1c0,0,0,-63.8,45.3,-109.1c0,0,45.3,-45.4,109.6,-45.4ZM1041.7,0c0,0,-108.2,0,-184.3,76.2c0,0,-76.2,76.3,-76.2,183.9c0,0,0,107.6,76.2,183.8c0,0,76.1,76.3,184.3,76.3c0,0,107.5,0,183.6,-76.3c0,0,76.1,-76.2,76.1,-183.8c0,0,0,-107.6,-76.1,-183.9c0,0,-76.1,-76.2,-183.6,-76.2ZM308.6,621.9c0,0,64.3,0,109.6,45.2c0,0,45.3,45.2,45.3,108.8c0,0,0,63.5,-45.3,108.7c0,0,-45.3,45.3,-109.6,45.3c0,0,-63.6,0,-108.8,-44.9c0,0,-45.3,-44.8,-45.3,-109.1c0,0,0,-63.6,45.2,-108.8c0,0,45.3,-45.2,108.9,-45.2Zm0,-105.6c0,0,-107.5,0,-183.6,76.1c0,0,-76.1,76.1,-76.1,183.6c0,0,0,107.5,76.1,183.9c0,0,76.1,76.5,183.6,76.5c0,0,108.2,0,184.3,-76.5c0,0,76.2,-76.4,76.2,-183.9c0,0,0,-107.5,-76.2,-183.6c0,0,-76.1,-76.1,-184.3,-76.1Zm27,-544.5l597.6,1092l83.4,0L419,-28.2Z" 
	id="f4_4"
	transform="scale(0.001,-0.001)" />

	<path d="M95.8,0l0,1096.1l129.1,0l0,-636.5L568.8,798.8l171.4,0L433.7,502L757.5,0L586,0L335,406.6L224.9,299.8L224.9,0Z" 
	id="f4_1k"
	transform="scale(0.001,-0.001)" />

	<path d="M131,0l0,1096.1l796,0l0,-134l-651.3,0l0,-333.4l602.4,0l0,-127.1l-602.4,0l0,-371.6l662,0l0,-130Z" 
	id="f4_s"
	transform="scale(0.001,-0.001)" />

	<path d="M604.7,100.7c0,0,196.5,0,284.3,140.8c0,0,87.8,140.7,87.8,323.6c0,0,0,193.4,-101.2,311.3c0,0,-101.3,118,-276.9,118c0,0,-170.4,0,-277.9,-116.8c0,0,-107.6,-116.9,-107.6,-344.6c0,0,0,-182.2,92.2,-307.2c0,0,92.3,-125.1,299.3,-125.1ZM586.5,-32.2c0,0,-253,0,-397.7,167c0,0,-129.2,161.1,-129.2,407.3c0,0,0,222.3,110.5,380.4c0,0,141.8,202.9,419.4,202.9c0,0,290.3,0,429.9,-186.5c0,0,109,-145.4,109,-372.2c0,0,0,-245.4,-124.7,-408c0,0,-146.2,-190.9,-417.2,-190.9Z" 
	id="f4_10"
	transform="scale(0.001,-0.001)" />

	<path d="M394,0l0,966.1l-369.6,0l0,130l889.8,0l0,-130l-369.6,0L544.6,0Z" 
	id="f4_14"
	transform="scale(0.001,-0.001)" />

	<path d="M680.4,449.8L511.9,933.6L336.8,449.8ZM22,0L434.2,1096.1l168,0L999.7,0L837.1,0L722.7,328.5l-429.8,0L174.1,0Z" 
	id="f4_o"
	transform="scale(0.001,-0.001)" />

	<path d="M8.2,0L289.4,409.5L22.4,798.8l173.8,0L379.7,517.6L565.5,798.8l163.3,-3.7L459.5,409.5L740.8,0L569.2,0L370.8,299.8L178.3,0Z" 
	id="f4_1x"
	transform="scale(0.001,-0.001)" />

	<path d="M334.3,0L256,1100l243.9,0L511.1,470.1L505.2,294.8l68.6,171.6L832.6,1100l242.8,0l-3.8,-629.9l-3.7,-175.3l69.4,168.6L1420,1100l233.5,0L1110.4,0L890.8,0l3.7,643.3l6,212.7L817,643.3L547.7,0Z" 
	id="f1_j"
	transform="scale(0.001,-0.001)" />

	<path d="M736.3,613.1c0,0,77.6,0,120.1,17.9c0,0,75.3,31.3,95.5,123.7c0,0,20.9,100,-38.1,134.3c0,0,-33.5,19.4,-108.1,19.4l-267.1,0L475.9,613.1ZM121.6,0L355.1,1099l539.3,0c0,0,114.9,-2.2,171.6,-28.3c0,0,56.7,-26.1,89.5,-76.8c0,0,26.9,-41.7,37,-92.4c0,0,10,-50.7,-3.4,-115.5c0,0,-17.2,-78.3,-72.7,-153.9c0,0,-55.6,-75.7,-153.3,-107c0,0,69.3,-30.6,89.1,-86.9c0,0,19.8,-56.3,-4.8,-171.9l-15.7,-73.9c0,0,-15.7,-75.3,-15.7,-102.2c0,0,0,-42.5,28.4,-62.6L1039.2,0L786.3,0c0,0,-3,36.6,-3,58.9c0,0,0.7,46.3,10.4,94.8l20.2,102.2c0,0,20.9,105.2,-8.6,140.2c0,0,-29.5,35.1,-130.9,35.1l-237.3,0L346.1,0Z" 
	id="f1_f"
	transform="scale(0.001,-0.001)" />

	<path d="M484.9,174.1c0,0,74.6,0,138,56.4c0,0,63.4,56.4,89.5,179.8c0,0,24.6,115.9,-11.2,176.4c0,0,-35.8,60.6,-117.8,60.6c0,0,-111.9,0,-176.8,-105.4c0,0,-34.4,-56.1,-52.3,-138.3c0,0,-14.9,-71.1,-2.2,-126.4c0,0,20.9,-103.1,132.8,-103.1ZM361.1,-332.3c0,0,-155.9,0,-241.4,61c0,0,-85.4,61.1,-70.5,182.4l231.3,0c0,0,1.5,-37,17.9,-53.2c0,0,28.3,-28.9,109.7,-28.9c0,0,114.8,0,170,76.6c0,0,35.9,49.1,60.5,165l11.1,52.1c0,0,-41.7,-52.1,-82.8,-78.2c0,0,-73.8,-48.3,-175.3,-48.3c0,0,-156.6,0,-226.7,110c0,0,-70.2,110.1,-29.9,298.3c0,0,38.1,181.4,154.8,305c0,0,116.8,123.6,282.4,123.6c0,0,61.1,0,102.2,-18.9c0,0,70.8,-32,100.7,-117.8l24.6,117.1l206.6,0L842.2,42.1c0,0,-32.8,-157.3,-102.9,-237.2c0,0,-120.1,-137.2,-378.2,-137.2Z" 
	id="f1_r"
	transform="scale(0.001,-0.001)" />

	<path d="M112.6,0L346.1,1100l334.2,0L696,235.1L1078.7,1100l330.5,0L1175.7,0L961.6,0L1119,744c0,0,7.4,32.1,20.5,90c0,0,13,57.8,19,89.1L754.9,0l-223,0L520.7,923.1c0,0,-6,-31.3,-17.5,-89.1c0,0,-11.6,-57.9,-19.1,-90L326.7,0Z" 
	id="f1_c"
	transform="scale(0.001,-0.001)" />


</defs>
</svg>